<svg xmlns="http://www.w3.org/2000/svg" xmlns:xlink="http://www.w3.org/1999/xlink" viewBox="0 0 800 800"><defs><style>.cls-1,.cls-10,.cls-13,.cls-14,.cls-15{fill:none;}.cls-2{fill:#eaeae9;}.cls-11,.cls-3{fill:#da4f9b;}.cls-4{fill:#c0d860;}.cls-5{fill:#bfddd6;}.cls-6{fill:#ec1e24;}.cls-7{fill:#b0dce4;}.cls-8{fill:#ccd5da;}.cls-9{fill:#f1c05e;}.cls-10{stroke:#ccd5da;stroke-linecap:round;stroke-linejoin:round;stroke-width:10px;}.cls-11{opacity:0.48;}.cls-12{opacity:0.7;}.cls-13{stroke:#ec1e24;stroke-width:2px;}.cls-13,.cls-14,.cls-15{stroke-miterlimit:10;}.cls-14{stroke:#f1c05e;}.cls-14,.cls-15{stroke-width:3px;}.cls-15{stroke:#c0d860;}.cls-16{fill:#00c01c;}.cls-17{fill:#301851;}.cls-18{fill:#fff;}.cls-19{fill:#66e675;}.cls-20{fill:#721d13;}.cls-21{fill:#ffbf66;opacity:0.54;}.cls-22{fill:#410067;}.cls-23{fill:#060302;}.cls-24{fill:#f8efe7;}.cls-25{fill:#f4c79c;}.cls-26{fill:#aa5a2f;}.cls-27{fill:#eaa16b;}.cls-28{fill:#797a7d;}.cls-29{fill:#2a170e;}.cls-30{fill:#f9d3ac;}.cls-31{opacity:0.46;}.cls-32{clip-path:url(#clip-path);}.cls-33{fill:#999;}.cls-34{opacity:0.53;}.cls-35{clip-path:url(#clip-path-2);}.cls-36{fill:#333;}.cls-37{opacity:0.41;}.cls-38{clip-path:url(#clip-path-3);}</style><clipPath id="clip-path"><path id="_Clipping_Path_" data-name="&lt;Clipping Path&gt;" class="cls-1" d="M265,421.84s-11-16.66-35-40.66-47-20-47-20,21.45-18,54-23.81,78.53,11.81,78.53,11.81,13.53-65.5,0-95-43.59-48.59-54.47-52.5,48,.5,91.95,28,55.49,87.5,55.49,87.5,20.6-30.17,24.5-64-14.5-46.5-14.5-46.5,29.5,29.5,31.5,53.5-17.5,63-17.5,63,32,0,55.5,15,24.5,54.95,24.5,54.95,28.2-5.6,58.5-4.42,41.5,10.68,41.5,10.68-6.5,2.7-40,9S525,437.68,525,437.68s11.5-3,37.5-5,28.5,2.47,28.5,2.47l-76,57.57,28-.21s2.88-5.73-20,15.62-28.75,17.55-28.75,17.55l12.25-30.16-8-15.05-13-8.29-6.78,3.5v-13L467,471.18s2.5-2,4-18.49-1-22-1-22-2.65,9.51-20.09,27.51S426,477.69,426,477.69s-.15,1,4.18-17,0-30,0-30S413.47,452.38,406,464.78s-10.2,35.27-10.2,35.27-10.27.12-17.78-28.38,13.46-47.5,13.46-47.5-30.24,14.58-39.86,21.29-21.11,26.21-21.11,26.21-.77-9.78,3.86-22.89,10.55-31.11,10.55-31.11a52,52,0,0,0-26.65,31.78c-6.76,23.22-2.73,35.72-2.73,35.72l-14-16.5-20,25.63,6.83,21.87s3.17-.55-18.83-14-25-13-25-13,1-3,10.5-4.49a77.11,77.11,0,0,1,19.9,0s-16.9-28.91-35.4-39.21-41-19.29-41-19.29,14.5-4.54,29-4.27,38.5,8.77,38.5,8.77Z"/></clipPath><clipPath id="clip-path-2"><path id="_Clipping_Path_2" data-name="&lt;Clipping Path&gt;" class="cls-1" d="M265.24,421.84s-11-16.66-35-40.66-47-20-47-20,21.45-18,54-23.81,78.53,11.81,78.53,11.81,13.53-65.5,0-95-43.59-48.59-54.47-52.5,48,.5,91.95,28,55.49,87.5,55.49,87.5,20.6-30.17,24.5-64-14.5-46.5-14.5-46.5,29.5,29.5,31.5,53.5-17.5,63-17.5,63,32,0,55.5,15,24.5,54.95,24.5,54.95,28.2-5.6,58.5-4.42,41.5,10.68,41.5,10.68-6.5,2.7-40,9-47.5,29.28-47.5,29.28,11.5-3,37.5-5,28.5,2.47,28.5,2.47l-76,57.57,28-.21s2.88-5.73-20,15.62-28.75,17.55-28.75,17.55l12.25-30.16-8-15.05-13-8.29-6.78,3.5v-13l-11.72,8.5s2.5-2,4-18.49-1-22-1-22-2.65,9.51-20.09,27.51-23.93,19.51-23.93,19.51-.15,1,4.18-17,0-30,0-30-16.68,21.71-24.18,34.11S396,500.06,396,500.06s-10.27.12-17.78-28.38,13.46-47.5,13.46-47.5-30.24,14.58-39.86,21.29-21.11,26.21-21.11,26.21-.77-9.78,3.86-22.89,10.55-31.11,10.55-31.11a52,52,0,0,0-26.65,31.78c-6.76,23.22-2.73,35.72-2.73,35.72l-14-16.5-20,25.63,6.83,21.87s3.17-.55-18.83-14-25-13-25-13,1-3,10.5-4.49a77.11,77.11,0,0,1,19.9,0s-16.9-28.91-35.4-39.21-41-19.29-41-19.29,14.5-4.54,29-4.27,38.5,8.77,38.5,8.77Z"/></clipPath><clipPath id="clip-path-3"><path id="_Clipping_Path_3" data-name="&lt;Clipping Path&gt;" class="cls-1" d="M262.05,421.84s-11-16.66-35-40.66-47-20-47-20,21.45-18,54-23.81,78.53,11.81,78.53,11.81,13.53-65.5,0-95-43.59-48.59-54.47-52.5,48,.5,91.95,28,55.49,87.5,55.49,87.5,20.6-30.17,24.5-64-14.5-46.5-14.5-46.5,29.5,29.5,31.5,53.5-17.5,63-17.5,63,32,0,55.5,15,24.5,54.95,24.5,54.95,28.2-5.6,58.5-4.42,41.5,10.68,41.5,10.68-6.5,2.7-40,9-47.5,29.28-47.5,29.28,11.5-3,37.5-5,28.5,2.47,28.5,2.47l-76,57.57,28-.21s2.88-5.73-20,15.62-28.75,17.55-28.75,17.55l12.25-30.16-8-15.05-13-8.29-6.78,3.5v-13l-11.72,8.5s2.5-2,4-18.49-1-22-1-22-2.65,9.51-20.09,27.51-23.93,19.51-23.93,19.51-.15,1,4.18-17,0-30,0-30-16.68,21.71-24.18,34.11-10.2,35.27-10.2,35.27-10.27.12-17.78-28.38,13.46-47.5,13.46-47.5-30.24,14.58-39.86,21.29-21.11,26.21-21.11,26.21-.77-9.78,3.86-22.89S342,417.68,342,417.68a52,52,0,0,0-26.65,31.78c-6.76,23.22-2.73,35.72-2.73,35.72l-14-16.5-20,25.63,6.83,21.87s3.17-.55-18.83-14-25-13-25-13,1-3,10.5-4.49a77.11,77.11,0,0,1,19.9,0s-16.9-28.91-35.4-39.21-41-19.29-41-19.29,14.5-4.54,29-4.27,38.5,8.77,38.5,8.77Z"/></clipPath></defs><title>Artboard 14</title><g id="Layer_2" data-name="Layer 2"><path id="_Path_" data-name="&lt;Path&gt;" class="cls-2" d="M298.47,236.69s64.61,51.59,131.8,55.56,74.95,23.81,74.95,23.81,25.84,15.87,43.93,0,38.76,29.76,38.76,29.76,20.67,61.51-33.6,31.75,7.75,43.65,7.75,43.65,46.5-6,29.71,25.8S606,496.63,606,496.63s28.43,27.78-15.51,35.72S520.73,570,520.73,570s36.18-45.64-10.34-55.56-134.38,6-134.38,6l-15.51,25.8s-43.93,6-103.37-39.69S177,397.41,127.91,403.37s54.27-71.43,54.27-71.43-33.6-57.54,28.43-75.4S298.47,236.69,298.47,236.69Z"/><path id="_Path_2" data-name="&lt;Path&gt;" class="cls-3" d="M685.54,438.51c22.78,0,45.56-.1,68.33.18,1.94,0,3.86,2.52,5.79,3.86-1.71,1.64-3.18,4.14-5.2,4.73-2.92.85-6.25.36-9.4.37q-61.78,0-123.55,0a53.63,53.63,0,0,0-10.93,1.08c-10.36,2.19-16.44,9.77-16.13,19.62.3,9.61,7.18,17,17.58,18.44,4.84.66,9.76.7,14.66.88,3.06.11,5.62,1.27,4.89,4.48-.37,1.62-3.09,3.75-4.83,3.83-9.24.39-18.6.83-27-4.48-10.64-6.77-16.32-18.39-14-28.82,2.73-12.15,13.07-21.93,25.65-23,10.62-.89,21.34-.78,32-.88,14-.13,28,0,42.06,0Z"/><path id="_Path_3" data-name="&lt;Path&gt;" class="cls-3" d="M377.38,151c11.92,0,23.86-.35,35.76.1,11,.42,20.42,4.78,27.07,13.91,9.46,13,5.59,32.36-8.23,40.32-1.72,1-4.65-.13-7-.27.62-2.24.51-5.45,2-6.57,7.78-5.9,11.41-13.16,8.93-22.84-2.14-8.36-10.16-15-20.43-15.48-16.44-.77-32.93-.66-49.4-.86-7.71-.09-15.43.07-23.14-.09-3.26-.07-7.93,1.16-7.78-4.34s4.85-4,8.06-4c11.39-.14,22.79-.06,34.19-.06Z"/><g id="_Group_" data-name="&lt;Group&gt;"><g id="_Group_2" data-name="&lt;Group&gt;"><path id="_Path_4" data-name="&lt;Path&gt;" class="cls-4" d="M470.41,146.59v13.5a1.5,1.5,0,0,0,3,0v-13.5a1.5,1.5,0,0,0-3,0Z"/></g></g><g id="_Group_3" data-name="&lt;Group&gt;"><g id="_Group_4" data-name="&lt;Group&gt;"><path id="_Path_5" data-name="&lt;Path&gt;" class="cls-4" d="M464.58,155.13H479a1.5,1.5,0,0,0,0-3H464.58a1.5,1.5,0,0,0,0,3Z"/></g></g><g id="_Group_5" data-name="&lt;Group&gt;"><g id="_Group_6" data-name="&lt;Group&gt;"><path id="_Path_6" data-name="&lt;Path&gt;" class="cls-5" d="M656.57,422c-.71,13.23-20.67,13.35-20.67,0s20-13.24,20.67,0c.1,1.92,3.1,1.93,3,0-.39-7.24-5.78-13.34-13.34-13.34a13.33,13.33,0,0,0-.64,26.64c7.8.37,13.58-5.8,14-13.3C659.67,420.12,656.67,420.13,656.57,422Z"/></g></g><circle id="_Path_7" data-name="&lt;Path&gt;" class="cls-6" cx="409.72" cy="129.16" r="3.95"/><g id="_Group_7" data-name="&lt;Group&gt;"><g id="_Group_8" data-name="&lt;Group&gt;"><path id="_Path_8" data-name="&lt;Path&gt;" class="cls-7" d="M540.7,237.65c-7.19,3.16-14.54-4.9-9.75-11.53,4.5-6.24,13.69-2.67,14.08,4.55.1,1.92,3.1,1.93,3,0-.55-10.21-14-15-19.85-5.85-6.09,9.48,4.43,19.65,14,15.42,1.76-.78.24-3.36-1.51-2.59Z"/></g></g><ellipse id="_Path_9" data-name="&lt;Path&gt;" class="cls-8" cx="400.82" cy="638.57" rx="183.85" ry="8.65"/><path id="_Path_10" data-name="&lt;Path&gt;" class="cls-4" d="M313.69,342.28l17.74,14.49a2.85,2.85,0,0,0,2.6.53l22-6.4a2.85,2.85,0,0,1,3.45,3.77L351.18,376a2.85,2.85,0,0,0,.3,2.64l12.89,18.94a2.85,2.85,0,0,1-2.52,4.45L339,400.75a2.85,2.85,0,0,0-2.41,1.1l-14,18.11a2.85,2.85,0,0,1-5-1l-5.84-22.15a2.85,2.85,0,0,0-1.79-2l-21.56-7.75a2.85,2.85,0,0,1-.58-5.08L307,369.6a2.85,2.85,0,0,0,1.31-2.31l.71-22.9A2.85,2.85,0,0,1,313.69,342.28Z"/><path id="_Path_11" data-name="&lt;Path&gt;" class="cls-9" d="M230.66,131.41l6.53,23.73a3.06,3.06,0,0,0,1.95,2.08l23.25,8.07a3.06,3.06,0,0,1,.68,5.45l-20.55,13.54a3.06,3.06,0,0,0-1.38,2.5l-.49,24.6a3.06,3.06,0,0,1-5,2.33l-19.23-15.36a3.06,3.06,0,0,0-2.8-.54L190.1,205a3.06,3.06,0,0,1-3.75-4l8.66-23a3.06,3.06,0,0,0-.35-2.83l-14.07-20.19a3.06,3.06,0,0,1,2.65-4.81l24.58,1.12a3.06,3.06,0,0,0,2.58-1.21l14.86-19.62A3.06,3.06,0,0,1,230.66,131.41Z"/><line id="_Path_12" data-name="&lt;Path&gt;" class="cls-10" x1="429.07" y1="240.95" x2="480.99" y2="240.95"/><line id="_Path_13" data-name="&lt;Path&gt;" class="cls-10" x1="409.72" y1="240.86" x2="414.26" y2="240.86"/><path id="_Path_14" data-name="&lt;Path&gt;" class="cls-4" d="M222.42,144.73c22.78,0,45.56-.1,68.33.18,1.94,0,3.86,2.52,5.79,3.86-1.71,1.64-3.18,4.14-5.2,4.73-2.92.85-6.25.36-9.4.37q-61.78,0-123.55,0A53.63,53.63,0,0,0,147.45,155c-10.36,2.19-16.44,9.77-16.13,19.62.3,9.61,7.18,17,17.58,18.44,4.84.66,9.76.7,14.66.88,3.06.11,5.62,1.27,4.89,4.48-.37,1.62-3.09,3.75-4.83,3.83-9.24.39-18.6.83-27-4.48-10.64-6.77-16.32-18.39-14-28.82,2.73-12.15,13.07-21.93,25.65-23,10.62-.89,21.34-.78,32-.88,14-.13,28,0,42.06,0Z"/><path id="_Path_15" data-name="&lt;Path&gt;" class="cls-4" d="M313.75,194.14c11.92,0,23.86-.35,35.76.1,11,.42,20.42,4.78,27.07,13.91,9.46,13,5.59,32.36-8.23,40.32-1.72,1-4.65-.13-7-.27.62-2.24.51-5.45,2-6.57,7.78-5.9,11.41-13.16,8.93-22.84-2.14-8.36-10.16-15-20.43-15.48-16.44-.77-32.93-.66-49.4-.86-7.71-.09-15.43.07-23.14-.09-3.26-.07-7.93,1.16-7.78-4.34s4.85-4,8.06-4c11.39-.14,22.79-.06,34.19-.06Z"/><g id="_Group_9" data-name="&lt;Group&gt;"><g id="_Group_10" data-name="&lt;Group&gt;"><path id="_Path_16" data-name="&lt;Path&gt;" class="cls-9" d="M678.49,377.26c-5.84,2.57-11.79-4-7.92-9.38,3.66-5.08,11.13-2.18,11.45,3.69.1,1.92,3.1,1.93,3,0-.48-8.83-12.09-13-17.18-5-5.26,8.21,3.85,17,12.16,13.32,1.76-.78.24-3.36-1.51-2.59Z"/></g></g><g id="_Group_11" data-name="&lt;Group&gt;"><g id="_Group_12" data-name="&lt;Group&gt;"><path id="_Path_17" data-name="&lt;Path&gt;" class="cls-3" d="M233.38,244.87c-.36,6.61-10.33,6.67-10.33,0s10-6.62,10.33,0c.1,1.92,3.1,1.93,3,0a8.16,8.16,0,1,0-8.53,8.14c4.76.21,8.28-3.57,8.53-8.14C236.48,242.94,233.48,242.94,233.38,244.87Z"/></g></g><g id="_Group_13" data-name="&lt;Group&gt;"><g id="_Group_14" data-name="&lt;Group&gt;"><path id="_Path_18" data-name="&lt;Path&gt;" class="cls-4" d="M642.95,247.67v13.5a1.5,1.5,0,0,0,3,0v-13.5a1.5,1.5,0,0,0-3,0Z"/></g></g><g id="_Group_15" data-name="&lt;Group&gt;"><g id="_Group_16" data-name="&lt;Group&gt;"><path id="_Path_19" data-name="&lt;Path&gt;" class="cls-4" d="M637.11,256.21h14.38a1.5,1.5,0,0,0,0-3H637.11a1.5,1.5,0,0,0,0,3Z"/></g></g><g id="_Group_17" data-name="&lt;Group&gt;"><g id="_Group_18" data-name="&lt;Group&gt;"><path id="_Path_20" data-name="&lt;Path&gt;" class="cls-4" d="M138.53,334.89v13.5a1.5,1.5,0,0,0,3,0v-13.5a1.5,1.5,0,0,0-3,0Z"/></g></g><g id="_Group_19" data-name="&lt;Group&gt;"><g id="_Group_20" data-name="&lt;Group&gt;"><path id="_Path_21" data-name="&lt;Path&gt;" class="cls-4" d="M132.84,341.75h14.38a1.5,1.5,0,0,0,0-3H132.84a1.5,1.5,0,0,0,0,3Z"/></g></g><g id="_Group_21" data-name="&lt;Group&gt;"><g id="_Group_22" data-name="&lt;Group&gt;"><path id="_Path_22" data-name="&lt;Path&gt;" class="cls-9" d="M162.41,400.65c-5.84,2.57-11.79-4-7.92-9.38,3.66-5.08,11.13-2.18,11.45,3.69.1,1.92,3.1,1.93,3,0-.48-8.83-12.09-13-17.18-5-5.26,8.21,3.85,17,12.16,13.32,1.76-.78.24-3.36-1.51-2.59Z"/></g></g><circle id="_Path_23" data-name="&lt;Path&gt;" class="cls-3" cx="208.94" cy="513" r="5.41"/><circle id="_Path_24" data-name="&lt;Path&gt;" class="cls-4" cx="640.62" cy="307.64" r="4.09"/><g id="_Group_23" data-name="&lt;Group&gt;"><g id="_Group_24" data-name="&lt;Group&gt;"><g id="_Group_25" data-name="&lt;Group&gt;"><path id="_Path_25" data-name="&lt;Path&gt;" class="cls-3" d="M531.15,184.84,524,196.31c-1,1.64,1.57,3.15,2.59,1.51l7.12-11.47c1-1.64-1.57-3.15-2.59-1.51Z"/></g></g><g id="_Group_26" data-name="&lt;Group&gt;"><g id="_Group_27" data-name="&lt;Group&gt;"><path id="_Path_26" data-name="&lt;Path&gt;" class="cls-3" d="M521.74,189,534,196.59c1.64,1,3.15-1.57,1.51-2.59l-12.21-7.59c-1.64-1-3.15,1.57-1.51,2.59Z"/></g></g></g><g id="_Group_28" data-name="&lt;Group&gt;"><g id="_Group_29" data-name="&lt;Group&gt;"><g id="_Group_30" data-name="&lt;Group&gt;"><g id="_Group_31" data-name="&lt;Group&gt;"><path id="_Path_27" data-name="&lt;Path&gt;" class="cls-5" d="M206.07,209.15l-7.12,11.47c-1,1.64,1.57,3.15,2.59,1.51l7.12-11.47c1-1.64-1.57-3.15-2.59-1.51Z"/></g></g><g id="_Group_32" data-name="&lt;Group&gt;"><g id="_Group_33" data-name="&lt;Group&gt;"><path id="_Path_28" data-name="&lt;Path&gt;" class="cls-5" d="M196.66,213.31l12.21,7.59c1.64,1,3.15-1.57,1.51-2.59l-12.21-7.59c-1.64-1-3.15,1.57-1.51,2.59Z"/></g></g></g></g><g id="_Group_34" data-name="&lt;Group&gt;"><g id="_Group_35" data-name="&lt;Group&gt;"><g id="_Group_36" data-name="&lt;Group&gt;"><g id="_Group_37" data-name="&lt;Group&gt;"><path id="_Path_29" data-name="&lt;Path&gt;" class="cls-4" d="M631.1,454.17,624,465.64c-1,1.64,1.57,3.15,2.59,1.51l7.12-11.47c1-1.64-1.57-3.15-2.59-1.51Z"/></g></g><g id="_Group_38" data-name="&lt;Group&gt;"><g id="_Group_39" data-name="&lt;Group&gt;"><path id="_Path_30" data-name="&lt;Path&gt;" class="cls-4" d="M621.69,458.33l12.21,7.59c1.64,1,3.15-1.57,1.51-2.59l-12.21-7.59c-1.64-1-3.15,1.57-1.51,2.59Z"/></g></g></g></g><path id="_Path_31" data-name="&lt;Path&gt;" class="cls-11" d="M496,250.5c12.6,0,25.22-.43,37.81.12,11.62.51,21.59,5.79,28.62,16.84,10,15.72,5.91,39.15-8.7,48.78-1.82,1.2-4.91-.15-7.42-.32.66-2.71.54-6.59,2.1-7.94,8.22-7.14,12.07-15.92,9.44-27.63a23.64,23.64,0,0,0-21.6-18.73c-17.38-.94-34.81-.8-52.22-1-8.15-.11-16.31.08-24.47-.11-3.45-.08-8.39,1.4-8.22-5.25s5.13-4.82,8.52-4.87c12-.17,24.1-.07,36.15-.07Z"/><g id="_Group_40" data-name="&lt;Group&gt;" class="cls-12"><g id="_Group_41" data-name="&lt;Group&gt;"><path id="_Path_32" data-name="&lt;Path&gt;" class="cls-4" d="M132.84,257.42h37.87c3.86,0,3.87-6,0-6H132.84c-3.86,0-3.87,6,0,6Z"/></g></g><path id="_Path_33" data-name="&lt;Path&gt;" class="cls-13" d="M235.18,314.55l-4.49,7.22"/><path id="_Path_34" data-name="&lt;Path&gt;" class="cls-13" d="M242.76,302.34l-4.57,7.36"/><path id="_Path_35" data-name="&lt;Path&gt;" class="cls-13" d="M239.73,314.51l6.87,4.26"/><path id="_Path_36" data-name="&lt;Path&gt;" class="cls-13" d="M225.9,305.92l7.48,4.64"/><g id="_Group_42" data-name="&lt;Group&gt;"><path id="_Path_37" data-name="&lt;Path&gt;" class="cls-14" d="M168.35,485.94,162.71,495"/><path id="_Path_38" data-name="&lt;Path&gt;" class="cls-14" d="M177.9,470.57l-5.75,9.27"/><path id="_Path_39" data-name="&lt;Path&gt;" class="cls-14" d="M174.09,485.89l8.64,5.37"/><path id="_Path_40" data-name="&lt;Path&gt;" class="cls-14" d="M156.68,475.08l9.41,5.85"/><path id="_Path_41" data-name="&lt;Path&gt;" class="cls-14" d="M167.26,483.84l-10.34,2.75"/><path id="_Path_42" data-name="&lt;Path&gt;" class="cls-14" d="M184.74,479.19,174.2,482"/><path id="_Path_43" data-name="&lt;Path&gt;" class="cls-14" d="M171.47,487.74l2.62,9.83"/><path id="_Path_44" data-name="&lt;Path&gt;" class="cls-14" d="M166.2,467.93l2.85,10.71"/></g><g id="_Group_43" data-name="&lt;Group&gt;"><g id="_Group_44" data-name="&lt;Group&gt;"><path id="_Path_45" data-name="&lt;Path&gt;" class="cls-15" d="M674.74,316l-5.65,9.09"/><path id="_Path_46" data-name="&lt;Path&gt;" class="cls-15" d="M684.28,300.63l-5.75,9.27"/><path id="_Path_47" data-name="&lt;Path&gt;" class="cls-15" d="M680.47,316l8.64,5.37"/><path id="_Path_48" data-name="&lt;Path&gt;" class="cls-15" d="M663.06,305.14l9.41,5.85"/><path id="_Path_49" data-name="&lt;Path&gt;" class="cls-15" d="M673.65,313.9l-10.34,2.75"/><path id="_Path_50" data-name="&lt;Path&gt;" class="cls-15" d="M691.13,309.25l-10.54,2.81"/><path id="_Path_51" data-name="&lt;Path&gt;" class="cls-15" d="M677.86,317.8l2.62,9.83"/><path id="_Path_52" data-name="&lt;Path&gt;" class="cls-15" d="M672.59,298l2.85,10.71"/></g></g><path id="_Path_53" data-name="&lt;Path&gt;" class="cls-13" d="M675.69,401.27l-4.49,7.22"/><path id="_Path_54" data-name="&lt;Path&gt;" class="cls-13" d="M683.27,389.06l-4.57,7.36"/><path id="_Path_55" data-name="&lt;Path&gt;" class="cls-13" d="M680.25,401.23l6.87,4.26"/><path id="_Path_56" data-name="&lt;Path&gt;" class="cls-13" d="M666.41,392.64l7.48,4.64"/><path id="_Path_57" data-name="&lt;Path&gt;" class="cls-13" d="M201.36,288.29l-4.49,7.22"/><path id="_Path_58" data-name="&lt;Path&gt;" class="cls-13" d="M208.94,276.08l-4.57,7.36"/><path id="_Path_59" data-name="&lt;Path&gt;" class="cls-13" d="M205.92,288.25l6.87,4.26"/><path id="_Path_60" data-name="&lt;Path&gt;" class="cls-13" d="M192.08,279.66l7.48,4.64"/><g id="_Group_45" data-name="&lt;Group&gt;"><path id="_Compound_Path_" data-name="&lt;Compound Path&gt;" class="cls-16" d="M254,703.09l-5,15.27h-6.48L259,669.83h7.56l16.56,48.53h-6.7l-5.18-15.27Zm15.91-4.9-4.75-14c-1.08-3.17-1.8-6-2.52-8.86h-.14c-.72,2.88-1.51,5.83-2.45,8.78l-4.75,14Z"/><path id="_Compound_Path_2" data-name="&lt;Compound Path&gt;" class="cls-16" d="M290.2,718.36V669.83H297l15.55,24.55a137.4,137.4,0,0,1,8.71,15.77l.14-.07c-.58-6.48-.72-12.39-.72-19.95V669.83h5.9v48.53H320.3l-15.41-24.63a154.1,154.1,0,0,1-9.07-16.2l-.22.07c.36,6.12.5,12,.5,20v20.74Z"/><path id="_Compound_Path_3" data-name="&lt;Compound Path&gt;" class="cls-16" d="M343.84,669.83v48.53h-6.26V669.83Z"/><path id="_Compound_Path_4" data-name="&lt;Compound Path&gt;" class="cls-16" d="M395.68,697c-.36-6.77-.79-14.91-.72-21h-.22c-1.66,5.69-3.67,11.74-6.12,18.43l-8.57,23.55H375.3L367.46,695c-2.3-6.84-4.25-13.1-5.62-18.87h-.14c-.14,6-.5,14.19-.94,21.46l-1.3,20.81h-6l3.38-48.53h8l8.28,23.47c2,6,3.67,11.31,4.9,16.35h.22c1.22-4.9,3-10.22,5.11-16.35L392,669.83h8l3,48.53h-6.12Z"/><path id="_Compound_Path_5" data-name="&lt;Compound Path&gt;" class="cls-16" d="M419.8,703.09l-5,15.27h-6.48l16.49-48.53h7.56l16.56,48.53h-6.7L437,703.09Zm15.91-4.9-4.75-14c-1.08-3.17-1.8-6-2.52-8.86h-.14c-.72,2.88-1.51,5.83-2.45,8.78l-4.75,14Z"/><path id="_Compound_Path_6" data-name="&lt;Compound Path&gt;" class="cls-16" d="M456,718.36V669.83h6.84l15.55,24.55a137.62,137.62,0,0,1,8.71,15.77l.14-.07c-.58-6.48-.72-12.39-.72-19.95V669.83h5.9v48.53h-6.34L470.7,693.73a154.18,154.18,0,0,1-9.07-16.2l-.22.07c.36,6.12.5,12,.5,20v20.74Z"/><path id="_Compound_Path_7" data-name="&lt;Compound Path&gt;" class="cls-16" d="M509.65,669.83v48.53h-6.26V669.83Z"/><path id="_Compound_Path_8" data-name="&lt;Compound Path&gt;" class="cls-16" d="M528.45,703.09l-5,15.27h-6.48l16.49-48.53H541l16.56,48.53h-6.7l-5.18-15.27Zm15.91-4.9-4.75-14c-1.08-3.17-1.8-6-2.52-8.86h-.14c-.72,2.88-1.51,5.83-2.45,8.78l-4.75,14Z"/></g><g id="_Group_46" data-name="&lt;Group&gt;"><g id="_Group_47" data-name="&lt;Group&gt;"><path id="_Path_61" data-name="&lt;Path&gt;" class="cls-17" d="M578,652.74V759.13c0,3.86,6,3.87,6,0V652.74c0-3.86-6-3.87-6,0Z"/></g></g><g id="_Group_48" data-name="&lt;Group&gt;"><g id="_Group_49" data-name="&lt;Group&gt;"><path id="_Path_62" data-name="&lt;Path&gt;" class="cls-17" d="M502.36,739H608.74c3.86,0,3.87-6,0-6H502.36c-3.86,0-3.87,6,0,6Z"/></g></g><g id="_Group_50" data-name="&lt;Group&gt;"><line id="_Path_63" data-name="&lt;Path&gt;" class="cls-18" x1="465.36" y1="747.56" x2="571.74" y2="747.56"/><g id="_Group_51" data-name="&lt;Group&gt;"><path id="_Path_64" data-name="&lt;Path&gt;" class="cls-19" d="M465.36,750.56H571.74c3.86,0,3.87-6,0-6H465.36c-3.86,0-3.87,6,0,6Z"/></g></g></g><g id="Layer_1" data-name="Layer 1"><path id="_Path_65" data-name="&lt;Path&gt;" class="cls-20" d="M391.12,445.18l8.76-1.31.12.8-8.77,1.22Z"/><path id="_Path_66" data-name="&lt;Path&gt;" class="cls-21" d="M414,537.64c-69.84-48-61-127.14-61-127.14l-91.37,91.3c6.43,1.67,11.55,5.91,15.78,10.9q2.74,2.36,5.31,4.83a5.52,5.52,0,0,1,.79.24,44.87,44.87,0,0,1,17.11,11.75,36.6,36.6,0,0,1,11.88,10.55,4.6,4.6,0,0,1,.91,2.41,28.51,28.51,0,0,1,9.77-1.89,3.45,3.45,0,0,1,.5,0l.5,0h.06a4.54,4.54,0,0,1,3.94-2c5.39,0,6.26,7,2.64,9.28a5.13,5.13,0,0,1,.36,1.72.81.81,0,0,1,.06.26l.08.17.22.2a1.15,1.15,0,0,1,.22.17l.6.32.15.05a5.12,5.12,0,0,1,3.62,4.86c4.81,2.94,8.37,7.12,12.34,11,13.73,6.92,27.19,14.37,40.44,22.17a33.62,33.62,0,0,0,4.76,1.09,3.78,3.78,0,0,1,.66-.23c11.13-8.81,25.09-12.46,37.34-19.42a5.12,5.12,0,0,1,2.07-.67A87.19,87.19,0,0,1,448,562q2.43-2.12,4.81-4.3A173.94,173.94,0,0,1,414,537.64Z"/><path id="_Compound_Path_9" data-name="&lt;Compound Path&gt;" class="cls-22" d="M181.51,365.26l-8.39.31-1.79.56-.62-.53,6.95-9.23c1.33-1.16,2.6-2.43,4-3.47,3.17-2.33,6.42-4.55,9.64-6.81l7.9-3.89,9.32-4,7.87-2.42,5.89-1.48,2-.28.54-.26,3.84-.63,1-.14.55-.2,4.3-.58,9.82-1,3.93,0,1.47-.06,1-.07.6,0h1.37l4.93,0,1.91.06,1.53.08,4.92.07,6.27.55,10.39,1.51,20.42,5.26A79.37,79.37,0,0,0,292,322l-4.33-5-4.88-4.92-5-4.38-5.88-4.43-4.51-2.92-6.3-3.47-4-1.94-4.39-2-8.37-2.81L240,288.89l-5.43-.86-10.85-1.37.09-.15.89-.77,1.48-.08,9.32.71,6.36.89,6.35,1,7.95,1.73,8.84,3,6.9,3.34,7.86,5,7.33,6,5.89,5.91,3.9,4.47,5,6.75L308,335.58l4.46-18.05-.09-.78.59-2.14,1-8.85.14-2.16.31-2.24v-7.87l-.41-7.86-1.6-12.27L310.12,265l-2-6.49-3.86-9.73-3.35-6.42L296.84,236l-2.39-3.44-4.29-5-5.88-5.87c-2.11-1.63-4.21-3.28-6.33-4.9-1.35-1-2.72-2-4.08-3l-13.77-7.29-12.35-4.39c-.15-.05-.35,0-.48,0-.94-.5-1.87-1-2.8-1.55.84-.7,1.59-1.83,2.54-2a73.61,73.61,0,0,1,12-2.13c6.57-.36,13.18-.13,19.77-.15l23.52,3.62L321,205.49l12.74,5,5.92,2.83,7.88,4.34,11.68,7.67,9.7,7.77,6.6,6.27,3.4,3.52,4.38,5,6.4,8.27,6.94,10.69,2,3.45,4.86,9.92,4,10.71,3,12.27.64.3,8-16,2.16-5.75,3.8-13.89L426,263l.67-5.76.1-1.23.06,0c0-.06.11-.14.09-.19a2.06,2.06,0,0,0-.2-.34l.24-.8v-6.91l-.84-8.33L425,233.57l-1.89-6.88-3.52-9.81-3.49-7.35-7.1-9.9-5.48-5.86-5.08-4.41.92-1.12,19,12.53L426,207.2l6.45,6.8,4.38,5.35,7.38,11.29,2.83,5.44,3.56,7.89,3,10.25,1.47,7.35.6,8.32q0,4.72,0,9.44l-.53,4.83-3.14,13.21-1,2.92L444,315.6c19.47,1,35.71,9.25,49.53,22.46,13.66,13,24,28.13,26.68,47.54l10.56-1,4.81-.29,3.46,0,6.14-.39,1.21,0,8.83,0H558l3.58.23,1,.09,6.19.2,1.11.13,2.53.23,5.9.57,11.78,1.88,5.35,1.08,15.78,4.41,1.46.51,5.9,2.35,6.87,2.57,3.82,4.94L624,404l-1.48.15-10,1.7L606.82,407,599,408.5l-10.59,2.68L578.72,414l-8.75,3.2-7.85,3.08-25,11.49.24.43L561.15,428l8.36-.5,2-.12,1-.1,2.09-.14,3.35,0,14.63,1.16,9.26,3.19-3.45,3.69L593,439.54l-.4.34-.52.44-5.46,4.13-.4.32-.59.43-7.26,5.93-10.51,9.23-5.21,4.11-1.25,1-.07,0-12.39,9.28-20.85,15,.18.41L547.88,483l8-1.67-8.56,12-8.75,9.32L524.3,514.91l-13.75,9.33-2.49,1.28-1,.61c-6.36,3.06-12.73,6.1-19.07,9.21a13.62,13.62,0,0,0-2.32,1.75,79,79,0,0,1-6.9,5.46,12.12,12.12,0,0,1-13.64.12c-1.31-.81-2.6-1.66-4.1-2.62-1.26,3.79-2.67,7.45-3.66,11.22a13.09,13.09,0,0,1-6,8.08c-7.23,4.45-14.58,8.7-21.9,13-8,4.69-16,9.44-24.1,14a21.76,21.76,0,0,1-21.55.09c-13.7-7.28-27-15.27-40.49-23-.85-.49-1.63-1.09-2.47-1.6-5.17-3.1-9-7.11-10.24-13.34-.55-2.85-1.82-5.56-2.78-8.38-8.81,6.7-14.59,5.11-20.09,1.12L294.57,526.5c-.48-.54-.88-1.31-1.49-1.57-5.6-2.35-9.94-6.4-14.31-10.43l-4.93-4.44-15-10.42c-.7-.49-1.44-.93-2.16-1.39l-5.92-3-10.33-3.88-4.39-1a10.8,10.8,0,0,1-1.86-.44c-.26-.11-.37-.57-.55-.88l5.83-4.08,7.88-3.06a71.64,71.64,0,0,1,20.17-1.62l-20.67-19a.64.64,0,0,0-.15-.44l-.37-.41-4.88-4.33c-2.05-1.74-4.05-3.54-6.17-5.2s-4.31-3.12-6.47-4.67l-6-4L216,438.8l-3-1.95-.58-.36-.48-.16-8.26-3.44-8-2.31-4.42-.54-7.86-.49-2.31-.65-.12-1.25,6.35-4.06,8.9-3.37,5.93-1.46c1-.17,2-.37,3-.52,2.29-.33,4.57-.62,6.86-.93l5.37-.39v0l1.86-.18,2.95-.08.24.06.24-.06,1,0h4.4l1,0,5.38.41h1l.23.07.23-.06,1,.07.49.07,4.37.55,17.14,5,.1-.06-.14,0a10.08,10.08,0,0,0-1.1-2.46c-4.1-5-8.27-9.9-12.42-14.85l-6.94-6.86-7.25-6.43-8-6.39-4.86-3.56-6.92-4.27-3.58-2.44-.38-.37-.88-.43-7-3.64-5.41-2.39L188,366.77Zm171.41,46.56.71.44.13-.3-.87-.1.64-3.47L349,410.17l0,.6Zm114,43.75,2.22-15-10.74,15.89,2.52,3,4.11,5.25Zm24.6,24.61-2.5-2.09c-2.3-1-3.67.61-4.61,2.11-4.2,6.65-8.93,12.94-11.06,20.82-2.85,10.55-6.45,20.89-9.68,31.34-.23.75-.41,1.92,0,2.41,3.79,4.65,8.64,5.25,13.55,1.82L482,532.1c8.23-8.89,14.68-18.86,18.47-30.45.86-2.62,1.2-5.24-.3-7.78ZM310.11,489.5l-.34-.65c-1.89-3-3.57-6.25-5.72-9.11s-3.65-2.64-6.21-.09a46.83,46.83,0,0,0-9.23,14.22c-.23,2-1.06,4.23-.6,6.09,2.67,10.71,8.46,19.79,15.37,28.23,2.21,2.37,4.26,4.92,6.65,7.09,5.4,4.91,8.72,4.86,14.32.14a.93.93,0,0,0,.14-.2c1.86-.63,1-1.86.67-3-3.3-10.52-6.73-21-9.83-31.59-1.19-4-2.55-7.89-5.23-11.18ZM421.3,451.71l-7.55,12.23c-8.39,14.22-13.52,29.43-14,46.67L395.22,509a82.36,82.36,0,0,1-6.68-6.75c-7.11-9-11.29-19.39-14-30.42-3-12-3.32-23.86,1-35.62.11-.31-.09-.73-.14-1.09l.42.17-.41-.14c-6.24,4.87-12.6,9.6-18.69,14.65-4.75,3.94-9.16,8.29-13.56,12.31l5.39,5.72c1.68,1.77,3.31,3.6,5.06,5.31q11.63,11.39,23.31,22.73l0,0,1,.92a59.12,59.12,0,0,0,5.18,4.23c1.62,1.06,2.36,2.25,1.89,4.14a27.23,27.23,0,0,1-1.13,3.45c-1.09,2.3-2.54,2.6-4.64,1.09-1.25-.89-2.49-1.81-3.73-2.72l-3.06-2.84c-1.54,3.3-3.7,4.76-6.23,4.36-5.64-.89-11-9.18-5.51-14.51l-17.85-13.83c-1,2.17-2.19,3.84-2.64,5.68-2.56,10.35-1,20.37,2.9,30.12a2.58,2.58,0,0,0,1.54,1.37c7.54,1.75,15.07,3.63,22.9,1.93a.86.86,0,0,1,.2.14.43.43,0,0,1,.07.2,13.47,13.47,0,0,1-1.65.8c-5.51,1.89-11.11.81-16.72.68-6-.15-9.56-2.78-10.88-8.56l-.39-1-.09-.48c-.8-5.8-2-11.57-2.3-17.39-.29-5.35.83-10.6,4.9-14.86l-1.57-1.13-4.72-3.5-1,2.06-4.46,9.69-1.7-4.71-1.7-11.15-.87.36-4.89.41-.47-.72c1.3-1.6,2.69-3.15,3.89-4.82,1.45-2,3.57-4,4-6.26A107.8,107.8,0,0,1,335,432.61c.28-.62.46-1.29.69-1.94a1.92,1.92,0,0,0-1.4.7c-5.77,7.72-10.44,16-13,25.37-3.46,12.55-3.57,25.33-2.63,38.16.18,2.45,1.26,4.83,1.92,7.24h0l.33,1.56c.12.47.22,1,.38,1.41,4.58,13.27,9.62,26.4,13.57,39.86,2,7,6.07,11.27,12.06,14.44,1.44.76,2.86,1.58,4.28,2.39,11.83,6.79,23.76,13.43,35.46,20.44,5.39,3.23,10.2,3.27,15.52,0,7.83-4.88,15.9-9.38,23.86-14.05,7.32-4.29,14.66-8.57,22-12.89,2.36-1.4,3.6-3.59,4.46-6.19,2.8-8.53,5.83-17,8.68-25.5,4.77-14.2,10.93-28,12.29-43.19.37-4.08,1.19-8.12,1.81-12.18-4.15,6.09-8.22,12.07-13.86,16.78l-5.26,2.67,7.44-17.53c-2.72-.45-10.39,4.13-15.41,8.78,3,2.87,4.06,6.58,4.62,10.52,1,6.67-.08,13.18-1.52,19.67l-.15.92-.86,2.51c-.24.61-.48,1.21-.71,1.82-1.3,3.39-2.77,6.51-7.29,6.23a27.31,27.31,0,0,0-3.61.55c-5.44.42-10.91,1.12-16.24-.79-.44-.16-.74-.71-1.11-1.08,7.58,1.59,14.91.1,22.17-1.9a4.36,4.36,0,0,0,2.53-2.19,50.28,50.28,0,0,0,3.58-24.91c-.35-3.56-1.2-7-4-9.81L428,494.12c2.92,2.56,3,5.41,1.69,8.44-1.47,3.37-3.94,5.69-7.71,5.94-2.82.19-4.51-1.67-5.57-4.3l-6.06,5.21-1.48,1c-2.78.37-5.29-2.38-5.34-5.65a4.11,4.11,0,0,1,1.82-3.53c5.45-4.55,10.75-9.26,16.09-13.94.14-.12.11-.45.11-.45l-4-.77c.4-1.64.7-3.31,1.22-4.91.88-2.68,1.92-5.3,2.89-8,3.54-9.34,4.24-19.17,4.89-29.09Zm-71.83-65.82a8.27,8.27,0,0,1-2.07,1.46c-6.24,1.93-12.54,3.66-18.74,5.72a12,12,0,0,0-4.93,3.25,85.68,85.68,0,0,0-6.31,8.39q-12.29,17.7-24.48,35.48c-1.62,2.37-3,4.91-4.69,7.72,3.05.55,5.54.91,8,1.48,1.91.45,3.4.53,3.25-2.68.72,1.47.93,2.57,1.59,3.11,1.92,1.53,6.78.63,8.53-1.31,3.61-4,7.16-8.05,11-11.87,5.64-5.69,11.59-11.06,17.16-16.81,4-4.09,7.52-8.58,11.26-12.89h5l0-.34-1.64-.27-.42-1.67c1.69-2,3.3-4.08,5.09-6,5.84-6.25,11.78-12.41,17.6-18.67,1.4-1.5,2.53-3.25,3.78-4.89l-.54-.43-1.33.55c-6.94,3-13.88,6-20.85,8.92a6.62,6.62,0,0,1-2.38,0l.95-.37-.47-.56c-1.32.51-2.66,1-3.94,1.57C349.61,384.92,349.59,385.52,349.47,385.89Zm30.93,51.49c2.07-.79,3.67-1.35,5.22-2,8.55-3.65,17.12-7.23,25.61-11,2.92-1.31,6-2.34,8.11-5.2a168.72,168.72,0,0,0,17.81-28.93c4.74-10,9.35-20.12,14.16-30.11,2.47-5.13,5.23-10.12,7.94-15.13,1.32-2.44,2.8-4.79,4.44-7.59a9.39,9.39,0,0,0-1.54.19c-9.45,3.61-19,7-28.3,10.92-8.5,3.55-16.77,7.64-25.16,11.43a12.92,12.92,0,0,0-5.22,4.2c-5.15,6.83-10.09,13.92-16,20.08-12.17,12.75-24.88,25-37.38,37.4-5.44,5.41-11,10.68-13.07,18.51-.76,2.94-1.83,5.79-2.76,8.69l.59.67c3.74-.68,7.51-1.21,11.2-2.08,3-.7,6.25-1.2,8.65-2.87,8-5.53,15.53-11.63,23.4-17.3,2.27-1.63,5.06-2.53,7.62-3.77l.4.66C384.09,428.28,381,432,380.4,437.38Zm75.25-34.14c.58.05.84.16,1,.08,2-.77,3.92-1.56,5.88-2.35,12-4.85,24.11-9.21,36.76-11.95,2.34-.51,2.65-1.56,2.06-3.64a125.3,125.3,0,0,0-16-34.79c-1.58-2.4-3.36-4.66-5.48-7.59C473.26,364.13,465.66,384,455.64,403.24ZM261,396.61c2.91,5,5.54,9.39,8,13.85A82,82,0,0,1,277.79,436c.44,2.56.51,5.18.92,7.75a2.39,2.39,0,0,0,1.4,1.67c.5.1,1.39-.61,1.77-1.19,3.57-5.46,6.92-11.07,10.63-16.42,5.4-7.78,11-15.4,16.6-23.05,2-2.78,4.21-5.46,6.32-8.19l-.25-.58C297.28,399.68,279.32,399.19,261,396.61Zm178.89,13.72.48.45c3.39-1.52,6.8-3,10.14-4.61a4,4,0,0,0,1.47-1.89c4.57-9.55,9.32-19,13.58-28.7,3.24-7.38,5.88-15,8.72-22.58,1.27-3.36,2.41-6.77,3.55-10.18.48-1.44-.79-4.63-2.09-4.62-.88,0-2,1.23-2.56,2.2-2.86,5.31-5.78,10.61-8.27,16.09C460.12,367,455.7,377.67,451,388.22c-1.85,4.17-4,8.21-6,12.28C443.34,403.8,441.58,407.05,439.87,410.33ZM349.1,372h4.85l0-.26-2.11-.38.71-1.53C349.13,369,349,369.09,349.1,372Zm-13.33,57.78.3.14c.11-.11.31-.21.32-.32a1.53,1.53,0,0,0-.18-.54Z"/><path id="_Compound_Path_10" data-name="&lt;Compound Path&gt;" class="cls-23" d="M380.4,437.38c.55-5.38,3.69-9.1,5.74-13.27l-.4-.66c-2.55,1.24-5.35,2.14-7.62,3.77-7.87,5.67-15.43,11.78-23.4,17.3-2.4,1.66-5.69,2.16-8.65,2.87-3.69.87-7.46,1.4-11.2,2.08l-.59-.67c.93-2.89,2-5.75,2.76-8.69,2-7.83,7.63-13.1,13.07-18.51,12.5-12.43,25.21-24.65,37.38-37.4,5.88-6.17,10.82-13.25,16-20.08a12.92,12.92,0,0,1,5.22-4.2c8.4-3.79,16.67-7.89,25.16-11.43,9.33-3.89,18.86-7.31,28.3-10.92a9.39,9.39,0,0,1,1.54-.19c-1.64,2.79-3.13,5.14-4.44,7.59-2.7,5-5.47,10-7.94,15.13-4.82,10-9.43,20.08-14.16,30.11a168.72,168.72,0,0,1-17.81,28.93c-2.14,2.86-5.19,3.9-8.11,5.2-8.48,3.8-17.06,7.38-25.61,11C384.07,436,382.47,436.59,380.4,437.38Zm-26-16.36-.49.05.19.83Zm-1.44.82.48,0-.19-.78Z"/><path id="_Path_67" data-name="&lt;Path&gt;" class="cls-23" d="M349,406.93c-3.74,4.31-7.29,8.8-11.26,12.89-5.57,5.75-11.52,11.13-17.16,16.81-3.79,3.82-7.34,7.88-11,11.87-1.76,1.94-6.61,2.85-8.53,1.31-.66-.53-.87-1.64-1.59-3.11.15,3.21-1.34,3.12-3.25,2.68-2.44-.57-4.94-.93-8-1.48,1.69-2.8,3.07-5.34,4.69-7.72q12.18-17.78,24.48-35.48a85.68,85.68,0,0,1,6.31-8.39,12,12,0,0,1,4.93-3.25c6.19-2.06,12.5-3.79,18.74-5.72a8.27,8.27,0,0,0,2.07-1.46l4,1.39-.12-3.11a6.62,6.62,0,0,0,2.38,0c7-2.92,13.9-5.93,20.85-8.92l1.33-.55.54.43c-1.25,1.64-2.38,3.39-3.78,4.89-5.83,6.26-11.76,12.42-17.6,18.67-1.79,1.91-3.4,4-5.09,6C349.5,403.54,349,403.91,349,406.93Z"/><path id="_Path_68" data-name="&lt;Path&gt;" class="cls-23" d="M261,396.61c18.34,2.58,36.3,3.07,54.21-.58l.25.58c-2.11,2.73-4.29,5.4-6.32,8.19-5.58,7.65-11.2,15.27-16.6,23.05-3.72,5.36-7.06,11-10.63,16.42-.38.58-1.27,1.29-1.77,1.19a2.39,2.39,0,0,1-1.4-1.67c-.42-2.56-.48-5.19-.92-7.75A82,82,0,0,0,269,410.47C266.52,406,263.88,401.63,261,396.61Z"/><path id="_Path_69" data-name="&lt;Path&gt;" class="cls-24" d="M421.29,519.27c-5.47-1.27-8.87-4.85-11-9.87l6.06-5.21c1.06,2.63,2.75,4.5,5.57,4.3,3.78-.26,6.25-2.57,7.71-5.94,1.32-3,1.24-5.88-1.69-8.44l17.54-13.65c2.82,2.77,3.67,6.24,4,9.81A50.28,50.28,0,0,1,446,515.18a4.36,4.36,0,0,1-2.53,2.19C436.2,519.36,428.87,520.86,421.29,519.27Z"/><path id="_Path_70" data-name="&lt;Path&gt;" class="cls-24" d="M373,514.48l-5.48,4.79c-7.83,1.7-15.37-.18-22.9-1.93A2.58,2.58,0,0,1,343.1,516c-3.94-9.74-5.46-19.76-2.9-30.12.46-1.84,1.61-3.51,2.64-5.68L360.7,494c-5.51,5.33-.14,13.62,5.51,14.51,2.53.4,4.69-1.06,6.23-4.36L375.5,507Z"/><path id="_Path_71" data-name="&lt;Path&gt;" class="cls-25" d="M451.12,510l-.86,2.51Z"/><path id="_Path_72" data-name="&lt;Path&gt;" class="cls-26" d="M335.77,429.75l.44-.71a1.53,1.53,0,0,1,.18.54c0,.11-.21.21-.32.32Z"/><path id="_Path_73" data-name="&lt;Path&gt;" class="cls-26" d="M320.6,502.15l.33,1.56Z"/><path id="_Path_74" data-name="&lt;Path&gt;" class="cls-25" d="M376.88,495.88l1,.92Z"/><path id="_Path_75" data-name="&lt;Path&gt;" class="cls-25" d="M338.56,512.53l-.39-1Z"/><path id="_Path_76" data-name="&lt;Path&gt;" class="cls-27" d="M375.39,435.2l.41.14-.42-.18Z"/><path id="_Path_77" data-name="&lt;Path&gt;" class="cls-26" d="M310.11,489.5l-.34-.65Z"/><path id="_Path_78" data-name="&lt;Path&gt;" class="cls-28" d="M354.37,421l-.3.89-.19-.83Z"/><path id="_Path_79" data-name="&lt;Path&gt;" class="cls-23" d="M352.93,421.84l.29-.83.19.78Z"/><path id="_Path_80" data-name="&lt;Path&gt;" class="cls-29" d="M397.36,547.87a.31.31,0,0,0-.25.25c-.36-.52-1-1-1-1.57-.2-3.23-.26-6.46-.36-9.7l.35-4.69.73-4,1.16,5.7a21.63,21.63,0,0,0,1.33,4.65,5.91,5.91,0,0,1-.23,6.33Z"/><path id="_Path_81" data-name="&lt;Path&gt;" class="cls-30" d="M457,508.13l.59-.51Z"/><path id="_Path_82" data-name="&lt;Path&gt;" class="cls-27" d="M410.94,492.51c0,.05.05.13,0,.15a.42.42,0,0,1-.17.06c0-.05-.05-.13,0-.15A.45.45,0,0,1,410.94,492.51Z"/><path id="_Compound_Path_11" data-name="&lt;Compound Path&gt;" class="cls-29" d="M481.67,529a34.41,34.41,0,0,1-4.81,3.61c-1.15.6-2.71.41-4.09.57-.92-1.22-2.83-2.76-2.56-3.6.69-2.15-.43-4-.26-5.91.84-10.22,3.45-19.83,9.63-28.22.09-.12.07-.31.1-.47a42.89,42.89,0,0,1,4.26-5c.88-.77,2.41-.81,3.64-1.18,2.63,1.39,5.28,2.74,7.88,4.19.38.21.52.85.77,1.3l-.17,0h-.17l-1.48-.53-2.81-.9c-1.36-.49-2.7-1.09-4.1-1.46-1.55-.41-2.32.43-1.75,1.86a53.58,53.58,0,0,0,2.69,5.14c1.9,3.92,3.85,7.83,3.48,12.38a2.72,2.72,0,0,1-.71,1.75l-.37-1.45c-.62-6.28-3.55-11.6-6.88-16.85-3,4-3,6-.21,9.7.08.11-.2.5-.31.76l-1.85-1.54-1.51-2.75-3,5.69h3.07c1,1.32,2.36,2.51,2.77,4,.84,3,1.1,6.22,1.68,9.33A10.48,10.48,0,0,1,481.67,529Zm-9.76-.16-1,.08.77,1c2.72,2.24,3.19,2.3,5.64.32,3.92-3.17,6.51-6.87,4.77-12.29a29,29,0,0,1-.69-3.85c-.26-1.45-.49-2.9-.79-4.34-.45-2.18-2.29-2.1-3.69-1.71-1.82.5-.9,1.81-.33,2.92a24.29,24.29,0,0,1,1,2.9L475,511.09c-.68,3.79-1.16,7.07-1.88,10.29s-1.42,6.36,1.78,8.89Z"/><path id="_Path_83" data-name="&lt;Path&gt;" class="cls-25" d="M494.4,493.77l1.48.53-1,.54h0Z"/><path id="_Path_84" data-name="&lt;Path&gt;" class="cls-25" d="M494.84,494.84l-.51.68-.16-.16.68-.51Z"/><path id="_Path_85" data-name="&lt;Path&gt;" class="cls-29" d="M311.68,499.24c4.18,6.84,6.09,14.38,7,22.25l-.21,5.62-4.34,3.42-.68-.63c3-1.78,3.09-4.47,2.55-7.36-.33-1.76-.57-3.54-.94-5.29s-.9-3.7-1.46-6l-2.1,2.55c.11-1.11.63-2.07.77-3.08.12-.86,0-2.43-.37-2.55-1.29-.41-2.92-.54-3.48,1.22a22.85,22.85,0,0,0-.55,3.84c-.5,2.34-1,4.67-1.49,7a7.38,7.38,0,0,0,2.78,7.5c4.83,5.37,5.49,4.55,9.48.94-.18,3.68-3.36,5.92-6.33,4.13-6.92-4.18-9.42-7.91-7.79-15.13.54-2.38.77-4.83,1.14-7.25l.61-2.2,5.08-3-2.41-4.53-3.37,4-1.09-.05.72-1c2.82-3.11,2.64-6.49-1-9.68l-5.67,14.65-.84,3.91h-.7c.08-1.9-.25-4,.34-5.68,1.27-3.7,3-7.24,4.57-10.85a7.79,7.79,0,0,0,1-1.9,3.71,3.71,0,0,0-.08-2.43c-.21-.35-1.49-.27-2.2-.07-1.61.47-3.16,1.13-4.73,1.72l-3.21,1a14.33,14.33,0,0,1,2.8-2.7c2.21-1.2,4.59-2.09,6.9-3.1,1.29.91,2.87,1.59,3.83,2.78C308.14,493.79,309.84,496.57,311.68,499.24Z"/><path id="_Path_86" data-name="&lt;Path&gt;" class="cls-29" d="M382.45,550.9c.5,0,1.12-.2,1.39,0,3.62,3,7.8,2,11.65,1.19a81.1,81.1,0,0,0,13.33-4.23c2.2-.87,4-2.7,6-4a9,9,0,0,1,2-.71c-.23.76-.23,1.93-.74,2.22a69.39,69.39,0,0,1-7.8,4c-6.86,2.87-14.16,3.87-21.46,4.82C384.54,554.46,383,553.31,382.45,550.9Z"/><path id="_Path_87" data-name="&lt;Path&gt;" class="cls-27" d="M397.36,547.87l1.7-3Z"/><path id="_Path_88" data-name="&lt;Path&gt;" class="cls-26" d="M471.91,528.83l-.23,1.08-.77-1Z"/><g id="_Group_52" data-name="&lt;Group&gt;"><g id="_Group_53" data-name="&lt;Group&gt;"><path id="_Path_89" data-name="&lt;Path&gt;" class="cls-23" d="M353.36,419.42c.38-.26-1.47-3.93-1.63-4.3-1.58-3.57-3.25-6.94-3.71-10.86-.61-5.22-1.69-14.63,1.94-19h-2.12c1,1.15.23,4.14.19,5.59-.08,3,0,6.08,0,9.11,0,3.8-.91,8.7.2,12.36.35,1.15,2.16,1.58,2.74.36,1.28-2.66,1-5.35.84-8.25-.19-3.29-1.17-8.43.06-11.55L350,394c2.27.71,1.88,7.69,1.93,9.62.12,4.6,0,9.13.79,13.68.32,1.91,3.19,1.09,2.89-.8-1.22-7.69-3.15-15.26-3.3-23.08h-3c.1,5.33.59,10.65.65,16a1.5,1.5,0,0,0,3,0c0-9.46-.52-19.06,0-28.5,0-.53-.16-2.34.14-.88s.37,3.37.53,5a75,75,0,0,1,.3,7.7c0,5.77.78,12-.05,17.68l2.2-.9c-3-2.13-3.61-10.44-3.87-13.56-.45-5.49-1.4-11.85-.5-17.31l-2.2.9c2.19,1.11,1.22,7,1.17,9-.1,4,0,8-.07,12h3c0-3.38.43-6.72.59-10.09.09-1.76-.8-6.38.29-7.79H352.4c1.22,1.3.22,5.86.21,7.55,0,3.49,0,7,0,10.48,0,2.74,1,11-3.6,10.89-3,0-3.54-6.42-2.1-8.42,1.13-1.57-1.47-3.07-2.59-1.51-1.78,2.48-1.54,9.08.35,11.51,2.31,3,7,1.27,9.17-1.14,3.45-3.91,1.77-11.58,1.77-16.37,0-3.45.15-6.87.24-10.31.05-1.85,0-3.4-1.33-4.8a1.5,1.5,0,0,0-2.12,0c-1.51,2-1.22,3.87-1.14,6.26.16,4.59-.57,9.15-.63,13.73a1.5,1.5,0,0,0,3,0c.14-5.29.26-10.66.17-16,0-2.61-.08-6.35-2.76-7.71a1.52,1.52,0,0,0-2.2.9c-1.11,6.77-.26,15.14.81,21.89.64,4,1.37,9.8,4.94,12.37a1.51,1.51,0,0,0,2.2-.9c.58-4,.17-7.88.12-11.88-.06-4.23.2-8.46-.11-12.68-.17-2.33-.09-11.05-4.52-10.34-2.88.46-2.32,5.47-2.31,7.42.05,8.57,0,17.15,0,25.72h3c-.06-5.34-.55-10.65-.65-16,0-1.93-3-1.93-3,0,.15,8.09,2.14,15.92,3.4,23.88l2.89-.8c-1-6-.26-12-1-18-.33-2.72-.78-6.44-3.81-7.38a1.54,1.54,0,0,0-1.85,1c-2.28,5.8,2.12,13.41-.6,19.08l2.74.36c-.72-2.35-.09-5.71-.09-8.14q0-4.89,0-9.79c0-3.24,1.18-7.77-1.07-10.46a1.5,1.5,0,0,0-2.12,0c-2.17,2.6-3,6.48-3.07,9.78-.16,4.94-.4,10.34.87,15.16A56.35,56.35,0,0,0,350.57,420c1,1.78,2.25,3.44,4.31,2,1.58-1.09.08-3.69-1.51-2.59Z"/></g></g><g id="_Group_54" data-name="&lt;Group&gt;"><g id="_Group_55" data-name="&lt;Group&gt;"><path id="_Path_90" data-name="&lt;Path&gt;" class="cls-23" d="M271,386.52c-.22,4.75,2.2,8.74,2.83,13.34a69,69,0,0,1,.17,7.61c.07,2.56.53,5.11,0,7.64l1.85-1c-3.91-1-4.4-8.68-5.6-11.93-1.54-4.16-3-8.14-6-11.53a1.51,1.51,0,0,0-2.51.66c-.7,3.08,0,5.83.9,8.81,1.33,4.36,2.14,8.84,3.42,13.21,1,3.44,2.8,5,5,7.67,2.33,2.86,2.75,6.5,5.45,9.12a1.52,1.52,0,0,0,2.12,0c5.08-5.11,1.56-15.93,2.59-22.15h-2.89c.81,4.4.32,8.78.83,13.19.3,2.52.79,6.81,2.33,8.94,3.35,4.65,10-.85,12.91-3.07,6.81-5.22,10.78-11.29,14.11-19.16,1.66-3.92,3.42-7.92,4.18-12.13.25-1.39.06-7.59,1.42-8.24l-2.26-1.3c.32,5.13-.62,10.68.42,15.69a1.54,1.54,0,0,0,1.45,1.1,6.34,6.34,0,0,0,5.5-1.83c2.7-2.28,5.16-5.06,7.82-7.45a65.74,65.74,0,0,0,13.22-15.83c2.11-3.56,4.05-5.52,8.47-6,2.72-.29,3.81-.27,6.07,1.41,2.91,2.17,2.15,3.66-.75,5.55-3.45,2.24-7.14,1.23-7.14-3,0-3.92,3.88-7.68,5.89-2.29.91,2.44.86,5,1.94,7.48a53.41,53.41,0,0,0,4.74,8.29c3.15,4.76,5.69,7.52,11.49,8.45,5,.79,10.06,1.46,14.49-1.52,2.93-2,5.69-5.87,5.49-9.51a1.52,1.52,0,0,0-1.9-1.45c-5.45,1.49-3.42,11.41-4.78,15.39-.63,1.86,2.19,2.55,2.89.8,2.87-7.13,7.77-13,12.1-19.25,3.08-4.44,5.32-12.6,10.11-15.31l-1.82-.23c2.29,2.86,2.61,9.43,3.36,12.94.57,2.7.54,5.55,1.28,8.22,1,3.49,3.16,5.47,6.66,3.7,5.86-3,11.24-8.55,15.65-13.3,3-3.22,5.69-6.68,8.45-10.09,1.51-1.87,5.86-9,8.72-9.06l-1.45-1.1c2,6.93,1.83,14,1.82,21.12,0,3.57-1,8.35.24,11.74.46,1.22,2.63,1.61,2.89,0,.81-5,2.14-10.27,2.35-15.33a1.51,1.51,0,0,0-2.26-1.3c-2.76,1.69-3.7,4.15-5,7-2.06,4.39-4.43,8.63-6.6,13-3.9,7.78-7.29,15.74-9.09,24.29a1.51,1.51,0,0,0,2.74,1.16c3.75-6.09,6.41-13.29,9.17-19.88,3.28-7.82,6.55-15.62,10.1-23.33l-2.74-1.16c-1.3,4.53-1.94,9.21-3.44,13.69-.67,2-2.74,6.33-1.14,8.42,2.14,2.8,6,.37,7.74-1.42,3.13-3.18,12-17.21,5.33-20.69-1.71-.89-3.23,1.7-1.51,2.59,3.43,1.78-3.32,12.77-4.75,14.59-.66.85-1.68,2.31-2.73,2.7-2.45.94-1.1-2.21-.57-3.85,1.62-5,2.52-10.17,4-15.24.45-1.59-2-2.73-2.74-1.16q-4.69,10.19-9,20.54c-3.08,7.49-6.05,15.75-10.31,22.66l2.74,1.16a93.44,93.44,0,0,1,8-21.91c1.7-3.46,3.5-6.86,5.25-10.29,1.55-3,3.1-8.4,6.14-10.26l-2.26-1.3c-.2,4.77-1.48,9.81-2.24,14.53h2.89c-1.39-3.71-.14-10.29-.13-14.18,0-6.34-.19-12.55-1.94-18.68a1.53,1.53,0,0,0-1.45-1.1c-4.65.1-8.3,6.8-10.84,9.94-5.07,6.27-10.13,12.46-16.37,17.62-1.11.91-6.26,5.74-8,5.15-2.39-.83-1.91-5.59-2.3-8-.54-3.34-1.59-6.6-2.21-9.93-.46-2.42-.73-4.36-2.31-6.33a1.51,1.51,0,0,0-1.82-.23c-5.34,3-7,10.18-10.26,15-4.71,7-10.15,13.4-13.34,21.32l2.89.8c.85-2.51-.1-12.53,2.68-13.29l-1.9-1.45c.52,9.39-12.27,9.29-18.33,7.77-6.72-1.69-12.3-13-13.54-19.29-.64-3.24-.94-7.47-5.05-7.9-3.27-.34-5.72,2.4-6.61,5.28-2.57,8.31,4.58,13.33,11.64,8.53,3-2.07,4.92-5.11,3-8.65-2.39-4.46-7.89-4-12.22-3.41-6,.87-8,5.71-11,10.4a52.82,52.82,0,0,1-9.54,10.88c-2.53,2.29-8.77,10.09-12.6,9.64l1.45,1.1c-1-4.69,0-10.09-.31-14.89a1.52,1.52,0,0,0-2.26-1.3c-2.58,1.23-2.24,5.38-2.5,7.75-.85,7.93-4.66,16.51-8.92,23.19-1.91,3-13.54,16.35-17.51,11.41-1.72-2.14-1.6-7.33-1.67-9.8a67.11,67.11,0,0,0-.78-10.3c-.26-1.42-2.65-1.45-2.89,0-.63,3.84-.26,7.6-.2,11.47,0,2.87.59,7.13-1.62,9.35h2.12c-2.27-2.21-2.65-5.18-4.33-7.71-1.92-2.88-4.26-4.25-5.33-7.76s-1.51-6.93-2.49-10.33-2.61-6.61-1.82-10.09l-2.51.66c4,4.55,5.61,10.85,7.11,16.57.9,3.44,2.07,6.67,5.8,7.66a1.52,1.52,0,0,0,1.85-1c1-4.36.3-9.55.17-14-.16-5.33-3.27-10.05-3-15.39.09-1.93-2.91-1.93-3,0Z"/></g></g><g id="_Group_56" data-name="&lt;Group&gt;"><g id="_Group_57" data-name="&lt;Group&gt;"><path id="_Path_91" data-name="&lt;Path&gt;" class="cls-23" d="M460.28,405.12a30.31,30.31,0,0,1,2.54-7.83c1.19-2.85,1.84-5.84,2.94-8.72,2.19-5.73-6.09-10-10-5.84s-6,9-9.58,13l9.42,1.21c-.69-1.32,0-4-.19-5.46-.47-4.44-6.68-8.83-10.24-4.24-4.31,5.54-11.63,14.85-9.4,22.35a7.74,7.74,0,0,0,12.51,3.48c3.27-2.76,4.52-7.53,5.58-11.49a33.75,33.75,0,0,1,1.24-4.68c1.26-2.9,3.4-5.11,4.4-8.24.76-2.39-.74-.31.58-1.13,1-.63,3-.77,4.18-1s4.73-.66,5-.41c1,.87,1,5.61,1.21,7.07.37,3.13,1.38,3.58-1.6,4.34a22.07,22.07,0,0,1-3,.27,7.31,7.31,0,0,1-1.38-.09q1.16.8.31-.34c0-.09-.59-3-.61-3-.78-.45-2.15,2.12-2.91,0,2.62,7.14,13.94,4.27,11.57-3.19a7.59,7.59,0,0,1-.43-4.46l-11,1.43c1,1.46,0,5.4,0,7.15l11.79-1.6c-1.74-7.32-5.51-14.48-6.59-21.87L464,378.69c-1.74,1.28-2-1-.4,1.17a13.84,13.84,0,0,0,1.64,1.69c.54.53,1.14,1,1.67,1.56,1.62,1.66.58,1.85,1.67-.57l6.78-2.76c-7.87-1.43-12.2-10.26-15.66-16.54l-3.59,8.81c2.73-1,5.54,1.45,7.86,2.79,3.46,2,7,3.87,10.36,6,2.8,1.82,5.33,4,8.07,5.86,1.63,1.13,5.59,3.15,6,4.62l5.79-7.6c-3.25-.11-6.24-3-8.85-4.79a101.15,101.15,0,0,1-10.42-7.72,40.15,40.15,0,0,1-7.53-9.36c-1.63-2.59-4.93-5.42-5.79-8.28l-8.81,6.78c3.36,2,5.52,7.7,7.48,11A97.6,97.6,0,0,1,467.33,386l10-5.84a49.3,49.3,0,0,1-8.11-13l-8.81,6.78a55.53,55.53,0,0,1,13.5,10.4c1.62,1.64,3.27,3.31,4.74,5.09a9.36,9.36,0,0,1,1.19,1.53q1.1,2.22,2.63-2c0-.49-2.43-2.15-2.82-2.63-3.32-4-4.16-9.15-6-13.91a12.2,12.2,0,0,1-.53-1.43q-.89-3.76-4.71,3.15c.06.16.8.53.91.65a9.77,9.77,0,0,0,2,1.76c1.29.8.78,2.2.45-1l6-6c-1.41-.07-4.93-4.67-6.19-5.65-3.62-2.81-7.22-5.72-11-8.33s-7.58-4.85-11.25-7.48c-.94-.67-1.92-1.29-2.84-2a9,9,0,0,1-1.42-1.12q-1.75-2,.15,1.6l-6,6c4.29.21,10.32,3.54,13.87,5.92,1.94,1.31,3,3.49,4.39,5.31.38.49,3.74,4.1,3.51,3.16l8.81-6.78c-4.9-2.61-7.8-7.51-11.23-11.7-1.69-2.06-3.17-4.65-4.94-6.58l-.34-1a4.21,4.21,0,0,1-1.35,3.45,4.35,4.35,0,0,1,1.36-.14c3.4.7,5.18-.08,7.61,2.16a30.62,30.62,0,0,1,4.5,6.06c.67,1,4.47,5.08,4.36,6l1.76-4.24q2.14-.41,0-.36-1-.21-2-.51c-1.37-.37-2.72-.8-4.1-1.11-4.34-1-8.71,2.8-7.38,7.38,1.62,5.54,6,6.94,9.66,10.69,5.48,5.54,13.59-2.75,8.49-8.49-4.09-4.6-5.29-11.55-9.72-15.81q-.44-.59-.83-1.23-5.8,5.42-1.83,5.07c.81.56,1.8.67,2.62,1.44,2.06,1.92,3.31,4.87,4.61,7.3l8.21-8.21c-2.84-1.23-4.2-5-6.57-6.58q-1.26,3.71-5.91,5.12a1.34,1.34,0,0,1,.76.53c.42.64,1.13,1.17,1.62,1.77a24.86,24.86,0,0,1,1.52,2.2c.21.33,1.17,2.5.75,1.27l8.81-6.78c-2.18-1.62-3.44-4.69-5-6.81-.71-.95-1.51-1.82-2.25-2.74q-.52-.57-1-1.16-1.19-2.39-.47.7l-4.19,4.19c2.78-1.07,10.3,7.59,11.57,9.41,1.62,2.33,4,5.29,5.14,7.91.68,1.58.91,1-1.08,1.25a6.39,6.39,0,0,1-.6-.69q-1.77-2.48-4.29,3.28c.16.5,1.28,1.15,1.62,1.63.53.75.61,1.82,1.08,2.49a5.16,5.16,0,0,1,.08,1.58l5.84-2.32a33.25,33.25,0,0,0-2.27-3.13c-.54-.87-1-1.84-1.52-2.69s-.32-.63-.42-.95l-2.76,6.78c-2.36,1.62-5-1.56-2,1.57a28.91,28.91,0,0,1,2.66,3.32,35.52,35.52,0,0,1,3.44,5.85c1.93,6.19,12.26,5.43,11.79-1.6q.21-4.27-5,1.88a7.8,7.8,0,0,1,1.43,2,33.76,33.76,0,0,1,2.33,4.58c1.58,3.73,2.09,7.86,2.77,11.83l4.19-7.38c3.63-.69,4,2.23,2.21-1.1a21,21,0,0,1-1.22-3,19.9,19.9,0,0,1-.87-3.8c-.66-4.82-.74-11.47-5.7-14.08-2.69-1.41-6.75-.88-8.21,2.15-1.92,4-2.25,7.88-2.11,12.26,0,.66-.22,2.27.1,2.84q-.26,1.45.9.19,1.58-.81.36-.43c-.82-.48-3.76.15-4.91,0-8.86-1-16.88-5.8-24.72-9.65-6-3-14-6.47-18.58.75-3.32,5.2-1,11.8-2,16.65l8.81-3.59c1.17.57.26,1.59.22-.13a11.43,11.43,0,0,0-.32-1.48,42.38,42.38,0,0,1-.3-5.93c-.09-4.9-.59-9.77-.5-14.67h-12c0,8.91-1.56,17.26-6.08,25-4.15,7.13-10.16,12.1-13,20l10-2.65c1.91,2.15.51,3.4,2.39.36.76-1.23,1.63-2.39,2.48-3.57a83.72,83.72,0,0,0,7-11.61,116,116,0,0,0,6.21-13.84c1.52-4.38,2.51-9.71,5-13.63l-11-4.62c-.94,6-4.14,12.22-7.6,17.22-2.82,4.07-7-1-8.76-3.86a30.11,30.11,0,0,1-2.91-6.07c-.7-2-.84-6.43-1.94-8q.1-1.78-1,.59.82-.18,1.65-.28c1.21.2,2.83-.33,4.08-.37,3.73-.12,6.18,1.69,9.73,2.19,4,.57,7.34-1.52,7.6-5.79.32-5.35-3.45-8.08-5.58-12.44l-.94,7.27c-5,5.77-3.78-.73-2.4,1.4.47.73,2.25,1.44,3,2,1.46,1.08,2.82,2.28,4.22,3.43,1,.78,8.92,7.07,9.41,6.79l-.33-2.26q-.9,1.24-1.75,2.51c-.88,1.3-1.73,2.63-2.6,3.94a51.15,51.15,0,0,1-5.72,7.39c-4.78,5-11.63,6.2-18,8.07-5.2,1.52-11.75,2.57-15.47,6.87-1.84,2.13-2.38,4.63-3.41,7.17-1.13,2.79-3,5.13-4,8s-.78,6.84-2.36,9.64c-1.21,2.13-3.75,3.59-5.31,5.47a22.19,22.19,0,0,0-4.11,7.51c-.72,2.27-.26,6.14-1.66,8l5.18-3c2.61.26,1.56,1.77,1.61-1.48a14.81,14.81,0,0,1,.51-3.47,58.56,58.56,0,0,0,1.76-14.9,50.07,50.07,0,0,0-.28-6.82c-.36-2.75-1.55-4.8-2.3-7.41-1.31-4.55.81-9.41-1-13.91-1.45-3.58-5.12-5.66-8.81-3.59-5.51,3.09-4.79,7.87-7.65,12.63-3.12,5.18-6.32,10.34-9.46,15.51s-8,7.89-11.08,12.93c-1.65,2.71-3.2,5.44-5,8-.6.85-1.15,1.74-1.81,2.55l-.84,1q-1.9,1.37.25.77l3.59,2.76c1.3,2.11-.34,1,.89-.12.89-.79,1.69-1.79,2.52-2.65a24.74,24.74,0,0,0,4.58-5.89c1.42-2.81,1.58-5.87,1.54-9,0-3.33.26-6.78,0-10.09-.42-5.35-1.74-12.06-4.76-16.58a11.5,11.5,0,0,0-7.19-4.82c-.49-.11-4.85-.4-3.35.17q.83,1.61.15-1a18.92,18.92,0,0,0-1.17-2.53c-1.46-2.86-5.55-3.75-8.21-2.15-3.23,1.95-4.83,4.77-6.75,7.9-2.42,3.95-5,7.77-7.14,11.87-1.85,3.49-3,7.51-5.13,10.82-2.47,3.8-6.44,7.3-9.86,10.23l7.27-.94c2.06.93-.33.54.81,0-.2.1.22-1.73.16-1.5l-5.79,4.4.78,0-4.24-1.76q-.95-2.41-.74-.3,0,.74,0,1.49a16.23,16.23,0,0,0,1.41,5.09,15.37,15.37,0,0,1,.78,8.72,10.23,10.23,0,0,1-1.06,3q-1.08,1.17.62.72-1.25-.74-2.55-1.37c-3-1.38-6.49-1.35-8.78-3.89-4.85-5.38-4.87-13.09-5.44-19.8a19.22,19.22,0,0,0-.84-4.3q-.59-1.44-1.23-2.86-1-2.07-.2-.33c1.49-2.8,6-5.26,8.51-6.86,14.16-8.93,30.07-15.16,45.13-22.38,16.31-7.82,33.21-13.42,50.31-19.23,7.27-2.47,4.15-14.06-3.19-11.57-17.75,6-35.38,11.85-52.3,20-16.16,7.79-33.89,14.23-48.67,24.56-6,4.19-14.12,10.2-11.44,18.48.52,1.61,1.58,3.05,1.93,4.72.39,1.91.06,4.11.26,6.05a47.53,47.53,0,0,0,2.91,12.4c2.57,6.57,7,12.44,13.9,14.64,6.77,2.15,13.15,6.49,19.15.19,5.14-5.4,6.33-14.78,4.68-21.8-.39-1.65-1.51-3.13-1.85-4.74-.31-1.45.08-3-.24-4.54a7.56,7.56,0,0,0-7.56-6.43,6.08,6.08,0,0,0-5.79,4.4c-1.29,4.94-.83,12.65,4.54,15.09a6.34,6.34,0,0,0,7.27-.94c6.44-5.52,11.32-11.36,14.73-19.08a91.72,91.72,0,0,1,5.81-10.84c1.44-2.34,3.57-7.61,5.92-9l-8.21-2.15c-.85-1.67.49,2.41.7,2.9a9.33,9.33,0,0,0,2.56,3.48c2.38,2,4.94,1.71,7.75,2.51q1.84.56.9-.23a8.28,8.28,0,0,1,1,2.43c.43,1.29.71,2.66,1,4a34.82,34.82,0,0,1,.68,9c-.08,3.06.89,6.64-.85,9.31-1.29,2-3.48,3.47-4.93,5.36-3.54,4.57-5.71,13,.83,16.18,12.26,5.93,18.64-16.14,25.33-21.53,5.44-4.38,8.32-10.74,11.76-16.65,1.7-2.92,3.89-5.55,5.53-8.5.66-1.2,2.19-7.23,2.94-7.66l-8.81-3.59c1.27,3.12-.08,7.47.37,10.86.33,2.46,1.34,4.33,2.13,6.66a19.64,19.64,0,0,1,.66,6.61,47.49,47.49,0,0,1-1.33,12.52,27.45,27.45,0,0,0-.88,8.63c.43,6.09,6.14,14.79,13.36,10.69,3.38-1.92,4-6.15,4.38-9.61.53-4.42,2.49-6.46,5.56-9.48a19.68,19.68,0,0,0,5.38-10c.52-2.13.63-4.56,1.47-6.59,1-2.33,2.57-4.3,3.49-6.68,1.54-4,1.25-4.09,5.5-5.35,4.85-1.44,9.81-2.57,14.52-4.41,4-1.54,8.07-2.84,11.36-5.6a50.24,50.24,0,0,0,8.28-9.36c4.25-5.93,11.25-13.29,6.11-20.62-2.11-3-5.44-4.94-8.53-6.81a67.46,67.46,0,0,1-5.68-4.43c-4.57-3.62-12.78-9.85-18-3.75a6.29,6.29,0,0,0-.94,7.27c.84,1.71,4.05,4.62,3.94,6.39l7.6-5.79c-2.81-.4-5.18-2-8-2.41a34.06,34.06,0,0,0-9,.14c-4.16.51-8.55,1.07-11.13,4.79-4.86,7,1,20.64,5,27,4.74,7.66,13.13,13.87,22.46,10.42,4.68-1.73,6.48-5.8,8.76-9.85,3.06-5.41,6.11-10.55,7.08-16.8,1-6.5-7.09-10.67-11-4.62-3.11,4.84-4.32,11.12-6.24,16.49a96.27,96.27,0,0,1-8.69,17.66c-4,6.44-13.06,15.09-6.34,22.67,3.21,3.63,8.61,1.31,10-2.65s4.14-6.28,6.7-9.55a61.44,61.44,0,0,0,7.45-12.07,62.27,62.27,0,0,0,5.34-26.58c0-7.73-11.86-7.73-12,0-.11,6.22.19,12.72.66,18.95.37,4.91,1.19,11.19,6.19,13.63,3.24,1.58,8,.47,8.81-3.59a32.76,32.76,0,0,0,.37-7.79,35.25,35.25,0,0,0,0-4.27c0-.26.29-1.2.19-1.29.11.11-2.27.7-2.22,1s4.29,1.9,4.62,2.06c2.23,1.1,4.41,2.3,6.63,3.42a94.72,94.72,0,0,0,13.2,5.45c6.19,2,13.58,3.79,20,1.68a9.58,9.58,0,0,0,6.54-8.09c.45-3.71-1.21-8.53.45-12l-8.21,2.15c-1.22-.64-.84-2.42-1-.78a12.68,12.68,0,0,0,.51,2.45c.19,1.15.29,2.3.43,3.45a28.28,28.28,0,0,0,1.57,6.81c2.26,6,5.81,12.68,13.33,11.26,3.4-.65,4.7-4.41,4.19-7.38-1.4-8.15-3.44-17.63-9.62-23.69-6.46-6.34-16.14-2.57-15.52,6.61l11.79-1.6c-2.13-6.84-12.65-24.12-21.71-17.91a6.17,6.17,0,0,0-2.76,6.78c2.12,6.9,13.8,23.23,20.61,11.26,6-10.6-10.07-31.9-19.62-19.5-4.22,5.49-.25,13,5,16.22,5.62,3.43,13.86,1.59,17.62-3.74,4.93-7-.2-13.68-3.92-19.66A45.6,45.6,0,0,0,475,332.2c-6.28-3.6-18-2.46-15.08,7.58,1.07,3.65,4.09,6.13,6.22,9.12,2.55,3.56,4.52,6.74,8.1,9.4,4.19,3.12,10.42-2.06,8.81-6.78-2.32-6.82-12.23-19.6-20.06-11.94-6.65,6.51,4,18.49,10.27,21.18,5.31,2.3,11.26-2.53,8.21-8.21-2.62-4.88-5.53-10.14-10.62-12.83-4.56-2.41-12.19-3.12-15.61,1.56-3.27,4.48-.33,8.84,2.3,12.67,3.69,5.37,5.83,11.43,10.22,16.37l8.49-8.49c-1.5-1.51-6-3.44-6.57-5.39l-7.38,7.38c5.05,1.13,10.71,3.67,15.67.74,6-3.56,4-9.79.62-14.25-5.9-7.82-9.74-16.18-20.32-17.73-7.5-1.1-19,1.24-16.46,11.51,1.35,5.5,5.86,9.69,9.27,14,3.8,4.77,7.24,9.51,12.74,12.44a6.07,6.07,0,0,0,8.81-6.78c-.78-3.16-3.08-4.42-5.11-6.64-2.51-2.73-3.92-6-7.09-8.23-2.82-1.94-6.31-3.31-9.37-4.88a28,28,0,0,0-11.77-3.46c-3.05-.15-6.25,2.88-6,6,.69,8.46,13,13.9,19.19,17.94A93.43,93.43,0,0,1,466,374.75c3.65,3.48,6.46,6.49,11.82,6.75,3,.15,6.32-2.88,6-6-.75-7.24-12.1-17-19.36-12.23-6,3.91-2.69,10.57-1,15.79,1.88,5.85,3.64,11,7.75,15.72,3.54,4.08,8.94,7.52,14.55,5.88,5.37-1.58,7.79-7.09,6.25-12.24-1.47-4.92-6.05-9.07-9.56-12.63a66.33,66.33,0,0,0-15.93-12.27c-4.13-2.19-10.94,1.58-8.81,6.78a67.45,67.45,0,0,0,11.2,18.31c3.76,4.45,12.21-.3,10-5.84a121.74,121.74,0,0,0-9.14-18.9c-3.08-5.07-5.65-10.67-10.91-13.82-4.43-2.65-10.32,1.75-8.81,6.78,1.37,4.56,5,7.87,7.44,11.86a48.86,48.86,0,0,0,10.35,12.26c4.11,3.43,8.55,6.42,13,9.42,4.25,2.89,8.11,5.25,13.4,5.42a6.05,6.05,0,0,0,5.79-7.6c-1.26-4.21-4.47-6.89-7.93-9.37-3.87-2.76-7.7-5.7-11.68-8.29-4.27-2.77-8.78-5.3-13.26-7.73s-9.29-4.1-14.21-2.31c-3.67,1.34-5.57,5.21-3.59,8.81,5,9,11.77,20,22.84,22.06,2.39.43,5.65-.23,6.78-2.76,3-6.76-.83-11.24-5.49-15.8-4.15-4.05-9.66-8.79-15.51-4.47a6.41,6.41,0,0,0-2.76,6.78c1.08,7.39,4.85,14.54,6.59,21.87,1.56,6.58,11.91,5.17,11.79-1.6-.08-4.5,1-9.2-1.67-13.2s-9.59-3.82-11,1.43a19.32,19.32,0,0,0,.43,10.84l11.57-3.19c-2-5.59-7.47-9.18-13.5-7.46-6.45,1.83-7.88,8.67-6.72,14.48,1.31,6.52,5.4,11.07,12.17,11.5,5.62.35,12.28-1.21,15.71-6,3.65-5.1,1.93-12.55.83-18.3-1.25-6.57-5.27-10.77-12.08-11.23-5.07-.35-12.62.64-16.85,3.7-2.7,1.95-3.38,4.62-4.57,7.53s-3.52,5.53-4.55,8.72c-.7,2.15-1.1,4.4-1.76,6.57a17.89,17.89,0,0,0-1.07,2.93c0,.14-.25.87-.31.55,0,.19,7.64,2.54,7.15,2.9a21.15,21.15,0,0,0,1-2.74,43.1,43.1,0,0,1,2.22-4q1-1.6,2-3.15c.3-.45,2-2.74,1-1.51L443.4,391.5c.45,4.2-.22,7.6,1.82,11.52a6,6,0,0,0,9.42,1.21c3.65-4.07,5.79-9.06,9.58-13l-10-5.84c-1.09,2.86-1.74,5.82-2.95,8.64a30,30,0,0,0-2.53,7.91c-.44,3.24.78,6.4,4.19,7.38,2.79.8,6.95-1,7.38-4.19Z"/></g></g><path id="_Path_92" data-name="&lt;Path&gt;" class="cls-18" d="M264.92,421.84s-11-16.66-35-40.66-47-20-47-20,21.45-18,54-23.81,78.53,11.81,78.53,11.81,13.53-65.5,0-95-43.59-48.59-54.47-52.5,48,.5,91.95,28,55.49,87.5,55.49,87.5,20.6-30.17,24.5-64-14.5-46.5-14.5-46.5,29.5,29.5,31.5,53.5-17.5,63-17.5,63,32,0,55.5,15,24.5,54.95,24.5,54.95,28.2-5.6,58.5-4.42,41.5,10.68,41.5,10.68-6.5,2.7-40,9-47.5,29.28-47.5,29.28,11.5-3,37.5-5,28.5,2.47,28.5,2.47l-76,57.57,28-.21s2.88-5.73-20,15.62-28.75,17.55-28.75,17.55l12.25-30.16-8-15.05-13-8.29-6.78,3.5v-13l-11.72,8.5s2.5-2,4-18.49-1-22-1-22-2.65,9.51-20.09,27.51-23.93,19.51-23.93,19.51-.15,1,4.18-17,0-30,0-30-16.68,21.71-24.18,34.11-10.2,35.27-10.2,35.27-10.27.12-17.78-28.38,13.46-47.5,13.46-47.5-30.24,14.58-39.86,21.29-21.11,26.21-21.11,26.21-.77-9.78,3.86-22.89,10.55-31.11,10.55-31.11a52,52,0,0,0-26.65,31.78c-6.76,23.22-2.73,35.72-2.73,35.72l-14-16.5-20,25.63,6.83,21.87s3.17-.55-18.83-14-25-13-25-13,1-3,10.5-4.49a77.11,77.11,0,0,1,19.9,0s-16.9-28.91-35.4-39.21-41-19.29-41-19.29,14.5-4.54,29-4.27,38.5,8.77,38.5,8.77Z"/><g id="_Clip_Group_" data-name="&lt;Clip Group&gt;" class="cls-31"><g class="cls-32"><path id="_Path_93" data-name="&lt;Path&gt;" class="cls-33" d="M464.65,616.11s-47-59,50-155,157.82-75,157.82-75L406.65,157l-215,253,51.32,118Z"/></g></g><g id="_Clip_Group_2" data-name="&lt;Clip Group&gt;" class="cls-34"><g class="cls-35"><path id="_Path_94" data-name="&lt;Path&gt;" class="cls-36" d="M392.71,531.22s-15.53-55,40-124,130-63,130-63l-141-197.55L183.24,173.22l-52.53,211,50.41,125Z"/></g></g><g id="_Clip_Group_3" data-name="&lt;Clip Group&gt;" class="cls-37"><g class="cls-38"><path id="_Path_95" data-name="&lt;Path&gt;" d="M320.81,533.71s-46.26-84.66,24-159,136-89,136-89l-64-124-187,19.54-101,217.49,76,121Z"/></g></g></g></svg>