<svg id="Layer_1" data-name="Layer 1" xmlns="http://www.w3.org/2000/svg" viewBox="0 0 557.85 558"><defs><style>.cls-1{fill:#ebecee;}.cls-10,.cls-11,.cls-12,.cls-14,.cls-15,.cls-16,.cls-18,.cls-19,.cls-2,.cls-20,.cls-21,.cls-22,.cls-25,.cls-26,.cls-27,.cls-28,.cls-3,.cls-36{fill:none;}.cls-2{stroke:#e04c9b;}.cls-10,.cls-11,.cls-12,.cls-14,.cls-15,.cls-16,.cls-18,.cls-19,.cls-2,.cls-20,.cls-21,.cls-22,.cls-25,.cls-26,.cls-27,.cls-28,.cls-3,.cls-31,.cls-36,.cls-6,.cls-7,.cls-8,.cls-9{stroke-miterlimit:10;}.cls-2,.cls-31{stroke-width:7px;}.cls-3{stroke:#ecb1d0;}.cls-15,.cls-3{stroke-width:8px;}.cls-4{fill:#d8d312;}.cls-5{font-size:57px;fill:#9a1f67;font-family:CaviarDreams-Bold, Caviar Dreams;font-weight:700;}.cls-32,.cls-6,.cls-7{fill:#2f1752;}.cls-6,.cls-7{stroke:#2f1752;}.cls-11,.cls-6,.cls-8{stroke-width:4px;}.cls-36,.cls-7{stroke-width:5px;}.cls-33,.cls-8{fill:#de4a9e;}.cls-8{stroke:#de4a9e;}.cls-9{fill:#d11b2e;}.cls-10,.cls-9{stroke:#d11b2e;}.cls-10,.cls-14,.cls-19,.cls-21,.cls-22,.cls-25,.cls-26,.cls-9{stroke-width:2px;}.cls-11{stroke:#dd4d96;}.cls-12{stroke:#febb56;}.cls-12,.cls-16,.cls-18,.cls-20,.cls-27,.cls-28{stroke-width:3px;}.cls-13{fill:#e24a9b;}.cls-14{stroke:#ecc65c;}.cls-15{stroke:#d2e297;}.cls-16{stroke:#cbddd8;}.cls-17{fill:#ff1b30;}.cls-18{stroke:#c0d961;}.cls-19{stroke:#c1de4e;}.cls-20{stroke:#b4d7e7;}.cls-21{stroke:#e0469a;}.cls-22{stroke:#ff1b30;}.cls-23{fill:#eb499a;}.cls-24{fill:#bcd454;}.cls-25{stroke:#bcd454;}.cls-26{stroke:#eb2a33;}.cls-27{stroke:#c4dcd6;}.cls-28{stroke:#f2c05d;}.cls-29{fill:#ced7de;}.cls-30{fill:#d2e297;}.cls-31{fill:#f24080;stroke:#44296d;}.cls-34{fill:#e04c9b;}.cls-35{fill:#ecb1d0;}.cls-36{stroke:#bfd766;}.cls-37{fill:#bfd766;}</style></defs><title>Artboard 13</title><path class="cls-1" d="M149.33,84.67A54.69,54.69,0,0,0,130.67,92,38.32,38.32,0,0,0,120,101.33a37.13,37.13,0,0,0-7.33,20c-.19,2.82-.88,12.76,4.67,22,2.62,4.37,5.18,6.16,4.67,9.33s-3.35,4.45-9.33,8.67c0,0-2.23,1.57-12,9.33-2.4,1.91-3.2,2.67-16,14.67-.86.81-6.3,5.9-14,13.33-11,10.64-13.23,13.07-12.67,16,.91,4.77,8.41,7.06,9.33,7.33,4.31,1.27,6.27,0,13.33,0a55,55,0,0,1,12,1.33c9.36,2.3,15.3,9,18,12,12.7,14.25,9.89,37.17,8.67,46.67-4.27,33.05-20.61,41.81-16,54,5,13.31,28.25,12.72,70.67,17.33,85.63,9.32,128.45,14,155.33,34.67,8.66,6.66,22.83,19.6,43.33,20,12.47.24,21.78-4.26,33.33-10,36.18-18,31.58-33.84,58-42,34-10.49,45.33-13.33,45.33-13.33a24.78,24.78,0,0,0,11.33-6c1.93-1.84,5.69-5.44,6-10,.49-7.31-8.41-9.71-18.67-24-4.09-5.7-6.76-9.42-8-15.33-2.35-11.21,2.24-21.71,2.67-22.67,2.63-5.83,4.54-5.9,4.67-9.33.29-7.61-8.77-16.46-18-17.33-5.69-.54-7.18,2.35-12,1.33-7.16-1.51-11.11-9.39-14-15.33-6-12.44-10.54-32.11-4-36,3.63-2.16,9.56,1.19,13.33,3.33,9.11,5.16,9.48,10.85,15.33,14,10,5.4,28.53-.83,31.33-10,4.22-13.8-27.26-33.67-32-36.67-23.21-14.65-29.16-7.73-71.33-26-10-4.34-18.37-8.49-32-11.33-10.42-2.17-13.86-1.47-31.33-3.33-17.82-1.9-27.39-2.91-38.67-6a156.31,156.31,0,0,1-41.33-18.67c-18.26-11.63-21.35-18.93-36-22.67-7.48-1.91-13.43-1.49-25.33-.67C185.52,71.8,181.84,77.69,149.33,84.67Z"/><path class="cls-2" d="M490.67,196.67A24.33,24.33,0,0,0,502.33,186c4.79-9.15,2.69-20.75-3.67-27.33-5.69-5.89-14-6.95-19.67-7.67-.63-.08-1.64-.19-7-.33-10.78-.28-19.44-.15-28,0L426,151"/><path class="cls-3" d="M495,202.13a28.66,28.66,0,0,0,13.22-13.4c5.43-11.49,3-26.07-4.16-34.34-6.45-7.4-15.85-8.73-22.29-9.63a75.14,75.14,0,0,0-7.93-.42c-12.22-.35-22-.18-31.74,0-8,.15-14.95.3-20.4.42"/><path class="cls-4" d="M98.33,326c-3.81,2.59-8.8,6-11.67,7.83L83.33,336c-1.14.68-2.2,1.49-3.33,2.17a3.72,3.72,0,0,0-1.67,1.5,2.24,2.24,0,0,0-.17,1.83c.33.68,1.08.74,2.5,1.33a27.1,27.1,0,0,1,2.5,1.33A29,29,0,0,0,88.33,346c3.72,1.18,3.83,1.55,7.83,2.83.67.21,2.44.17,4,1.17a3.94,3.94,0,0,1,1.33,1.33,3.88,3.88,0,0,1,.5,1.83c.18,4,2,7.66,3,11.5.7,2.73,1.91,5.36,2.17,8.17a2.44,2.44,0,0,0,.83,1.83,2.09,2.09,0,0,0,1.67.17,2.94,2.94,0,0,0,1.5-1.5c.77-1.34,2-2.37,2.83-3.67,3-4.59,11-12.71,10.5-13.17-.17-.17-1.37.76-1.33.83a12.29,12.29,0,0,1,3.67-1.5c1.67-.29,2.37.19,4.67.5,2.13.29,2.54,0,6,0,1.16,0,1.23,0,6.83.33,2.57.13,2.72.39,3.33.17a3.75,3.75,0,0,0,2.33-3.5c-.08-1-.68-1.17-2.5-3.5-.72-.92-1.26-1.72-2.33-3.33-.45-.67-1.27-1.92-2.5-4-3.2-5.41-4.46-8.48-4.83-8.33s.07,1.51.17,1.5a16.84,16.84,0,0,1,.5-4.67,15.89,15.89,0,0,1,1-2.33c.35-.76.39-.88,2.17-5.33,2-4.93,2.23-5.55,2.5-6.17a16.43,16.43,0,0,0,1.83-4,3.16,3.16,0,0,0,0-1.83,3,3,0,0,0-1.5-1.67,3.28,3.28,0,0,0-2-.17,5.7,5.7,0,0,0-1.83.67c-1,.51-2.12.86-3.17,1.33-2.84,1.29-4.28,1.19-8.83,2.83-3.37,1.22-3.85,1.73-5.5,1.67a11.26,11.26,0,0,1-4.67-1.5,23.35,23.35,0,0,1-5.17-3.5c-1.89-1.66-1.45-1.75-4.17-4.33-2.9-2.76-2.74-2-4.17-3.67a6.16,6.16,0,0,0-2.5-2,2.78,2.78,0,0,0-2.17-.17C99,301.5,99,304,98.83,304a4.85,4.85,0,0,1,0-1.67C99,302.34,98.76,311.5,98.33,326Z"/><text class="cls-5" transform="translate(174.6 506.11)">ANUBHUTI</text><line class="cls-6" x1="387" y1="518" x2="476.67" y2="518"/><line class="cls-7" x1="451.67" y1="448.67" x2="451.67" y2="538.67"/><line class="cls-8" x1="357.33" y1="527.54" x2="445.33" y2="527.54"/><line class="cls-9" x1="68.25" y1="214" x2="74.25" y2="217"/><line class="cls-10" x1="63.25" y1="214.25" x2="59.75" y2="220"/><line class="cls-10" x1="66.75" y1="208" x2="71.25" y2="202.75"/><line class="cls-10" x1="61.5" y1="209.25" x2="55.25" y2="205.38"/><circle class="cls-11" cx="89.31" cy="173.06" r="6.06"/><path class="cls-12" d="M74.5,314.25a7.44,7.44,0,0,1-5.25.75,7.29,7.29,0,0,1-4.75-3.75c-1.69-3.51.5-6.87.75-7.25A6.14,6.14,0,0,1,73,301.5a6.82,6.82,0,0,1,3,2c1.82,2.2,1.61,5.26,1.75,5.25s.08-.27,0-1.75"/><circle class="cls-13" cx="100.58" cy="387.75" r="5.08"/><line class="cls-14" x1="133.09" y1="403.17" x2="139.92" y2="407.17"/><line class="cls-14" x1="133" y1="400" x2="142" y2="397.17"/><line class="cls-14" x1="129.83" y1="405.17" x2="132" y2="412.83"/><line class="cls-14" x1="121.67" y1="411" x2="126.33" y2="404"/><line class="cls-14" x1="115.93" y1="393.5" x2="124" y2="397.83"/><line class="cls-14" x1="115.93" y1="403.67" x2="125.33" y2="401.5"/><line class="cls-14" x1="126.83" y1="395.67" x2="124.83" y2="387"/><line class="cls-14" x1="135.5" y1="389.17" x2="130.92" y2="397"/><path class="cls-15" d="M206.75,74c-5.83,0-14.58.09-25.25.25-13.82.21-18.86.4-28,.5-16.21.18-29.92-.17-33.5-.25-8.72-.2-13.39-.41-23.5-.5-6.44-.06-12.59.17-16.25,0-.28,0-1.23-.06-2.5,0a30.48,30.48,0,0,0-5.25.75,33.51,33.51,0,0,0-6.25,1.75,20.32,20.32,0,0,0-6,3.5A20.79,20.79,0,0,0,55,87.5a19.18,19.18,0,0,0-1,15.75,21.68,21.68,0,0,0,4.75,9c.73.77,3.47,3.55,11.25,5.75a54.06,54.06,0,0,0,19.5,1.75"/><line class="cls-16" x1="60" y1="141.5" x2="72.5" y2="149.25"/><line class="cls-16" x1="70" y1="139.25" x2="63" y2="151"/><circle class="cls-17" cx="251.62" cy="92.13" r="3.88"/><line class="cls-18" x1="310.25" y1="87" x2="323.75" y2="87"/><line class="cls-19" x1="317" y1="79.5" x2="317" y2="93.75"/><path class="cls-20" d="M385.25,89.75a9.06,9.06,0,0,1-11.5-5c-.16-.4-1.82-4.8,1-8.25,2.49-3.06,6.41-2.83,7.25-2.75a8.4,8.4,0,0,1,6.25,3.5,8,8,0,0,1,1.25,5"/><line class="cls-21" x1="364.5" y1="118.75" x2="376.5" y2="126.25"/><line class="cls-21" x1="375" y1="116.75" x2="367.5" y2="128.25"/><line class="cls-22" x1="439.76" y1="114.75" x2="445.25" y2="117.75"/><line class="cls-22" x1="447.25" y1="122.5" x2="444" y2="127.25"/><line class="cls-22" x1="451.25" y1="116.25" x2="455.25" y2="110.75"/><line class="cls-22" x1="451.53" y1="121.19" x2="458.25" y2="124.88"/><path class="cls-23" d="M478.75,192.75l-79.69-.51-11.56-.07c-5.79,0-5.8,9,0,9l79.69.51,11.56.07c5.79,0,5.8-9,0-9Z"/><circle class="cls-24" cx="475.37" cy="231.13" r="3.63"/><line class="cls-25" x1="471.75" y1="181.75" x2="486.5" y2="181.75"/><line class="cls-25" x1="479.13" y1="188.75" x2="479.13" y2="176.5"/><line class="cls-25" x1="508.5" y1="232.75" x2="505.75" y2="222.5"/><line class="cls-25" x1="512" y1="232.5" x2="517" y2="225.5"/><line class="cls-25" x1="510.53" y1="241.16" x2="511.85" y2="250.09"/><line class="cls-25" x1="504.75" y1="234.75" x2="496.66" y2="229"/><line class="cls-25" x1="505.5" y1="238.25" x2="497.75" y2="239.75"/><line class="cls-25" x1="513.25" y1="239" x2="521" y2="244.5"/><line class="cls-25" x1="507.13" y1="240.5" x2="503.01" y2="246.94"/><line class="cls-25" x1="514.5" y1="236" x2="523.5" y2="231.88"/><line class="cls-26" x1="513.25" y1="319.5" x2="518.75" y2="322.75"/><line class="cls-26" x1="505.43" y1="325.75" x2="508.86" y2="319.5"/><line class="cls-26" x1="512.19" y1="314.5" x2="516" y2="309"/><line class="cls-26" x1="507.15" y1="315.75" x2="501.11" y2="311.75"/><line class="cls-25" x1="460.5" y1="380.5" x2="467.75" y2="369.75"/><line class="cls-25" x1="458" y1="371.5" x2="470.25" y2="378.75"/><circle class="cls-27" cx="481.31" cy="348.56" r="12.56"/><path class="cls-28" d="M444.75,247.5a8.35,8.35,0,0,1-5.25.25A6.93,6.93,0,0,1,435,237.5a7.13,7.13,0,0,1,4.5-3.25,7.35,7.35,0,0,1,5.5,1,8.27,8.27,0,0,1,3.5,6.5"/><ellipse class="cls-29" cx="273" cy="420.79" rx="153" ry="5.79"/><path class="cls-30" d="M206.67,70.63h-1.33a3.06,3.06,0,0,0-.32,0c-.12,0-.22,0-.35,0-4.34,0-4.35,6.75,0,6.75.12,0,.22,0,.34,0a3.25,3.25,0,0,0,.33,0h1.33a3.37,3.37,0,1,0,0-6.75Z"/><path class="cls-31" d="M429.93,162c-3.63-13.67-5.45-20.51-10.7-23.78s-11.25-1.43-19,0c-8,1.46-4.42-.09-42.8,0-29.58.07-57.07,1.19-57.07,1.19s2.27,8.43,3.57,13.08c3.72,13.42,5.62,20.15,7.13,21.4,4.66,3.83,11.8,3.29,23.78,2.38,8.13-.62,10.53-1.88,13.08,0,3.42,2.54,2.71,7.53,2.38,20.21-.47,17.61.73,14.72,0,32.1-.31,7.51-.92,17.13-1.12,20.32-1.11,1-2.25,2-3.41,3-2.43,1.38-5.6,3.15-7.36,4-4.6,2.33-9,3.29-15.16,3.92-2.87-.06-5.73-.34-8.54-.67A144.91,144.91,0,0,1,293.52,255c-4.94-1.35-11.33-3.18-12.62-8.82a5,5,0,0,0-.22-.71,119.9,119.9,0,0,0,7.78-14.56c4.59-11.24,2.58-22.17,1.19-29.72a72.83,72.83,0,0,0-8.32-22.59c-5.08-9.27-10.67-15.21-15.46-20.21-5.19-5.43-9.48-9.92-16.64-14.27a66.09,66.09,0,0,0-21.4-8.32c-9.45-1.86-16.57-1.07-26.16,0-7.91.88-13.93,1.6-21.4,4.76A68.81,68.81,0,0,0,166,148.9a76.83,76.83,0,0,0-9.51,8.32l25,36.86a220.09,220.09,0,0,1,44-17.83c7.13-2,15-3.72,22.59,0a19.84,19.84,0,0,1,9.51,9.51c3.41,7.74.43,16.39-3.57,21.4-3,3.8-6.36,5.13-21.4,9.51-17,5-32.9,14.18-50.42,16.88a2.74,2.74,0,0,0-1.89.95c-1.88,2.7,5.15,9.35,11.89,19,9.9,14.21,8.7,19.93,14.27,21.4,5.23,1.38,7-3.48,20.21-8.32,5.89-2.15,14.55-5.2,25-3.57,4,.62,9.39,1.55,14.27,5.94A21.79,21.79,0,0,1,273,282.06c.89,7-2.46,12.32-5.94,17.83-2.43,3.85-7.62,11.83-17.83,16.64-7.76,3.66-14.43,3.62-22.59,3.57-6,0-15.41-.19-26.16-4.76-10.35-4.4-16.66-10.65-22.59-16.64-5-5-9.33-11.35-17.83-23.78,0,0-5.65-8.25-20.21-30.91L128,248.77c-5,.77-10.89,2.34-11.89,5.94-1.2,4.31,5.33,8.71,11.89,15.46,11.11,11.43,8.79,15.72,21.4,34.48a184.34,184.34,0,0,0,23.78,28.53c9.67,9.47,18.61,18.21,33.29,25a83.63,83.63,0,0,0,33.29,8.32c7.6.24,22.53.72,38-8.32,5.06-3,21.32-12.78,27.34-33.29a56.33,56.33,0,0,0-1.19-34.48c4.22,3.56,11.09,8.24,20.21,9.51,9.72,1.35,17.65-1.78,22.45-1.58.61,13.74.67,27.5.08,41.25-.28,6.59-.73,13.17-1.28,19.74-.52,6.32-.86,12.48,1.17,18.58a4.58,4.58,0,0,0,6.16,2.78c1.68.53,3.79,1,6.39,1.65,2.32.77,4.61,1.64,6.86,2.35l8.57,2.73c6.81,2.84,9.73,4.74,12.59,2.85,1.36-.9,2.67-2.63,3.57-13.08a161.19,161.19,0,0,0,0-26.16v-74.9c0-42.4,0-41.4,0-42.8-.28-36.12-.42-55.25-1.18-57.85a.73.73,0,0,1,0-.4c.47-1.73,8.36-1,19,0,17.68,1.71,20.78,2.19,22.59,0C431.8,174.25,432.74,172.53,429.93,162Z"/><path class="cls-32" d="M452,534.3c-3.47,0-3.48,5.4,0,5.4S455.48,534.3,452,534.3Z"/><path class="cls-32" d="M451.5,446.8c-3.47,0-3.48,5.4,0,5.4S455,446.8,451.5,446.8Z"/><path class="cls-32" d="M478.53,517.23a1,1,0,0,0-1.17-.79,1.08,1.08,0,0,0-1.23-.47l-2.88,1.09c-1.34.51-.76,2.68.6,2.17l1.77-.67a4,4,0,0,0,.55.87,1.14,1.14,0,0,0,1.36.18A2,2,0,0,0,478.53,517.23Z"/><path class="cls-32" d="M390.07,517a2.78,2.78,0,0,0-3.85.23,1.16,1.16,0,0,0-.18,1.36,2.26,2.26,0,0,0,3,.8,1,1,0,0,0,.44-.51,1,1,0,0,0,.61-.29A1.13,1.13,0,0,0,390.07,517Z"/><path class="cls-33" d="M358.3,527.2l-.5-.5a1.13,1.13,0,0,0-1.59,1.59l.5.5A1.13,1.13,0,0,0,358.3,527.2Z"/><path class="cls-33" d="M446.55,526.91l-1.46-.9a1.12,1.12,0,0,0-1.62,1.31,1.24,1.24,0,0,0,.29.95,2.42,2.42,0,0,0,2.52.7A1.14,1.14,0,0,0,446.55,526.91Z"/><path class="cls-34" d="M490.67,200c4.34,0,4.35-6.75,0-6.75s-4.35,6.75,0,6.75Z"/><path class="cls-35" d="M496.67,205.38c4.34,0,4.35-6.75,0-6.75s-4.35,6.75,0,6.75Z"/><path class="cls-35" d="M498.71,201.67v-.33a3.38,3.38,0,0,0-6.75,0v.33a3.38,3.38,0,0,0,6.75,0Z"/><path class="cls-35" d="M496,204.38c4.34,0,4.35-6.75,0-6.75s-4.35,6.75,0,6.75Z"/><path class="cls-35" d="M496,205c4.34,0,4.35-6.75,0-6.75s-4.35,6.75,0,6.75Z"/><path class="cls-35" d="M496,205.38c4.34,0,4.35-6.75,0-6.75s-4.35,6.75,0,6.75Z"/><path class="cls-35" d="M495.67,199.29h-.33a3.38,3.38,0,0,0,0,6.75h.33a3.38,3.38,0,0,0,0-6.75Z"/><path class="cls-36" d="M133.67,24.67c46,.4,64.31.3,69,0a27.54,27.54,0,0,1,3.67,0,29.85,29.85,0,0,1,12.33,3.67,26.49,26.49,0,0,1,10.67,10A24.74,24.74,0,0,1,232.67,50a23.65,23.65,0,0,1-3,12A23.23,23.23,0,0,1,221,70.67"/><path class="cls-37" d="M221.67,72.92c2.9,0,2.9-4.5,0-4.5s-2.9,4.5,0,4.5Z"/><path class="cls-37" d="M220.67,73.25c2.9,0,2.9-4.5,0-4.5s-2.9,4.5,0,4.5Z"/><path class="cls-37" d="M134,26.92c2.9,0,2.9-4.5,0-4.5s-2.9,4.5,0,4.5Z"/><path class="cls-30" d="M90.05,123.05l.33-.33a3.38,3.38,0,1,0-4.77-4.77l-.33.33a3.38,3.38,0,1,0,4.77,4.77Z"/><path class="cls-30" d="M89,123.38c4.34,0,4.35-6.75,0-6.75s-4.35,6.75,0,6.75Z"/><path class="cls-30" d="M85.63,119.67V120a3.38,3.38,0,0,0,6.75,0v-.33a3.38,3.38,0,0,0-6.75,0Z"/><path class="cls-30" d="M89,123.71c4.34,0,4.35-6.75,0-6.75s-4.35,6.75,0,6.75Z"/><path class="cls-30" d="M89.33,123.38c4.34,0,4.35-6.75,0-6.75s-4.35,6.75,0,6.75Z"/><path class="cls-30" d="M89.33,123.38c4.34,0,4.35-6.75,0-6.75s-4.35,6.75,0,6.75Z"/><path class="cls-30" d="M89.67,122.71c4.34,0,4.35-6.75,0-6.75s-4.35,6.75,0,6.75Z"/><path class="cls-30" d="M209.71,74.67v-.33a3.38,3.38,0,0,0-6.75,0v.33a3.38,3.38,0,0,0,6.75,0Z"/><path class="cls-30" d="M206.33,76.71c4.34,0,4.35-6.75,0-6.75s-4.35,6.75,0,6.75Z"/></svg>