<svg id="Layer_1" data-name="Layer 1" xmlns="http://www.w3.org/2000/svg" viewBox="0 0 557.85 558"><defs><style>.cls-1{fill:#ebecee;}.cls-11,.cls-12,.cls-13,.cls-15,.cls-16,.cls-17,.cls-19,.cls-2,.cls-20,.cls-21,.cls-22,.cls-23,.cls-26,.cls-27,.cls-28,.cls-29,.cls-3,.cls-35{fill:none;}.cls-2{stroke:#e04c9b;stroke-width:7px;}.cls-10,.cls-11,.cls-12,.cls-13,.cls-15,.cls-16,.cls-17,.cls-19,.cls-2,.cls-20,.cls-21,.cls-22,.cls-23,.cls-26,.cls-27,.cls-28,.cls-29,.cls-3,.cls-35,.cls-40,.cls-41,.cls-42,.cls-44,.cls-45,.cls-47,.cls-48,.cls-51,.cls-52,.cls-53,.cls-54,.cls-55,.cls-56,.cls-7,.cls-8,.cls-9{stroke-miterlimit:10;}.cls-3{stroke:#ecb1d0;}.cls-16,.cls-3{stroke-width:8px;}.cls-4{fill:#f9bd38;}.cls-44,.cls-5{fill:#ef8491;}.cls-6{font-size:57px;font-family:CaviarDreams-Bold, Caviar Dreams;font-weight:700;}.cls-37,.cls-6{fill:#9a1f67;}.cls-32,.cls-7,.cls-8{fill:#2f1752;}.cls-7,.cls-8{stroke:#2f1752;}.cls-12,.cls-7,.cls-9{stroke-width:4px;}.cls-35,.cls-8{stroke-width:5px;}.cls-9{fill:#de4a9e;stroke:#de4a9e;}.cls-10{fill:#d11b2e;}.cls-10,.cls-11{stroke:#d11b2e;}.cls-10,.cls-11,.cls-15,.cls-20,.cls-22,.cls-23,.cls-26,.cls-27{stroke-width:2px;}.cls-12{stroke:#dd4d96;}.cls-13{stroke:#febb56;}.cls-13,.cls-17,.cls-19,.cls-21,.cls-28,.cls-29{stroke-width:3px;}.cls-14{fill:#e24a9b;}.cls-15{stroke:#ecc65c;}.cls-16{stroke:#d2e297;}.cls-17{stroke:#cbddd8;}.cls-18{fill:#ff1b30;}.cls-19{stroke:#c0d961;}.cls-20{stroke:#c1de4e;}.cls-21{stroke:#b4d7e7;}.cls-22{stroke:#e0469a;}.cls-23{stroke:#ff1b30;}.cls-24{fill:#eb499a;}.cls-25{fill:#bcd454;}.cls-26{stroke:#bcd454;}.cls-27{stroke:#eb2a33;}.cls-28{stroke:#c4dcd6;}.cls-29{stroke:#f2c05d;}.cls-30{fill:#ced7de;}.cls-31{fill:#d2e297;}.cls-33{fill:#e04c9b;}.cls-34{fill:#ecb1d0;}.cls-35{stroke:#bfd766;}.cls-36{fill:#bfd766;}.cls-38{fill:#636667;}.cls-39{fill:#868a8b;}.cls-40{fill:#232323;stroke:#9a1f67;}.cls-41{fill:#99204c;}.cls-41,.cls-45,.cls-52,.cls-53,.cls-54,.cls-55{stroke:#020000;}.cls-42{fill:#92d8ea;}.cls-42,.cls-47,.cls-48{stroke:#a0376b;}.cls-43{fill:#56db56;}.cls-44{stroke:#541616;}.cls-45{fill:#69cdf0;}.cls-46,.cls-52{fill:#e3e4e3;}.cls-47{fill:#fff;}.cls-48{fill:#dfdfde;}.cls-49{fill:#aaff3b;}.cls-50{fill:#282928;}.cls-51{fill:#f7e89f;stroke:#f7a34f;}.cls-53{fill:#797a7a;}.cls-54{fill:#363636;}.cls-55{fill:#d61a5e;}.cls-56{fill:#301751;stroke:#000202;}</style></defs><title>Artboard 12</title><path class="cls-1" d="M149.33,84.67A54.69,54.69,0,0,0,130.67,92,38.32,38.32,0,0,0,120,101.33a37.13,37.13,0,0,0-7.33,20c-.19,2.82-.88,12.76,4.67,22,2.62,4.37,5.18,6.16,4.67,9.33s-3.35,4.45-9.33,8.67c0,0-2.23,1.57-12,9.33-2.4,1.91-3.2,2.67-16,14.67-.86.81-6.3,5.9-14,13.33-11,10.64-13.23,13.07-12.67,16,.91,4.77,8.41,7.06,9.33,7.33,4.31,1.27,6.27,0,13.33,0a55,55,0,0,1,12,1.33c9.36,2.3,15.3,9,18,12,12.7,14.25,9.89,37.17,8.67,46.67-4.27,33.05-20.61,41.81-16,54,5,13.31,28.25,12.72,70.67,17.33,85.63,9.32,128.45,14,155.33,34.67,8.66,6.66,22.83,19.6,43.33,20,12.47.24,21.78-4.26,33.33-10,36.18-18,31.58-33.84,58-42,34-10.49,45.33-13.33,45.33-13.33a24.78,24.78,0,0,0,11.33-6c1.93-1.84,5.69-5.44,6-10,.49-7.31-8.41-9.71-18.67-24-4.09-5.7-6.76-9.42-8-15.33-2.35-11.21,2.24-21.71,2.67-22.67,2.63-5.83,4.54-5.9,4.67-9.33.29-7.61-8.77-16.46-18-17.33-5.69-.54-7.18,2.35-12,1.33-7.16-1.51-11.11-9.39-14-15.33-6-12.44-10.54-32.11-4-36,3.63-2.16,9.56,1.19,13.33,3.33,9.11,5.16,9.48,10.85,15.33,14,10,5.4,28.53-.83,31.33-10,4.22-13.8-27.26-33.67-32-36.67-23.21-14.65-29.16-7.73-71.33-26-10-4.34-18.37-8.49-32-11.33-10.42-2.17-13.86-1.47-31.33-3.33-17.82-1.9-27.39-2.91-38.67-6a156.31,156.31,0,0,1-41.33-18.67c-18.26-11.63-21.35-18.93-36-22.67-7.48-1.91-13.43-1.49-25.33-.67C185.52,71.8,181.84,77.69,149.33,84.67Z"/><path class="cls-2" d="M490.67,196.67A24.33,24.33,0,0,0,502.33,186c4.79-9.15,2.69-20.75-3.67-27.33-5.69-5.89-14-6.95-19.67-7.67-.63-.08-1.64-.19-7-.33-10.78-.28-19.44-.15-28,0L426,151"/><path class="cls-3" d="M495,202.13a28.66,28.66,0,0,0,13.22-13.4c5.43-11.49,3-26.07-4.16-34.34-6.45-7.4-15.85-8.73-22.29-9.63a75.14,75.14,0,0,0-7.93-.42c-12.22-.35-22-.18-31.74,0-8,.15-14.95.3-20.4.42"/><path class="cls-4" d="M98.33,326c-3.81,2.59-8.8,6-11.67,7.83L83.33,336c-1.14.68-2.2,1.49-3.33,2.17a3.72,3.72,0,0,0-1.67,1.5,2.24,2.24,0,0,0-.17,1.83c.33.68,1.08.74,2.5,1.33a27.1,27.1,0,0,1,2.5,1.33A29,29,0,0,0,88.33,346c3.72,1.18,3.83,1.55,7.83,2.83.67.21,2.44.17,4,1.17a3.94,3.94,0,0,1,1.33,1.33,3.88,3.88,0,0,1,.5,1.83c.18,4,2,7.66,3,11.5.7,2.73,1.91,5.36,2.17,8.17a2.44,2.44,0,0,0,.83,1.83,2.09,2.09,0,0,0,1.67.17,2.94,2.94,0,0,0,1.5-1.5c.77-1.34,2-2.37,2.83-3.67,3-4.59,11-12.71,10.5-13.17-.17-.17-1.37.76-1.33.83a12.29,12.29,0,0,1,3.67-1.5c1.67-.29,2.37.19,4.67.5,2.13.29,2.54,0,6,0,1.16,0,1.23,0,6.83.33,2.57.13,2.72.39,3.33.17a3.75,3.75,0,0,0,2.33-3.5c-.08-1-.68-1.17-2.5-3.5-.72-.92-1.26-1.72-2.33-3.33-.45-.67-1.27-1.92-2.5-4-3.2-5.41-4.46-8.48-4.83-8.33s.07,1.51.17,1.5a16.84,16.84,0,0,1,.5-4.67,15.89,15.89,0,0,1,1-2.33c.35-.76.39-.88,2.17-5.33,2-4.93,2.23-5.55,2.5-6.17a16.43,16.43,0,0,0,1.83-4,3.16,3.16,0,0,0,0-1.83,3,3,0,0,0-1.5-1.67,3.28,3.28,0,0,0-2-.17,5.7,5.7,0,0,0-1.83.67c-1,.51-2.12.86-3.17,1.33-2.84,1.29-4.28,1.19-8.83,2.83-3.37,1.22-3.85,1.73-5.5,1.67a11.26,11.26,0,0,1-4.67-1.5,23.35,23.35,0,0,1-5.17-3.5c-1.89-1.66-1.45-1.75-4.17-4.33-2.9-2.76-2.74-2-4.17-3.67a6.16,6.16,0,0,0-2.5-2,2.78,2.78,0,0,0-2.17-.17C99,301.5,99,304,98.83,304a4.85,4.85,0,0,1,0-1.67C99,302.34,98.76,311.5,98.33,326Z"/><path class="cls-5" d="M191.59,124.65c-1.77-.41-8.18-.52-21-.75-5.25-.09-8.68.06-12.25-.25-1.41-.12-2.83-.16-4.25-.25a16.06,16.06,0,0,0-4,0,5.93,5.93,0,0,0-3.25,1.25,4.07,4.07,0,0,0-1.5,2.75c0,1,.46,1.51,1.75,3.5,1.39,2.14.16.48,2,3.25,2,3,3.57,5.15,5.25,7.5l3.5,5c3.17,4.54,4.75,6.8,6.25,9,1.22,1.79,2.95,4.35,5,7.5a3.73,3.73,0,0,1,2,2c.39,1.16-.2,2.17-1,4.25-.41,1.08,1.68-4.12-1.5,4.75-4.51,12.6-6.76,18.9-7.58,20.75-1.61,3.63-2.34,7.64-4.17,11.17a6.7,6.7,0,0,0-.83,3.83,5.24,5.24,0,0,0,2,3.67c1.43.92,3.16.53,4.67.17,5.93-1.44,8.9-2.15,11.83-3.17,3.49-1.2,2.18-.67,8.83-2.83s6.71-2.25,8.83-2.83c5.08-1.39,5.31-1,7.33-2a6.63,6.63,0,0,1,2.83-.83,6.88,6.88,0,0,1,3.83,1.17,54,54,0,0,1,7.83,6c1.92,1.67.88.64,6.17,5,4.43,3.65,4.92,4.17,7,5.83,2.59,2.07,4.68,3.48,8.83,6.33,6.22,4.27,2,1,4.5,2.67a5.44,5.44,0,0,0,3.17,1.33,2.9,2.9,0,0,0,2-.67c.64-.62.66-1.48.67-3.17,0-3.13,0-4.69,0-5.83,0-.62,0-1.69,0-3.83,0-3.72.12-6.38.17-7.83.27-8.61-.42-10.89,0-18.17.28-4.84.6-4.1.67-7.5a10.19,10.19,0,0,1,.5-3.67,9.19,9.19,0,0,1,2.83-3.83c4-3.36,9.18-5.43,13.33-7.33,4.6-2.11,4.93-2.78,8.17-4.17.63-.27,2.39-1,4.67-2.17a24.59,24.59,0,0,0,4.17-2.5c1-.77.84-.8,2.17-1.83,1.17-.91,1.73-1.23,2.17-2a4.45,4.45,0,0,0,.5-2c0-2.4-3.58-4.33-5.17-5.17a90.87,90.87,0,0,0-12.33-5.5c-9.12-3-10.55-2.84-15.5-4.83-.89-.36-3.86-1.58-8-3-.92-.31-1.74-.19-2.5-.83a3.67,3.67,0,0,1-1-1.5,20.46,20.46,0,0,1-1.5-4.33c-.87-5.22-2.81-10.21-4.17-15.33-2.7-10.22-3.41-11.11-3.83-14.17,0-.11-.51-2.24-1.5-6.5a7.92,7.92,0,0,0-.67-1.83,5.28,5.28,0,0,0-1.33-1.83,4.71,4.71,0,0,0-2.83-1,4.76,4.76,0,0,0-2.83.67,5.45,5.45,0,0,0-1.67,1.83c-1.73,2.54.22-.76-2.83,3.83-2,3-2.26,3.56-3.33,5.17s-2.22,3-4.67,6.17c-2.17,2.77-2.63,3.26-4.5,5.67s-1.76,2.39-3.67,4.83c-2.87,3.68-2.85,3.43-3.33,4.33a9.11,9.11,0,0,1-2,2.83,4.94,4.94,0,0,1-4.92,1.25Z"/><text class="cls-6" transform="translate(95.67 506.12)">CRESCENDO</text><line class="cls-7" x1="387" y1="518" x2="476.67" y2="518"/><line class="cls-8" x1="451.67" y1="448.67" x2="451.67" y2="538.67"/><line class="cls-9" x1="357.33" y1="527.54" x2="445.33" y2="527.54"/><line class="cls-10" x1="68.25" y1="214" x2="74.25" y2="217"/><line class="cls-11" x1="63.25" y1="214.25" x2="59.75" y2="220"/><line class="cls-11" x1="66.75" y1="208" x2="71.25" y2="202.75"/><line class="cls-11" x1="61.5" y1="209.25" x2="55.25" y2="205.38"/><circle class="cls-12" cx="89.31" cy="173.06" r="6.06"/><path class="cls-13" d="M74.5,314.25a7.44,7.44,0,0,1-5.25.75,7.29,7.29,0,0,1-4.75-3.75c-1.69-3.51.5-6.87.75-7.25A6.14,6.14,0,0,1,73,301.5a6.82,6.82,0,0,1,3,2c1.82,2.2,1.61,5.26,1.75,5.25s.08-.27,0-1.75"/><circle class="cls-14" cx="100.58" cy="387.75" r="5.08"/><line class="cls-15" x1="133.09" y1="403.17" x2="139.92" y2="407.17"/><line class="cls-15" x1="133" y1="400" x2="142" y2="397.17"/><line class="cls-15" x1="129.83" y1="405.17" x2="132" y2="412.83"/><line class="cls-15" x1="121.67" y1="411" x2="126.33" y2="404"/><line class="cls-15" x1="115.93" y1="393.5" x2="124" y2="397.83"/><line class="cls-15" x1="115.93" y1="403.67" x2="125.33" y2="401.5"/><line class="cls-15" x1="126.83" y1="395.67" x2="124.83" y2="387"/><line class="cls-15" x1="135.5" y1="389.17" x2="130.92" y2="397"/><path class="cls-16" d="M206.75,74c-5.83,0-14.58.09-25.25.25-13.82.21-18.86.4-28,.5-16.21.18-29.92-.17-33.5-.25-8.72-.2-13.39-.41-23.5-.5-6.44-.06-12.59.17-16.25,0-.28,0-1.23-.06-2.5,0a30.48,30.48,0,0,0-5.25.75,33.51,33.51,0,0,0-6.25,1.75,20.32,20.32,0,0,0-6,3.5A20.79,20.79,0,0,0,55,87.5a19.18,19.18,0,0,0-1,15.75,21.68,21.68,0,0,0,4.75,9c.73.77,3.47,3.55,11.25,5.75a54.06,54.06,0,0,0,19.5,1.75"/><line class="cls-17" x1="60" y1="141.5" x2="72.5" y2="149.25"/><line class="cls-17" x1="70" y1="139.25" x2="63" y2="151"/><circle class="cls-18" cx="251.62" cy="92.13" r="3.88"/><line class="cls-19" x1="310.25" y1="87" x2="323.75" y2="87"/><line class="cls-20" x1="317" y1="79.5" x2="317" y2="93.75"/><path class="cls-21" d="M385.25,89.75a9.06,9.06,0,0,1-11.5-5c-.16-.4-1.82-4.8,1-8.25,2.49-3.06,6.41-2.83,7.25-2.75a8.4,8.4,0,0,1,6.25,3.5,8,8,0,0,1,1.25,5"/><line class="cls-22" x1="364.5" y1="118.75" x2="376.5" y2="126.25"/><line class="cls-22" x1="375" y1="116.75" x2="367.5" y2="128.25"/><line class="cls-23" x1="439.76" y1="114.75" x2="445.25" y2="117.75"/><line class="cls-23" x1="447.25" y1="122.5" x2="444" y2="127.25"/><line class="cls-23" x1="451.25" y1="116.25" x2="455.25" y2="110.75"/><line class="cls-23" x1="451.53" y1="121.19" x2="458.25" y2="124.88"/><path class="cls-24" d="M478.75,192.75l-79.69-.51-11.56-.07c-5.79,0-5.8,9,0,9l79.69.51,11.56.07c5.79,0,5.8-9,0-9Z"/><circle class="cls-25" cx="475.37" cy="231.13" r="3.63"/><line class="cls-26" x1="471.75" y1="181.75" x2="486.5" y2="181.75"/><line class="cls-26" x1="479.13" y1="188.75" x2="479.13" y2="176.5"/><line class="cls-26" x1="508.5" y1="232.75" x2="505.75" y2="222.5"/><line class="cls-26" x1="512" y1="232.5" x2="517" y2="225.5"/><line class="cls-26" x1="510.53" y1="241.16" x2="511.85" y2="250.09"/><line class="cls-26" x1="504.75" y1="234.75" x2="496.66" y2="229"/><line class="cls-26" x1="505.5" y1="238.25" x2="497.75" y2="239.75"/><line class="cls-26" x1="513.25" y1="239" x2="521" y2="244.5"/><line class="cls-26" x1="507.13" y1="240.5" x2="503.01" y2="246.94"/><line class="cls-26" x1="514.5" y1="236" x2="523.5" y2="231.88"/><line class="cls-27" x1="513.25" y1="319.5" x2="518.75" y2="322.75"/><line class="cls-27" x1="505.43" y1="325.75" x2="508.86" y2="319.5"/><line class="cls-27" x1="512.19" y1="314.5" x2="516" y2="309"/><line class="cls-27" x1="507.15" y1="315.75" x2="501.11" y2="311.75"/><line class="cls-26" x1="460.5" y1="380.5" x2="467.75" y2="369.75"/><line class="cls-26" x1="458" y1="371.5" x2="470.25" y2="378.75"/><circle class="cls-28" cx="481.31" cy="348.56" r="12.56"/><path class="cls-29" d="M444.75,247.5a8.35,8.35,0,0,1-5.25.25A6.93,6.93,0,0,1,435,237.5a7.13,7.13,0,0,1,4.5-3.25,7.35,7.35,0,0,1,5.5,1,8.27,8.27,0,0,1,3.5,6.5"/><ellipse class="cls-30" cx="273" cy="420.79" rx="153" ry="5.79"/><path class="cls-31" d="M206.67,70.63h-1.33a3.06,3.06,0,0,0-.32,0c-.12,0-.22,0-.35,0-4.34,0-4.35,6.75,0,6.75.12,0,.22,0,.34,0a3.25,3.25,0,0,0,.33,0h1.33a3.37,3.37,0,1,0,0-6.75Z"/><path class="cls-32" d="M451.67,534.3c-3.47,0-3.48,5.4,0,5.4S455.15,534.3,451.67,534.3Z"/><path class="cls-32" d="M451.67,446.8c-3.47,0-3.48,5.4,0,5.4S455.15,446.8,451.67,446.8Z"/><path class="cls-32" d="M478.53,517.23a1,1,0,0,0-1.17-.79,1.08,1.08,0,0,0-1.23-.47l-2.88,1.09c-1.34.51-.76,2.68.6,2.17l1.77-.67a4,4,0,0,0,.55.87,1.14,1.14,0,0,0,1.36.18A2,2,0,0,0,478.53,517.23Z"/><path class="cls-32" d="M389.07,517a2.78,2.78,0,0,0-3.85.23,1.16,1.16,0,0,0-.18,1.36,2.26,2.26,0,0,0,3,.8,1,1,0,0,0,.44-.51,1,1,0,0,0,.61-.29A1.13,1.13,0,0,0,389.07,517Z"/><path class="cls-33" d="M490.67,200c4.34,0,4.35-6.75,0-6.75s-4.35,6.75,0,6.75Z"/><path class="cls-34" d="M496.67,205.38c4.34,0,4.35-6.75,0-6.75s-4.35,6.75,0,6.75Z"/><path class="cls-34" d="M498.71,201.67v-.33a3.38,3.38,0,0,0-6.75,0v.33a3.38,3.38,0,0,0,6.75,0Z"/><path class="cls-34" d="M496,204.38c4.34,0,4.35-6.75,0-6.75s-4.35,6.75,0,6.75Z"/><path class="cls-34" d="M496,205c4.34,0,4.35-6.75,0-6.75s-4.35,6.75,0,6.75Z"/><path class="cls-34" d="M496,205.38c4.34,0,4.35-6.75,0-6.75s-4.35,6.75,0,6.75Z"/><path class="cls-34" d="M495.67,199.29h-.33a3.38,3.38,0,0,0,0,6.75h.33a3.38,3.38,0,0,0,0-6.75Z"/><path class="cls-35" d="M133.67,24.67c46,.4,64.31.3,69,0a27.54,27.54,0,0,1,3.67,0,29.85,29.85,0,0,1,12.33,3.67,26.49,26.49,0,0,1,10.67,10A24.74,24.74,0,0,1,232.67,50a23.65,23.65,0,0,1-3,12A23.23,23.23,0,0,1,221,70.67"/><path class="cls-36" d="M221.67,72.92c2.9,0,2.9-4.5,0-4.5s-2.9,4.5,0,4.5Z"/><path class="cls-36" d="M220.67,73.25c2.9,0,2.9-4.5,0-4.5s-2.9,4.5,0,4.5Z"/><path class="cls-36" d="M134,26.92c2.9,0,2.9-4.5,0-4.5s-2.9,4.5,0,4.5Z"/><path class="cls-31" d="M90.05,123.05l.33-.33a3.38,3.38,0,1,0-4.77-4.77l-.33.33a3.38,3.38,0,1,0,4.77,4.77Z"/><path class="cls-31" d="M89,123.38c4.34,0,4.35-6.75,0-6.75s-4.35,6.75,0,6.75Z"/><path class="cls-31" d="M85.63,119.67V120a3.38,3.38,0,0,0,6.75,0v-.33a3.38,3.38,0,0,0-6.75,0Z"/><path class="cls-31" d="M89,123.71c4.34,0,4.35-6.75,0-6.75s-4.35,6.75,0,6.75Z"/><path class="cls-31" d="M89.33,123.38c4.34,0,4.35-6.75,0-6.75s-4.35,6.75,0,6.75Z"/><path class="cls-31" d="M89.33,123.38c4.34,0,4.35-6.75,0-6.75s-4.35,6.75,0,6.75Z"/><path class="cls-31" d="M89.67,122.71c4.34,0,4.35-6.75,0-6.75s-4.35,6.75,0,6.75Z"/><path class="cls-31" d="M209.71,74.67v-.33a3.38,3.38,0,0,0-6.75,0v.33a3.38,3.38,0,0,0,6.75,0Z"/><path class="cls-31" d="M206.33,76.71c4.34,0,4.35-6.75,0-6.75s-4.35,6.75,0,6.75Z"/><path class="cls-37" d="M104,199.5h-.5a4.64,4.64,0,0,0-3.18,1.32,4.5,4.5,0,0,0,0,6.36,4.68,4.68,0,0,0,3.18,1.32h.5a4.64,4.64,0,0,0,3.18-1.32,4.5,4.5,0,0,0,0-6.36A4.68,4.68,0,0,0,104,199.5Z"/><polygon class="cls-38" points="218.31 215.67 175.92 224.26 186.21 275.02 193.86 273.47 184.97 229.62 219.72 222.58 218.31 215.67"/><rect class="cls-39" x="176.04" y="221.9" width="23.41" height="3.53" transform="translate(-40.7 41.77) rotate(-11.46)"/><polygon class="cls-38" points="330.82 192.85 373.22 184.26 383.51 235.01 375.86 236.56 366.97 192.72 332.22 199.76 330.82 192.85"/><rect class="cls-39" x="350.39" y="186.55" width="23.41" height="3.53" transform="translate(-30.2 75.71) rotate(-11.46)"/><path class="cls-40" d="M431.34,352.4a4.14,4.14,0,0,1-3.47,4.7l-235,47.64a4.14,4.14,0,0,1-5-3l-24-118.23a4.14,4.14,0,0,1,3.47-4.7l235-47.64a4.14,4.14,0,0,1,5,3Z"/><rect class="cls-41" x="198.54" y="201.45" width="153.45" height="12.53" transform="translate(-35.79 58.85) rotate(-11.46)"/><rect class="cls-42" x="268.29" y="290.65" width="54.54" height="34.27" transform="translate(-55.27 64.87) rotate(-11.46)"/><rect class="cls-43" x="280.16" y="328.54" width="43.01" height="18.71" transform="translate(-61.13 66.69) rotate(-11.46)"/><rect class="cls-44" x="254.89" y="361.57" width="104.9" height="8.62" transform="translate(-66.58 68.37) rotate(-11.46)"/><ellipse class="cls-45" cx="269.1" cy="373.63" rx="5.61" ry="5.07" transform="translate(-68.88 60.93) rotate(-11.46)"/><ellipse class="cls-45" cx="290.35" cy="369.32" rx="5.61" ry="5.07" transform="translate(-67.6 65.06) rotate(-11.46)"/><ellipse class="cls-45" cx="311.59" cy="365.01" rx="5.61" ry="5.07" transform="translate(-66.32 69.2) rotate(-11.46)"/><ellipse class="cls-46" cx="329.66" cy="278.82" rx="5.62" ry="5.08" transform="translate(-48.83 71.07) rotate(-11.46)"/><rect class="cls-47" x="212.68" y="271.56" width="56.78" height="14.88" transform="translate(-50.64 53.47) rotate(-11.46)"/><rect class="cls-48" x="267.95" y="256.45" width="95.36" height="14.88" transform="translate(-46.15 67.99) rotate(-11.46)"/><path class="cls-49" d="M240.52,275.3c-10.66,2.16-18.4,8.39-17.28,13.91l38.62-7.83C260.74,275.86,251.19,273.14,240.52,275.3Z"/><rect class="cls-50" x="239.31" y="273.87" width="3.66" height="5.07" transform="translate(-50.12 53.43) rotate(-11.46)"/><rect class="cls-50" x="276.86" y="268.66" width="3.74" height="10.2" transform="translate(-48.84 60.85) rotate(-11.46)"/><rect class="cls-50" x="288.73" y="270.27" width="3.74" height="6.23" transform="translate(-48.53 63.2) rotate(-11.46)"/><rect class="cls-50" x="299.58" y="261.71" width="3.74" height="12.51" transform="translate(-47.24 65.25) rotate(-11.46)"/><rect class="cls-50" x="311.79" y="266.73" width="3.74" height="5.1" transform="translate(-47.26 67.7) rotate(-11.46)"/><rect class="cls-50" x="322.76" y="259.35" width="3.74" height="10.2" transform="translate(-46.08 69.79) rotate(-11.46)"/><rect class="cls-50" x="334.75" y="262.07" width="3.74" height="5.1" transform="translate(-45.87 72.17) rotate(-11.46)"/><rect class="cls-50" x="345.72" y="254.69" width="3.74" height="10.2" transform="translate(-44.7 74.26) rotate(-11.46)"/><ellipse class="cls-51" cx="188.14" cy="294.94" rx="12.57" ry="11.36" transform="translate(-54.86 43.27) rotate(-11.46)"/><ellipse class="cls-51" cx="188.14" cy="294.94" rx="6.84" ry="6.18" transform="translate(-54.86 43.27) rotate(-11.46)"/><ellipse class="cls-52" cx="228.25" cy="335.82" rx="40.31" ry="36.43" transform="translate(-62.18 52.06) rotate(-11.46)"/><ellipse class="cls-53" cx="228.25" cy="335.82" rx="32.68" ry="29.53" transform="translate(-62.18 52.06) rotate(-11.46)"/><ellipse class="cls-45" cx="228.25" cy="335.82" rx="12.36" ry="11.17" transform="translate(-62.18 52.06) rotate(-11.46)"/><ellipse class="cls-54" cx="213.66" cy="313.26" rx="1.95" ry="1.76" transform="translate(-57.99 48.71) rotate(-11.46)"/><ellipse class="cls-54" cx="223.27" cy="311.31" rx="1.95" ry="1.76" transform="translate(-57.41 50.58) rotate(-11.46)"/><ellipse class="cls-54" cx="232.88" cy="309.36" rx="1.95" ry="1.76" transform="translate(-56.83 52.45) rotate(-11.46)"/><ellipse class="cls-54" cx="210.28" cy="321.24" rx="1.95" ry="1.76" transform="translate(-59.64 48.19) rotate(-11.46)"/><ellipse class="cls-54" cx="219.89" cy="319.29" rx="1.95" ry="1.76" transform="translate(-59.07 50.07) rotate(-11.46)"/><ellipse class="cls-54" cx="229.5" cy="317.34" rx="1.95" ry="1.76" transform="matrix(0.98, -0.2, 0.2, 0.98, -58.49, 51.94)"/><ellipse class="cls-54" cx="239.11" cy="315.39" rx="1.95" ry="1.76" transform="translate(-57.91 53.81) rotate(-11.46)"/><ellipse class="cls-54" cx="206.89" cy="329.22" rx="1.95" ry="1.76" transform="translate(-61.3 47.68) rotate(-11.46)"/><ellipse class="cls-54" cx="216.5" cy="327.27" rx="1.95" ry="1.76" transform="translate(-60.72 49.55) rotate(-11.46)"/><ellipse class="cls-54" cx="235.73" cy="323.37" rx="1.95" ry="1.76" transform="translate(-59.56 53.29) rotate(-11.46)"/><ellipse class="cls-54" cx="245.34" cy="321.42" rx="1.95" ry="1.76" transform="translate(-58.98 55.17) rotate(-11.46)"/><ellipse class="cls-54" cx="203.51" cy="337.19" rx="1.95" ry="1.76" transform="translate(-62.95 47.17) rotate(-11.46)"/><ellipse class="cls-54" cx="213.12" cy="335.24" rx="1.95" ry="1.76" transform="translate(-62.37 49.04) rotate(-11.46)"/><ellipse class="cls-54" cx="241.95" cy="329.4" rx="1.95" ry="1.76" transform="translate(-60.63 54.65) rotate(-11.46)"/><ellipse class="cls-54" cx="251.56" cy="327.45" rx="1.95" ry="1.76" transform="translate(-60.06 56.52) rotate(-11.46)"/><ellipse class="cls-54" cx="200.12" cy="345.17" rx="1.95" ry="1.76" transform="translate(-64.6 46.65) rotate(-11.46)"/><ellipse class="cls-54" cx="209.73" cy="343.22" rx="1.95" ry="1.76" transform="translate(-64.02 48.52) rotate(-11.46)"/><ellipse class="cls-54" cx="248.18" cy="335.43" rx="1.95" ry="1.76" transform="translate(-61.71 56.01) rotate(-11.46)"/><ellipse class="cls-54" cx="257.79" cy="333.48" rx="1.95" ry="1.76" transform="translate(-61.13 57.88) rotate(-11.46)"/><ellipse class="cls-54" cx="206.35" cy="351.2" rx="1.95" ry="1.76" transform="translate(-65.68 48.01) rotate(-11.46)"/><ellipse class="cls-54" cx="215.96" cy="349.25" rx="1.95" ry="1.76" transform="translate(-65.1 49.88) rotate(-11.46)"/><ellipse class="cls-54" cx="244.79" cy="343.41" rx="1.95" ry="1.76" transform="translate(-63.36 55.5) rotate(-11.46)"/><ellipse class="cls-54" cx="254.4" cy="341.46" rx="1.95" ry="1.76" transform="translate(-62.78 57.37) rotate(-11.46)"/><ellipse class="cls-54" cx="212.57" cy="357.23" rx="1.95" ry="1.76" transform="translate(-66.75 49.37) rotate(-11.46)"/><ellipse class="cls-54" cx="222.18" cy="355.28" rx="1.95" ry="1.76" transform="translate(-66.17 51.24) rotate(-11.46)"/><ellipse class="cls-54" cx="231.8" cy="353.33" rx="1.95" ry="1.76" transform="translate(-65.59 53.11) rotate(-11.46)"/><ellipse class="cls-54" cx="241.41" cy="351.38" rx="1.95" ry="1.76" transform="translate(-65.01 54.98) rotate(-11.46)"/><ellipse class="cls-54" cx="251.02" cy="349.44" rx="1.95" ry="1.76" transform="translate(-64.44 56.85) rotate(-11.46)"/><ellipse class="cls-54" cx="228.41" cy="361.31" rx="1.95" ry="1.76" transform="matrix(0.98, -0.2, 0.2, 0.98, -67.25, 52.6)"/><ellipse class="cls-54" cx="238.02" cy="359.36" rx="1.95" ry="1.76" transform="translate(-66.67 54.47) rotate(-11.46)"/><ellipse class="cls-51" cx="389.49" cy="254.12" rx="12.57" ry="11.36" transform="translate(-42.73 82.47) rotate(-11.46)"/><ellipse class="cls-51" cx="389.49" cy="254.12" rx="6.84" ry="6.18" transform="translate(-42.73 82.47) rotate(-11.46)"/><ellipse class="cls-52" cx="368.48" cy="307.39" rx="40.31" ry="36.43" transform="translate(-53.74 79.36) rotate(-11.46)"/><ellipse class="cls-53" cx="368.48" cy="307.39" rx="32.68" ry="29.53" transform="translate(-53.74 79.36) rotate(-11.46)"/><ellipse class="cls-45" cx="368.48" cy="307.39" rx="12.36" ry="11.17" transform="translate(-53.74 79.36) rotate(-11.46)"/><ellipse class="cls-54" cx="373.12" cy="280.93" rx="1.95" ry="1.76" transform="translate(-48.39 79.75) rotate(-11.46)"/><ellipse class="cls-54" cx="363.51" cy="282.87" rx="1.95" ry="1.76" transform="translate(-48.96 77.88) rotate(-11.46)"/><ellipse class="cls-54" cx="353.9" cy="284.82" rx="1.95" ry="1.76" transform="translate(-49.54 76.01) rotate(-11.46)"/><ellipse class="cls-54" cx="379.35" cy="286.96" rx="1.95" ry="1.76" transform="translate(-49.46 81.11) rotate(-11.46)"/><ellipse class="cls-54" cx="369.74" cy="288.9" rx="1.95" ry="1.76" transform="translate(-50.04 79.24) rotate(-11.46)"/><ellipse class="cls-54" cx="360.12" cy="290.85" rx="1.95" ry="1.76" transform="translate(-50.62 77.37) rotate(-11.46)"/><ellipse class="cls-54" cx="350.51" cy="292.8" rx="1.95" ry="1.76" transform="translate(-51.2 75.5) rotate(-11.46)"/><ellipse class="cls-54" cx="385.57" cy="292.99" rx="1.95" ry="1.76" transform="translate(-50.53 82.47) rotate(-11.46)"/><ellipse class="cls-54" cx="375.96" cy="294.93" rx="1.95" ry="1.76" transform="translate(-51.11 80.6) rotate(-11.46)"/><ellipse class="cls-54" cx="356.74" cy="298.83" rx="1.95" ry="1.76" transform="translate(-52.27 76.85) rotate(-11.46)"/><ellipse class="cls-54" cx="347.13" cy="300.78" rx="1.95" ry="1.76" transform="matrix(0.98, -0.2, 0.2, 0.98, -52.85, 74.98)"/><ellipse class="cls-54" cx="391.8" cy="299.01" rx="1.95" ry="1.76" transform="translate(-51.61 83.82) rotate(-11.46)"/><ellipse class="cls-54" cx="382.19" cy="300.96" rx="1.95" ry="1.76" transform="translate(-52.19 81.95) rotate(-11.46)"/><ellipse class="cls-54" cx="353.35" cy="306.81" rx="1.95" ry="1.76" transform="matrix(0.98, -0.2, 0.2, 0.98, -53.92, 76.34)"/><ellipse class="cls-54" cx="343.74" cy="308.76" rx="1.95" ry="1.76" transform="translate(-54.5 74.47) rotate(-11.46)"/><ellipse class="cls-54" cx="398.02" cy="305.04" rx="1.95" ry="1.76" transform="translate(-52.68 85.18) rotate(-11.46)"/><ellipse class="cls-54" cx="388.41" cy="306.99" rx="1.95" ry="1.76" transform="translate(-53.26 83.31) rotate(-11.46)"/><ellipse class="cls-54" cx="349.97" cy="314.79" rx="1.95" ry="1.76" transform="translate(-55.58 75.83) rotate(-11.46)"/><ellipse class="cls-54" cx="340.36" cy="316.74" rx="1.95" ry="1.76" transform="translate(-56.16 73.96) rotate(-11.46)"/><ellipse class="cls-54" cx="394.64" cy="313.02" rx="1.95" ry="1.76" transform="translate(-54.33 84.67) rotate(-11.46)"/><ellipse class="cls-54" cx="385.03" cy="314.97" rx="1.95" ry="1.76" transform="translate(-54.91 82.8) rotate(-11.46)"/><ellipse class="cls-54" cx="356.19" cy="320.82" rx="1.95" ry="1.76" transform="matrix(0.98, -0.2, 0.2, 0.98, -56.65, 77.18)"/><ellipse class="cls-54" cx="346.58" cy="322.77" rx="1.95" ry="1.76" transform="translate(-57.23 75.31) rotate(-11.46)"/><ellipse class="cls-54" cx="391.25" cy="321" rx="1.95" ry="1.76" transform="translate(-55.99 84.15) rotate(-11.46)"/><ellipse class="cls-54" cx="381.64" cy="322.95" rx="1.95" ry="1.76" transform="translate(-56.57 82.28) rotate(-11.46)"/><ellipse class="cls-54" cx="372.03" cy="324.9" rx="1.95" ry="1.76" transform="translate(-57.15 80.41) rotate(-11.46)"/><ellipse class="cls-54" cx="362.42" cy="326.85" rx="1.95" ry="1.76" transform="translate(-57.72 78.54) rotate(-11.46)"/><ellipse class="cls-54" cx="352.81" cy="328.8" rx="1.95" ry="1.76" transform="translate(-58.3 76.67) rotate(-11.46)"/><ellipse class="cls-54" cx="378.26" cy="330.93" rx="1.95" ry="1.76" transform="translate(-58.22 81.77) rotate(-11.46)"/><ellipse class="cls-54" cx="368.65" cy="332.88" rx="1.95" ry="1.76" transform="translate(-58.8 79.9) rotate(-11.46)"/><path class="cls-55" d="M318.68,314.45a1.69,1.69,0,0,1-1.41,1.92l-38.35,7.78a1.69,1.69,0,0,1-2-1.21l-4.42-21.8a1.69,1.69,0,0,1,1.41-1.92l38.35-7.78a1.69,1.69,0,0,1,2,1.21Z"/><ellipse class="cls-56" cx="282.73" cy="308.64" rx="4.27" ry="3.86" transform="translate(-55.7 62.34) rotate(-11.46)"/><ellipse class="cls-56" cx="307.71" cy="303.57" rx="4.27" ry="3.86" transform="translate(-54.19 67.21) rotate(-11.46)"/><polygon class="cls-56" points="309.7 317.9 286.48 322.61 286.59 314.94 306.61 310.88 309.7 317.9"/></svg>