<svg xmlns="http://www.w3.org/2000/svg" viewBox="0 0 595.28 841.89"><defs><style>.cls-1 {
    fill: #edece8;
}

@font-face{
  font-family: CaviarDreams-Bold;
  src: url(fonts/CaviarDreams_Bold.ttf);
}


.cls-2,
.cls-9 {
    fill: #de2c93;
}

.cls-3 {
    fill: #b6df3e;
}

.cls-4 {
    fill: #ff0500;
}

.cls-5 {
    fill: #b5e0d9;
}

.cls-6 {
    fill: #cfd6d4;
}

.cls-7 {
    fill: #f2bd3c;
}

.cls-8 {
    fill: #c1e1ca;
}

.cls-9 {
    opacity: 0.48;
}

.cls-10 {
    opacity: 0.7;
}

.cls-11,
.cls-12 {
    fill: none;
}

.cls-11 {
    stroke: #ff0500;
    stroke-width: 2px;
}

.cls-11,
.cls-12,
.cls-16,
.cls-17 {
    stroke-miterlimit: 10;
}

.cls-12 {
    stroke: #b6df3e;
    stroke-width: 3px;
}

.cls-13 {
    font-size: 60px;
    fill: #8e0151;
    font-family: CaviarDreams-Bold, Caviar Dreams;
    font-weight: 700;
}

.cls-14 {
    letter-spacing: 0em;
}

.cls-15 {
    fill: #160137;
}

.cls-16 {
    fill: #f42072;
}

.cls-16,
.cls-17 {
    stroke: #140335;
    stroke-width: 5px;
}

.cls-17 {
    fill: #fff;
}

</style></defs><title>Artboard 11</title><g id="Layer_1" data-name="Layer 1"><path class="cls-1" d="M226.34,133.47s68.48,54.68,139.7,58.89,79.44,25.24,79.44,25.24,27.39,16.83,46.57,0,41.09,31.55,41.09,31.55,21.91,65.2-35.61,33.65,8.22,46.27,8.22,46.27,49.28-6.31,31.49,27.34S552.31,409,552.31,409s30.13,29.45-16.44,37.86-74,40-74,40,38.35-48.37-11-58.89-142.44,6.31-142.44,6.31l-16.44,27.34s-46.57,6.31-109.57-42.06-84.92-115.68-137-109.37,57.52-75.72,57.52-75.72-35.61-61,30.13-79.92S226.34,133.47,226.34,133.47Z"/><path class="cls-2" d="M472.18,220.95c11.92,0,23.86-.35,35.76.1,11,.42,20.42,4.78,27.07,13.91,9.46,13,5.59,32.36-8.23,40.32-1.72,1-4.65-.13-7-.27.62-2.24.51-5.45,2-6.57,7.78-5.9,11.41-13.16,8.93-22.84-2.14-8.36-10.16-15-20.43-15.48-16.44-.77-32.93-.66-49.4-.86-7.71-.09-15.43.07-23.14-.09-3.26-.07-7.93,1.16-7.78-4.34s4.85-4,8.06-4c11.39-.14,22.79-.06,34.19-.06Z"/><path class="cls-3" d="M275.5,191v13.5a1.5,1.5,0,0,0,3,0V191a1.5,1.5,0,0,0-3,0Z"/><path class="cls-3" d="M270,200.5h14.38a1.5,1.5,0,0,0,0-3H270a1.5,1.5,0,0,0,0,3Z"/><circle class="cls-4" cx="267.55" cy="161.52" r="3.95"/><path class="cls-5" d="M410.06,157.46a7.86,7.86,0,0,1-10.2-10.92c3.78-7.28,14.13-3.36,14.52,3.93.1,1.92,3.1,1.93,3,0-.52-9.73-13.65-15.29-19.59-6.25-6.23,9.49,3.72,20.25,13.78,15.82,1.77-.78.24-3.36-1.51-2.59Z"/><ellipse class="cls-6" cx="310.06" cy="513.02" rx="183.85" ry="8.65"/><path class="cls-3" d="M151.26,137.82c22.78,0,45.56-.1,68.33.18,1.94,0,3.86,2.52,5.79,3.86-1.71,1.64-3.18,4.14-5.2,4.73-2.92.85-6.25.36-9.4.37Q149,147,87.23,147a53.63,53.63,0,0,0-10.93,1.08c-10.36,2.19-16.44,9.77-16.13,19.62.3,9.61,7.18,17,17.58,18.44,4.84.66,9.76.7,14.66.88,3.06.11,5.62,1.27,4.89,4.48-.37,1.62-3.09,3.75-4.83,3.83-9.24.39-18.6.83-27-4.48-10.64-6.77-16.32-18.39-14-28.82,2.73-12.15,13.07-21.93,25.65-23,10.62-.89,21.34-.78,32-.88,14-.13,28,0,42.06,0Z"/><path class="cls-3" d="M182.87,86.29c11.92,0,23.86-.35,35.76.1,11,.42,20.42,4.78,27.07,13.91,9.46,13,5.59,32.36-8.23,40.32-1.72,1-4.65-.13-7-.27.62-2.24.51-5.45,2-6.57,7.78-5.9,11.41-13.16,8.93-22.84-2.14-8.36-10.16-15-20.43-15.48-16.44-.77-32.93-.66-49.4-.86-7.71-.09-15.43.07-23.14-.09-3.26-.07-7.93,1.16-7.78-4.34s4.85-4,8.06-4c11.39-.14,22.79-.06,34.19-.06Z"/><path class="cls-7" d="M513.11,363.24a6.39,6.39,0,0,1-8.28-8.88c3.07-5.92,11.49-2.73,11.81,3.2.1,1.92,3.1,1.93,3,0-.45-8.44-11.82-13.2-17-5.38-5.4,8.22,3.26,17.48,11.94,13.66,1.77-.78.24-3.36-1.51-2.59Z"/><path class="cls-2" d="M116.83,271.34c-.36,6.61-10.33,6.67-10.33,0s10-6.62,10.33,0c.1,1.92,3.1,1.93,3,0a8.16,8.16,0,1,0-8.53,8.14c4.76.21,8.28-3.57,8.53-8.14C119.93,269.41,116.93,269.41,116.83,271.34Z"/><path class="cls-3" d="M509.57,250.24v13.5a1.5,1.5,0,0,0,3,0v-13.5a1.5,1.5,0,0,0-3,0Z"/><path class="cls-3" d="M503.73,258.79h14.38a1.5,1.5,0,0,0,0-3H503.73a1.5,1.5,0,0,0,0,3Z"/><path class="cls-3" d="M101.37,329.33v13.5a1.5,1.5,0,0,0,3,0v-13.5a1.5,1.5,0,0,0-3,0Z"/><path class="cls-3" d="M98.62,348.5H113a1.5,1.5,0,0,0,0-3H98.62a1.5,1.5,0,0,0,0,3Z"/><path class="cls-7" d="M102.64,402.52c-5.84,2.57-11.79-4-7.92-9.38,3.66-5.08,11.13-2.18,11.45,3.69.1,1.92,3.1,1.93,3,0-.48-8.83-12.09-13-17.18-5-5.26,8.21,3.85,17,12.16,13.32,1.76-.78.24-3.36-1.51-2.59Z"/><circle class="cls-3" cx="507.24" cy="310.21" r="4.09"/><path class="cls-8" d="M111.65,213.78l-7.12,11.47c-1,1.64,1.57,3.15,2.59,1.51l7.12-11.47c1-1.64-1.57-3.15-2.59-1.51Z"/><path class="cls-8" d="M102.24,217.94l12.21,7.59c1.64,1,3.15-1.57,1.51-2.59l-12.21-7.59c-1.64-1-3.15,1.57-1.51,2.59Z"/><path class="cls-9" d="M475.46,212.42c12.6,0,25.22-.43,37.81.12,11.62.51,21.59,5.79,28.62,16.84,10,15.72,5.91,39.15-8.7,48.78-1.82,1.2-4.91-.15-7.42-.32.66-2.71.54-6.59,2.1-7.94,8.22-7.14,12.07-15.92,9.44-27.63a23.64,23.64,0,0,0-21.6-18.73c-17.38-.94-34.81-.8-52.22-1-8.15-.11-16.31.08-24.47-.11-3.45-.08-8.39,1.4-8.22-5.25s5.13-4.82,8.52-4.87c12-.17,24.1-.07,36.15-.07Z"/><g id="_Group_" data-name="&lt;Group&gt;" class="cls-10"><path class="cls-3" d="M165.67,103.85h37.87c3.87,0,3.87-6,0-6H165.67c-3.87,0-3.87,6,0,6Z"/></g><path class="cls-11" d="M477.23,193l-4.49,7.22"/><path class="cls-11" d="M484.81,180.81l-4.57,7.36"/><path class="cls-11" d="M481.78,193l6.87,4.26"/><path class="cls-11" d="M468,184.39l7.48,4.64"/><path class="cls-12" d="M541.36,318.57l-5.65,9.09"/><path class="cls-12" d="M550.9,303.2l-5.75,9.27"/><path class="cls-12" d="M547.09,318.52l8.64,5.37"/><path class="cls-12" d="M529.68,307.71l9.41,5.85"/><path class="cls-12" d="M540.27,316.47l-10.34,2.75"/><path class="cls-12" d="M557.75,311.82l-10.54,2.81"/><path class="cls-12" d="M544.48,320.37l2.62,9.83"/><path class="cls-12" d="M539.21,300.56l2.85,10.71"/><path class="cls-11" d="M542.31,403.84l-4.49,7.22"/><path class="cls-11" d="M549.89,391.64,545.32,399"/><path class="cls-11" d="M546.87,403.81l6.87,4.26"/><path class="cls-11" d="M533,395.21l7.48,4.64"/><path class="cls-11" d="M68,290.86l-4.49,7.22"/><path class="cls-11" d="M75.56,278.65,71,286"/><path class="cls-11" d="M72.54,290.82l6.87,4.26"/><path class="cls-11" d="M58.7,282.23l7.48,4.64"/><text class="cls-13" transform="translate(151 602.88)">DRAME<tspan class="cls-14" x="197.64" y="0">B</tspan><tspan x="230.33" y="0">AAZ</tspan></text><path class="cls-15" d="M479,544v92c0,3.87,6,3.87,6,0V544c0-3.87-6-3.87-6,0Z"/><path class="cls-15" d="M414,619h92c3.87,0,3.87-6,0-6H414c-3.87,0-3.87,6,0,6Z"/><path class="cls-2" d="M382,629h92c3.87,0,3.87-6,0-6H382c-3.87,0-3.87,6,0,6Z"/></g><g id="Layer_3" data-name="Layer 3"><path id="_Path_" data-name="&lt;Path&gt;" class="cls-16" d="M108.9,478c12.09.77,24.17,1.83,36.28,2.21s24,.08,37.63.08c-1.84-1.19-2.9-1.79-3.88-2.51-26.08-19.31-40.09-46-46-77.16-2.33-12.39-2.87-25.17-3.57-37.8-.19-3.34,2-6.81,3.15-10.23,3.35,1.68,7.12,2.83,9.95,5.14,4.82,3.95,8.71,9,13.58,12.9,9.56,7.59,20.74,12.14,32.88,12.45,11.52.29,23.09-1.06,34.63-1.79,1.33-.08,2.62-.83,4.39-1.42L224,375.1l12.13-2.45a10.62,10.62,0,0,0-2.26-1.17c-9.69-1.22-17-6.3-22.05-14.4-10.39-16.6-15.53-35.37-22.32-54.11l10.34,2.41c-3.85-6.87-13.06-9-12.48-18.17l4.13-.88c-8.73-4.87-5.37-12.83-7-19.43l1-1c3.58,2.21,7.13,4.45,10.75,6.6.58.34,1.44.17,2.13.36,4.31,1.16,8.67,2.18,12.86,3.67.82.29,1.12,2.39,1.41,3.71.57,2.52,1,5.07,2.44,7.57l1.33-8.24,22.3,11.12,1.05-23.49,1.41-.66,4.44,7,1.83-1.3c-2.78-6.51-8.83-12.4-4.26-20.37l4.12,5,1.34-.31c-5.45-7.95-3.07-15.61.37-24.5l9.18,13.39,2.19-1.21c7.23,4.14,11.91,9.24,6.88,18.34l1.59.12,5.46-7.8,6.92,9,12.53-36.25,5.54,7.32.92-.25V214.38l4.66,5.15,1.45,0c-4-9.26.81-15.74,6-22.58,3.28,4.79,8.41,8.52,5.84,15.6l2.93-2.44c5.41,6.47,7.17,13.64,3.44,21.9l1.44.15,5.15-7.05c4,11,12.25,20.38,5.08,32.7a48.49,48.49,0,0,0-5.12,12.76l10.62-16.3,2.43,14.59L354,258.12l2.54,5.84c-.29-9.43,3.07-15.87,12.1-17.71l9.1-10.29c4.47,7,6,13.52,1,21.33l3.83-2c5.51,7.55-1.29,12.62-3.66,19.32l7.75-3.79,1.45,19L409.43,278l.73,7.08c.65-.43,1.28-.62,1.34-.91,1.38-7,6.18-9.42,12.73-10.62,5.78-1.06,11.31-3.44,17-5.25,3.16,7.63,1.45,14.31-4.75,17.91,3.91,2.26,4.51,5.46,1.37,8.65s-6.36,6-9.32,9.62l10.8-3.36c-.35,2.26-.33,4.17-1,5.84-5.53,14.61-11.07,29.21-16.82,43.74-4.2,10.62-12.42,16.54-23.38,19a12.51,12.51,0,0,0-5.36,2.43h10.88l-3.32,8c4.25.89,8.24,2.14,12.32,2.51,29.12,2.63,54.86-5,76.24-25.56a21.11,21.11,0,0,1,2.86-2.42c3.11-2.07,5.24-1.36,6.39,2.28a17.53,17.53,0,0,1,.82,5.54c-.63,29.51-6.23,57.86-20.19,84.17A100.72,100.72,0,0,1,455.67,476c-1.18,1-2.48,1.88-4.58,3.45,3.6,1.18,6,1.64,8.1,2.76,1.76,1,3.11,2.66,4.65,4-1.62,1.07-3.12,2.78-4.88,3.1-6.92,1.27-13.89,2.72-20.88,3-22.35.85-44.72,1.78-67.07,1.55-14.17-.15-28.3-2.54-42.48-3.45a118.35,118.35,0,0,0-22,.35,472.52,472.52,0,0,1-91.87,2.86c-31.29-2.23-62.88-3.55-93.65-10.9-4.17-1-8.24-2.4-12.36-3.62Z"/><path id="_Path_2" data-name="&lt;Path&gt;" class="cls-17" d="M184.65,415.2c1.12,3.37,1.71,5.91,2.77,8.22,12.69,27.66,45.1,37.35,70.69,27.38,7.1-2.76,14.47-4.83,21.7-7.24,1-.33,2-.75,3.1-1.18-3.84-15.26-12.79-25.29-27.86-29.66-11-3.19-21.57-1.78-32.1,2.29-9.28,3.58-18.86,5.87-28.88,3.24C191.28,417.52,188.57,416.48,184.65,415.2Z"/><path id="_Path_3" data-name="&lt;Path&gt;" class="cls-17" d="M432.59,415.45c-3.67,1.17-6.45,2.23-9.32,2.94-10.06,2.49-19.56-.14-28.88-3.58-8.82-3.25-17.65-4.85-27.11-3.13-16.83,3.07-30.56,16-32.23,30.74,6.95,2.37,14,4.3,20.72,7.15q27.75,11.82,53.5-3.44A49.3,49.3,0,0,0,432.59,415.45Z"/><path id="_Path_4" data-name="&lt;Path&gt;" class="cls-17" d="M326.85,475.24c-10.57-9.41-25.06-9.25-31.12,0Z"/><circle class="cls-17" cx="216" cy="393" r="5"/><circle class="cls-17" cx="234" cy="389" r="5"/><circle class="cls-17" cx="243" cy="301" r="5"/><circle class="cls-17" cx="225" cy="296" r="5"/><circle class="cls-17" cx="206" cy="320" r="5"/><circle class="cls-17" cx="214" cy="337" r="5"/><circle class="cls-17" cx="223" cy="353" r="5"/><circle class="cls-17" cx="239" cy="362" r="5"/><circle class="cls-17" cx="250" cy="379" r="5"/><circle class="cls-17" cx="406" cy="349" r="5"/><circle class="cls-17" cx="479" cy="410" r="5"/><circle class="cls-17" cx="486" cy="391" r="5"/><circle class="cls-17" cx="486" cy="374" r="5"/><circle class="cls-17" cx="463" cy="386" r="5"/><circle class="cls-17" cx="444" cy="390" r="5"/><circle class="cls-17" cx="425" cy="391" r="5"/><circle class="cls-17" cx="407" cy="390" r="5"/><circle class="cls-17" cx="388" cy="385" r="5"/><circle class="cls-17" cx="386" cy="360" r="5"/><circle class="cls-17" cx="415" cy="332" r="5"/><circle class="cls-17" cx="423" cy="316" r="5"/><circle class="cls-17" cx="422" cy="287" r="5"/><circle class="cls-17" cx="393" cy="298" r="5"/><circle class="cls-17" cx="377" cy="286" r="5"/><circle class="cls-17" cx="366" cy="264" r="5"/><circle class="cls-17" cx="342" cy="280" r="5"/><circle class="cls-17" cx="322" cy="265" r="5"/><circle class="cls-17" cx="323" cy="247" r="5"/><circle class="cls-17" cx="313" cy="230" r="5"/><circle class="cls-17" cx="302" cy="248" r="5"/><circle class="cls-17" cx="291" cy="265" r="5"/><circle class="cls-17" cx="273" cy="272" r="5"/><circle class="cls-17" cx="252" cy="286" r="5"/><circle class="cls-17" cx="445" cy="469" r="5"/><circle class="cls-17" cx="457" cy="457" r="5"/><circle class="cls-17" cx="468" cy="443" r="5"/><circle class="cls-17" cx="475" cy="428" r="5"/><circle class="cls-17" cx="180" cy="467" r="5"/><circle class="cls-17" cx="170" cy="456" r="5"/><circle class="cls-17" cx="159" cy="443" r="5"/><circle class="cls-17" cx="152" cy="428" r="5"/><circle class="cls-17" cx="146" cy="412" r="5"/><circle class="cls-17" cx="141" cy="396" r="5"/></g><g id="Layer_4" data-name="Layer 4"><circle class="cls-17" cx="144" cy="377" r="5"/><circle class="cls-17" cx="159" cy="389" r="5"/><circle class="cls-17" cx="179" cy="394" r="5"/><circle class="cls-17" cx="198" cy="394" r="5"/></g></svg>