<svg xmlns="http://www.w3.org/2000/svg" viewBox="0 0 1728 1296"><defs><style>.cls-1{fill:#edece8;}.cls-2{fill:#b6df3e;}.cls-3{fill:#c1e1ca;}.cls-4{fill:#ff0500;}.cls-5{fill:#b5e0d9;}.cls-6{fill:#cfd6d4;}.cls-7{fill:#de2c93;}.cls-8{fill:#f2bd3c;}.cls-10,.cls-11,.cls-9{fill:none;}.cls-9{stroke:#ff0500;stroke-width:2px;}.cls-10,.cls-11,.cls-15,.cls-18,.cls-9{stroke-miterlimit:10;}.cls-10{stroke:#f2bd3c;}.cls-10,.cls-11{stroke-width:3px;}.cls-11{stroke:#b6df3e;}.cls-12{font-size:112.74px;font-family:CaviarDreams-Bold, Caviar Dreams;font-weight:700;}.cls-12,.cls-14{fill:#ff412a;}.cls-13{fill:#160137;}.cls-15{fill:#06efef;}.cls-15,.cls-18{stroke:#55004e;stroke-width:9px;}.cls-16{fill:#fca924;}.cls-17{fill:#a2fc68;}.cls-18{fill:#fc6763;}</style></defs><title>Artboard 1</title><g id="Layer_1" data-name="Layer 1"><path class="cls-1" d="M667.31,209.21S788.7,306.14,915,313.6s140.82,44.74,140.82,44.74,48.56,29.83,82.55,0,72.84,55.92,72.84,55.92S1250,529.84,1148,473.92s14.57,82,14.57,82,87.36-11.18,55.82,48.47,26.73,93.21,26.73,93.21,53.41,52.2-29.13,67.11-131.11,70.84-131.11,70.84,68-85.75-19.42-104.39S813,742.36,813,742.36l-29.13,48.47S701.3,802,589.62,716.26,439.09,511.2,346.83,522.39s102-134.22,102-134.22S385.67,280,502.21,246.49,667.31,209.21,667.31,209.21Z"/><path class="cls-2" d="M841,238.7v25.36a1.5,1.5,0,0,0,3,0V238.7a1.5,1.5,0,0,0-3,0Z"/><path class="cls-2" d="M828.67,253.43h27a1.5,1.5,0,0,0,0-3h-27a1.5,1.5,0,0,0,0,3Z"/><path class="cls-3" d="M1190.72,756.27c-.34,11.28-9.18,20.74-20.74,20.74a20.73,20.73,0,0,1-.68-41.46c11.82-.4,21.07,9.18,21.42,20.72.06,1.93,3.06,1.93,3,0-.65-21.64-28.14-32.25-42.2-14.89-13.41,16.55,1.23,41.68,22.2,38.32,11.62-1.86,19.65-11.86,20-23.43C1193.78,754.34,1190.78,754.34,1190.72,756.27Z"/><circle class="cls-4" cx="709.08" cy="261.92" r="7.41"/><path class="cls-5" d="M977.52,255.42C963,262,947.74,245.62,957.24,232c9-12.86,28.48-5.83,29.05,9.14.07,1.92,3.07,1.93,3,0-.69-17.9-24.11-26.14-34.65-10.65a19.15,19.15,0,0,0,1,22.63c5.77,7.1,15.28,8.55,23.38,4.87,1.76-.8.23-3.38-1.51-2.59Z"/><ellipse class="cls-6" cx="788.95" cy="922.36" rx="345.45" ry="16.26"/><path class="cls-7" d="M463,325c42.8,0,85.6-.18,128.4.33,3.65,0,7.25,4.73,10.87,7.26-3.22,3.09-6,7.78-9.77,8.88-5.49,1.6-11.74.69-17.66.69q-116.07,0-232.14.09a100.76,100.76,0,0,0-20.54,2c-19.46,4.12-30.89,18.35-30.31,36.86.57,18.06,13.49,32,33,34.64,9.09,1.24,18.35,1.32,27.54,1.64,5.76.2,10.55,2.39,9.18,8.42-.69,3-5.81,7.05-9.08,7.19-17.37.74-34.95,1.56-50.65-8.43-20-12.72-30.66-34.56-26.25-54.15,5.13-22.83,24.56-41.2,48.2-43.19,20-1.68,40.1-1.47,60.16-1.66,26.34-.25,52.68-.06,79-.06Z"/><path class="cls-2" d="M1177.4,791.15c22.4,0,44.82-.66,67.19.19,20.65.79,38.37,9,50.86,26.15,17.77,24.41,10.5,60.81-15.47,75.75-3.23,1.86-8.73-.24-13.18-.5,1.17-4.21,1-10.24,3.74-12.34,14.61-11.08,21.44-24.72,16.78-42.91-4-15.71-19.08-28.18-38.39-29.09-30.89-1.45-61.87-1.25-92.81-1.62-14.49-.17-29,.13-43.48-.16-6.12-.12-14.9,2.18-14.61-8.16s9.12-7.48,15.14-7.56c21.41-.27,42.82-.11,64.24-.11Z"/><path class="cls-8" d="M1171.14,642.07c-12.56,5.53-25.26-9.19-16.14-20.25,8-9.66,22.89-3.42,23.42,8.42.09,1.92,3.09,1.93,3,0-.68-15.21-20.39-22.37-29.55-9.25a16.35,16.35,0,0,0,.23,18.8c4.86,6.67,13.26,8.06,20.54,4.86,1.76-.78.24-3.36-1.51-2.59Z"/><path class="cls-7" d="M395.58,423.35c-.76,14.11-22,14.24-22,0s21.28-14.12,22,0c.1,1.92,3.1,1.93,3,0-.41-7.61-6.08-14-14-14a14,14,0,0,0-.68,28c8.2.39,14.28-6.1,14.7-14C398.69,421.42,395.69,421.43,395.58,423.35Z"/><path class="cls-2" d="M1165.14,428.62V454a1.5,1.5,0,0,0,3,0V428.62a1.5,1.5,0,0,0-3,0Z"/><path class="cls-2" d="M1152.85,443.36h27a1.5,1.5,0,0,0,0-3h-27a1.5,1.5,0,0,0,0,3Z"/><path class="cls-2" d="M398.17,577.21v25.36a1.5,1.5,0,0,0,3,0V577.21a1.5,1.5,0,0,0-3,0Z"/><path class="cls-2" d="M385.88,591.95h27a1.5,1.5,0,0,0,0-3h-27a1.5,1.5,0,0,0,0,3Z"/><path class="cls-8" d="M353.6,706.21C341,711.74,328.34,697,337.47,686c8-9.66,22.89-3.42,23.42,8.42.09,1.92,3.09,1.93,3,0-.68-15.21-20.39-22.37-29.55-9.25a16.35,16.35,0,0,0,.23,18.8c4.86,6.67,13.26,8.06,20.54,4.86,1.76-.78.24-3.36-1.51-2.59Z"/><circle class="cls-7" cx="406.97" cy="853.62" r="10.16"/><circle class="cls-2" cx="1159.44" cy="541.3" r="7.69"/><path class="cls-7" d="M954.9,311.24l-13.38,21.54c-1,1.64,1.57,3.15,2.59,1.51l13.38-21.54c1-1.64-1.57-3.15-2.59-1.51Z"/><path class="cls-7" d="M936.75,317.26l22.95,14.25c1.64,1,3.15-1.57,1.51-2.59l-22.95-14.25c-1.64-1-3.15,1.57-1.51,2.59Z"/><path class="cls-3" d="M344.09,356.9l-13.38,21.54c-1,1.64,1.57,3.15,2.59,1.51l13.38-21.54c1-1.64-1.57-3.15-2.59-1.51Z"/><path class="cls-3" d="M325.94,362.92l22.95,14.25c1.64,1,3.15-1.57,1.51-2.59l-22.95-14.25c-1.64-1-3.15,1.57-1.51,2.59Z"/><path class="cls-2" d="M1142.69,817.28l-13.38,21.54c-1,1.64,1.57,3.15,2.59,1.51l13.38-21.54c1-1.64-1.57-3.15-2.59-1.51Z"/><path class="cls-2" d="M1124.54,823.3l22.95,14.25c1.64,1,3.15-1.57,1.51-2.59L1126,820.71c-1.64-1-3.15,1.57-1.51,2.59Z"/><g id="_Group_" data-name="&lt;Group&gt;"><path class="cls-7" d="M491.21,360.66h71.16c3.86,0,3.87-6,0-6H491.21c-3.86,0-3.87,6,0,6Z"/></g><path class="cls-9" d="M1103.05,321.1l-8.43,13.57"/><path class="cls-9" d="M1117.3,298.17,1108.71,312"/><path class="cls-9" d="M1111.61,321l12.9,8"/><path class="cls-9" d="M1085.62,304.89l14,8.73"/><path class="cls-10" d="M460.41,885.24,449.8,902.32"/><path class="cls-10" d="M478.34,856.36l-10.81,17.41"/><path class="cls-10" d="M471.19,885.15l16.24,10.09"/><path class="cls-10" d="M438.47,864.83l17.68,11"/><path class="cls-10" d="M458.36,881.3l-19.43,5.17"/><path class="cls-10" d="M491.21,872.55l-19.8,5.27"/><path class="cls-10" d="M466.27,888.61l4.92,18.47"/><path class="cls-10" d="M456.37,851.4l5.36,20.12"/><path class="cls-11" d="M1223.55,557l-10.61,17.08"/><path class="cls-11" d="M1241.48,528.13l-10.81,17.41"/><path class="cls-11" d="M1234.33,556.91,1250.57,567"/><path class="cls-11" d="M1201.61,536.59l17.68,11"/><path class="cls-11" d="M1221.5,553.06l-19.43,5.17"/><path class="cls-11" d="M1254.35,544.32l-19.8,5.27"/><path class="cls-11" d="M1229.41,560.38l4.92,18.47"/><path class="cls-11" d="M1219.51,523.17l5.36,20.12"/><path class="cls-9" d="M1225.33,717.23l-8.43,13.57"/><path class="cls-9" d="M1239.58,694.29,1231,708.12"/><path class="cls-9" d="M1233.9,717.15l12.9,8"/><path class="cls-9" d="M1207.91,701l14,8.73"/><path class="cls-9" d="M334.1,504.94l-8.43,13.57"/><path class="cls-9" d="M348.35,482l-8.59,13.83"/><path class="cls-9" d="M342.66,504.87l12.9,8"/><path class="cls-9" d="M316.68,488.73l14,8.73"/><text class="cls-12" transform="translate(626.77 1105.51)">EQ IQ</text><path class="cls-13" d="M990.7,992.86v172.86c0,3.86,6,3.87,6,0V992.86c0-3.86-6-3.87-6,0Z"/><path class="cls-13" d="M865.93,1131.14H1038.8c3.86,0,3.87-6,0-6H865.93c-3.86,0-3.87,6,0,6Z"/><path class="cls-14" d="M805.81,1151.43H978.67c5.79,0,5.8-9,0-9H805.81c-5.79,0-5.8,9,0,9Z"/><path id="_Path_" data-name="&lt;Path&gt;" class="cls-2" d="M421,714l32.22,26.31a5.18,5.18,0,0,0,4.72,1l39.94-11.63a5.18,5.18,0,0,1,6.27,6.84l-15.07,38.78a5.18,5.18,0,0,0,.55,4.79l23.4,34.4a5.18,5.18,0,0,1-4.57,8.08l-41.54-2.35a5.18,5.18,0,0,0-4.38,2L437,855.09a5.18,5.18,0,0,1-9.1-1.85L417.35,813a5.18,5.18,0,0,0-3.25-3.55l-39.15-14.07a5.18,5.18,0,0,1-1.05-9.22l35-22.52a5.18,5.18,0,0,0,2.37-4.19l1.28-41.58A5.18,5.18,0,0,1,421,714Z"/><path id="_Path_2" data-name="&lt;Path&gt;" class="cls-8" d="M1160.64,204l18.11,65.79a8.49,8.49,0,0,0,5.4,5.77L1248.62,298a8.49,8.49,0,0,1,1.89,15.11l-57,37.56a8.49,8.49,0,0,0-3.82,6.92l-1.36,68.23a8.49,8.49,0,0,1-13.79,6.47l-53.33-42.58a8.49,8.49,0,0,0-7.76-1.49L1048.17,408a8.49,8.49,0,0,1-10.41-11.11l24-63.88a8.49,8.49,0,0,0-1-7.84l-39-56a8.49,8.49,0,0,1,7.35-13.33l68.17,3.1a8.49,8.49,0,0,0,7.15-3.36l41.2-54.4A8.49,8.49,0,0,1,1160.64,204Z"/></g><g id="Layer_2" data-name="Layer 2"><path class="cls-15" d="M567.18,616.17h95.14s-1.61-10.48-13.71-19.35c0,0-17.74-36.28,13.71-57.25,0,0,35.48-25,62.09,18.55,0,0,8.06,32.66-9.27,44.75,0,0-12.5,12.09-7.26,13.3H815.52v-106s5.24-13.71,18.55-5.64c0,0,20.56,22.17,45.15,15.72s22.58-34.67,22.58-34.67-3.23-31-33.46-32.66c0,0-18.95.4-24.59,11.29,0,0-11.69,8.47-17.74,9.27,0,0-8.47.81-10.08-8.87V423.46s-48.78-2.82-66.12,39.11c0,0-48.24-39.37-110.06,18.14,0,0-19.89,18.28-10.75,59.67,0,0-42.47,7.53-54.83,38.17C574.17,578.54,561.81,608.1,567.18,616.17Z"/><path class="cls-16" d="M570.87,624.48h96.22s8.06,0,5.91-11.83a149.33,149.33,0,0,0-13.44-21c-8.11-10.48-3.76-30.1-3.76-30.1s12.18-23.66,31.71-21.5c0,0,22.66-1.07,30.64,18.28,0,0,11.34,13.6,0,32.79,0,0-13.44,14.51-14.51,18.28,0,0-3.76,12.9,5.91,15.05H820.28l-.54,107s-2.42,5.64-14.78-5.91c0,0-9.41-12.09-28.49-12.36a40.81,40.81,0,0,0-36,19.65s-8.6,14.48-5.64,28.19c0,0,3.76,23.11,21.23,29.83a44.07,44.07,0,0,0,29,4.84s12.09-4.84,18.55-10.75l9.68-7s4.84-3,5.91,0l1.08,5.64v32S796.36,842.45,759.81,839c0,0-61.82,2.42-80.09-58.05,0,0-58.32,14-84.66-33.33,0,0-18.28-21.23-12.36-61,0,0,5.91-21.77,8.87-22.85C591.56,663.72,571.46,646.31,570.87,624.48Z"/><path class="cls-17" d="M825.41,421.41v41.16s-1.61,6.85,20.56-10.89c0,0,21.37-14.51,41.12-3.63l10.48,8.06s18.32,14.51,12.59,39.51c0,0-5.33,16.7-19.84,25.08,0,0-10.48,12.41-37.9,3.14,0,0-11.69-5.24-13.71-8.87,0,0-11.34-11.69-13.33-6V614.16H938.29s10.89,8.47,0,20.56c0,0-23,14.51-12.09,43.94,0,0,12.09,26.61,38.7,19.75,0,0,24.63-8.61,25.8-31.85,0,0,1.21-15.72-8.06-22.17l-10.08-13.71s-3.23-4.08-.81-10.71l3.63-5.82h110.06s8.06-41.93-21-66.92c0,0-24.59-26.61-62.49-18.14,0,0-1.61-30.64-18.95-45.15,0,0-25.8-32.25-54.43-33.46,0,0-20.29-3.79-27.82,3.63a8.85,8.85,0,0,1-6.45-3.63S864.92,418.55,825.41,421.41Z"/><path class="cls-18" d="M832.69,622.18V726.59s.13,10.48-7,10.89a21.88,21.88,0,0,1-12.77-2s-18.69-24.15-42.33-15.32c0,0-21.08,6.49-23.38,29.43,0,0-3.23,26.21,18.55,33.06,0,0,15.32,10.89,36.28-4,0,0,12.5-11.29,17.74-11.29,0,0,11.69-2.82,12.9,9.68v30.24s18.54-17.74,20.56-55.23c0,0,37.17,3.23,57.69-18.14,0,0,10.44-11.14,15.28-19.68,0,0,36.28,14.84,68.13-5.32,0,0,26.21-15.32,29.83-38.7,0,0,26.61,0,44.35-15.72,0,0,18.55-16.13,23-32.25H986.69s-.4,8.06,7.66,14.11c0,0,18.14,16.93,8.87,41.93,0,0-8.47,25.8-35.07,27.41,0,0-30.64,5.64-43.54-29.83,0,0-7.24-20,6.85-37.49l10.48-11.69s5.24-6-4.84-4.43Z"/></g></svg>