<svg xmlns="http://www.w3.org/2000/svg" viewBox="0 0 1728 1296"><defs><style>.cls-1{fill:#edece8;}.cls-2{fill:#b6df3e;}.cls-3{fill:#c1e1ca;}.cls-4{fill:#ff0500;}.cls-5{fill:#b5e0d9;}.cls-6{fill:#cfd6d4;}.cls-7{fill:#f2bd3c;}.cls-8{fill:#de2c93;}.cls-9{opacity:0.7;}.cls-10,.cls-11,.cls-12,.cls-16{fill:none;}.cls-10{stroke:#ff0500;stroke-width:2px;}.cls-10,.cls-11,.cls-12,.cls-16,.cls-17,.cls-18{stroke-miterlimit:10;}.cls-11{stroke:#f2bd3c;}.cls-11,.cls-12{stroke-width:3px;}.cls-12{stroke:#b6df3e;}.cls-13{font-size:122.31px;font-family:CaviarDreams-Bold, Caviar Dreams;font-weight:700;}.cls-13,.cls-15,.cls-17{fill:#ff3f44;}.cls-14{fill:#160137;}.cls-16,.cls-17,.cls-18{stroke:#55004e;stroke-width:9px;}.cls-18,.cls-20{fill:#55004e;}.cls-19{fill:#ffaaac;}</style></defs><title>Artboard 2</title><g id="Layer_1" data-name="Layer 1"><path class="cls-1" d="M701.32,162.13S833,267.29,970,275.38s152.77,48.54,152.77,48.54,52.68,32.36,89.55,0,79,60.67,79,60.67,42.14,125.39-68.48,64.72,15.8,89,15.8,89,94.78-12.13,60.56,52.58,29,101.12,29,101.12,57.95,56.63-31.61,72.81-142.23,76.85-142.23,76.85,73.75-93-21.07-113.25-273.93,12.13-273.93,12.13l-31.61,52.58S738.2,805.25,617,712.22,453.73,489.76,353.64,501.89,464.27,356.28,464.27,356.28,395.78,239,522.21,202.58,701.32,162.13,701.32,162.13Z"/><path class="cls-2" d="M889.83,194.12v27.51a1.5,1.5,0,0,0,3,0V194.12a1.5,1.5,0,0,0-3,0Z"/><path class="cls-2" d="M876.38,210h29.31a1.5,1.5,0,0,0,0-3H876.38a1.5,1.5,0,0,0,0,3Z"/><path class="cls-3" d="M1269.29,755.63c-.34,12.32-10,22.63-22.63,22.63a22.63,22.63,0,0,1,0-45.25c12.59,0,22.28,10.3,22.63,22.63.05,1.93,3.05,1.93,3,0-.65-23.29-30.22-34.77-45.45-16.22-14.78,18,1.41,45.43,24.27,41.45,12.34-2.15,20.84-12.95,21.18-25.23C1272.35,753.7,1269.35,753.7,1269.29,755.63Z"/><circle class="cls-4" cx="746.64" cy="219.32" r="8.04"/><path class="cls-5" d="M1037.93,212.38c-15.67,7.26-32.3-10.44-22.35-25.28,9.61-14.33,31.35-6.89,31.94,9.7.07,1.93,3.07,1.93,3,0-.68-19.48-26.39-28.2-37.53-11.21a20.62,20.62,0,0,0,1.35,24.26c6.23,7.51,16.45,9.13,25.1,5.12,1.75-.81.23-3.4-1.51-2.59Z"/><ellipse class="cls-6" cx="833.29" cy="935.82" rx="374.77" ry="17.64"/><path class="cls-2" d="M539.19,230.18c24.3,0,48.63-.72,72.89.21,22.41.86,41.62,9.75,55.18,28.36,19.28,26.49,11.4,66-16.78,82.18-3.5,2-9.48-.26-14.3-.55,1.27-4.57,1-11.1,4.05-13.38,15.85-12,23.27-26.82,18.21-46.55-4.37-17-20.7-30.57-41.65-31.56-33.52-1.58-67.12-1.35-100.69-1.76-15.72-.19-31.45.14-47.17-.18-6.64-.13-16.17,2.37-15.85-8.85s9.9-8.12,16.43-8.2c23.23-.29,46.46-.11,69.69-.11Z"/><path class="cls-2" d="M569,368.18c-24.3,0-48.63.72-72.89-.21-22.41-.86-41.62-9.75-55.18-28.36-19.28-26.49-11.4-66,16.78-82.18,3.5-2,9.48.26,14.3.55-1.27,4.57-1,11.1-4.05,13.38-15.85,12-23.27,26.82-18.21,46.55,4.37,17,20.7,30.57,41.65,31.56,33.52,1.58,67.12,1.35,100.69,1.76,15.72.19,31.45-.14,47.17.18,6.64.13,16.17-2.37,15.85,8.85s-9.9,8.12-16.43,8.2c-23.23.29-46.46.11-69.69.11Z"/><path class="cls-7" d="M1248,631.85c-13.05,5.93-26.66-8.61-18.54-21,7.92-12.06,25.93-5.56,26.51,8,.08,1.92,3.08,1.93,3,0-.71-16.6-22.56-24.18-32.1-9.55-9.91,15.18,7.07,32.15,22.65,25.08,1.76-.8.23-3.38-1.51-2.59Z"/><path class="cls-8" d="M406.66,394.45c-.33,6.54-5.27,12.08-12.08,12.08a12.05,12.05,0,0,1-1.17-24.05c7.26-.69,12.89,4.91,13.25,12,.1,1.92,3.1,1.93,3,0-.41-8.19-6.57-15.08-15.08-15.08a15.08,15.08,0,1,0,0,30.16c8.51,0,14.67-6.89,15.08-15.08C409.76,392.52,406.76,392.53,406.66,394.45Z"/><path class="cls-2" d="M1241.54,400.17v27.51a1.5,1.5,0,0,0,3,0V400.17a1.5,1.5,0,0,0-3,0Z"/><path class="cls-2" d="M1228.08,416h29.31a1.5,1.5,0,0,0,0-3h-29.31a1.5,1.5,0,0,0,0,3Z"/><path class="cls-2" d="M409.46,561.38v27.51a1.5,1.5,0,0,0,3,0V561.38a1.5,1.5,0,0,0-3,0Z"/><path class="cls-2" d="M396,577.23h29.31a1.5,1.5,0,0,0,0-3H396a1.5,1.5,0,0,0,0,3Z"/><path class="cls-7" d="M361.05,701.43c-13.05,5.93-26.66-8.61-18.54-21,7.92-12.06,25.93-5.56,26.51,8,.08,1.92,3.08,1.93,3,0-.71-16.6-22.56-24.18-32.1-9.55C330,694.12,347,711.1,362.57,704c1.76-.8.23-3.38-1.51-2.59Z"/><circle class="cls-8" cx="418.88" cy="861.24" r="11.02"/><circle class="cls-2" cx="1235.23" cy="522.41" r="8.34"/><path class="cls-8" d="M1013.43,272.89l-14.52,23.37c-1,1.64,1.57,3.15,2.59,1.51L1016,274.4c1-1.64-1.57-3.15-2.59-1.51Z"/><path class="cls-8" d="M993.69,279.24l24.9,15.46c1.64,1,3.15-1.57,1.51-2.59l-24.9-15.46c-1.64-1-3.15,1.57-1.51,2.59Z"/><path class="cls-3" d="M350.78,322.43,336.26,345.8c-1,1.64,1.57,3.15,2.59,1.51l14.52-23.37c1-1.64-1.57-3.15-2.59-1.51Z"/><path class="cls-3" d="M331,328.79l24.9,15.46c1.64,1,3.15-1.57,1.51-2.59l-24.9-15.46c-1.64-1-3.15,1.57-1.51,2.59Z"/><path class="cls-2" d="M1217.16,821.89l-14.52,23.37c-1,1.64,1.57,3.15,2.59,1.51l14.52-23.37c1-1.64-1.57-3.15-2.59-1.51Z"/><path class="cls-2" d="M1197.42,828.24l24.9,15.46c1.64,1,3.15-1.57,1.51-2.59l-24.9-15.46c-1.64-1-3.15,1.57-1.51,2.59Z"/><path class="cls-8" d="M1390.67,625.12c46.43,0,92.87-.2,139.29.36,4,0,7.86,5.13,11.8,7.88-3.49,3.35-6.48,8.44-10.6,9.64-6,1.73-12.73.74-19.16.75q-125.92,0-251.85.1a109.32,109.32,0,0,0-22.29,2.2c-21.11,4.47-33.52,19.91-32.89,40,.61,19.59,14.64,34.7,35.84,37.58,9.86,1.34,19.9,1.43,29.87,1.78,6.25.22,11.45,2.6,10,9.13-.75,3.3-6.31,7.65-9.85,7.8-18.84.8-37.91,1.7-55-9.14-21.69-13.79-33.26-37.5-28.48-58.75,5.57-24.77,26.65-44.7,52.29-46.85,21.66-1.82,43.5-1.6,65.27-1.8,28.58-.27,57.16-.07,85.74-.07Z"/><path class="cls-8" d="M1197.88,789.39c24.3,0,48.63.72,72.89-.21,22.41-.86,41.62-9.75,55.18-28.36,19.28-26.49,11.4-66-16.78-82.18-3.5-2-9.48.26-14.3.55,1.27,4.57,1,11.1,4.05,13.38,15.85,12,23.27,26.82,18.21,46.55-4.37,17-20.7,30.57-41.65,31.56-33.52,1.58-67.12,1.35-100.69,1.76-15.72.19-31.45-.14-47.17.18-6.64.13-16.17-2.37-15.85,8.85s9.9,8.12,16.43,8.2c23.23.29,46.46.11,69.69.11Z"/><g id="_Group_" data-name="&lt;Group&gt;" class="cls-9"><path class="cls-2" d="M504.14,262.87h77.2c3.86,0,3.87-6,0-6h-77.2c-3.86,0-3.87,6,0,6Z"/></g><g id="_Group_2" data-name="&lt;Group&gt;" class="cls-9"><path class="cls-2" d="M504.14,338.33h77.2c3.86,0,3.87-6,0-6h-77.2c-3.86,0-3.87,6,0,6Z"/></g><path class="cls-10" d="M1288.38,317.76l-9.14,14.72"/><path class="cls-10" d="M1303.84,292.87l-9.32,15"/><path class="cls-10" d="M1297.67,317.68l14,8.69"/><path class="cls-10" d="M1269.48,300.17l15.24,9.47"/><path class="cls-11" d="M476.86,895.54l-11.51,18.53"/><path class="cls-11" d="M496.32,864.22l-11.73,18.89"/><path class="cls-11" d="M488.56,895.45l17.62,10.94"/><path class="cls-11" d="M453.06,873.4l19.18,11.92"/><path class="cls-11" d="M474.64,891.27l-21.08,5.61"/><path class="cls-11" d="M510.27,881.78l-21.49,5.72"/><path class="cls-11" d="M483.22,899.21l5.34,20"/><path class="cls-11" d="M472.48,858.83l5.81,21.82"/><path class="cls-12" d="M523.33,678.73l-11.51,18.53"/><path class="cls-12" d="M542.78,647.41,531.05,666.3"/><path class="cls-12" d="M535,678.63l17.62,10.94"/><path class="cls-12" d="M499.53,656.59l19.18,11.92"/><path class="cls-12" d="M521.11,674.46,500,680.07"/><path class="cls-12" d="M556.74,665l-21.49,5.72"/><path class="cls-12" d="M529.69,682.4l5.34,20"/><path class="cls-12" d="M518.94,642l5.81,21.82"/><path class="cls-10" d="M1069,869.3,1059.85,884"/><path class="cls-10" d="M1084.45,844.42l-9.32,15"/><path class="cls-10" d="M1078.28,869.22l14,8.69"/><path class="cls-10" d="M1050.09,851.71l15.24,9.47"/><path class="cls-10" d="M339.83,483l-9.14,14.72"/><path class="cls-10" d="M355.29,458.08l-9.32,15"/><path class="cls-10" d="M349.12,482.89l14,8.69"/><path class="cls-10" d="M320.93,465.38l15.24,9.47"/><text class="cls-13" transform="translate(686.23 1121.18)">ERGO</text><path class="cls-14" d="M1054.87,1010.47V1198c0,3.86,6,3.87,6,0V1010.47c0-3.86-6-3.87-6,0Z"/><path class="cls-14" d="M919.26,1160.23h187.53c3.86,0,3.87-6,0-6H919.26c-3.86,0-3.87,6,0,6Z"/><path class="cls-15" d="M854,1180.62h187.53c3.86,0,3.87-6,0-6H854c-3.86,0-3.87,6,0,6Z"/></g><g id="Layer_2" data-name="Layer 2"><circle class="cls-16" cx="854.03" cy="654.16" r="270.99"/><rect class="cls-17" x="771.62" y="312.67" width="162.51" height="52.88"/><rect class="cls-17" x="1039.8" y="442.58" width="111.85" height="38.53" transform="matrix(0.61, 0.8, -0.8, 0.61, 798.76, -689.56)"/><path class="cls-18" d="M799,365.55v23.21s58.34-12.22,107.42-.51v-22.7Z"/><path class="cls-18" d="M1057.53,443.52l-17.8,13.3s33.38,33,46.58,57.72l16.31-11.86Z"/><path class="cls-19" d="M1106,626.71l-258.11,17.6L646.73,807s92.57,128.08,270.78,86.47C917.51,893.44,1107.39,849,1106,626.71Z"/><path class="cls-19" d="M953.81,442.59,833.65,591.43,649.8,644.25s-38.29-110.39,62.52-200.66C712.31,443.59,819.8,347.47,953.81,442.59Z"/><rect class="cls-20" x="842.89" y="434.15" width="18.07" height="27.7"/><rect class="cls-20" x="995.93" y="789.41" width="18.07" height="22.13" transform="translate(-247.45 1087.13) rotate(-51.43)"/><rect class="cls-20" x="991.89" y="497.33" width="18.07" height="22.28" transform="translate(1349.14 1575.78) rotate(-135)"/><rect class="cls-20" x="694.21" y="501.34" width="18.07" height="26.13" transform="translate(1564.25 380.87) rotate(135)"/><rect class="cls-20" x="635.88" y="649.35" width="18.07" height="27.7" transform="translate(-18.29 1308.11) rotate(-90)"/><rect class="cls-20" x="1055.86" y="642.98" width="18.07" height="22.36" transform="translate(410.73 1719.06) rotate(-90)"/><rect class="cls-20" x="853.57" y="856.55" width="18.07" height="22.36"/><rect class="cls-20" x="703.49" y="798.41" width="18.07" height="22.36" transform="translate(718.79 -268.87) rotate(41.68)"/><polygon class="cls-17" points="807.25 480.07 923.11 480.07 876.34 709.67 825.32 709.67 807.25 480.07"/><circle class="cls-17" cx="848.76" cy="768.07" r="41.52"/><circle class="cls-16" cx="853.57" cy="656.4" r="222.51"/></g></svg>