<svg xmlns="http://www.w3.org/2000/svg" viewBox="0 0 1728 1296"><defs><style>.cls-1{fill:#edece8;}.cls-2{fill:#b6df3e;}.cls-3{fill:#ff0500;}.cls-4{fill:#b5e0d9;}.cls-5{fill:#cfd6d4;}.cls-6{fill:#f2bd3c;}.cls-7,.cls-9{fill:#de2c93;}.cls-8{fill:#c1e1ca;}.cls-9{opacity:0.48;}.cls-10{opacity:0.7;}.cls-11,.cls-12,.cls-13,.cls-19{fill:none;}.cls-11{stroke:#ff0500;stroke-width:2px;}.cls-11,.cls-12,.cls-13{stroke-miterlimit:10;}.cls-12{stroke:#f2bd3c;}.cls-12,.cls-13{stroke-width:3px;}.cls-13{stroke:#b6df3e;}.cls-14{font-size:116.89px;fill:#8e0151;font-family:CaviarDreams-Bold, Caviar Dreams;font-weight:700;}.cls-15{letter-spacing:-0.04em;}.cls-16{letter-spacing:-0.04em;}.cls-17{fill:#160137;}.cls-18{fill:#edaaff;}.cls-19,.cls-20{stroke:#55004e;stroke-linecap:round;stroke-linejoin:round;stroke-width:9px;}.cls-20{fill:#55004e;}</style></defs><title>Artboard 3</title><g id="Layer_1" data-name="Layer 1"><path class="cls-1" d="M704.92,174.1S830.78,274.6,961.68,282.33s146,46.39,146,46.39,50.34,30.92,85.59,0,75.52,58,75.52,58,40.28,119.83-65.45,61.85,15.1,85,15.1,85,90.58-11.6,57.88,50.25S1304,680.48,1304,680.48s55.38,54.12-30.21,69.58-135.93,73.45-135.93,73.45,70.48-88.91-20.14-108.24S856,726.87,856,726.87l-30.21,50.25s-85.59,11.6-201.38-77.31S468.3,487.21,372.64,498.8,478.37,359.64,478.37,359.64s-65.45-112.1,55.38-146.89S704.92,174.1,704.92,174.1Z"/><path class="cls-2" d="M885,204.67V231a1.5,1.5,0,0,0,3,0V204.67a1.5,1.5,0,0,0-3,0Z"/><path class="cls-2" d="M872.22,219.89h28a1.5,1.5,0,0,0,0-3h-28a1.5,1.5,0,0,0,0,3Z"/><circle class="cls-3" cx="748.23" cy="228.75" r="7.69"/><path class="cls-4" d="M691.66,753.53c-15.39,7-31.27-10.79-20.72-24.79,9.61-12.76,29.29-5.4,29.85,10,.07,1.92,3.07,1.93,3,0-.68-18.44-24.79-27-35.72-11.13a19.76,19.76,0,0,0,.6,23.09c5.91,7.67,15.93,9.36,24.51,5.47,1.76-.8.23-3.38-1.51-2.59Z"/><ellipse class="cls-5" cx="831.04" cy="913.5" rx="358.16" ry="16.85"/><path id="_Path_" data-name="&lt;Path&gt;" class="cls-2" d="M440.91,662.59l34.56,28.22a5.55,5.55,0,0,0,5.06,1l42.84-12.47a5.55,5.55,0,0,1,6.73,7.34l-16.16,41.59a5.55,5.55,0,0,0,.58,5.13l25.1,36.89a5.55,5.55,0,0,1-4.9,8.67l-44.55-2.52a5.55,5.55,0,0,0-4.7,2.14L458.15,813.9a5.55,5.55,0,0,1-9.76-2L437,768.77a5.55,5.55,0,0,0-3.49-3.81l-42-15.09a5.55,5.55,0,0,1-1.13-9.89l37.52-24.15a5.55,5.55,0,0,0,2.54-4.5l1.38-44.6A5.55,5.55,0,0,1,440.91,662.59Z"/><path id="_Path_2" data-name="&lt;Path&gt;" class="cls-6" d="M643.32,212.69l20,72.81a9.4,9.4,0,0,0,6,6.38l71.34,24.76a9.4,9.4,0,0,1,2.09,16.72l-63,41.56a9.4,9.4,0,0,0-4.22,7.66L674,458.08a9.4,9.4,0,0,1-15.26,7.15l-59-47.12a9.4,9.4,0,0,0-8.59-1.65l-72.27,21.9a9.4,9.4,0,0,1-11.52-12.3l26.58-70.68a9.4,9.4,0,0,0-1.08-8.68l-43.16-62A9.4,9.4,0,0,1,497.82,270l75.44,3.43a9.4,9.4,0,0,0,7.92-3.71l45.6-60.2A9.4,9.4,0,0,1,643.32,212.69Z"/><path class="cls-2" d="M521.68,182.59c44.38,0,88.75-.19,133.12.34,3.79,0,7.52,4.91,11.27,7.53-3.34,3.2-6.19,8.07-10.13,9.21-5.69,1.65-12.17.71-18.31.71q-120.34,0-240.69.1a104.47,104.47,0,0,0-21.3,2.1c-20.18,4.27-32,19-31.43,38.22.59,18.73,14,33.16,34.25,35.92,9.42,1.28,19,1.37,28.55,1.71,6,.21,10.94,2.48,9.52,8.73-.72,3.15-6,7.31-9.41,7.45-18,.77-36.23,1.62-52.52-8.74-20.73-13.18-31.79-35.83-27.22-56.15,5.32-23.68,25.46-42.72,50-44.78,20.7-1.74,41.58-1.53,62.38-1.72,27.31-.26,54.62-.06,81.94-.06Z"/><path class="cls-2" d="M583.26,82.19c23.22,0,46.47-.69,69.66.2,21.41.82,39.78,9.32,52.73,27.11,18.43,25.31,10.89,63-16,78.54-3.35,1.93-9.06-.25-13.67-.52,1.21-4.37,1-10.61,3.87-12.79,15.15-11.49,22.23-25.63,17.4-44.49C693,114,677.44,101,657.42,100.08c-32-1.51-64.15-1.29-96.23-1.68-15-.18-30.06.13-45.08-.17-6.35-.13-15.45,2.26-15.15-8.46s9.46-7.76,15.7-7.84c22.2-.28,44.4-.11,66.6-.11Z"/><path class="cls-7" d="M423.25,396.13c-.74,14.65-23,14.89-23,0s22.22-14.66,23,0c.1,1.92,3.1,1.93,3,0-.4-7.87-6.31-14.48-14.48-14.48a14.48,14.48,0,0,0,0,29c8.17,0,14.08-6.62,14.48-14.48C426.35,394.2,423.35,394.2,423.25,396.13Z"/><path class="cls-2" d="M1221.13,401.59v26.29a1.5,1.5,0,0,0,3,0V401.59a1.5,1.5,0,0,0-3,0Z"/><path class="cls-2" d="M1208.34,416.81h28a1.5,1.5,0,0,0,0-3h-28a1.5,1.5,0,0,0,0,3Z"/><path class="cls-2" d="M425.93,555.65v26.29a1.5,1.5,0,0,0,3,0V555.65a1.5,1.5,0,0,0-3,0Z"/><path class="cls-2" d="M413.13,570.87h28a1.5,1.5,0,0,0,0-3h-28a1.5,1.5,0,0,0,0,3Z"/><path class="cls-6" d="M379.69,689.44C367.2,695.12,354,681,362.26,669.28c7.77-11.07,24.43-5.05,25,7.86.09,1.92,3.09,1.93,3,0-.72-16-21.83-23.26-30.89-9-9.26,14.56,6.93,30.67,21.82,23.91,1.76-.8.23-3.38-1.51-2.59Z"/><circle class="cls-7" cx="435" cy="842.23" r="10.53"/><circle class="cls-2" cx="1215.17" cy="518.41" r="7.97"/><path class="cls-7" d="M1734.19,25.82l-13.87,22.34c-1,1.64,1.57,3.15,2.59,1.51l13.87-22.34c1-1.64-1.57-3.15-2.59-1.51Z"/><path class="cls-7" d="M1715.35,32l23.79,14.78c1.64,1,3.15-1.57,1.51-2.59l-23.79-14.78c-1.64-1-3.15,1.57-1.51,2.59Z"/><path class="cls-8" d="M369.85,327.26,356,349.6c-1,1.64,1.57,3.15,2.59,1.51l13.87-22.34c1-1.64-1.57-3.15-2.59-1.51Z"/><path class="cls-8" d="M351,333.43,374.8,348.2c1.64,1,3.15-1.57,1.51-2.59l-23.79-14.78c-1.64-1-3.15,1.57-1.51,2.59Z"/><path class="cls-2" d="M1274.24,776.14l-13.87,22.34c-1,1.64,1.57,3.15,2.59,1.51l13.87-22.34c1-1.64-1.57-3.15-2.59-1.51Z"/><path class="cls-2" d="M1255.4,782.3l23.79,14.78c1.64,1,3.15-1.57,1.51-2.59l-23.79-14.78c-1.64-1-3.15,1.57-1.51,2.59Z"/><path class="cls-7" d="M1374.26,622c44.38,0,88.75-.19,133.12.34,3.79,0,7.52,4.91,11.27,7.53-3.34,3.2-6.19,8.07-10.13,9.21-5.69,1.65-12.17.71-18.31.71q-120.34,0-240.69.1a104.47,104.47,0,0,0-21.3,2.1c-20.18,4.27-32,19-31.43,38.22.59,18.73,14,33.16,34.25,35.92,9.42,1.28,19,1.37,28.55,1.71,6,.21,10.94,2.48,9.52,8.73-.72,3.15-6,7.31-9.41,7.45-18,.77-36.23,1.62-52.52-8.74-20.73-13.18-31.79-35.83-27.22-56.15,5.32-23.68,25.46-42.72,50-44.78,20.7-1.74,41.58-1.53,62.38-1.72,27.31-.26,54.62-.06,81.94-.06Z"/><path class="cls-7" d="M1435.84,521.6c23.22,0,46.47-.69,69.66.2,21.41.82,39.78,9.32,52.73,27.11,18.43,25.31,10.89,63-16,78.54-3.35,1.93-9.06-.25-13.67-.52,1.21-4.37,1-10.61,3.87-12.79,15.15-11.49,22.23-25.63,17.4-44.49-4.17-16.29-19.78-29.22-39.8-30.16-32-1.51-64.15-1.29-96.23-1.68-15-.18-30.06.13-45.08-.17-6.35-.13-15.45,2.26-15.15-8.46s9.46-7.76,15.7-7.84c22.2-.28,44.4-.11,66.6-.11Z"/><path class="cls-9" d="M1442.23,505c24.55,0,49.13-.83,73.65.24,22.64,1,42.06,11.28,55.75,32.8,19.48,30.62,11.51,76.28-17,95-3.54,2.33-9.57-.3-14.45-.63,1.28-5.29,1.06-12.84,4.09-15.48,16-13.9,23.51-31,18.4-53.82-4.41-19.7-20.92-35.35-42.08-36.49-33.87-1.82-67.82-1.57-101.74-2-15.89-.22-31.78.16-47.66-.21-6.71-.15-16.34,2.74-16-10.24s10-9.39,16.6-9.48c23.47-.34,46.94-.13,70.41-.13Z"/><g id="_Group_" data-name="&lt;Group&gt;" class="cls-10"><path class="cls-2" d="M549.77,113.56h73.78c3.86,0,3.87-6,0-6H549.77c-3.86,0-3.87,6,0,6Z"/></g><path class="cls-11" d="M1536.73,315.12,1528,329.19"/><path class="cls-11" d="M1551.5,291.34l-8.91,14.34"/><path class="cls-11" d="M1545.6,315l13.38,8.31"/><path class="cls-11" d="M1518.66,298.31l14.56,9"/><path class="cls-12" d="M490.41,875l-11,17.71"/><path class="cls-12" d="M509,845.07l-11.21,18.05"/><path class="cls-12" d="M501.58,874.92l16.84,10.46"/><path class="cls-12" d="M467.66,853.85,486,865.24"/><path class="cls-12" d="M488.28,870.92l-20.15,5.36"/><path class="cls-12" d="M522.34,861.86l-20.53,5.47"/><path class="cls-12" d="M496.49,878.51l5.1,19.15"/><path class="cls-12" d="M486.21,839.93l5.55,20.86"/><path class="cls-13" d="M1281.63,534.7l-11,17.71"/><path class="cls-13" d="M1300.23,504.76,1289,522.81"/><path class="cls-13" d="M1292.81,534.6l16.84,10.46"/><path class="cls-13" d="M1258.89,513.54l18.33,11.39"/><path class="cls-13" d="M1279.51,530.61,1259.36,536"/><path class="cls-13" d="M1313.56,521.54,1293,527"/><path class="cls-13" d="M1287.71,538.2l5.1,19.15"/><path class="cls-13" d="M1277.44,499.61l5.55,20.86"/><path class="cls-8" d="M1049.07,870c.64,22.27,29.07,33.43,43.61,15.48,14.05-17.35-1.49-43.59-23.45-39.64-11.77,2.12-19.82,12.43-20.16,24.16-.06,1.93,2.94,1.93,3,0,.34-11.74,9.57-21.56,21.56-21.56a21.56,21.56,0,0,1,0,43.11c-12,0-21.22-9.82-21.56-21.56C1052,868.1,1049,868.09,1049.07,870Z"/><path class="cls-6" d="M1070.89,754.26c14.9,6.77,31.05-9.33,21.82-23.91-9-14.26-30.17-7-30.89,9-.09,1.93,2.91,1.93,3,0,.58-12.91,17.24-18.94,25-7.86,8.22,11.71-4.93,25.85-17.43,20.16-1.74-.79-3.27,1.79-1.51,2.59Z"/><path class="cls-11" d="M1016.25,829.55l8.74,14.07"/><path class="cls-11" d="M1001.47,805.77l8.91,14.34"/><path class="cls-11" d="M1007.37,829.47,994,837.78"/><path class="cls-11" d="M1034.31,812.74l-14.56,9"/><path class="cls-11" d="M359.45,480.72l-8.74,14.07"/><path class="cls-11" d="M374.22,456.93l-8.91,14.34"/><path class="cls-11" d="M368.33,480.64l13.38,8.31"/><path class="cls-11" d="M341.38,463.91l14.56,9"/><text class="cls-14" transform="translate(422.08 1090.65)">FO<tspan class="cls-15" x="167.45" y="0">O</tspan><tspan x="271.1" y="0">T</tspan><tspan class="cls-16" x="331.25" y="0">L</tspan><tspan x="385.24" y="0">OOSE</tspan></text><path class="cls-17" d="M1163,973.85v179.22c0,3.86,6,3.87,6,0V973.85c0-3.86-6-3.87-6,0Z"/><path class="cls-17" d="M1033.53,1117.12h179.22c3.86,0,3.87-6,0-6H1033.53c-3.86,0-3.87,6,0,6Z"/><path class="cls-7" d="M971.19,1136.6h179.22c3.86,0,3.87-6,0-6H971.19c-3.86,0-3.87,6,0,6Z"/></g><g id="Layer_2" data-name="Layer 2"><polygon class="cls-18" points="698.21 865.06 668.94 928.24 762.62 928.24 762.62 880.67 698.21 865.06"/><path class="cls-18" d="M744.47,852.85v65.43l147.06,4.38L847.42,879.6S759.18,883,744.47,852.85Z"/><path class="cls-18" d="M1074,614.94v23.9a14.47,14.47,0,0,1-12.19,14.29l-22.79,3.63a14.47,14.47,0,0,1-12.38-3.94l-12.45-12.16a14.47,14.47,0,0,1,.72-21.35L1034,603a14.47,14.47,0,0,1,10.23-3.44l16.14.93A14.47,14.47,0,0,1,1074,614.94Z"/><path class="cls-18" d="M1092.76,430.91v23.9a14.47,14.47,0,0,1-12.19,14.29l-22.79,3.63a14.47,14.47,0,0,1-12.38-3.94l-12.45-12.16a14.47,14.47,0,0,1,.72-21.35l19.1-16.3a14.47,14.47,0,0,1,10.23-3.44l16.14.93A14.47,14.47,0,0,1,1092.76,430.91Z"/><path class="cls-18" d="M879.36,553.69v38.85c0,11.56-6.66,21.41-15.7,23.23l-29.35,5.9c-5.82,1.17-11.73-1.2-15.94-6.4l-16-19.76c-7.84-9.66-7.41-25.74.92-34.72l24.6-26.5A16.34,16.34,0,0,1,841,528.7l20.78,1.52C871.66,530.93,879.36,541.23,879.36,553.69Z"/><path class="cls-18" d="M1080.59,122.48l92.52,33.2.22,25.65L1160.85,176s-23.18-.59-38-19.62c0,0-51.72-5.35-55.88-13.08C1066.92,143.29,1072.27,127.24,1080.59,122.48Z"/><path class="cls-18" d="M1086.08,467.39h43s36.39,156.57-21.5,161.56c0,0-41.35,1.95-54.59-36.23Z"/><path class="cls-18" d="M957.12,250.69l74-14.28c-41.65,79.17,31.77,330,4.28,221.11,0,0,32.53,46.17,0,0Z"/><path class="cls-18" d="M800.42,844.34l-33.84-29.71c-3-2.6,7.84-17.82,16.94-23.87,90.81-60.34,233.87-233.61,229.22-229-9.17,9-15.57,10.43-11.35,1.84l-12.88,26.2a38.46,38.46,0,0,1-3.13,5.13L818.76,829.6C812.31,838.7,802.75,846.38,800.42,844.34Z"/><path class="cls-18" d="M980.66,504.9l11.15-3.29A8.18,8.18,0,0,0,996.08,489c-32.65-45.58-60.78-173.28-45.52-112.35,0,0,1.07-32.74,0,0l19.73,121.77A8.16,8.16,0,0,0,980.66,504.9Z"/><path class="cls-18" d="M1046.9,156.94s-21.2,53.08-43.41,63.7c0,0,28.27-14.86,43.41-5.31,0,0,20.19,17,21.2,24.42,0,0,12.11-9.55,9.09-24.42,0,0-18.21-39.28.49-43.53,0,0,18.69-3.18,27.78,26.54,0,0,5-31.85,27.26,0,0,0,30.29,12.74,30.29,26.54v-13.8l-44.42-40.34S1070.12,162.25,1046.9,156.94Z"/><path class="cls-19" d="M1066.92,143.29s7.73-17.83,13.67-20.81c0,0,9.51-20.21,14.86-22,0,0,38-5.94,71.93,12.48,0,0,7.13,23.18,5.94,68.36,0,0-8.32-5.35-12.48-5.35,0,0-12.48-1.19-16.64-3.57,0,0-14.27-7.73-21.4-16.05C1122.8,156.37,1075.84,151,1066.92,143.29Z"/><path class="cls-19" d="M1031.54,140.45s0,19.62,86.2,27.94c0,0,48.15,49.34,72.52,44.58,0,0-9.51,7.17-26.16.4v7.54s-5.94-.05-5.94,3.52v8.92s-1.19-8.22-4.16-12.43c0,0-3.83-10.22-20.44-14.57a5.82,5.82,0,0,1-3.38-2.41c-2.27-3.42-7.26-10.59-11.38-14.08a3.46,3.46,0,0,0-5.63,1.9l-2.27,10.67a5.36,5.36,0,0,1-4.76-2.91s-13.66-29-12.55-17.15l.73,13.36s-10.82-7.11-17.76-10.35a2.25,2.25,0,0,0-2.8,3.31c3.65,5.37,9.27,14.17,7.58,15.25l-4.52,2.57a4.33,4.33,0,0,0-.72,7l8.42,7.4s-4.46,1.63-5.13,12.41v9.44l4.9-6.25,3.34,3.35,11.71,3.6a2.23,2.23,0,0,0,2.75-2.88l-10.45-29.25s2.45-6.46,6.46-4.46c0,0,4.9,1.34,7.36,8.92,0,0,4.46,13.15,15.83,18.28,0,0,7.58,4.46,10.92,4.46l21.62,5.57h-22.07s-12.72-1.78-17.84-4.9c0,0-.76,12.7-5.88,13.59,0,0,23.28,7.8,27.07,32.32l-.22,67.1-.45,14.49s10,12.71,2.9,45.7c0,0-10.7,39.23-8,65.09,0,0-2.68,64.2-3.57,74.9,0,0-2.68,53.5-21.4,63.31,0,0-11.59,14.27-35.67-11.59a56.75,56.75,0,0,0,0,23.18l1.78,24.08s-7.13,8.92-10.7-4.46l-2.68-21.4s-7.13-2.68-7.13,13.38l-3.57,23.18s-8.92,10.7-10.7,0l5.35-35.67s-5.65-6.24-9.51,3.57c0,0-7.43,16.94-17.24,16.94,0,0-8-3.57-5.35-7.13,0,0-50.83,74.9-82.93,89.17,0,0-41,67.77-53.5,78.47,0,0-15.16,35.67-33,43.69,0,0-38.34-9.81-40.13-16.05s70.44-96.3,70.44-96.3,9.81-21.4,19.62-24.08,25.86-6.24,28.53-8.92"/><path class="cls-19" d="M910.87,695.09s38.34-16.94,51.72-29.43,14.53-24.08,32.23-31.21c0,0,18.59-27.64,10.57-41,0,0,15.16,0,28.53-16.94"/><path class="cls-19" d="M1090.1,252.81h8s6.24,11.59-4,15.16C1094.11,268,1083.19,259.94,1090.1,252.81Z"/><path class="cls-19" d="M1087.81,271.53s5.16-5.35,12.2,0c0,0,16,99,8.82,217.57H1079.4S1077.84,277.27,1087.81,271.53Z"/><path class="cls-19" d="M1110.66,260.39s-3.19,12.93,3.28,73.56c0,0,11.17,32.17,3.8,74.9l2.52,80.25s-5.19,58-5.19,66.88c0,0-3.57,50.83-8.92,50.83"/><path class="cls-19" d="M1044.62,223.38l9.81-5.6s32.1,25.21,28.53,42.6c0,0-2.68,9.07-13.38,8.77C1069.59,269.16,1055.32,232.3,1044.62,223.38Z"/><path class="cls-19" d="M977.75,591.65s-20.51,20.51-56.18,0c0,0-21.4-16.05-32.1-15.16"/><path class="cls-19" d="M837.75,526.56s-6.24,38.51-26.75,62.05c0,0,9.81-8.39,8.92,0L811,606.81s.67,3.34,4.9,1.56c0,0-.45,9.59,1.34,9.14,0,0,3.57,1.59,5.35,0,0,0,2.23-5.37,4-5.59,0,0,2.9,3.34,7.13-.22,0,0,10.25-10,18.95-31.21,0,0,4.9-9.36,13.38-11.81,0,0,12.71-2.86,12,3.7,0,0,13.15,3.21,22.66-5.11,0,0-11.89,1.19-20.21-11.89l-5.94-28.83Z"/><path class="cls-19" d="M1010.74,255.78H994.82s15.92,93.33,28.4,115.33c0,0,17.65,47.63,15,66.65"/><path class="cls-20" d="M904.92,331.28s30.91,1.19,46.37,20.81l-7.13,17.83s-8.17,5.42-10.68,9.21c0,0-30.34-18.13-38.07-15.75,0,0-8-9.77-10.11-1.78S896,333.65,904.92,331.28Z"/><path class="cls-19" d="M924.26,291.51s14.55-2.44,31.19-23.55"/><path class="cls-19" d="M918.18,333.26v-7.93s26.57-1.78,43.21-12.48"/><path class="cls-19" d="M951.29,369.92s1.19,45.18,10.11,59.45c0,0,13.67,22,13.67,36.86"/><path class="cls-19" d="M957.86,421s-7.76,45.49,10.07,74.76"/><path class="cls-19" d="M1051.84,155.61s3.65,5.65,0,6.84-7.22-3.42-7.22-3.42,8.84,8.17,4.42,10.55-15.72,3.57-15.72,5.35c0,0,16.05-3.57,16.05,0s-2.77,7.13-8.82,7.13c0,0,9.41,6.54,4.06,7.73h-11.29v7.73h-10.7V207l-8.92,4.76v6l13.08-3,1.78,3,12-3v6.54l9.41-3.52,3.49-4.81,23.38,27.58a1.45,1.45,0,0,0,2.56-.9h0"/><path class="cls-19" d="M1009,639.8s37.45-42.64,40.57-51.19c0,0,18.73-45.11,19.62-50.91V510.21l7.58-21.1V470.83a12,12,0,0,0-14.27-4.61s-13.38-4.62-16.94-7.81c0,0-5.59-2.61-7,0,0,0-7.68,60.78-13.93,68.15,0,0-14.27,39.5-19.62,45.83l-14.71,12.13c4.46-.89,23.18-40.13,23.18-40.13,14.27-23.18,24.37-103.44,24.37-103.44,2.08-9.81,2.38-90.06,2.38-90.06.89-9.81,0-81.73,0-81.73-5.35-39.82,0-51.38,0-51.38h-6.84l-8.92,7.06-16.05,0C996.47,224.27,960.8,235,960.8,235,940,236.16,937,252.81,937,252.81L935.84,268l-11.89,16.35.59,13.67-18.43,13.08-1.19,20.21c-8.92,4.16-19.62,30.32-19.62,30.32-2.38,6.54-5.94,28.53-5.94,28.53-10.11,8.32-28.53,76.69-28.53,76.69C846.67,496.54,834.78,515,834.78,515c-2.38,3.57,3,11.59,3,11.59,16.05-8,41.61,2.68,41.61,2.68,10.11,2.68,10.11-7.73,10.11-7.73-1.78-8.92,7.13-35.67,7.13-35.67,1.78-8.92,15.16-37.45,15.16-37.45,8-13.08,9.21-34.48,9.21-34.48,5.94-38.64,23.18-44,23.18-44v58.85c0,3.57-10.55,19-10.55,19-14.12,11.89-11.44,27.35-11.44,27.35-3.57,8.32-14.27,20.66-14.27,20.66-6.86,5.74-15.3,22.78-21.22,36.16-4.34,9.81-7.32,17.67-7.32,17.67"/><path class="cls-19" d="M774,759.74s-7.13,15.16,11.15,23.18"/><path class="cls-19" d="M756.16,786s-3.12,15.6,5.8,24.52"/><path class="cls-19" d="M731.1,810.56V819s-10.16,2.68-11,4.9.45,5.35-2.68,10.25c0,0-8.47,5.35-8.47,8.92V848s-4-2.23-6.24,11.59c0,0-2.68,13.82-3.12,17.39,0,0-3.57,18.28-3.57,22.29,0,0,2.68,2.23,0,5.8,0,0-4.9,2.68-3.57,10.7,0,0,1.34,5.35,5.8,5.35H741s4.9-.45,4-4l.11-36.11V869s9.29-18.82,16.83-20.06l4.4-3.72Z"/><path class="cls-19" d="M729.27,825.28l24.22,23.18s-9.06,10.25-12.11,18.73c0,0-.82,22.74-3,23.63,0,0-12.48-8.47-16.05-8.47L704,881.9s-.45-1.34,0-9.81a34.94,34.94,0,0,1,3.57-14l6.24-9.14,2.68-6.69,4.9-4,2.68-2.68,1.34-2.23,3.24-5.8Z"/><path class="cls-19" d="M709.15,895.18c1.58-1.58,17.83,0,17.83,0s-3.12,9.81-8.92,10.25l-5.8.45-3.12-1.78S706,898.3,709.15,895.18Z"/><path class="cls-19" d="M766.36,847.57s-2.17,5.8-4.4,10.48-6.85,5.57-6.33,10-.08,11.59,0,12.93-3.93,4-3.93,9.81,3.4,9.36,3.93,10.7,7.55,6.24,10.73,5.8,5.85-.89,9,0,9.81,0,9.81,0l4.9,0s13.43,4,15.18,3.57,14.18,4.37,14.18,4.37,4.52,1.43,8.09,2.32,21.85,3.57,25,3.57h6.69c3.12,0,13.38-6.69,13.38-6.69s3.12-4.9,0-5.35-5.35-7.58-5.35-7.58-2.68-2.23-4-2.23a47.38,47.38,0,0,1-6.24-1.34l-2.68-2.13-10.7-5.7s-4.9-2.62-5.8-5-7.58-7.7-8.47-9.49a13.73,13.73,0,0,1-.89-4.9s-4.9-3.12-5.35-4.9-.89-5.8-.89-5.8c-1.78-2.68-4.46-8-4.46-8.92v-3.57l-18.28-12.48c.45,7.58-14.27,21.85-14.27,21.85-5.35,2.23-61.53-45.92-53.2-51.87,0,0,14.27-9.51,23.78-36.86,0,0,40.42-74.9,55.29-80.85,0,0,31.51-25,31.51-34.48,0,0-6.54-17.83,13.38-27.35l23.48-49"/><path class="cls-19" d="M769.09,851.13v9.36s16.43,13.82,30.29,16.5,18.76,3.12,25.89,4.46S806.54,856.93,812.78,848l-13.38-12.93"/><path class="cls-19" d="M889.47,600.77s5.76-10,21.4-8.22c0,0,11.59,11.59,28.53,14.27,0,0,9.21,3.07,23.78-6"/><path class="cls-19" d="M869.85,607.31S869,630,874.31,639.8"/><path class="cls-19" d="M855.88,639.8c-1.19,8-6.54-2.68-1.19,8s7.13,2.68,5.35,10.7l-1.78,8"/><path class="cls-19" d="M826.52,682.6s-3.93,18.73,14.79,20.51"/><path class="cls-19" d="M817.69,722.73s15.6,10.7,23.63,0"/><path class="cls-19" d="M778.88,745s24-47.93,35.68-52.16"/><path class="cls-19" d="M956.18,660.31a162.94,162.94,0,0,1-29.86,6.24"/><path class="cls-19" d="M1000.93,600.77s-7.76,3.74-17.83-.94"/><path class="cls-19" d="M1046.41,474.84s2.68,10.7,14.27,7.13"/><path class="cls-19" d="M1046.41,492.67s-.45,19.62-19.62,37"/><line class="cls-19" x1="1044.62" y1="346.77" x2="1053.54" y2="355.2"/><path class="cls-19" d="M1049.08,312.85s15.16-1.52,20.51-12.5c0,0,7.13-2.39,7.13,0"/><path class="cls-19" d="M1063.93,402.61c-8.33,1.78-17.38,11.59-17.38,11.59s2.37,6.52,8.69,6.83"/><path class="cls-19" d="M1044.62,450.76s9.81-14.42,16.05-13c0,0,7.13,9.09,10.7-.1"/><line class="cls-19" x1="1068.7" y1="604.13" x2="1054.51" y2="576.46"/></g></svg>