<svg xmlns="http://www.w3.org/2000/svg" viewBox="0 0 1200 1200"><defs><style>.cls-1{fill:#eaebec;}.cls-2{font-size:88px;fill:#9a2a6c;font-family:CaviarDreams-Bold, Caviar Dreams;font-weight:700;}.cls-3{letter-spacing:-0.02em;}.cls-4{fill:#ced6dd;}.cls-5{fill:#c0d866;}.cls-6{fill:#edaad0;}.cls-7{fill:#311951;}.cls-8{fill:#c6d878;}.cls-9{fill:#da4d9b;}.cls-10{fill:#eebe61;}.cls-11{fill:#d05f9a;}.cls-12{fill:#ce4146;}.cls-13{fill:#fefefe;}.cls-14,.cls-15{fill:none;stroke:#eebe61;stroke-miterlimit:10;}.cls-14{stroke-width:0.5px;}.cls-16{fill:#2c3443;}.cls-17{fill:#e4335a;}</style></defs><title>Artboard 10</title><g id="Layer_2" data-name="Layer 2"><path class="cls-1" d="M492.49,578.46,580,569.11c1.9-.2,1.92-3.21,0-3l-87.52,9.35c-1.9.2-1.92,3.21,0,3Z"/><path class="cls-1" d="M684.64,455.41q-68.7,72.1-134,147.31c-6.59,7.59-11,16.2-11,26.52,0,9.2,4.09,20.18,11,26.52,7.15,6.56,16.53,11.43,26.52,11,9.54-.43,20-3.52,26.52-11q65.31-75.18,134-147.31c13.54-14.21,15.17-39.11,0-53-14.67-13.47-38.58-15.17-53,0Z"/><path class="cls-1" d="M526.07,321a1.5,1.5,0,0,0,0-3,1.5,1.5,0,0,0,0,3Z"/><path class="cls-1" d="M533.2,316.62l20.44,8.16c1.79.72,2.57-2.18.8-2.89L534,313.72c-1.79-.72-2.57,2.18-.8,2.89Z"/><path class="cls-1" d="M558.78,324.47a14.33,14.33,0,0,0-12.64-4.39c-1.9.27-1.09,3.16.8,2.89a11.21,11.21,0,0,1,9.72,3.61c1.34,1.4,3.46-.73,2.12-2.12Z"/><path class="cls-1" d="M555.84,354.16c8.63,0,16.9-7.59,16.5-16.5s-7.25-16.5-16.5-16.5c-8.63,0-16.9,7.59-16.5,16.5s7.25,16.5,16.5,16.5Z"/><path class="cls-1" d="M542.81,346.08c8.63,0,16.9-7.59,16.5-16.5s-7.25-16.5-16.5-16.5c-8.63,0-16.9,7.59-16.5,16.5s7.25,16.5,16.5,16.5Z"/><path class="cls-1" d="M542.81,346.08c8.63,0,16.9-7.59,16.5-16.5s-7.25-16.5-16.5-16.5c-8.63,0-16.9,7.59-16.5,16.5s7.25,16.5,16.5,16.5Z"/><path class="cls-1" d="M491.14,441q29.5,42.8,58.58,85.88c2.38,3.52,4.77,7,7.13,10.58,1.14,1.7,2.23,3.42,3.26,5.19q1.24,2.54.66,1.16t.33,1.23c.35-.52.44-2.68.85-3.57q2.32-2.56.5-.68a6.5,6.5,0,0,1,3.51-2.09l-1.08.32q-2.7.55.92-.07c-.19.3-3.38-.06-3.68-.06,4.21,0,.06,0-1.18-.31-1.62-.37-3.2-.86-4.79-1.33L545,533.94l-25.93-7.75c-8.27-2.47-18.35,3-20.3,11.52-2,8.88,2.67,17.65,11.52,20.3L540,566.87c8,2.39,16.13,5.21,24.62,5.12,10.42-.11,20.52-4.57,25.87-13.86,6.2-10.77,3.33-23.51-2.71-33.63-10.25-17.18-22.48-33.46-33.74-50q-17.11-25.13-34.36-50.15c-4.89-7.09-14.7-11-22.58-5.92-7.05,4.55-11.16,15-5.92,22.58Z"/><path class="cls-1" d="M377.28,508.31c2.48,2.54,4.9,5.14,7.21,7.83q1.49,1.73,2.94,3.51c.12.15,3.1,4,1.19,1.48a176.19,176.19,0,0,1,11.05,16.66,200.74,200.74,0,0,1,9.16,18c1.59,3.48-.5-1.45.76,1.81.66,1.7,1.33,3.4,2,5.11q1.76,4.78,3.27,9.65a190.82,190.82,0,0,1,5,19.83q.9,4.65,1.57,9.33c-.49-3.39.21,2,.28,2.66q.29,2.75.5,5.5a184.78,184.78,0,0,1,.41,20.52q-.17,4.74-.59,9.46c-.14,1.57-.32,3.14-.48,4.71q-.37,3,0,.31-.22,1.56-.48,3.12l32.41,4.39,0-71.72c0-11.54,1-24-2.49-35.16-3.64-11.69-12.24-22.46-24.65-25.27-16.51-3.74-26.89,15.15-16.05,27.58,1.42,1.63,2.82,3.27,4.16,5-1.57-2,.59.82.86,1.19q1,1.32,1.88,2.66a133.84,133.84,0,0,1,7.27,11.85q1.57,2.89,3,5.86c.48,1,.94,2,1.4,3,2.22,4.75-.52-1.41.62,1.38A137.85,137.85,0,0,1,434,591.8q1.88,6.4,3.14,13,.4,2.05.73,4.11c0,.29.49,3.43.3,1.95s.17,1.69.19,2c.11,1.13.21,2.25.27,3.38a42.58,42.58,0,0,1-.07,7.62c.38-3.11-1.72,4.12-.22,1.06a17.75,17.75,0,0,1-1.46,2.46c1.71-2.39-1.19.39.37-.64s-2,.08.15-.2c.76-.1,4.23-.54,1.23-.74-8.63-.6-16.88,8-16.5,16.5.42,9.45,7.26,15.86,16.5,16.5,15.48,1.07,28.41-12.16,31.68-26.44,3.08-13.44.65-28-2.39-41.21a154.79,154.79,0,0,0-34.42-66.82l-16.05,27.58q2.69.75-.25-.41,2.33,1.45-.1-.29,1.87,2,.15-.26a23,23,0,0,1,1.5,2.38q1.27,2.55,0-.06a32.8,32.8,0,0,1,1,3.45q.55,3.05.24.94.17,1.81.25,3.62c.47,9.7.12,19.48.13,29.19l0,61.76a16.5,16.5,0,0,0,14.31,16.21c7.35,1,16.83-3.7,18.1-11.82,9.67-61.43-8.3-126.67-52.2-171.58-6-6.18-17.35-6.52-23.33,0s-6.45,16.74,0,23.33Z"/><path class="cls-1" d="M448.84,653a503.2,503.2,0,0,0,3.86-107.29c-.64-8.59-7.13-16.92-16.5-16.5-8.39.38-17.19,7.28-16.5,16.5a483.48,483.48,0,0,1,1.19,50.58q-.38,12.65-1.42,25.26-.48,5.82-1.11,11.62c-.43,4-1,8.46-1.33,11-1.19,8.51,2.06,18.14,11.52,20.3,7.77,1.77,19-2.38,20.3-11.52Z"/><path class="cls-1" d="M399.16,540.51c17.65,30.48,25.45,64.24,23.8,99.94-.4,8.63,7.88,16.89,16.5,16.5a16.86,16.86,0,0,0,16.5-16.5,214.25,214.25,0,0,0-28.3-116.59c-4.33-7.47-15.11-10.73-22.58-5.92s-10.55,14.58-5.92,22.58Z"/><path class="cls-1" d="M421.33,615.27a53,53,0,0,1,1.91,6.07c.17.65.28,3.11.12.31.06,1.06.14,2.11.15,3.18,0,.8,0,1.6,0,2.4,0,.42-.29,3.74-.07,1.81s-.27,1.39-.36,1.81q-.41,2-1,4A62.77,62.77,0,0,1,420,641c.89-2.24-1.06,2.13-1.39,2.76A99.44,99.44,0,0,1,410.93,656c-2.64,3.68-3.14,4.27-5.94,7.83-3.58,4.56-7.18,9.1-10.59,13.79-7,9.7-14,21.2-7.18,33.07,6,10.33,18.16,11.5,28.8,11a225.85,225.85,0,0,0,28.11-3.21c17.53-3.05,34.32-8.71,50.55-15.92a221.15,221.15,0,0,0,45.77-27.92c14.53-11.29,28.37-24.42,38.63-39.79,10.75-16.1,14.92-35.52,15.91-54.6a226,226,0,0,0-.47-27.1c-.63-9.21,0-21-5.08-29a20.09,20.09,0,0,0-20.29-9.45c-6.43.86-11.65,5.37-17.06,8.63q-6.43,3.89-13.13,7.28-3.93,2-7.94,3.8l-2.41,1.07q-1.56.68-.1,0l-1.63.66a207.48,207.48,0,0,1-30,9.28c-4,.89-10.75,2.12-13.21,2.47,1.77-.25-1.77.22-2.12.26q-2.16.25-4.32.45c-2.88.26-5.77.45-8.66.59-8.61.42-16.91,7.29-16.5,16.5.38,8.58,7.27,17,16.5,16.5a210.87,210.87,0,0,0,58.06-10.87,230.5,230.5,0,0,0,28.2-11.85q6.32-3.16,12.4-6.77c4.11-2.44,8.06-5.7,12.44-7.59l-8.33,2.25-11.14-8.48q.63,2.75.06-.87a47.07,47.07,0,0,1,.45,5c.25,2.81.48,5.62.69,8.43.47,6.5.8,13,.81,19.52a164.74,164.74,0,0,1-.89,17.58c-.56,5.3.68-3-.34,2.16-.21,1.07-.39,2.15-.61,3.23a90,90,0,0,1-2.72,10.23q-.64,1.93-1.37,3.82c1.15-3-.89,1.89-1,2a72.43,72.43,0,0,1-4.25,7.45c-3.14,4.82-6.78,8.9-11.86,14.12q-5.75,5.92-12,11.37-3.39,3-6.92,5.81c-.48.39-3.24,2.53-1.18,1q-2.6,2-5.27,3.87a207.88,207.88,0,0,1-30.73,18.1,176.7,176.7,0,0,1-30.65,11.16q-8.1,2.18-16.36,3.66-2,.35-3.93.66c-.28,0-5.49.72-1.92.3-3.16.38-6.33.7-9.51.93q-4,.29-7.95.4c-.71,0-3.76.52-4.32,0l2,.29q-2.89-.92,1.05,1l2.2,1.32q-.29,18.61,3.68,10.81c1.08-1.32,1.91-3,2.87-4.44.82-1.21,1.67-2.41,2.53-3.59.36-.49,3.35-4.5,2.18-3,9.83-12.87,19.95-24.86,26.1-40,5.67-14,7.6-30.53,2-44.82C450,598.5,442,592,432.86,595c-7.77,2.52-14.9,11.7-11.52,20.3Z"/><path class="cls-1" d="M444.26,567.74c1.52,20.69,4.29,41.73,4,62.49,0,2.4-.17,4.79-.36,7.19-.05.64-.35,2.71-.07.94-.18,1.17-.41,2.35-.67,3.51a64.25,64.25,0,0,1-1.76,6.26c-.46,1.4-.74,1.57,0,.14-.45.87-.85,1.76-1.32,2.62a37.8,37.8,0,0,1-3.12,4.89c1.93-2.51-1.91,1.59-2.67,2.35-1.48,1.48,1.94-.94.05-.12a18.8,18.8,0,0,0-2.34,1.34c-1.66,1.06,2.17-.4.22-.15-1.06.13-2.22.57-3.28.76-8.06,1.47-12.82,10.64-11.82,18.1,1.12,8.34,7.91,13.87,16.21,14.31,28.78,1.52,53.75-18.13,63.9-44.13,5.09-13.05,6-27.59,6-41.48,0-6.93-.26-13.86-.3-20.79,0-3.17,0-6.34.1-9.5.06-1.72.14-3.43.25-5.14q.08-1.28.19-2.56-.21,4.63-5,7.27l-8.33,2.25.9-.1-8.33-2.25.9.49-8.17-14.25.69,83.2a16.57,16.57,0,0,0,10.14,15.08c5.53,2.33,14,1.68,18-3.41,17.24-21.61,18.65-48.32,17.85-74.92-.26-8.62-7.4-16.91-16.5-16.5-8.72.39-16.78,7.26-16.5,16.5.31,10.44.62,21.06-.82,31.43.24-1.71.17-1.16-.1.21s-.56,3-.91,4.5c-.51,2.2-1.12,4.38-1.84,6.53-.39,1.17-1.14,3.11-.2.92-.48,1.13-1,2.24-1.6,3.32s-1.18,2.16-1.83,3.2c-.37.59-2.92,4-.88,1.47l28.17,11.67-.69-83.2c0-5.68-3.08-11.49-8.17-14.25-11.84-6.42-24,.16-28.32,12.17-2.43,6.75-2,15.29-2,22.41-.07,14,1.1,28.11-.54,42.07q-.21,1.79,0-.25-.19,1.23-.43,2.45c-.31,1.63-.66,3.24-1.07,4.84s-.88,3.18-1.4,4.75q-.39,1.18-.83,2.34.76-1.69,0-.11a86.24,86.24,0,0,1-4.5,7.79q-1,1.42.36-.41-.69.85-1.43,1.67-1.46,1.63-3,3.14c-.36.34-3.64,3.13-2.19,2s-2,1.34-2.45,1.61q-1.82,1.14-3.72,2.12-.94.5-1.92.94,2.33-.94.67-.3c-2.73.83-5.36,1.56-8.13,2.24q-1.84.32.92-.11-1,.11-2.09.15a48.72,48.72,0,0,1-4.9,0l4.39,32.41c24.64-4.49,36.59-30.19,39-52.58,1.21-11.21.14-22.51-.68-33.71l-2.76-37.75c-.63-8.59-7.14-16.92-16.5-16.5-8.4.38-17.18,7.28-16.5,16.5Z"/><path class="cls-1" d="M462.8,502.36c19.62,0,38.41-17.25,37.5-37.5s-16.48-37.5-37.5-37.5c-19.62,0-38.41,17.25-37.5,37.5s16.48,37.5,37.5,37.5Z"/><path class="cls-1" d="M466.76,384.19,464,453.29l-1.34,33.56c-.45,11.16-.15,22.66-1.61,33.74l1.34-10a29.36,29.36,0,0,1-1.12,4.32l3.78-9a12.48,12.48,0,0,1-1.34,2.54l5.86-7.59a10.06,10.06,0,0,1-2,2.11l7.59-5.86a10.92,10.92,0,0,1-2.43,1.47l9-3.78a20.47,20.47,0,0,1-4.12,1.1l10-1.34a28.75,28.75,0,0,1-4.36,0l10,1.34a28.74,28.74,0,0,1-7.09-1.94l9,3.78a37,37,0,0,1-6.46-3.95l7.59,5.86a43.56,43.56,0,0,1-6.51-6.75l5.86,7.59a66.28,66.28,0,0,1-7.25-13.12l3.78,9c-4.58-11.39-7.09-23.28-16-32.47a43.78,43.78,0,0,0-30.32-13.24c-7.48-.14-12.73,1.92-19.47,3.64l10-1.34a9.44,9.44,0,0,1-2.62.12l10,1.34a10.51,10.51,0,0,1-2.57-.57l9,3.78a16.85,16.85,0,0,1-3.5-2l7.59,5.86a12.63,12.63,0,0,1-1.93-1.94l5.86,7.59a12.33,12.33,0,0,1-1.48-2.35l3.78,9a11.71,11.71,0,0,1-.91-2.67c-4.21-15.29-19.83-28.26-36.16-27.53-15.9.71-32.57,11-36.16,27.53-4.4,20.19.43,38.77,14.1,54.26,6.12,6.94,17.51,11,26.52,11,9.2,0,20.18-4.09,26.52-11,14.45-15.74,13.89-37.29,0-53l-.95-1.07,5.86,7.59a25.72,25.72,0,0,1-2.28-3.69l3.78,9a25.69,25.69,0,0,1-1.64-5.65l1.34,10a25,25,0,0,1,.1-5.91l-1.34,10,.32-1.45H387.07c3.57,13,12.6,25.6,25,31.34,7.65,3.53,15.53,6.17,24.11,5.57,6.43-.45,11.81-2.5,17.92-3.65l-10,1.34h1.55l-10-1.34,1.52.42-9-3.78,1,.59-7.59-5.86a7.18,7.18,0,0,1,1.64,1.71l-5.86-7.59a13,13,0,0,1,1.22,2.21l-3.78-9c7.25,17.79,12.28,36.14,27.58,49.18,8.8,7.5,19,14.2,30.69,16,17.13,2.69,35.16.38,47.92-12.72,10.74-11,14.42-24.61,15.31-39.57.5-8.39.68-16.81,1-25.21l2-49.36,2.29-57.25c.78-19.62-17.81-38.38-37.5-37.5-21,.94-36.66,16.48-37.5,37.5Z"/><path class="cls-1" d="M632.82,565.72l5.35-105.6,2.68-52.8c.82-16.12,2.51-32.46,2.15-48.6-.56-25.16-8.81-48.59-30.79-62.72-10-6.43-22.79-6.36-33.37-1.89-11,4.62-18.09,13-21.71,24.3-19.78,61.82-32.64,125.31-40.2,189.74-1,8.53,4.84,20.87,11,26.52,7.12,6.53,16.56,11.5,26.52,11,39.12-2,71.36-28.63,88.4-63,8.51-17.15,14.26-35.32,18.9-53.83,3.88-15.5,6.78-31.68,12.93-46.49l-3.78,9a68.49,68.49,0,0,1,7.57-13.41l-5.86,7.59a40.39,40.39,0,0,1,6.27-6.49l-7.59,5.86a28.28,28.28,0,0,1,5.15-3.08l-9,3.78a24.24,24.24,0,0,1,4.51-1.28l-10,1.34a23.68,23.68,0,0,1,4.86-.06l-10-1.34a26.11,26.11,0,0,1,5.1,1.34l-9-3.78a44.34,44.34,0,0,1,9.2,5.67l-7.59-5.86c6.35,5,12.44,10.52,19.32,14.79s14.73,6.26,22.12,9.3l-9-3.78a25.48,25.48,0,0,1,3.44,1.95L682.94,398a11.76,11.76,0,0,1,1.93,1.79L679,392.2a11,11,0,0,1,1.53,2.34l-3.78-9a18.61,18.61,0,0,1,1.18,4.08l-1.34-10a30.09,30.09,0,0,1-.1,5.93l1.34-10c-2.92,19.25-10.52,38.64-18,56.52l3.78-9a342.26,342.26,0,0,1-33.81,61.54l68.54,9A59.9,59.9,0,0,1,695.56,482l1.34,10a73.92,73.92,0,0,1,.24-17.26l-1.34,10a120.08,120.08,0,0,1,8.36-28.78l-3.78,9c9.9-23.06,23.8-44.92,28.65-69.85l-68.54,9a422.72,422.72,0,0,0,21.22,36.73C692.93,458,704.61,475,725.12,481.87c18.84,6.34,40.69,1.14,56.35-10.52a128.39,128.39,0,0,0,19-17.23,128.72,128.72,0,0,1,13.62-13.65l-7.59,5.86q1.24-1,2.55-1.89c9.88-7.09,16.25-15.1,17.9-27.4,1.52-11.33-1.61-23.49-10.31-31.5-10-9.21-22.54-17.15-36.24-19.13-10.4-1.5-19.44-1.75-28.9,3.78-7.78,4.55-15.2,13.47-17.23,22.41-2.19,9.6-1.71,20.37,3.78,28.9,4.92,7.63,13,15.84,22.41,17.23l39.21,5.82,18.62,2.76c5.78.86,11.86,1.27,17.42,3.16l-9-3.78a18.66,18.66,0,0,1,3.49,1.91l-7.59-5.86a9.32,9.32,0,0,1,1.83,1.9L818.67,437l.71,1.18-3.78-9a10.19,10.19,0,0,1,.94,3l-1.34-10a28.69,28.69,0,0,1-.15,6.47l1.34-10c-12.46,83.6-28.8,167.14-26.7,252.06h75l-26.09-232c-1.1-9.79-3.32-19.48-11-26.52A38.54,38.54,0,0,0,806.09,402c-18.89-2.54-35.26,8.93-41.14,26.86L730.67,533.32H803l-26.49-98c-5.21-19.28-26.73-31.94-46.13-26.19-20,5.93-32.42,20.85-42.75,38.1q-11.55,19.28-23.09,38.58l-46.69,78c-9.63,16.1-4.84,37.17,9.66,48.38,14.26,11,36.4,10.79,49.24-2.93a156.68,156.68,0,0,1,18.13-16.57l-7.59,5.86a148.51,148.51,0,0,1,32-18.63l-9,3.78a144.57,144.57,0,0,1,21.2-6.88L702.61,573l1,.56L696,567.72a7.07,7.07,0,0,1,1.63,1.56l-5.86-7.59a8.85,8.85,0,0,1,1.15,2l-3.78-9a11.3,11.3,0,0,1,.67,2.33l-1.34-10a19.54,19.54,0,0,1,.12,3.78l1.34-10a19.07,19.07,0,0,1-.91,3.67l3.78-9a21.23,21.23,0,0,1-2.23,3.65l5.86-7.59a30.94,30.94,0,0,1-3.21,3.16l7.59-5.86c-8,6.08-17.67,10.31-26.45,15.12L645.33,560c-14,7.64-22.2,27-17.23,42.35a44.63,44.63,0,0,0,9.64,16.55c5.94,6.48,17.69,11.56,26.52,11l107.63-7v-75c-49.63,6.54-99.87,13.43-143.46,40a37.69,37.69,0,0,0-17.9,37.36A35.53,35.53,0,0,0,617.9,643c4.58,5.93,11.81,12.13,19.48,13.44,50,8.51,100.6,12.14,151.27,9.25v-75c-27.37,1.74-54.52,6.86-80.18,16.62-8.95,3.41-17.71,8.35-22.41,17.23a38.65,38.65,0,0,0-4.45,23.91c1.06,7.87,4.29,16,10.31,21.53l7.59,5.86A37.33,37.33,0,0,0,718.43,681,805.52,805.52,0,0,0,816,687.56L806,613.9a388.56,388.56,0,0,1-58.18,12.6l10-1.34a391,391,0,0,1-40.1,3.22,39.13,39.13,0,0,0-26.52,11c-6.5,6.5-11.4,17.18-11,26.52.89,19.84,16.49,38.1,37.5,37.5a422.47,422.47,0,0,0,108.24-17.16,37.56,37.56,0,0,0-10-73.66A805.52,805.52,0,0,1,718.43,606l10,73.66A242.86,242.86,0,0,1,782.1,666l-10,1.34q8.24-1.05,16.51-1.58c10-.64,19.28-3.75,26.52-11,6.5-6.5,11.4-17.18,11-26.52-.87-19.36-16.52-38.7-37.5-37.5a630.18,630.18,0,0,1-118.23-4.39l10,1.34q-11.57-1.56-23.07-3.52l9,68.54a186.58,186.58,0,0,1,23.25-12l-9,3.78c29.49-12.43,61.18-17.53,92.7-21.78l-10,1.34,8.59-1.14c10.35-1.36,18.82-3.28,26.52-11,6.5-6.5,11.4-17.18,11-26.52-.43-9.7-3.62-19.76-11-26.52-7.06-6.48-16.62-11.63-26.52-11l-107.63,7,18.93,69.88c16.81-9.2,33.95-18,50.47-27.67,12.8-7.5,24.24-19,28.13-33.76,4.53-17.16.44-36.32-12.72-48.66-11.35-10.63-25.78-13.29-40.57-9.44q-6.17,1.6-12.16,3.79a205,205,0,0,0-27.93,12.36,180,180,0,0,0-44.69,34.81l58.9,45.44,39-65.15,19-31.72c6.06-10.13,11.66-20.82,18.67-30.34L753.39,482a42.55,42.55,0,0,1,6-6.41l-7.59,5.86a27.29,27.29,0,0,1,4.77-2.92l-9,3.78a17.37,17.37,0,0,1,2.66-.9l-46.13-26.19,26.49,98c4.13,15.3,19.88,28.26,36.16,27.53C784,580,797.64,569.56,803,553.26l34.27-104.42-73.66-10,26.09,232c1.15,10.25,3.42,18.95,11,26.52,6.5,6.5,17.18,11.4,26.52,11,19.9-.89,38-16.49,37.5-37.5-1.11-44.93,2.9-89.73,8.84-134.22l-1.34,10c2.52-18.73,5.36-37.42,8.31-56.09,3.23-20.5,7.45-41.09,9.55-61.75,1.81-17.77-7-36.89-23-45.67-9.84-5.42-19-6.65-29.76-8.25l-56.85-8.44-19.94,72.32a39.19,39.19,0,0,1,9.08,2.44l-9-3.78a41.54,41.54,0,0,1,8.19,4.91l-7.59-5.86q1.26,1,2.43,2.14l7.59-58.9a131.4,131.4,0,0,0-21,18.39c-4.54,5-8.95,10.09-14.17,14.38l7.59-5.86a48.42,48.42,0,0,1-9.66,5.84l9-3.78a35.63,35.63,0,0,1-7.45,2.11l10-1.34a27.83,27.83,0,0,1-6,0l10,1.34a27.05,27.05,0,0,1-4.36-1.2l9,3.78a26.7,26.7,0,0,1-5.18-3.14l7.59,5.86a44.24,44.24,0,0,1-5.34-5.57l5.86,7.59c-12.35-16-22.5-34-31.72-52-6.81-13.24-23.36-19.78-37.36-17.9-13.72,1.84-28.37,12.41-31.18,26.86a121.43,121.43,0,0,1-7.19,23.15l3.78-9C645.33,408,635,425.69,628.34,445c-7.43,21.48-9.93,46.84-2.29,68.62,5,14.35,15.67,24.78,31.18,26.86s28.59-5.25,37.36-17.9c18.6-26.83,33-56.34,44-87,5.82-16.12,11.18-32.84,12.87-50,1.4-14.17-4-30-14.52-39.82-8.78-8.2-19.1-11.35-29.93-15.71l9,3.78a48.46,48.46,0,0,1-9.35-5.88l7.59,5.86c-7.16-5.66-14-12.21-22.19-16.29-13-6.45-27-9-41.23-5.37-19.25,4.82-34.84,20.52-43.27,38-14.78,30.72-17.11,65.48-30.22,96.84l3.78-9a116.11,116.11,0,0,1-13.88,24.13l5.86-7.59a89.48,89.48,0,0,1-14.43,14.81l7.59-5.86a65.44,65.44,0,0,1-14.57,8.62l9-3.78a54,54,0,0,1-12,3.21l10-1.34c-1.4.16-2.78.27-4.19.35l37.5,37.5q1-8.6,2.16-17.18l-1.34,10a956.34,956.34,0,0,1,36.71-162.59l-55.09,22.41a19.21,19.21,0,0,1,2.06,1.42l-7.59-5.86a26.28,26.28,0,0,1,3.43,3.49l-5.86-7.59a31,31,0,0,1,3.13,5.37l-3.78-9a47.73,47.73,0,0,1,3,11.62l-1.34-10c1.87,15.82-.29,32.23-1.1,48.07l-2.83,55.79-5.66,111.58c-1,19.62,18,38.38,37.5,37.5,21.17-.95,36.43-16.48,37.5-37.5Z"/><path class="cls-1" d="M414.42,480.15c19.62,0,38.41-17.25,37.5-37.5s-16.48-37.5-37.5-37.5c-19.62,0-38.41,17.25-37.5,37.5s16.48,37.5,37.5,37.5Z"/><path class="cls-1" d="M349.3,441.79c19.62,0,38.41-17.25,37.5-37.5s-16.48-37.5-37.5-37.5c-19.62,0-38.41,17.25-37.5,37.5s16.48,37.5,37.5,37.5Z"/><path class="cls-1" d="M364.18,449.86c19.62,0,38.41-17.25,37.5-37.5s-16.48-37.5-37.5-37.5c-19.62,0-38.41,17.25-37.5,37.5s16.48,37.5,37.5,37.5Z"/><path class="cls-1" d="M353,484.18c19.62,0,38.41-17.25,37.5-37.5S374,409.18,353,409.18c-19.62,0-38.41,17.25-37.5,37.5s16.48,37.5,37.5,37.5Z"/><path class="cls-1" d="M327.77,457c-3.77,15.21,8.78,22.49,20.14,28.61A103.39,103.39,0,0,1,375.05,507c4,4.36,11.28,4.5,15.76.94,5-3.95,5.67-9.89,3.09-15.48-1.73-3.75-3.53-8.41-2.91-12.56a6.25,6.25,0,0,1,1.63-3.56,7.06,7.06,0,0,1-.52.48c.48-1.34,1.76-.38,0-.28,6.47-.35,12-5.27,12-12,0-6.23-5.5-12.35-12-12-11.4.61-20.05,8.3-23.61,19-3.74,11.2,0,22.85,4.71,33.08L392,490a128.76,128.76,0,0,0-23.45-20,110.8,110.8,0,0,0-12.24-7c-1.73-.85-3.39-1.78-5.08-2.69.37.2-.76-.5-.78-.49.53-.53-.61,7.78.44,3.56,3.71-15-19.43-21.39-23.14-6.38Z"/><path class="cls-1" d="M329.36,482.48l14.89,6.06c5.83,2.37,13.44-2.57,14.76-8.38,1.59-7-2.14-12.22-8.38-14.76l-14.89-6.06c-5.83-2.37-13.44,2.57-14.76,8.38-1.59,7,2.14,12.22,8.38,14.76Z"/><path class="cls-1" d="M332.5,492.1c14,5,27.32,10.27,37.64,21.36s19.05,24.67,27.32,37.53a356.89,356.89,0,0,1,23,42.7c5.65,12.15,15.3,27.6,11.79,41.49-3.79,15,19.35,21.37,23.14,6.38,5-19.56-3.89-37.54-11.86-54.9C436,570.23,428,554.11,418.18,538.88c-9.64-15-19.84-30.83-32.28-43.67-13-13.39-29.78-20.14-47-26.25-6.11-2.16-13.13,2.45-14.76,8.38-1.82,6.64,2.25,12.59,8.38,14.76Z"/><path class="cls-1" d="M282.9,470.21c49.89,19.15,94.12,51.17,129.58,91,4.31,4.84,12.57,4.4,17,0,4.81-4.81,4.32-12.12,0-17a361.62,361.62,0,0,0-140.17-97.14c-6.05-2.32-13.16,2.57-14.76,8.38-1.86,6.77,2.31,12.43,8.38,14.76Z"/><path class="cls-1" d="M274,465.72c15.44,0,15.47-24,0-24s-15.47,24,0,24Z"/><path class="cls-1" d="M290.73,464.7c15.44,0,15.47-24,0-24s-15.47,24,0,24Z"/><path class="cls-1" d="M286.09,467.73c15.44,0,15.47-24,0-24s-15.47,24,0,24Z"/><path class="cls-1" d="M434.89,495c15.44,0,15.47-24,0-24s-15.47,24,0,24Z"/><path class="cls-1" d="M292.57,470.77c15.44,0,15.47-24,0-24s-15.47,24,0,24Z"/><path class="cls-1" d="M299.06,474.84c15.44,0,15.47-24,0-24s-15.47,24,0,24Z"/><path class="cls-1" d="M300,461.71c7.72,0,7.73-12,0-12s-7.73,12,0,12Z"/><path class="cls-1" d="M286,467.72c15.44,0,15.47-24,0-24s-15.47,24,0,24Z"/><path class="cls-1" d="M275.07,467.11c7.72,0,7.73-12,0-12s-7.73,12,0,12Z"/><path class="cls-1" d="M278.11,468.13c7.72,0,7.73-12,0-12s-7.73,12,0,12Z"/><path class="cls-1" d="M280.22,468.89c7.72,0,7.73-12,0-12s-7.73,12,0,12Z"/><path class="cls-1" d="M282.8,469.4c7.72,0,7.73-12,0-12s-7.73,12,0,12Z"/><path class="cls-1" d="M273.43,468.64c7.72,0,7.73-12,0-12s-7.73,12,0,12Z"/><path class="cls-1" d="M269,467.37c7.72,0,7.73-12,0-12s-7.73,12,0,12Z"/><path class="cls-1" d="M852.46,700c2.23-8.2,2.54-16.59,2.53-25.08q-.09-110.74,0-221.47c0-1.85.16-3.7.24-5.56,2,.09,2.27,2,3,3.44,4.56,8.79,10.67,16.4,16.06,24.56,1.53,2.31,3.39,4.36,5.1,6.53.36,3.27,1.83,5.51,4.91,6.26.75,3.09,2.46,4.94,5.53,5,9.07.06,18.15-.33,27.18,1,.5,3.2,1.93,4.14,4.88,2.91,2.5-1,5.11-2.25,8.16-1.53-.74,4-4,6.14-5.23,9.53-.52,1.4-1.47,2.88.4,3.84,1.47.75,3,.94,4.06-.92s2.35-3.92,3.53-5.88c4.75,13,1,24.64-4.6,36.18-9.74,20-5.52,42.7,7.78,58.49,2.79,3.31,6,6.23,8.47,9.87l-5,9c-.54,1-1.42,2-.17,3,1.52,1.24,2.21-.22,2.87-1.29,1.71-2.77,3.35-5.59,5-8.39,4.58.38,6.11,4.69,8.45,7.87a35.84,35.84,0,0,1,7.24,18.24c1,11.08-5.25,20.43-16.07,24.65-12.12,4.73-24.82,7-37.28,10.23.52-1.76.94-3.56,1.56-5.28,2.9-8,.06-17.92-6.56-22.79s-18.23-4.31-23.67.67c-8.38,7.69-9.47,22.79-.4,31.1,2.07,1.9,4.52,2.79,6.6,4.48-.67,1.75-2.27,2.2-3.63,2.95-8.94,4.92-17.94,9.69-25.78,16.65A7.22,7.22,0,0,1,852.46,700Zm36.83-159.39c-7.39-.27-13.3,6.49-13.19,15.07.11,7.93,7.92,15.1,15.4,13.93,2.19-.34,5.63-.71,5.35-3.57-.34-3.53-3.56-2-5.73-1.66-4.29.71-7.31-1.37-9.09-5.33s-.92-7.85,2-11.09c3.15-3.48,6.5-2.54,9.79-.49a9.7,9.7,0,0,1,4.62,7.24c.23,1.7,1.06,2.9,2.79,2.69,2.06-.25,1.67-2.1,1.66-3.54C902.86,547,896.51,540.88,889.29,540.61Zm47.09,87.71a9.65,9.65,0,0,0-1.13-1.66,1.19,1.19,0,0,0-2,.32c-1.74,3-3.43,6-5.09,9a1.5,1.5,0,0,0,.56,2.12c.56.38,1.24.57,1.64-.07C932.38,634.85,934.32,631.65,936.38,628.33Zm-3.31-8.66c-.19-.34-.32-.9-.65-1.13-2.71-1.92-5.44-3.82-8.22-5.65a1.52,1.52,0,0,0-2.36.71,1.55,1.55,0,0,0,.63,2.12c2.75,1.87,5.48,3.75,8.28,5.52C932.09,622.08,932.69,621.08,933.07,619.67Zm16.43,14.4c1.36.34,1.81,0,2.13-.68a1.69,1.69,0,0,0-.44-2.23c-2.46-1.74-5-3.39-7.48-5a1.38,1.38,0,0,0-2,.49c-.43.57-.68,1.4-.14,1.8C944.33,630.49,947.19,632.44,949.5,634.07Z"/><path class="cls-1" d="M266.4,466.6c7.72,0,7.73-12,0-12s-7.73,12,0,12Z"/><path class="cls-1" d="M265,466.6c7.72,0,7.73-12,0-12s-7.73,12,0,12Z"/><path class="cls-1" d="M265.7,466.6c7.72,0,7.73-12,0-12s-7.73,12,0,12Z"/><path class="cls-1" d="M266.17,467.11c7.72,0,7.73-12,0-12s-7.73,12,0,12Z"/><path class="cls-1" d="M269.45,467.37h.47a6.19,6.19,0,0,0,4.24-1.76,6,6,0,0,0,0-8.49,6.23,6.23,0,0,0-4.24-1.76h-.47a6.19,6.19,0,0,0-4.24,1.76,6,6,0,0,0,0,8.49,6.23,6.23,0,0,0,4.24,1.76Z"/><path class="cls-1" d="M269.21,468.13c7.72,0,7.73-12,0-12s-7.73,12,0,12Z"/><path class="cls-1" d="M272.26,468.38c7.72,0,7.73-12,0-12s-7.73,12,0,12Z"/><path class="cls-1" d="M264.76,465.84c7.72,0,7.73-12,0-12s-7.73,12,0,12Z"/><path class="cls-1" d="M267.11,467.62c7.72,0,7.73-12,0-12s-7.73,12,0,12Z"/><path class="cls-1" d="M265.23,467.87c7.72,0,7.73-12,0-12s-7.73,12,0,12Z"/><path class="cls-1" d="M276.24,469.65c7.72,0,7.73-12,0-12s-7.73,12,0,12Z"/><path class="cls-1" d="M275.57,469.21c3.83.91,7.72.78,11.56,1.48s7.83,2.1,11.68,3.17c7.45,2.08,10.63-9.49,3.19-11.57-3.85-1.08-7.74-2.41-11.68-3.17s-7.77-.58-11.56-1.48c-7.51-1.78-10.71,9.79-3.19,11.57Z"/><path class="cls-1" d="M276,469.39c4.43,1.67,9.15.95,13.64,2.14,7.47,2,10.66-9.6,3.19-11.57-4.48-1.18-9.3-.49-13.64-2.14-3-1.15-6.58,1.27-7.38,4.19-.93,3.37,1.15,6.23,4.19,7.38Z"/><path class="cls-1" d="M285.61,437.38c7.72,0,7.73-12,0-12s-7.73,12,0,12Z"/><path class="cls-1" d="M272.26,469.15c7.72,0,7.73-12,0-12s-7.73,12,0,12Z"/><path class="cls-1" d="M286.55,468.64c7.72,0,7.73-12,0-12s-7.73,12,0,12Z"/><path class="cls-1" d="M285.38,470.92c7.72,0,7.73-12,0-12s-7.73,12,0,12Z"/><path class="cls-1" d="M286.31,471.69c7.72,0,7.73-12,0-12s-7.73,12,0,12Z"/><path class="cls-1" d="M283.5,470.92c7.72,0,7.73-12,0-12s-7.73,12,0,12Z"/><path class="cls-1" d="M271.32,469.4c7.72,0,7.73-12,0-12s-7.73,12,0,12Z"/><path class="cls-1" d="M267.81,468.89c7.72,0,7.73-12,0-12s-7.73,12,0,12Z"/><path class="cls-1" d="M265.47,467.37c7.72,0,7.73-12,0-12s-7.73,12,0,12Z"/><path class="cls-1" d="M261.72,467.87c7.72,0,7.73-12,0-12s-7.73,12,0,12Z"/><path class="cls-1" d="M263.59,468.38c7.72,0,7.73-12,0-12s-7.73,12,0,12Z"/><path class="cls-1" d="M268.52,469.75a67.79,67.79,0,0,1,30.21,6.74c6.92,3.35,13-7,6.06-10.36a81.35,81.35,0,0,0-36.27-8.38c-7.72.05-7.74,12.05,0,12Z"/><path class="cls-1" d="M274.94,460.63a25,25,0,0,0-11.95-6c-4.54-.81-8.45,2.66-7.38,7.38,1.39,6.11,7.77,7.6,13.2,7.94a200.5,200.5,0,0,1,21.06,2.16c7.55,1.28,10.8-10.28,3.19-11.57-4.76-.8-9.54-1.48-14.34-1.94-2.44-.23-4.88-.4-7.33-.54l-3.34-.15q-2.28-.93-.88.9l-7.38,7.38a13.25,13.25,0,0,1,6.65,2.88c5.86,5,14.39-3.48,8.49-8.49Z"/><path class="cls-1" d="M280.16,459.71a68.33,68.33,0,0,0-15.63-2.33c-7.72-.26-7.71,11.74,0,12A53.77,53.77,0,0,1,277,471.28c7.46,2,10.65-9.54,3.19-11.57Z"/><path class="cls-1" d="M280,459.46c1.07.14-.64-.14-.84-.19q-1.06-.22-2.1-.52t-1.77-.57l-.87-.33q.71.31-.28-.14c-2.85-1.3-6.59-.91-8.21,2.15-1.39,2.64-.89,6.82,2.15,8.21A40.56,40.56,0,0,0,280,471.46c3.12.41,6.13-3.05,6-6-.16-3.6-2.65-5.56-6-6Z"/><path class="cls-1" d="M277.65,469.7c3.86,0,3.87-6,0-6s-3.87,6,0,6Z"/><path class="cls-1" d="M279.16,463.87a7.49,7.49,0,0,0-3.85-.94,3,3,0,0,0,0,6,5.12,5.12,0,0,1,.86,0l-.8-.11a5.05,5.05,0,0,1,1,.27l-.72-.3.47.23a3,3,0,1,0,3-5.18Z"/><path class="cls-1" d="M272.73,469.2c3.86,0,3.87-6,0-6s-3.87,6,0,6Z"/><path class="cls-1" d="M273,470.47c3.86,0,3.87-6,0-6s-3.87,6,0,6Z"/><path class="cls-1" d="M271.32,470.21c3.86,0,3.87-6,0-6s-3.87,6,0,6Z"/><path class="cls-1" d="M273.43,470.72c3.86,0,3.87-6,0-6s-3.87,6,0,6Z"/><path class="cls-1" d="M285.14,470c3.86,0,3.87-6,0-6s-3.87,6,0,6Z"/><path class="cls-1" d="M286.71,467.39c-.25.08-3.41-1.12-3.91-1.21-1.56-.28-3.13-.46-4.69-.69-3.46-.51-7.09-.78-10.3-2.28-2.44-1.14-6,1.41-4.1,4.1l.81,1.16c2.2,3.13,7.41.14,5.18-3l-.81-1.16-4.1,4.1c4,1.87,8.18,2.36,12.52,3a46.62,46.62,0,0,1,7.25,1.39c1.42.44,2.25.9,3.76.4,3.65-1.22,2.08-7-1.6-5.79Z"/><path class="cls-1" d="M284.9,474c2.43.2,4.82-.63,7.31-.52,2.95.13,5.89.29,8.84.43,3.86.19,3.85-5.81,0-6-2.95-.14-5.89-.3-8.84-.43-2.46-.11-5,.72-7.31.52-3.85-.32-3.83,5.68,0,6Z"/><path class="cls-1" d="M509.53,681.55c19.62,0,38.41-17.25,37.5-37.5s-16.48-37.5-37.5-37.5c-19.62,0-38.41,17.25-37.5,37.5s16.48,37.5,37.5,37.5Z"/><path class="cls-1" d="M523,357.75c19.62,0,38.41-17.25,37.5-37.5S544,282.75,523,282.75c-19.62,0-38.41,17.25-37.5,37.5s16.48,37.5,37.5,37.5Z"/><path class="cls-1" d="M621.71,372.36c19.62,0,38.41-17.25,37.5-37.5s-16.48-37.5-37.5-37.5c-19.62,0-38.41,17.25-37.5,37.5s16.48,37.5,37.5,37.5Z"/><path class="cls-1" d="M487.09,461.69H486a41.72,41.72,0,0,0-26.52,11,41.72,41.72,0,0,0-11,26.52l1.34,10a37.47,37.47,0,0,0,9.64,16.55l7.59,5.86A37.33,37.33,0,0,0,486,536.69h1.12a41.72,41.72,0,0,0,26.52-11,41.72,41.72,0,0,0,11-26.52l-1.34-10a37.47,37.47,0,0,0-9.64-16.55L506,466.81a37.33,37.33,0,0,0-18.93-5.12Z"/><path class="cls-1" d="M465.77,522.08c19.62,0,38.41-17.25,37.5-37.5s-16.48-37.5-37.5-37.5c-19.62,0-38.41,17.25-37.5,37.5s16.48,37.5,37.5,37.5Z"/><path class="cls-1" d="M413.61,496.81c10.56,14.27,21.9,26,37.09,35.51,11.92,7.45,25.93,13.06,39.89,15.07,10.4,1.5,19.44,1.75,28.9-3.78,7.78-4.55,15.2-13.47,17.23-22.41,2.19-9.6,1.71-20.37-3.78-28.9-4.91-7.61-13-15.88-22.41-17.23a81.54,81.54,0,0,1-20.19-5.65l9,3.78a88.7,88.7,0,0,1-17-10l7.59,5.86a90.79,90.79,0,0,1-15.44-15.2l5.86,7.59q-1-1.24-1.89-2.51c-6-8.12-12.3-14.45-22.41-17.23-9-2.47-20.93-1.36-28.9,3.78S412,458.35,409.83,467.92c-2.1,9.22-2.11,20.95,3.78,28.9Z"/><path class="cls-1" d="M833.74,435.66c19.62,0,38.41-17.25,37.5-37.5s-16.48-37.5-37.5-37.5c-19.62,0-38.41,17.25-37.5,37.5s16.48,37.5,37.5,37.5Z"/><path class="cls-1" d="M852.82,444.18c19.62,0,38.41-17.25,37.5-37.5s-16.48-37.5-37.5-37.5c-19.62,0-38.41,17.25-37.5,37.5s16.48,37.5,37.5,37.5Z"/><path class="cls-1" d="M499.18,259.53c15.44,0,15.47-24,0-24s-15.47,24,0,24Z"/><path class="cls-1" d="M501.37,253c15.44,0,15.47-24,0-24s-15.47,24,0,24Z"/><path class="cls-1" d="M501.37,244.2c15.44,0,15.47-24,0-24s-15.47,24,0,24Z"/><path class="cls-1" d="M497,244.2c15.44,0,15.47-24,0-24s-15.47,24,0,24Z"/><path class="cls-1" d="M501.37,237.64c15.44,0,15.47-24,0-24s-15.47,24,0,24Z"/><path class="cls-1" d="M492.61,242c15.44,0,15.47-24,0-24s-15.47,24,0,24Z"/><path class="cls-1" d="M499.18,242c15.44,0,15.47-24,0-24s-15.47,24,0,24Z"/><path class="cls-1" d="M501.37,237.64c15.44,0,15.47-24,0-24s-15.47,24,0,24Z"/><path class="cls-1" d="M499.18,235.45c15.44,0,15.47-24,0-24s-15.47,24,0,24Z"/><text class="cls-2" transform="translate(270.61 914.63) scale(0.95 1)">H<tspan class="cls-3" x="51.91" y="0">A</tspan><tspan x="109.31" y="0">UTE COUTURE</tspan></text><path class="cls-1" d="M470,270.43c15.44,0,15.47-24,0-24s-15.47,24,0,24Z"/><path class="cls-1" d="M472.24,257.3c15.44,0,15.47-24,0-24s-15.47,24,0,24Z"/><path class="cls-1" d="M485.37,255.11c15.44,0,15.47-24,0-24s-15.47,24,0,24Z"/></g><g id="Layer_1" data-name="Layer 1"><path class="cls-1" d="M386.77,381.7c-5.57.89-11.2-.06-16.81.86-20.72,3.4-35.39,21.24-35.59,44-.2,22-.14,44-.2,66.06-11.74-11.21-24.54-20.29-40-24.57-8.9-2.47-17.75-2.18-26.73-1.27-4.72.47-9.73,1.93-13.7-2.59C257,462,257.82,458,260,454.94a1.86,1.86,0,0,0-.11-2.69c-1.21-1-2-.12-2.63,1l-4.81,8c-2.65-2.25-1.52-5-.78-7.62s1.66-5,2.51-7.45c2.38,1.5,3.52.81,3.32-2.23,6.56-9.28,13-18.64,21.43-26.17,6.92-6.15,13.24-13.09,19.83-19.68,5.57-.92,9-4.47,10.63-10.21q17.73-15.12,35.44-30.26c1-.83,1.92-1.74,1-3.4-5.87-10.71-8.92-22.56-11-34.62-2.85-16.66-1.41-32.94,7.09-47.6,8.16-14.09,20.53-22.6,34.54-28.55,11.16-4.74,22.92-7.35,34.33-11.17,1.44-.48,3.12-.52,4.11-2.09,2.42-1.58,4.83.12,7.26.09,16.08-.16,32.16-.08,48.24,0a16.39,16.39,0,0,0,6.42-1.13c5.68-2.35,6.68-7,2.56-11.65a9,9,0,0,1-.79-1.24c3.88-3.68,8.8-3.31,13.43-4,.37,2.49-2.44,5.77.34,7.33a9.26,9.26,0,0,0,9.37.19c1.08-.64,2.06-1.47,3.1-2.19,3.3-2.31,5.31-6.05,8.26-8.76,4.4,5.61,10.49,8.91,15.85,13.11a333.87,333.87,0,0,0,38.35,25.76c12.15,7.06,24.46,13.74,37.11,19.79a372.89,372.89,0,0,0,45.81,18.17c12.15,3.94,24.73,6.2,37.37,7.8q13.66,1.74,27.38,2.16c-.63,2.94,1.54,3.89,3.24,4.81,3.62,2,5,4.16,1.91,8-1.11,1.38-2.05,3.38,0,4.76,1.86,1.23,3.1-.55,3.62-2,1.92-5.29,4.65-4.65,7.93-1.65a6.12,6.12,0,0,0,1.22.73c1.05.58,2.17.75,2.95-.35a2.5,2.5,0,0,0-.49-3.55,16.64,16.64,0,0,0-3.1-2.2c-2.82-1.47-3.3-3.28-.91-5.68,11.42.38,22.35,3.67,33.25,6.86,9.89,2.89,19.62,6.57,28.4,12.43,4.76,3.18,10.22,6,11.69,12.84-7.46.14-14.93.34-22.39.39-3.89,0-5.77,2-5.78,6.17,0,2.34-.37,4.75.85,6.93A9.62,9.62,0,0,0,776,354c1.44,3.49,4.89,3.08,7.82,3.1,29.48.17,59,.11,88.44.55,7.9.12,15.95-.25,23.72,1.8,11.29,3,19.22,10.28,22.55,22.58s0,22.64-8.33,31.36c-1.34,1.41-2.88,2.63-4.1,4.15-2.11,2.62-3.66,6-2.78,9.22s4.37,1.2,6.64,1.82a11.66,11.66,0,0,0,2.33.17c-.16,2.29.4,3.36,2.84,4.11,3.52,1.09,6.36-.12,9.4-1.27-1.51,5.14-5.61,6.23-9.7,7.09-7.85,1.65-15.08-1-22.21-4.08,3.2-4.83,2.8-6.5-2.19-9.55-2.53-1.54-5.36-1.07-8-1.57-.53-.31-1.09-1-1.58-.89-9.91,1.31-18.33-3.9-27.17-7.21-7.39-22.72-21.22-33.4-43.31-33.4-27.93,0-55.87-.08-83.8.13-4.56,0-7.11-1.72-9.06-6.1-7.12-16-14.62-31.73-21.73-47.7-3.32-7.44-8.43-10.63-16-10.61q-81,.17-162,0c-3.27,0-6.55-.18-9.83-.28-.79-2.5-3-3-4.86-3.41-3.76-.81-5.65-3.29-6.65-6.94-1.29-4.68-2.56-9.37-3.74-14.08-4.18-16.6-8.2-33.26-12.54-49.81-1.91-7.28-8.6-8.89-13.48-3.58a33.34,33.34,0,0,0-2.77,3.44C452.55,259.38,441.06,275.55,430,292c-3.09,4.59-7,5.4-11.39,5.05-19.4-1.53-38.83-2.29-58.28-2.79-2.81-.07-5.58.45-7.1,3.73a9.55,9.55,0,0,0,.66,10c4,6.18,7.84,12.52,11.85,18.72,6.42,9.91,12.93,19.76,19.4,29.64a4.36,4.36,0,0,0,2.68,4l.09.1a2.25,2.25,0,0,0,1.63,2.39l.74,3.79,0,2c-.5,3.41-2.7,6.29-2.61,9.89C386.6,379.32,386.81,380.55,386.77,381.7ZM883.2,397.3c-1.34,1-4.88-.48-4.89,3,0,2.94,3,2.89,5.18,2.69,3.84-.35,5,1.77,4.67,5.49-.16,2,.43,4.11,2.41,4.23,2.35.14,3.06-2.11,2.85-4.26-.39-4.07.82-6,4.86-5.46,2,.27,4.52.38,4.5-2.79s-2.71-2.27-4.3-2.16c-3.85.27-5.52-1.33-5.06-5.54a7.08,7.08,0,0,0-.33-2.48c-.37-1.41-.51-3.21-2.48-3-1.75.19-2.12,1.78-2.37,3.28a15.67,15.67,0,0,0-.1,3C888.26,396.67,887.4,398.76,883.2,397.3Zm-345.07-145c.41,3.7,2.29,5.9,5.65,6.22,3.09.29,5.95-2.94,5.92-6.35s-2.86-6.39-6.09-6.09C540.16,246.45,538.45,248.73,538.13,252.35ZM264.57,445.16c.3-.08.73-.06.87-.27a53,53,0,0,0,5.9-10.28c.28-.71-.41-1.18-1-1.52-.87-.55-1.5-.1-2,.67q-2.5,4.29-4.93,8.62C262.72,443.78,263.48,444.57,264.57,445.16Zm3.71,6.21c-1.45-.31-2,.11-2.16.75s-.21,1.6.07,1.8c2.68,2,5.44,3.79,8.19,5.62.67.45,1.28-.05,1.54-.6s.37-1.59.13-1.78C273.33,455,270.51,453,268.29,451.37Z"/><path class="cls-4" d="M636.59,799c-32.85,0-58,.48-83.16-.16-19-.48-37.93-.3-56.88-1-19.26-.68-38.55-1-57.77-2.07-21.66-1.24-43.4-1.64-65-4.55-6.73-.91-13.49-1.47-20.08-3.16-1.37-.35-3.38-.49-3.22-2.41.12-1.54,1.94-1.44,3.21-1.78a134.47,134.47,0,0,1,24-3.77c19.5-1.55,39-2.78,58.54-4,8.78-.54,17.62-.67,26.39-.83,19.46-.34,38.92-1,58.37-1.47,63.95-1.51,127.9-.81,191.84-.55,16.94.07,33.94.11,50.88.89,18.92.87,37.88.88,56.77,2,25.63,1.49,51.34,2.31,76.81,6a71.83,71.83,0,0,1,9.16,2.24c.86.24,2.19.61,1.87,1.87-.15.6-1.14,1.16-1.86,1.43-6,2.26-12.32,2.61-18.54,3.26-21,2.19-42,3.47-63,4.29-18.09.7-36.2,1.13-54.27,2-17,.86-34-.11-50.89.9C689.48,800,659.18,798.23,636.59,799Z"/><path class="cls-5" d="M478.59,216.25a9.05,9.05,0,0,0,.79,1.24c4.12,4.62,3.13,9.3-2.56,11.65a16.39,16.39,0,0,1-6.42,1.13c-16.08-.07-32.16-.15-48.24,0-2.42,0-4.84-1.67-7.26-.09-17-1.42-34-.74-50.94-.43-26.53.47-53.06,0-79.59.46-9,.16-17.6,1.43-25.22,7.52-14.9,11.91-13.45,38.08,2.62,48,7,4.31,14.53,4.71,22.09,5.48,3.56.36,7.18.07,10.77.2,3.31.12,6.46,1,6.86,5.26s-2.4,6.63-5.68,7.59c-23.27,6.83-48.93-6.41-57.84-30.08-5.74-15.24-1.79-28.86,7.35-41.08,8-10.64,18.55-15.23,31-16.08,12.16-.83,24.31-.7,36.46-1.1l10.18,0h3.89l50.44,0q47.83.06,95.65.13C474.86,216,476.73,216.16,478.59,216.25Z"/><path class="cls-6" d="M777.38,344c-1.22-2.17-.86-4.58-.85-6.93,0-4.13,1.89-6.14,5.78-6.17,7.46,0,14.93-.25,22.39-.39,22,.1,44,.08,66,.36,11.64.15,23.34-1.23,34.88,2,17.89,5,33.15,23.78,36,43.59,3.16,21.74-2.38,40-17,55.08-3,1.14-5.88,2.36-9.4,1.27-2.44-.76-3-1.83-2.84-4.11.9-.67,1.79-1.36,2.7-2,17-12.28,22.63-38.59,12.07-57.47-9-16.13-22.75-24.37-39.88-24.95-18.7-.63-37.44-.22-56.16-.25Q804.21,344,777.38,344Z"/><path class="cls-5" d="M531.82,208.78c-3.15,2.66-5.29,6.34-8.82,8.61-1.11.71-2.15,1.53-3.3,2.16a10.61,10.61,0,0,1-10-.19c-3-1.54,0-4.76-.36-7.21,1.27-2.42,3.37-4.06,5.35-5.84,9.89-8.93,14-19.74,9.69-32.74-4.24-12.75-13.53-20.32-26.71-21.6-23.7-2.29-47.52-2-71.31-2-15.65,0-31.31,0-47,0-6,0-7.51-1.68-7.53-7.24,0-5.19,3.4-6.16,7.25-6.15,37.29.12,74.59.08,111.87.68,23,.37,45.79,15.75,48.55,42.71a41.22,41.22,0,0,1-5.84,25.35C533,206.43,532.44,207.62,531.82,208.78Z"/><path class="cls-7" d="M965.06,886.6q0-24.73,0-49.46c0-3,.22-5.9,4-6.31,4-.42,5.22,1.86,5.19,5.5-.08,9.83,0,19.65,0,29.48,0,22.82.17,45.64-.13,68.45-.07,5,1.45,6.06,6.1,5.83,8.14-.4,16.32,0,24.48-.15,3.27,0,5.89.85,6,4.4.08,3.82-2.54,4.85-6.08,4.79-8.82-.14-17.66.09-26.48-.12-3.16-.08-4,1-3.9,4,.2,7,0,14,.09,21,0,3.11-1,5.26-4.47,5.27s-4.7-2-4.71-5.13c0-7-.19-14,.07-21,.12-3.34-1-4.11-4.17-4.1-30.64.12-61.29.08-91.93.05-1.79,0-3.66.42-5.29-.82a4.47,4.47,0,0,1-1.64-4.89,3.87,3.87,0,0,1,3.34-3.26,33.93,33.93,0,0,1,4.49-.11c30,0,60-.12,89.93.13,4.63,0,5.36-1.37,5.3-5.53C964.92,918.58,965.06,902.59,965.06,886.6Z"/><path class="cls-8" d="M438.66,163.91c-8.82,0-17.63-.08-26.45,0-3.51.05-6.61-.33-6.62-4.66s3.11-4.3,6.34-4.29q26.69.08,53.39,0c3.21,0,6.37.2,6.44,4.34.07,4.51-3.29,4.62-6.66,4.6C456.29,163.87,447.47,163.91,438.66,163.91Z"/><path class="cls-9" d="M882.4,423.49c2.68.51,5.52,0,8,1.57,5,3,5.38,4.72,2.19,9.55-3,2.9-6.55,3.69-10.37,3.63-9-.14-18-.34-27-.52q-.2-7.14-.4-14.28Z"/><path class="cls-4" d="M887.09,678.69c-2.08-1.69-4.53-2.58-6.6-4.48-9.07-8.31-8-23.41.4-31.1,5.44-5,17-5.55,23.67-.67s9.46,14.83,6.56,22.79c-.63,1.71-1,3.52-1.56,5.28-3.06,1.93-4.68,5.65-8.09,7.26C896.7,680,892,680,887.09,678.69Zm6-5.1c9.13,0,14.5-5.7,14.55-15.49,0-7.65-6.85-15-14-15-7.52,0-15,7.31-15,14.68C878.64,667.35,884.34,673.58,893.13,673.59Z"/><path class="cls-4" d="M731.52,234.71c0,7.94,5.19,12.95,12.43,11.85,1.07-.16,2.09-.68,3.16-.85a2.36,2.36,0,0,1,2.95,1.81c.41,1.6-.53,2.4-1.78,3.07-8.05,4.35-20.2-2.59-21.39-12.26-1.21-9.91,3.84-18.53,11.77-20.09s17.22,5.66,18.9,15c.32,1.78.24,3.51-1.74,4.08-2.16.62-2.59-.95-2.88-2.83-1-6.29-7.94-11.72-12.26-11.18C735.4,223.93,731.55,228.61,731.52,234.71Z"/><path class="cls-10" d="M269.66,607c-.16-8,5.12-14.4,12-14.65,7.2-.26,14.25,6.21,14.68,13.45.1,1.68-.15,3.15-1.94,3.44s-2.72-.61-2.9-2.47c-.42-4.3-2.4-7.17-6.22-8.62-3.52-1.33-6.33-.52-8.75,2.6-2.65,3.41-3.13,7.13-.94,10.75,1.89,3.13,4.33,5.77,8.5,4.82,2-.46,5.39-2.28,5.77,1.3.41,3.86-3.36,3.75-5.9,3.82C275.87,621.66,269.84,615.46,269.66,607Z"/><path class="cls-11" d="M309.36,387.88c-1.63,5.74-5.06,9.29-10.63,10.21-5.88,1.13-13-6.94-12.57-13.17.48-7.48,5.7-12.87,12.64-12.36S310.13,379.27,309.36,387.88Zm-11.56,4.9c3.83,0,7.38-3.6,7.38-7.57a7.42,7.42,0,0,0-7.78-7.55,6.89,6.89,0,0,0-6.86,7.27C290.63,388.94,294.14,392.74,297.81,392.77Z"/><path class="cls-11" d="M815.6,963.51c-2.38-1.14-3-3.07-2.11-5.4.76-2.11,2.5-3,4.68-3.1.83,0,1.67,0,2.5,0q67.23,0,134.45,0c5.86,0,7,1.22,6.4,6.43L961,961c-.68-5.93-5.5-3.86-8.51-3.87-43.93-.18-87.87-.13-131.8-.12-5.8,0-6.08.41-4.64,6A4,4,0,0,0,815.6,963.51Z"/><path class="cls-8" d="M919.11,702.32c-6.29,5.75-2,9.41,3.12,13,.84.59.14,1.88-.51,2.68a2.15,2.15,0,0,1-2.71.56,34.11,34.11,0,0,1-3.43-2c-2.55-1.56-4.68-2.41-6.1,1.53-.64,1.78-2,4.43-4.78,2.94-3.1-1.67-.78-3.82.23-5.41,2-3.19,1.1-5.24-1.95-6.85a18.51,18.51,0,0,1-2.59-1.48,2.7,2.7,0,0,1-.74-3.94c.9-1.42,2.19-1.3,3.49-.6a15.38,15.38,0,0,1,2.54,1.56c3,2.47,5.26,2.2,7-1.43a7.91,7.91,0,0,1,2.4-3.1C917.31,698.31,918.42,699.62,919.11,702.32Z"/><path class="cls-8" d="M356.81,488.58c-.33,2.23-1.86,2.73-3.48,2.5-4.71-.68-7.54.54-6.61,6.57.24,1.57-.43,3.23-2.2,3.24-2.07,0-2.61-1.79-2.36-3.57.76-5.46-1.65-6.86-6.15-6.22-1.89.27-4.08,0-3.93-2.9s2.43-2.32,4-2.11c4.53.6,6.85-.86,6.11-6.29-.26-1.95-.3-4.55,2.42-4.46,2.31.07,2.45,2.42,2.18,4.26-.8,5.49,1.39,7.25,6.17,6.49C354.65,485.8,356.45,486.1,356.81,488.58Z"/><path class="cls-4" d="M268.87,542.19c-2.82-.86-2.71-3.26-1.15-4.93,4.08-4.4,1.39-6.46-2-8.59-1.58-1-3.85-2-2.2-4.51,1.39-2.11,3.32-1.25,4.85.27,3,3,5.5,3.67,7.3-1.32a6.92,6.92,0,0,1,2-2.72,2.49,2.49,0,0,1,3.08,0c1.09.76,1,2.07.44,3.17a17.77,17.77,0,0,1-2,3.39c-2.2,2.79-1.26,4.49,1.47,5.76a10.17,10.17,0,0,1,2,1.28c1.36,1.09,2.35,2.59,1.39,4.32s-2.61,1.12-3.71.19c-3.9-3.29-6.94-3.3-9,2.16A2.57,2.57,0,0,1,268.87,542.19Z"/><path class="cls-11" d="M741.36,316.43c-2.38,2.4-1.91,4.21.91,5.68a16.64,16.64,0,0,1,3.1,2.2,2.5,2.5,0,0,1,.49,3.55c-.77,1.1-1.89.94-2.95.35a6.12,6.12,0,0,1-1.22-.73c-3.28-3-6-3.64-7.93,1.65-.52,1.44-1.76,3.22-3.62,2-2.08-1.38-1.13-3.37,0-4.76,3.06-3.82,1.71-6-1.91-8-1.7-.91-3.87-1.87-3.24-4.81,2.19-2.31,4.09-.72,5.79.71,3.11,2.62,5.51,2.63,7.15-1.7a9.93,9.93,0,0,1,1-1.72c.9-1.43,2.15-2.14,3.59-1.18s1,2.29.36,3.59C742.33,314.32,741.85,315.38,741.36,316.43Z"/><path class="cls-11" d="M336.74,705.84c-.1,4.08-4.51,8.07-8.77,7.93a8.53,8.53,0,0,1-8-8.61,8.2,8.2,0,0,1,8.34-8.14A8.73,8.73,0,0,1,336.74,705.84Z"/><path class="cls-10" d="M376,755.06c2.82,1.74,5.7,3.39,8.43,5.25,1.29.88,2.95,1.91,1.34,4-1.33,1.71-2.71,1.49-4.31.44-2.21-1.45-4.42-2.9-6.73-4.17s-3.16-.45-2.6,2,1.26,4.81,1.7,7.25c.28,1.55.83,3.43-1.6,4s-2.77-1-3.18-2.77c-.53-2.25-1.08-4.52-1.82-6.71-1.08-3.19-2.28-6.19,3-6.51.71,0,1.33-1.72,2-2.63C373.41,754.18,374.68,754.48,376,755.06Z"/><path class="cls-10" d="M361,750.8c1.25,2.42,4,5.31,3.43,7.17-1.28,4.14-4.21,7.77-6.49,11.6-.87,1.45-2.11,1.45-3.4.68a2.43,2.43,0,0,1-1-3.45c1.18-2.16,2.67-4.15,3.93-6.27.57-1,1.27-2.12.28-3.18-.78-.84-1.84-.39-2.8-.16-1.92.47-3.86.89-5.78,1.39-1.76.46-2.72-.06-3.32-1.88-.71-2.16.47-2.61,2.09-2.92,1.1.16,2.18.24,3-.77,1.82.17,3.35-.79,5-1.31Z"/><path class="cls-11" d="M960.2,963.19c-1.67,1.6-3.78,1-5.7,1q-66.79,0-133.57,0c-1.79,0-3.67.4-5.34-.68A4.06,4.06,0,0,1,816,963l143.89-.07Z"/><path class="cls-5" d="M884.28,488.68c-3.08-.76-4.55-3-4.91-6.26.2-4.42,2.39-7,6.42-6.65,3.26.24,5.52,2.75,5.59,6.27C891.47,486.93,888.2,488.41,884.28,488.68Z"/><path class="cls-10" d="M350,745.09c-1.39-.85-2.79-1.69-4.17-2.55-1.14-.71-1.71-1.63-.68-2.82.8-.92,1.51-3.06,2.86-2.05,4.35,3.25,10.16,4.7,12.82,10.08a4.66,4.66,0,0,1-4.72,1.12h0a3.88,3.88,0,0,0-3-1.93,2.13,2.13,0,0,0-1.93-1Z"/><path class="cls-8" d="M955.95,502.53c-1.65-1.25-3.67-2.05-5.07-3.56-2.13-2.29-3.49-1.4-5.38.34-4,3.68-6.21,3-8.46-2.21-.46-1.06-.73-2.21-1.08-3.32l-4.6.67c-3.41,1.55-7.5,1.09-10.37,4.2.5,3.2,1.93,4.14,4.88,2.91,2.5-1,5.11-2.25,8.16-1.53-.74,4-4,6.14-5.23,9.53-.52,1.4-1.47,2.88.4,3.84,1.47.75,3,.94,4.06-.92s2.35-3.92,3.53-5.88c.32-1.57.85-3.15,2.61-2.93s1.34,2.05,1.68,3.25c.63,2.25,1.11,4.55,1.67,6.83.47,1.91.56,4.5,3.28,3.81,2.89-.73,2.2-3.33,1.59-5.37-.9-3-2.07-5.89-2-9.11.54-.09.91-.29,1.13-.16,2.19,1.28,4.29,2.73,6.53,3.88,1.75.9,3.79,3.73,5.54.5C960.33,504.46,957.48,503.69,955.95,502.53Z"/><path class="cls-8" d="M963.87,491.68c-.85-2.63-2.87-1.52-4.57-1.1-3.49.86-7,1.77-10.83,2.75a22.41,22.41,0,0,1,4.95-9.54c1.15-1.41,2.79-3.47.28-5.15s-3.43.48-4.5,2.23c-1.29,2.12-2.73,4.15-4.1,6.23A6.56,6.56,0,0,1,943,491c4.33,7.36,5.15,7.76,12.72,5.87,1.77-.44,3.5-1.07,5.28-1.49C963,494.89,964.64,494.08,963.87,491.68Z"/><path class="cls-8" d="M923.54,487.2c3,2,6,4.14,8.93,6.23,3.65.16,4-1.83,2.71-4.89-3.48-1.11-5.84-4.27-9.07-5.85-1.52-.74-3.11-2.11-4.41.25S922,486.17,923.54,487.2Z"/><path class="cls-8" d="M936,490.25a2.15,2.15,0,0,1,2.21,1.75l4.81-.7-1-6.37c-.87-2.92-1.77-5.83-2.62-8.76-.61-2.11-1.78-2.84-4.42-2.17-2.83.71-2,2.2-1.63,3.73C934.29,481.89,936.45,485.85,936,490.25Z"/><path class="cls-10" d="M363.94,732l1.38,6c-.56,2.38,2.9,5.47-1.27,7.21-1.85-.29-2.73-1.3-3.1-3.21-.65-3.34-1.84-6.59-2.42-9.94-.67-3.9,1.1-4.83,4.5-3C362.94,730.12,362.95,731.21,363.94,732Z"/><path class="cls-10" d="M384,744c1.76-.1,3.78-1.28,4.64,1.63.79,2.64-1,2.93-2.68,3.56a9.65,9.65,0,0,0-6.27,1.57.9.9,0,0,0-.74.16c-2.3-.52-5,1.92-7-.94L372,747,372,747c2.9.33,5.47-.82,8.06-1.85l3-.55Z"/><path class="cls-10" d="M372,747,369,747l-1-.82-.14-.11,2-5.09c1.46-2.33,2.82-4.73,4.41-7,2.19-3.07,4.13-2.81,5.57.71a4.42,4.42,0,0,0-1.91,3.21v0a3.34,3.34,0,0,0-2,3A4,4,0,0,0,374,744a5.27,5.27,0,0,0-2,3Z"/><path class="cls-12" d="M854.07,284.26c-1.61,2.68-3.61,6.08-5.7,9.41-.41.66-1.12.15-1.66-.15a1.32,1.32,0,0,1-.55-2c1.71-3,3.44-6,5.16-9a1.31,1.31,0,0,1,2-.52C853.89,282.25,854.45,282.57,854.07,284.26Z"/><path class="cls-12" d="M843.7,302.31c-2,3.37-3.91,6.6-5.89,9.76-.37.59-1,.56-1.64.11s-1.21-1.11-.68-2c1.79-3.1,3.59-6.2,5.44-9.26a1,1,0,0,1,1.62-.13A10.34,10.34,0,0,1,843.7,302.31Z"/><path class="cls-12" d="M257.48,443.94c.2,3-.94,3.73-3.32,2.23-2.23-1.53-4.46-3.05-6.68-4.59-.93-.65-2-1.33-1.13-2.77s1.76-1,2.8-.31C251.91,440.33,254.7,442.13,257.48,443.94Z"/><path class="cls-1" d="M386.92,215.75l-53.84,0c.94-.93,2.13-.77,3.28-.77h47.27C384.77,215,386,214.85,386.92,215.75Z"/><path class="cls-12" d="M840.34,294.1c-.44,1.33-1.26,2-2.47,1.22-2.78-1.81-5.5-3.73-8.24-5.62a1.39,1.39,0,0,1-.41-2.11c.34-.45,1.22-1,1.48-.87,3.16,2.07,6.26,4.25,9.35,6.45C840.25,293.31,840.25,293.78,840.34,294.1Z"/><path class="cls-12" d="M859.3,306.64c-.61,1.75-1.44,2.38-2.9,1.34-2.22-1.58-4.47-3.1-6.69-4.67-.84-.59-1.47-1.33-.74-2.47.45-.69.92-1.35,1.86-.7,2.63,1.82,5.29,3.58,7.91,5.43C859.05,305.77,859.15,306.34,859.3,306.64Z"/><path class="cls-12" d="M948.18,610c-1.78,2.75-3.54,5.53-5.36,8.25-.71,1.05-1.44,2.49-3.07,1.27-1.33-1-.4-2,.18-3l5.29-8.87a1,1,0,0,0,.68,0l1.81.94Z"/><path class="cls-12" d="M252.43,461.24l4.81-8c.64-1.07,1.42-1.94,2.63-1a1.86,1.86,0,0,1,.11,2.69c-2.16,3-3,7.07-6.21,9.25C253,463.36,252.06,462.66,252.43,461.24Z"/><path class="cls-1" d="M372,750c2,2.86,4.69.42,7,.94-1,1.4-3.21,1.86-3,4.11-1.28-.58-2.55-.89-3.76.14C370.58,753.54,368.53,751.9,372,750Z"/><path class="cls-1" d="M947.27,447.42a1.78,1.78,0,0,1,1.7,1.66l-1,5.7-4.6.67.12-2c3.65.16,4-1.83,2.71-4.89Z"/><path class="cls-1" d="M369.84,741l-2,5.09c-1.29-.18-2.73.33-3.79-.85,4.17-1.74.71-4.83,1.27-7.21C367.35,738.19,367,742,369.84,741Z"/><path class="cls-1" d="M372,747a5.27,5.27,0,0,1,2-3c1.7,2,4.31-.7,6,1.16C377.43,746.2,374.87,747.36,372,747Z"/><path class="cls-1" d="M961.66,459.42l-.78-6,3.75,2.14a6.85,6.85,0,0,1-2,3.95Z"/><path class="cls-1" d="M356.12,748.88a4.66,4.66,0,0,0,4.72-1.12q.1,1.52.19,3l-5.06.9Z"/><path class="cls-1" d="M328.93,215.79l-10.87,0A15.91,15.91,0,0,1,328.93,215.79Z"/><path class="cls-1" d="M379.71,750.8a9.65,9.65,0,0,1,6.27-1.57C384.58,752.49,381.84,750.46,379.71,750.8Z"/><path class="cls-8" d="M332.45,608.52c-1.93.22-3-.58-2.84-2.82A5.16,5.16,0,0,1,332.45,608.52Z"/><path class="cls-1" d="M351,753c-.8,1-1.88.93-3,.77C348.54,751.73,349.54,751.49,351,753Z"/><path class="cls-1" d="M363.94,732c-1-.78-1-1.87-.91-3C365.13,729.45,365.64,730.38,363.94,732Z"/><path class="cls-1" d="M353,747a3.88,3.88,0,0,1,3,1.93C354.58,749,353.11,749.09,353,747Z"/><path class="cls-1" d="M375.91,740.93a3.34,3.34,0,0,1,2-3C378,739.46,378.08,740.93,375.91,740.93Z"/><path class="cls-1" d="M377.91,737.91a4.42,4.42,0,0,1,1.91-3.21C380,736.25,380.26,737.86,377.91,737.91Z"/><path class="cls-1" d="M994.71,601.56l-1.81-.94c.25-.55.42-1.35,1.24-1.06C995.12,599.91,994.79,600.81,994.71,601.56Z"/><path class="cls-11" d="M961.52,961.44l-1.31,1.75-.29-.28L961,961Z"/><path class="cls-1" d="M384,744l-1,.59Z"/><path class="cls-1" d="M368,746.16l1,.82Z"/><path class="cls-1" d="M350,745.09l1.11.83Z"/><path class="cls-8" d="M336.47,640.92c-1.65-.87-2.13-2.36-1.89-4.22C337,637.15,335.79,639.54,336.47,640.92Z"/><path class="cls-8" d="M337.5,642l-1.18-1.16Z"/><path class="cls-9" d="M777.38,344q26.83,0,53.66,0c18.72,0,37.45-.39,56.16.25,17.13.58,30.85,8.82,39.88,24.95,10.56,18.88,4.89,45.19-12.07,57.47-.91.66-1.8,1.34-2.7,2a11.61,11.61,0,0,1-2.33-.17c-2.27-.62-5.72,1.51-6.64-1.82s.67-6.6,2.78-9.22c1.22-1.52,2.76-2.74,4.1-4.15,8.31-8.72,11.64-19.11,8.33-31.36S907.29,362.44,896,359.46c-7.77-2-15.82-1.68-23.72-1.8-29.48-.45-59-.39-88.44-.55-2.93,0-6.38.39-7.82-3.1A9.62,9.62,0,0,1,777.38,344Z"/><path class="cls-8" d="M883.2,397.3c4.21,1.46,5.06-.63,5-3.94a15.67,15.67,0,0,1,.1-3c.25-1.5.62-3.09,2.37-3.28,2-.21,2.11,1.58,2.48,3a7.08,7.08,0,0,1,.33,2.48c-.46,4.21,1.2,5.82,5.06,5.54,1.59-.11,4.27-1.05,4.3,2.16s-2.53,3.06-4.5,2.79c-4-.55-5.25,1.39-4.86,5.46.21,2.16-.5,4.41-2.85,4.26-2-.12-2.57-2.21-2.41-4.23.29-3.72-.83-5.84-4.67-5.49-2.17.2-5.19.25-5.18-2.69C878.32,396.82,881.85,398.3,883.2,397.3Z"/><path class="cls-12" d="M538.13,252.35c.32-3.61,2-5.9,5.48-6.22,3.23-.3,6.05,2.63,6.09,6.09s-2.82,6.63-5.92,6.35C540.42,258.25,538.55,256,538.13,252.35Z"/><path class="cls-12" d="M264.57,445.16c-1.1-.6-1.85-1.38-1.07-2.78q2.43-4.34,4.93-8.62c.45-.77,1.08-1.22,2-.67.54.34,1.23.82,1,1.52a53,53,0,0,1-5.9,10.28C265.3,445.1,264.87,445.08,264.57,445.16Z"/><path class="cls-12" d="M268.29,451.37c2.22,1.63,5,3.65,7.77,5.79.24.19.12,1.28-.13,1.78s-.87,1-1.54.6c-2.75-1.83-5.51-3.67-8.19-5.62-.28-.21-.23-1.24-.07-1.8S266.84,451.06,268.29,451.37Z"/><path class="cls-10" d="M385.11,356.35c2.2.29,2.69,1.93,2.68,4A4.36,4.36,0,0,1,385.11,356.35Z"/><path class="cls-10" d="M390.24,366.6c1.45.68,1.4,1.34,0,2C390.23,367.92,390.24,367.26,390.24,366.6Z"/><path class="cls-10" d="M387.87,360.42c1.29.19,1.78,1,1.63,2.39A2.24,2.24,0,0,1,387.87,360.42Z"/><path class="cls-10" d="M889.29,540.61c7.22.27,13.57,6.42,13.62,13.26,0,1.44.4,3.29-1.66,3.54-1.73.21-2.56-1-2.79-2.69a9.7,9.7,0,0,0-4.62-7.24c-3.29-2-6.64-3-9.79.49-2.94,3.24-3.86,7-2,11.09s4.8,6,9.09,5.33c2.17-.36,5.39-1.87,5.73,1.66.28,2.85-3.16,3.22-5.35,3.57-7.48,1.17-15.3-6-15.4-13.93C876,547.1,881.9,540.34,889.29,540.61Z"/><path class="cls-12" d="M936.38,628.33c-2.05,3.33-4,6.52-6,9.67-.41.64-1.08.45-1.64.07a1.5,1.5,0,0,1-.56-2.12c1.67-3,3.35-6,5.09-9a1.19,1.19,0,0,1,2-.32A9.65,9.65,0,0,1,936.38,628.33Z"/><path class="cls-12" d="M933.07,619.67c-.38,1.42-1,2.42-2.32,1.57-2.8-1.77-5.54-3.65-8.28-5.52a1.55,1.55,0,0,1-.63-2.12,1.52,1.52,0,0,1,2.36-.71c2.77,1.82,5.5,3.72,8.22,5.65C932.75,618.77,932.88,619.33,933.07,619.67Z"/><path class="cls-12" d="M950.63,633.14c-2.47-1.6-5.52-3.53-8.5-5.57-.57-.39-.31-1.21.15-1.77a1.55,1.55,0,0,1,2.16-.48c2.68,1.63,5.36,3.25,8,5a1.58,1.58,0,0,1,.47,2.19C952.56,633.11,952.08,633.47,950.63,633.14Z"/><path class="cls-1" d="M893.13,673.59c-8.79,0-14.49-6.24-14.47-15.82,0-7.37,7.47-14.68,15-14.68,7.2,0,14.09,7.36,14,15C907.63,667.89,902.26,673.6,893.13,673.59Z"/><path class="cls-13" d="M297.81,392.77c-3.66,0-7.18-3.83-7.26-7.85a6.89,6.89,0,0,1,6.86-7.27,7.42,7.42,0,0,1,7.78,7.55C305.19,389.17,301.64,392.81,297.81,392.77Z"/><path class="cls-9" d="M961,961l-1.07,1.92L816,963c-1.44-5.56-1.15-6,4.64-6,43.93,0,87.87-.06,131.8.12C955.48,957.13,960.3,955.06,961,961Z"/><path class="cls-10" d="M365.79,351.35l.09.1c1.29.19,1.78,1,1.63,2.39l.74,3.8c1.45.68,1.4,1.34,0,2-.49,3.41-2.7,6.29-2.61,9.89-1,.85-.8,2.08-.84,3.23a3.83,3.83,0,0,0,.9.23q38.2.07,76.4.09c1.17,0,2.53.31,3.41-1l0,.1a1.67,1.67,0,0,0,1.68-1.29l0,0a1.71,1.71,0,0,0,1.06-2c1-1.71,2.06-3.36,2.88-5.15,6.68-14.44,13.49-28.82,19.89-43.41,3.09-7,7.48-11.4,14.85-11.66-.79-2.5-3-3-4.86-3.41-3.76-.81-5.65-3.29-6.65-6.94-1.29-4.68-2.56-9.37-3.74-14.08-4.18-16.6-8.2-33.26-12.54-49.81-1.91-7.28-8.6-8.89-13.48-3.58a33.35,33.35,0,0,0-2.77,3.44c-11.35,16.27-22.84,32.43-33.93,48.91-3.09,4.59-7,5.4-11.39,5.05-19.4-1.53-38.83-2.29-58.28-2.79-2.81-.07-5.58.45-7.1,3.73a9.55,9.55,0,0,0,.66,10c4,6.18,7.84,12.52,11.85,18.72,6.42,9.91,12.93,19.76,19.4,29.64C365.3,347.67,365.79,349.32,365.79,351.35Z"/><path class="cls-10" d="M495.14,334.5c-3.54,0-5.12,2.53-6.5,5.58C481.41,356,474,371.82,466.9,387.82c-3.45,7.78-8.82,11.45-16.69,11.26-5.93-.14-11.85-.13-17.78-.12q-39.3.1-78.6.24a15.59,15.59,0,0,1-1.33,5.86c-2.26,6.3-4.57,12.59-6.58,19-2.3,7.3,1.69,12.59,8.72,11.77a25.83,25.83,0,0,0,5-1.32c17.57-5.78,35.13-11.62,52.71-17.36,4-1.31,7.66-1.15,11.32,2.11,12.88,11.46,26,22.58,39.06,33.82a70,70,0,0,1,5.9,5c3.13,3.36,6.66,4.49,10.62,2.51,3.78-1.89,4.36-5.79,4.42-9.87.3-20.81.69-41.62.91-62.44,0-4.21,1-7.38,4.49-9.83,16.18-11.45,32.24-23.1,48.36-34.65,3.07-2.2,5.88-4.53,6.34-8.88Z"/><line class="cls-14" x1="366.67" y1="366.75" x2="353.55" y2="402.33"/><line class="cls-15" x1="365.26" y1="372.34" x2="352.14" y2="407.93"/><path class="cls-10" d="M366.67,371.84c2.36,10.12-9,18.06-10.4,28.4l9.27-24.38a8.17,8.17,0,0,1-2.76,9c-.36-.47.84-.74.8-.13s-.94.72-1.29.24a2.12,2.12,0,0,1-.1-1.76,26.76,26.76,0,0,1-2.49,16.35l94.62-2.77a15.59,15.59,0,0,0,5.4-.8,11.86,11.86,0,0,0,4.26-3.19c5.18-5.74,7-14,10.64-21,3.52-6.7,8.79-12.21,12-19.1a36.76,36.76,0,0,0,1.25-27.15c-1.38-3.9-3.45-7.65-3.6-11.82,0-1.28.06-2.68-.65-3.7-1-1.4-3.06-1.29-4.36-.24a10.26,10.26,0,0,0-2.63,4.35L472,325.66a8.42,8.42,0,0,1,2.39-9.79L452.67,359c-2.54,5-5.41,10.41-10.27,12.68-2.69,1.26-5.7,1.39-8.63,1.51-22.37.91-44.75,1.82-67.13,1.61,2.39-1.63,5.36-1.83,8.18-2l71.33-3.94-46.56,3.21a217.89,217.89,0,0,1,47.66-3.86"/><path class="cls-10" d="M365.22,372.23c1.81,10.06-8.73,18-10.4,27.6a1.5,1.5,0,0,0,2.89.8L367,376.25H364.1a7,7,0,0,1-2.37,7.51l2.51,1.46-1.7.54v-2.12l1.12-.07-2.95-.4a27.25,27.25,0,0,1-2.28,15.6,1.52,1.52,0,0,0,1.3,2.26l55.2-1.61,27.6-.81c6.34-.19,15,1.26,20.42-2.8,5-3.74,7.35-10.09,9.61-15.65,3.07-7.55,7.33-13.7,11.77-20.46a40.51,40.51,0,0,0,6.91-18.85c.7-7.87-1.59-14.29-4.16-21.56-1.25-3.54-.33-13.75-7.11-11.6-2.15.68-3.3,2.7-4.19,4.61-2,4.19-3.47,8.68-5.18,13h2.89a7.27,7.27,0,0,1,2-8.33l-2.36-1.82L457.89,345.3c-4.62,9.16-9.07,24.71-20.81,26.13-11.45,1.39-23.38,1.08-34.9,1.42-11.85.35-23.7.54-35.55.44l.76,2.8c5.35-3,13.35-2.11,19.31-2.44l19.81-1.09,39.63-2.19v-3l-46.56,3.21.4,2.95a224.51,224.51,0,0,1,47.26-3.81c1.93,0,1.93-3,0-3a228.4,228.4,0,0,0-48.06,3.91c-1.65.31-1.29,3.06.4,2.95l46.56-3.21c1.91-.13,1.94-3.11,0-3l-43.59,2.41L380.76,371c-5,.28-10.38,0-14.88,2.52a1.51,1.51,0,0,0,.76,2.8c13.17.1,26.33-.14,39.5-.57q9.38-.3,18.75-.69c5.5-.22,11.85.35,17.09-1.61,8.82-3.3,12.48-14.64,16.34-22.3l17.39-34.5a1.51,1.51,0,0,0-2.36-1.82,10.17,10.17,0,0,0-2.77,11.25,1.52,1.52,0,0,0,2.89,0c1.53-3.86,3-7.77,4.6-11.59q.58-3.71,4.66-2.1a20.58,20.58,0,0,0,.21,3.06,23.72,23.72,0,0,0,.93,3.81c2.75,8.67,5.71,15.93,3.82,25.26-1.64,8.11-6.51,14.27-11,21-4.23,6.33-6.34,13.36-9.75,20.09-2.36,4.67-5.19,8.79-10.77,9.62-4.39.66-9.22.3-13.66.42l-27.6.81L359.71,398l1.3,2.26a29.88,29.88,0,0,0,2.69-17.11c-.2-1.48-2.67-2.25-2.95-.4-.3,2,0,3.16,1.91,3.9a1.48,1.48,0,0,0,1.46-.39l.53-.53a1.54,1.54,0,0,0,0-2.12l-.27-.34a1.5,1.5,0,0,0-1.46-.39l-.47.09a1.45,1.45,0,0,0-1,1l-.06.38a1.51,1.51,0,0,0,2.51,1.46A10,10,0,0,0,367,375.46c-.38-1.55-2.4-1.29-2.89,0l-9.27,24.38,2.89.8c1.82-10.46,12.42-17.93,10.4-29.19-.34-1.9-3.23-1.09-2.89.8Z"/><path class="cls-10" d="M365.73,375.37a1.5,1.5,0,0,0,0-3,1.5,1.5,0,0,0,0,3Z"/><path class="cls-10" d="M397.27,373.34a1.5,1.5,0,0,0,0-3,1.5,1.5,0,0,0,0,3Z"/><path class="cls-10" d="M397.21,373.62l.16.34a1.51,1.51,0,0,0,2.05.54,1.53,1.53,0,0,0,.54-2.05l-.16-.34a1.51,1.51,0,0,0-2.05-.54,1.53,1.53,0,0,0-.54,2.05Z"/><path class="cls-10" d="M359.1,401.84a27.63,27.63,0,0,1,1.29-6.25c.6-1.84-2.3-2.63-2.89-.8a31.09,31.09,0,0,0-1.4,7c-.16,1.92,2.84,1.91,3,0Z"/><path class="cls-10" d="M370.57,362.18l.44-6c.12-1.62-2-1.85-2.8-.76-1.18,1.66-.08,4.25-.5,6.14-.59,2.64-1.63,5.24-2.47,7.81-.6,1.84,2.3,2.63,2.89.8.79-2.44,1.72-4.87,2.36-7.36a13.76,13.76,0,0,0,.51-3.14c0-.56-.5-2.32-.2-2.74l-2.8-.76-.44,6c-.14,1.93,2.86,1.92,3,0Z"/><path class="cls-10" d="M362.58,344.28a3.14,3.14,0,0,1,.67,1.38l.69-1.69-.36.18a1.5,1.5,0,0,0,1.51,2.59l.36-.18a1.52,1.52,0,0,0,.69-1.69,5.77,5.77,0,0,0-1-2.09,1.55,1.55,0,0,0-2.05-.54,1.51,1.51,0,0,0-.54,2.05Z"/><path class="cls-10" d="M362.38,346.06a29.55,29.55,0,0,1,6.15,13.8c.33,1.9,3.22,1.09,2.89-.8a32.51,32.51,0,0,0-6.92-15.12c-1.22-1.5-3.33.64-2.12,2.12Z"/><path class="cls-10" d="M362.27,344.79l2.12,4.11c.88,1.72,3.47.2,2.59-1.51l-2.12-4.11c-.88-1.72-3.47-.2-2.59,1.51Z"/><path class="cls-10" d="M363,346.33l1.87,2.54a1.55,1.55,0,0,0,2.05.54,1.51,1.51,0,0,0,.54-2.05l-1.87-2.54a1.55,1.55,0,0,0-2.05-.54,1.51,1.51,0,0,0-.54,2.05Z"/><path class="cls-10" d="M362.75,346.35a6.68,6.68,0,0,1,1.26,1.82,1.51,1.51,0,0,0,2.05.54,1.53,1.53,0,0,0,.54-2.05,9.5,9.5,0,0,0-1.73-2.43,1.5,1.5,0,1,0-2.12,2.12Z"/><path class="cls-10" d="M363.18,347l.78,1.36a1.5,1.5,0,1,0,2.59-1.51l-.78-1.36a1.5,1.5,0,1,0-2.59,1.51Z"/><path class="cls-10" d="M363.21,347.33l2.16,3.24a1.54,1.54,0,0,0,2.05.54,1.51,1.51,0,0,0,.54-2.05l-2.16-3.24a1.54,1.54,0,0,0-2.05-.54,1.51,1.51,0,0,0-.54,2.05Z"/><path class="cls-10" d="M426.2,399.7c10.87,1.12,21.9-.32,32.6,2.27,1.88.45,2.68-2.44.8-2.89-11-2.66-22.26-1.22-33.4-2.38-1.92-.2-1.9,2.8,0,3Z"/><path class="cls-10" d="M484.65,388.61l0-.13a2,2,0,0,1,0-3l1.46-3.54c-.8-1.48-.4-2,1.1-1.58,2.25-2.44,5.6-3.36,7.48-6.32,1.28,0,1.78-1.16,2.43-2.07a4.36,4.36,0,0,0-.61-.76q-30.82-24.49-61.66-48.95c-.95-.75-1.87-1.87-3.31-1.35v-.11a1.55,1.55,0,0,0-2.06,0h-.05a1.52,1.52,0,0,0-2,1c-1.71.76-3.49,1.4-5.13,2.31-13.25,7.39-26.56,14.65-39.66,22.34-6.33,3.72-12.24,4.43-18.33-.08-.71,2.52.82,4.39,2.07,5.86,2.6,3.05,2.77,6.27,1.6,9.85-1.51,4.6-3,9.2-4.63,13.77-5.64,16.09-11.44,32.11-16.93,48.26-2.41,7.1,2.12,12.69,8.94,11.51a29.26,29.26,0,0,0,4.1-1c18-5.88,36.07-11.59,54-17.8,5-1.73,8.59.12,11.95,3.2,14.84,13.65,30.12,26.69,45.55,39.54,2.23,1.86,4.75,3.2,7.76,1.53,3.24-1.8,4.83-4.49,4.89-8.48.11-7.57.47-15.13.6-22.7.2-12.11.3-24.23.44-36.35C483,391.89,483.54,390.25,484.65,388.61Z"/><path class="cls-10" d="M371,319.48c2.84,2.28,5.51,1.23,8.28-.35,14.49-8.24,29.08-16.27,43.5-24.66,7-4.08,13.35-3.61,19.6,1.58,4.71,3.91,9.5,7.69,14.3,11.47q31.79,25.06,63.61,50.09a13.77,13.77,0,0,1,4.26-3.88c5.25-3.65,10.53-7.24,15.63-11.12,5.82-4.43,5.48-11.24-.65-15.09a26.43,26.43,0,0,0-4.74-2.12c-17.33-6.57-34.69-13.09-52-19.7-4-1.51-6.81-4-8-8.94-4.17-17.5-8.74-34.88-13.18-52.3a79.8,79.8,0,0,1-2.07-7.79c-.7-4.71-2.94-7.89-7.22-8.82-4.08-.89-6.67,1.89-8.93,5.14-11.55,16.62-23.18,33.18-34.66,49.85-2.33,3.38-4.84,5.31-9,5.07-19.29-1.11-38.59-2-57.89-3-3.67-.19-7.21-.11-9.95,3.12Z"/><line class="cls-14" x1="492.31" y1="375.61" x2="522.23" y2="355.26"/><line class="cls-15" x1="496.48" y1="371.99" x2="526.41" y2="351.64"/><path class="cls-10" d="M495.06,371.5c3.59-9.69,17.1-8.82,23.83-16.28L498.16,369a7.26,7.26,0,0,1,7.1-5.48c0,.61-1.08.06-.72-.41s1.15,0,1.17.63a2,2,0,0,1-.87,1.49,24,24,0,0,1,10.9-11.62l-77.93-58.3a16.44,16.44,0,0,0-4.79-2.81,10.93,10.93,0,0,0-5.17-.14c-7.3,1.33-13.27,6.89-20,10.18-6.48,3.16-13.73,4.24-20.05,7.76A33.69,33.69,0,0,0,372,331.42c-1,4-1.37,8.38-3.51,11.85-.66,1.06-1.5,2.13-1.49,3.4a3.3,3.3,0,0,0,3.39,3,8.92,8.92,0,0,0,4.49-1.83l10-6.42a7.55,7.55,0,0,1-7.25,6.38l41-20.93c4.79-2.44,10-4.95,15.18-3.67,2.86.71,5.36,2.52,7.79,4.3,18.56,13.58,37.13,27.16,55.1,41.64-2.82-.21-5.32-1.95-7.69-3.63l-59.75-42.45,39.35,27.19A233.83,233.83,0,0,1,428,322.88"/><path class="cls-10" d="M496.36,372.26c4-9.34,16.9-9.14,23.6-16,1.16-1.18-.36-3.32-1.82-2.36L497.4,367.68l2.2,1.69a5.73,5.73,0,0,1,5.65-4.38l-1.06-2.56-.25.27,1.82-.23.28.61-1.5,1.5-.77-.44,2.36,1.82a24.15,24.15,0,0,1,10.36-11.08,1.52,1.52,0,0,0,0-2.59l-43.74-32.72-21.47-16.06-11.13-8.33c-2.61-1.95-5.11-4-8.44-4.48-6.05-.82-12,2.94-16.92,6-7.11,4.45-14.38,6.79-22.14,9.75-12.42,4.74-20,14.81-22.76,27.64a41.54,41.54,0,0,1-1.29,5.31c-.69,1.93-2.11,3.57-2.73,5.49a4.57,4.57,0,0,0,1.17,5,5.52,5.52,0,0,0,5.68.78c4.57-1.58,8.88-5.37,12.93-8l-2.2-1.69a6.45,6.45,0,0,1-5.8,5.28l.76,2.8,29.88-15.26c4.76-2.43,9.47-5.08,14.35-7.26,3.82-1.71,7.88-2.9,12-1.48a24.85,24.85,0,0,1,6.24,3.71c18.56,13.4,37,27.07,54.8,41.41l1.46-2.51c-6.27-1.13-11.94-6.75-17-10.36l-17-12L430,321.76l-1.51,2.59,39.35,27.19,1.51-2.59a240.39,240.39,0,0,1-40.29-27.14c-1.47-1.23-3.61.89-2.12,2.12a244.18,244.18,0,0,0,40.89,27.6,1.5,1.5,0,0,0,1.51-2.59L430,321.76c-1.6-1.1-3.07,1.48-1.51,2.59L463.22,349l17,12c4.92,3.5,10,8.42,16.12,9.51,1.3.23,2.75-1.47,1.46-2.51-9.58-7.7-19.32-15.19-29.17-22.55s-19.44-15.79-30-21.88c-9.24-5.34-18.37.71-26.73,5l-35,17.87c-1.28.65-.73,2.94.76,2.8a9.34,9.34,0,0,0,8.69-7.48,1.52,1.52,0,0,0-2.2-1.69l-6.68,4.28c-1,.66-3.45,3-4.76,3-6.28.2-2.88-3.23-2-5.07a25.52,25.52,0,0,0,1.46-4.37c2-8,3.74-15.13,9.72-21.23s14-8,21.79-10.84c6.86-2.52,12.42-7.16,19-10.22,5.29-2.47,9.61-2.55,14.43.93,3.75,2.71,7.42,5.55,11.13,8.33l22.27,16.66L515,354.89V352.3a26.73,26.73,0,0,0-11.43,12.16c-.7,1.45,1.12,3.13,2.36,1.82s1.65-2.45.65-4a1.48,1.48,0,0,0-1.3-.74l-.71.09a1.53,1.53,0,0,0-1.5,1.5,2,2,0,0,0,1.21,2,1.53,1.53,0,0,0,1.82-.23l.25-.27a1.52,1.52,0,0,0-1.06-2.56c-4.28.23-7.08,2.63-8.55,6.58a1.51,1.51,0,0,0,2.2,1.69l20.74-13.76-1.82-2.36c-7,7.16-19.75,6.52-24.06,16.59-.75,1.76,1.83,3.29,2.59,1.51Z"/><path class="cls-10" d="M496.93,372a1.5,1.5,0,0,0,0-3,1.5,1.5,0,0,0,0,3Z"/><path class="cls-10" d="M470.35,353.43a1.5,1.5,0,0,0,0-3,1.5,1.5,0,0,0,0,3Z"/><path class="cls-10" d="M471.36,350.71l.06-.37a1.54,1.54,0,0,0-1-1.85,1.52,1.52,0,0,0-1.85,1l-.06.37a1.54,1.54,0,0,0,1,1.85,1.52,1.52,0,0,0,1.85-1Z"/><path class="cls-10" d="M517.63,352a24.06,24.06,0,0,1-4.39,4.27,1.55,1.55,0,0,0-.54,2.05,1.51,1.51,0,0,0,2.05.54,26.88,26.88,0,0,0,5-4.74,1.55,1.55,0,0,0,0-2.12,1.51,1.51,0,0,0-2.12,0Z"/><path class="cls-10" d="M486.82,376.7l-3.6,4.55a1.51,1.51,0,0,0,1.46,2.51c2-.39,2.33-3.13,3.63-4.42a58,58,0,0,1,6.39-4.9c1.53-1.14,0-3.74-1.51-2.59-2,1.47-4,2.88-5.92,4.44a12.53,12.53,0,0,0-2.08,2.07c-.15.19-1.28,2.51-1.3,2.52l1.46,2.51,3.6-4.55c1.19-1.5-.92-3.63-2.12-2.12Z"/><path class="cls-10" d="M483.44,396.16a3.32,3.32,0,0,1,.23-1.53l-1.85,1,.39.09a1.5,1.5,0,1,0,.8-2.89l-.39-.09a1.54,1.54,0,0,0-1.85,1,6.09,6.09,0,0,0-.34,2.32,1.5,1.5,0,0,0,3,0Z"/><path class="cls-10" d="M484.6,395.24a30.9,30.9,0,0,1,2.38-15.1c.76-1.75-1.82-3.28-2.59-1.51a34,34,0,0,0-2.79,16.62c.16,1.91,3.16,1.93,3,0Z"/><path class="cls-10" d="M484,395.94l.52-4.67a1.51,1.51,0,0,0-1.5-1.5,1.54,1.54,0,0,0-1.5,1.5l-.52,4.67a1.51,1.51,0,0,0,1.5,1.5,1.54,1.54,0,0,0,1.5-1.5Z"/><path class="cls-10" d="M484.19,394.21l-.13-3.25a1.5,1.5,0,0,0-3,0l.13,3.25a1.5,1.5,0,1,0,3,0Z"/><path class="cls-10" d="M484.4,394.37a7.77,7.77,0,0,1,0-2.27,1.51,1.51,0,0,0-1.5-1.5,1.54,1.54,0,0,0-1.5,1.5,10.31,10.31,0,0,0,.1,3.07,1.51,1.51,0,0,0,1.85,1,1.54,1.54,0,0,0,1-1.85Z"/><path class="cls-10" d="M484.43,393.57l.11-1.59a1.51,1.51,0,0,0-1.5-1.5,1.54,1.54,0,0,0-1.5,1.5l-.11,1.59a1.51,1.51,0,0,0,1.5,1.5,1.54,1.54,0,0,0,1.5-1.5Z"/><path class="cls-10" d="M484.59,393.29l0-4a1.5,1.5,0,0,0-3,0l0,4a1.5,1.5,0,0,0,3,0Z"/><path class="cls-10" d="M462.37,311.06c-8.24-8-18.16-14-25.39-23-1.21-1.5-3.32.63-2.12,2.12,7.23,9,17.16,15,25.39,23,1.39,1.34,3.51-.78,2.12-2.12Z"/><path class="cls-5" d="M403.24,582.5c4.34,3.78,9.22,4.91,14.29,2.38s6.36-7.76,6.42-13.47c.05-4.87,1.87-8.38,2-13.24,6.73-.49,11.33-4.88,17.87-6.27,2.14-.46,4.29-1.52,6,.76,1.9,2.47,1,4.9,0,7.54-3.71,9.45-7.2,19-10.83,28.5a7.63,7.63,0,0,0,.82,7.5c5.33,8.49,10.35,17.22,15.49,25.85,1.2,2,2.41,3.91,1,6.49-1.34,2.4-3.34,2.13-5.35,2q-13.73-.89-27.46-1.84c-.27-2-.55-4-.81-6-.9-6.79-5.62-11.33-11.76-11.31s-11.08,4.94-11.74,11.94c-.77,8.16,1.57,15.63,4.23,23-1.35,3.32-3.74,5.81-5.81,8.54-1.45,1.92-2.92,4.11-5.77,3.54-3.05-.61-3.1-3.54-3.64-5.85-2-8.69-4.22-17.36-5.65-26.16-1-5.91-3.49-9.07-8.74-10.91-7.84-2.75-15.44-6.33-23.13-9.6-2.18-.93-4.55-1.77-4.85-4.87s1.92-4.26,4-5.59c7.48-4.89,14.85-10,22.4-14.73,3.92-2.47,5.6-5.71,5.67-10.68.14-9.8.21-19.63,1.43-29.39.65-5.23,3.5-6.85,7.34-3.65,3.33,2.78,6.35,6,9.5,9-.2,2.24.85,3.06,2.78,2.89h0c1.7,7.6.14,15.27.46,22.9.08,1.87-1,4.05,1,5.53l0-.2c-.29,1.86.16,3.36,1.79,4.27l-.15-.13Z"/><path class="cls-5" d="M393.69,593.62c4.72-3.28,7.27-8,6.67-14s-4.78-9.07-9.77-11c-4.26-1.61-6.29-2.65-10.51-4.37,1.72-7.12-1.13-15.26-.25-22.47.29-2.36,0-4.93,2.6-6,2.78-1.17,4.63.51,6.62,2.43,7.11,6.87,14.39,13.55,21.57,20.34a6.23,6.23,0,0,0,6.86,1.56c9.17-2.8,18.45-5.18,27.68-7.73,2.15-.59,4.21-1.24,6,1.08,1.68,2.15.8,4.14,0,6.18-3.46,9.28-7.69,16.7-11.17,26-3.56-.82-2.94,1.13-4.79.76-6.26-1.25-11.76,2.18-13.7,8.54a13.16,13.16,0,0,0,6.73,16c6.92,3.41,14.24,3.39,21.6,3,2.48,2.46,3.91,5.73,5.64,8.75,1.22,2.12,2.68,4.34,1.26,7.1-1.52,3-4.1,2.07-6.31,1.88-8.28-.69-16.6-1.2-24.8-2.54-5.5-.9-9.08.7-12.39,5.54-4.93,7.23-10.51,13.95-15.85,20.85-1.51,2-3,4.14-5.83,3.45s-3.13-3.36-3.64-5.88c-1.9-9.3-4-18.56-5.77-27.89-.91-4.85-3.22-7.63-7.57-9.29-8.57-3.29-17.18-6.5-25.36-10.9-4.38-2.35-4.9-5.81-.85-8.76,3.51-2.56,7.3-4.64,11-6.94,1.9.93,3,.1,3.43-1.95h0c7.22.68,13.46,4.75,20.27,6.86,1.67.52,3.25,2.28,5.18.71l-.17-.1a3.18,3.18,0,0,0,4.33-.49l-.16.11Z"/><path class="cls-1" d="M596.77,472.41a1.5,1.5,0,0,0,0-3,1.5,1.5,0,0,0,0,3Z"/><path class="cls-1" d="M459.08,482.51a1.5,1.5,0,0,0,0-3,1.5,1.5,0,0,0,0,3Z"/><path class="cls-16" d="M459,482.43a1.5,1.5,0,0,0,0-3,1.5,1.5,0,0,0,0,3Z"/><path class="cls-1" d="M594.79,492.17a1.5,1.5,0,0,0,0-3,1.5,1.5,0,0,0,0,3Z"/><path class="cls-1" d="M595.91,493.39a1.5,1.5,0,0,0,0-3,1.5,1.5,0,0,0,0,3Z"/><path class="cls-1" d="M512.67,586.51a261.92,261.92,0,0,0,64.55,41.16c4.75,2.11,12.14.92,13.22-5.38,2.55-14.86-8.57-23.51-17.25-33.74a138.66,138.66,0,0,1-20.58-33.37c-2.2-4.94-10.76-6.09-14.14-1.82a191.06,191.06,0,0,0-33.1,62.69c-2.79,9.1,8.64,14.37,15,8.76A174.87,174.87,0,0,0,558.65,577c5-9.13-6.53-17.71-14.14-10.91a180.35,180.35,0,0,0-35.82,44.19c-3.55,6.14,2.55,16.42,10.16,13.22,17.63-7.4,31.52-19.81,45.17-32.91L549.9,579.67,538.6,596.15c-3.48,5.08-8.62,10.52-10.6,16.39A11.32,11.32,0,0,0,534.52,627c5.5,2.19,12.68,1.19,18.51,1.24,11.59.1,11.6-17.9,0-18l-7.15-.06-3.57,0q-3.15-.29-.82.29l3.23,3.23-.64-1,1.23,4.54c.11,2.37.61,0,1.49-1.28l2.26-3.3,5.65-8.24,10.73-15.65c5.92-8.64-7-17.79-14.14-10.91-11.15,10.7-22.74,22.2-37.23,28.28l10.16,13.22a164.52,164.52,0,0,1,33-40.55L543.11,567.9a160.43,160.43,0,0,1-35.41,44.19l15,8.76a167.62,167.62,0,0,1,28.47-54.75l-14.14-1.82a149.06,149.06,0,0,0,17.63,29.79,164.77,164.77,0,0,0,11,13c2,2.08,8,7,7.41,10.42l13.22-5.38a246.54,246.54,0,0,1-60.91-38.35c-8.73-7.53-21.52,5.15-12.73,12.73Z"/><path class="cls-1" d="M595.91,489.74a1.5,1.5,0,0,0,0-3,1.5,1.5,0,0,0,0,3Z"/><path class="cls-1" d="M549.2,589.23A54.32,54.32,0,0,0,566.82,561a1.51,1.51,0,0,0-2.51-1.46,368.72,368.72,0,0,0-44.63,46l2.51,1.46a152.68,152.68,0,0,1,24.75-50.1c1.16-1.55-1.45-3-2.59-1.51a155,155,0,0,0-25.06,50.82c-.38,1.36,1.53,2.66,2.51,1.46a368.72,368.72,0,0,1,44.63-46l-2.51-1.46a51.58,51.58,0,0,1-16.85,26.91c-1.47,1.25.66,3.36,2.12,2.12Z"/><path class="cls-1" d="M597,493.39a1.5,1.5,0,0,0,0-3,1.5,1.5,0,0,0,0,3Z"/><path class="cls-1" d="M596.68,484.27l3.41,4.83c1.1,1.57,3.71.07,2.59-1.51l-3.41-4.83c-1.1-1.57-3.71-.07-2.59,1.51Z"/><path class="cls-16" d="M473.68,209.82s-25.49-43.25,10.32-43.1c33.33.14,161.73,128.71,231,133.89,10.33.77,20.62-3.64,26.44-12.32,6-9,6.74-21.77-22.78-32.58,0,0,33.71,15.26,7.83,33.58S508.87,163.53,508.87,163.53s-37.32-25.67-49.73,2.4C450.44,185.6,473.68,209.82,473.68,209.82Z"/><path class="cls-16" d="M566.87,181.36s46,53,105.24,66.56C672.11,247.92,607.45,214.84,566.87,181.36Z"/><path class="cls-16" d="M570.87,169.52s27.53-61.34,70.92-38c47.89,25.79,45.35,82.7,39.78,99.1,0,0-3.54-61.62-43.69-77.84S570.87,169.52,570.87,169.52Z"/><path class="cls-16" d="M623.11,265.41s-26.35,24.09-75.19,28.42-68,56.54-61,86.87-32.61,55.36-63.18,26.18c0,0-20.17-24.08,1.83-38.25,0,0-7.54,28.17,18.65,20.29,19.23-5.79,1.36-28.33,1-60.83-.38-35,21-106.58,114-106.58C559.17,221.5,584.17,241.05,623.11,265.41Z"/><path class="cls-16" d="M614.56,300.7s21.81-3.61,33.36,20,32.73,91.23,32.73,91.23,26.94-52.68,23.09-116.41c0,0,7.71,85.2-19.24,139.82,0,0-29-73.81-39.78-102.1S614.56,300.7,614.56,300.7Z"/><path class="cls-17" d="M509.4,475.66c13.55.65,49.09,3.4,94-15.74-4.32-8.13-4.9-21.69,22.87-36,6.89-3.56,12.71-9.34,14.27-17,.16-.79.29-1.62.39-2.48.74-6.85-1.73-13.61-6-19-5.8-7.36-15-12.84-14.25-36.44,0,0-19.06,41.13-54.35,66.16,0,0-22.27-37.56-23.36-92.37,0,0-3.52,30.62-36.63,55.23,0,0-8.86,16.93-.26,46.39C510.09,438.18,510.3,458.25,509.4,475.66Z"/><path class="cls-17" d="M773.15,708.78c20.77-7.07,30.85-8.43,30.85-8.43S760.68,499.14,609.84,467.7c0,0-41.84,23.23-101.2,19.22-1.16,14.29-2.73,24.76-2.73,24.76s-39.65,147.67-21.62,241.93c0,0,44,19.16,81.14-4.21s46.66-20.58,105.48-6.47,78.3,16.28,90.27-8.94S752.38,715.85,773.15,708.78Z"/><path class="cls-1" d="M852.41,693.14a1.5,1.5,0,0,0,0-3,1.5,1.5,0,0,0,0,3Z"/><path class="cls-1" d="M851.15,693.14a1.5,1.5,0,0,0,0-3,1.5,1.5,0,0,0,0,3Z"/><path class="cls-1" d="M852.41,693.83a1.5,1.5,0,0,0,0-3,1.5,1.5,0,0,0,0,3Z"/><path class="cls-1" d="M852.41,696.57a1.5,1.5,0,0,0,0-3,1.5,1.5,0,0,0,0,3Z"/><path class="cls-1" d="M852.41,697.25a1.5,1.5,0,0,0,0-3,1.5,1.5,0,0,0,0,3Z"/><path class="cls-1" d="M853,699.31a1.5,1.5,0,0,0,0-3,1.5,1.5,0,0,0,0,3Z"/><path class="cls-1" d="M851.15,700.68a1.5,1.5,0,0,0,0-3,1.5,1.5,0,0,0,0,3Z"/><path class="cls-1" d="M844.55,699.76a42.71,42.71,0,0,1,8.36-2c1.28-.16,2.28-2.09.76-2.8a8.1,8.1,0,0,0-9.63,2,1.52,1.52,0,0,0,.66,2.51,7.26,7.26,0,0,0,8.25-3.72c.92-1.7-1.67-3.22-2.59-1.51a4.25,4.25,0,0,1-4.86,2.34l.66,2.51a5.09,5.09,0,0,1,6-1.51l.76-2.8a46.47,46.47,0,0,0-9.15,2.08c-1.82.62-1,3.52.8,2.89Z"/><path class="cls-1" d="M847.36,699.31a1.5,1.5,0,0,0,0-3,1.5,1.5,0,0,0,0,3Z"/><path class="cls-1" d="M848.35,699.47l2.14-2a1.52,1.52,0,0,0-1.06-2.56,6.28,6.28,0,0,0-3.65.76c-1.42.73-.62,2.69.76,2.8l3.86.29-1.06-2.56-2.75,2.45a1.51,1.51,0,0,0,.66,2.51c2.26.35,4.69.66,6.73-.62a5.26,5.26,0,0,0,2.51-4.8c-.14-1.91-3.15-1.93-3,0,.23,3.05-3.4,2.85-5.45,2.53l.66,2.51,2.75-2.45a1.52,1.52,0,0,0-1.06-2.56l-3.86-.29.76,2.8a3.45,3.45,0,0,1,2.14-.35l-1.06-2.56-2.14,2c-1.42,1.32.71,3.43,2.12,2.12Z"/><path class="cls-1" d="M836.71,702.23c2.69.69,4.55-.46,6.73-2,3.45-2.4,7-3.7,11.29-3v-2.89L837,700.73a1.5,1.5,0,0,0,.8,2.89,27.13,27.13,0,0,0,10.7-4.11,1.52,1.52,0,0,0-.36-2.74,4.45,4.45,0,0,0-4.54.61,1.52,1.52,0,0,0,.36,2.74,9.5,9.5,0,0,0,7.18-.39c1.33-.57.69-3-.76-2.8l-7.55,1c-1.57.21-2.16,2.44-.4,2.95a10.56,10.56,0,0,0,6.85-.17,1.51,1.51,0,0,0-.4-2.95,16.25,16.25,0,0,0-8.86,2.39,1.51,1.51,0,0,0,.76,2.8,19.55,19.55,0,0,0,8.26-1c1.82-.62,1-3.52-.8-2.89a17.81,17.81,0,0,1-7.46.93l.76,2.8a13.17,13.17,0,0,1,7.35-2l-.4-2.95a7.86,7.86,0,0,1-5.26.17l-.4,2.95,7.55-1-.76-2.8a6.21,6.21,0,0,1-4.87.09l.36,2.74,2.23-.31-.36-2.74a25.2,25.2,0,0,1-10,3.81l.8,2.89,17.76-6.41c1.23-.45,1.61-2.65,0-2.89a17.6,17.6,0,0,0-8.41.54c-2.79.93-6.7,5.22-9.61,4.48-1.87-.48-2.67,2.42-.8,2.89Z"/><path class="cls-1" d="M842.5,704.68a30.09,30.09,0,0,1,9.66-4.79,1.5,1.5,0,0,0-.8-2.89,32.46,32.46,0,0,0-10.38,5.1c-1.54,1.13,0,3.74,1.51,2.59Z"/><path class="cls-11" d="M453.36,485.88c-1.63,5.74-5.06,9.29-10.63,10.21-5.88,1.13-13-6.94-12.57-13.17.48-7.48,5.7-12.87,12.64-12.36S454.13,477.27,453.36,485.88Zm-11.56,4.9c3.83,0,7.38-3.6,7.38-7.57a7.42,7.42,0,0,0-7.78-7.55,6.89,6.89,0,0,0-6.86,7.27C434.63,486.94,438.14,490.74,441.81,490.77Z"/><path class="cls-1" d="M138.71,498.8a9.65,9.65,0,0,1,6.27-1.57C143.58,500.49,140.84,498.46,138.71,498.8Z"/><path class="cls-1" d="M496,541c-.8,1-1.88.93-3,.77C493.54,539.73,494.54,539.49,496,541Z"/><path class="cls-1" d="M132,534l-1,.59Z"/><path class="cls-1" d="M495,533.09l1.11.83Z"/><path class="cls-12" d="M807.07,481.26c-1.61,2.68-3.61,6.08-5.7,9.41-.41.66-1.12.15-1.66-.15a1.32,1.32,0,0,1-.55-2c1.71-3,3.44-6,5.16-9a1.31,1.31,0,0,1,2-.52C806.89,479.25,807.45,479.57,807.07,481.26Z"/><path class="cls-12" d="M796.7,499.31c-2,3.37-3.91,6.6-5.89,9.76-.37.59-1,.56-1.64.11s-1.21-1.11-.68-2c1.79-3.1,3.59-6.2,5.44-9.26a1,1,0,0,1,1.62-.13A10.34,10.34,0,0,1,796.7,499.31Z"/><path class="cls-12" d="M793.34,491.1c-.44,1.33-1.26,2-2.47,1.22-2.78-1.81-5.5-3.73-8.24-5.62a1.39,1.39,0,0,1-.41-2.11c.34-.45,1.22-1,1.48-.87,3.16,2.07,6.26,4.25,9.35,6.45C793.25,490.31,793.25,490.78,793.34,491.1Z"/><path class="cls-12" d="M812.3,503.64c-.61,1.75-1.44,2.38-2.9,1.34-2.22-1.58-4.47-3.1-6.69-4.67-.84-.59-1.47-1.33-.74-2.47.45-.69.92-1.35,1.86-.7,2.63,1.82,5.29,3.58,7.91,5.43C812.05,502.77,812.15,503.34,812.3,503.64Z"/><path class="cls-8" d="M823.81,586.58c-.33,2.23-1.86,2.73-3.48,2.5-4.71-.68-7.54.54-6.61,6.57.24,1.57-.43,3.23-2.2,3.24-2.07,0-2.61-1.79-2.36-3.57.76-5.46-1.65-6.86-6.15-6.22-1.89.27-4.08,0-3.93-2.9s2.43-2.32,4-2.11c4.53.6,6.85-.86,6.11-6.29-.26-1.95-.3-4.55,2.42-4.46,2.31.07,2.45,2.42,2.18,4.26-.8,5.49,1.39,7.25,6.17,6.49C821.65,583.8,823.45,584.1,823.81,586.58Z"/><path class="cls-11" d="M789.36,405.88c-1.63,5.74-5.06,9.29-10.63,10.21-5.88,1.13-13-6.94-12.57-13.17.48-7.48,5.7-12.87,12.64-12.36S790.13,397.27,789.36,405.88Zm-11.56,4.9c3.83,0,7.38-3.6,7.38-7.57a7.42,7.42,0,0,0-7.78-7.55,6.89,6.89,0,0,0-6.86,7.27C770.63,406.94,774.14,410.74,777.81,410.77Z"/><path class="cls-4" d="M256.87,349.19c-2.82-.86-2.71-3.26-1.15-4.93,4.08-4.4,1.39-6.46-2-8.59-1.58-1-3.85-2-2.2-4.51,1.39-2.11,3.32-1.25,4.85.27,3,3,5.5,3.67,7.3-1.32a6.92,6.92,0,0,1,2-2.72,2.49,2.49,0,0,1,3.08,0c1.09.76,1,2.07.44,3.17a17.77,17.77,0,0,1-2,3.39c-2.2,2.79-1.26,4.49,1.47,5.76a10.17,10.17,0,0,1,2,1.28c1.36,1.09,2.35,2.59,1.39,4.32s-2.61,1.12-3.71.19c-3.9-3.29-6.94-3.3-9,2.16A2.57,2.57,0,0,1,256.87,349.19Z"/><path class="cls-10" d="M724,468.06c2.82,1.74,5.7,3.39,8.43,5.25,1.29.88,2.95,1.91,1.34,4-1.33,1.71-2.71,1.49-4.31.44-2.21-1.45-4.42-2.9-6.73-4.17s-3.16-.45-2.6,2,1.26,4.81,1.7,7.25c.28,1.55.83,3.43-1.6,4s-2.77-1-3.18-2.77c-.53-2.25-1.08-4.52-1.82-6.71-1.08-3.19-2.28-6.19,3-6.51.71,0,1.33-1.72,2-2.63C721.41,467.18,722.68,467.48,724,468.06Z"/><path class="cls-10" d="M709,463.8c1.25,2.42,4,5.31,3.43,7.17-1.28,4.14-4.21,7.77-6.49,11.6-.87,1.45-2.11,1.45-3.4.68a2.43,2.43,0,0,1-1-3.45c1.18-2.16,2.67-4.15,3.93-6.27.57-1,1.27-2.12.28-3.18-.78-.84-1.84-.39-2.8-.16-1.92.47-3.86.89-5.78,1.39-1.76.46-2.72-.06-3.32-1.88-.71-2.16.47-2.61,2.09-2.92,1.1.16,2.18.24,3-.77,1.82.17,3.35-.79,5-1.31Z"/><path class="cls-10" d="M698,458.09c-1.39-.85-2.79-1.69-4.17-2.55-1.14-.71-1.71-1.63-.68-2.82.8-.92,1.51-3.06,2.86-2.05,4.35,3.25,10.16,4.7,12.82,10.08a4.66,4.66,0,0,1-4.72,1.12h0a3.88,3.88,0,0,0-3-1.93,2.13,2.13,0,0,0-1.93-1Z"/><path class="cls-10" d="M711.94,445l1.38,6c-.56,2.38,2.9,5.47-1.27,7.21-1.85-.29-2.73-1.3-3.1-3.21-.65-3.34-1.84-6.59-2.42-9.94-.67-3.9,1.1-4.83,4.5-3C710.94,443.12,710.95,444.21,711.94,445Z"/><path class="cls-10" d="M732,457c1.76-.1,3.78-1.28,4.64,1.63.79,2.64-1,2.93-2.68,3.56a9.65,9.65,0,0,0-6.27,1.57.9.9,0,0,0-.74.16c-2.3-.52-5,1.92-7-.94L720,460,720,460c2.9.33,5.47-.82,8.06-1.85l3-.55Z"/><path class="cls-10" d="M720,460,717,460l-1-.82-.14-.11,2-5.09c1.46-2.33,2.82-4.73,4.41-7,2.19-3.07,4.13-2.81,5.57.71a4.42,4.42,0,0,0-1.91,3.21v0a3.34,3.34,0,0,0-2,3A4,4,0,0,0,722,457a5.27,5.27,0,0,0-2,3Z"/><path class="cls-1" d="M720,463c2,2.86,4.69.42,7,.94-1,1.4-3.21,1.86-3,4.11-1.28-.58-2.55-.89-3.76.14C718.58,466.54,716.53,464.9,720,463Z"/><path class="cls-1" d="M717.84,454l-2,5.09c-1.29-.18-2.73.33-3.79-.85,4.17-1.74.71-4.83,1.27-7.21C715.35,451.19,715,455,717.84,454Z"/><path class="cls-1" d="M720,460a5.27,5.27,0,0,1,2-3c1.7,2,4.31-.7,6,1.16C725.43,459.2,722.87,460.36,720,460Z"/><path class="cls-1" d="M704.12,461.88a4.66,4.66,0,0,0,4.72-1.12q.1,1.52.19,3l-5.06.9Z"/><path class="cls-1" d="M727.71,463.8a9.65,9.65,0,0,1,6.27-1.57C732.58,465.49,729.84,463.46,727.71,463.8Z"/><path class="cls-1" d="M699,466c-.8,1-1.88.93-3,.77C696.54,464.73,697.54,464.49,699,466Z"/><path class="cls-1" d="M701,460a3.88,3.88,0,0,1,3,1.93C702.58,462,701.11,462.09,701,460Z"/><path class="cls-1" d="M723.91,453.93a3.34,3.34,0,0,1,2-3C726,452.46,726.08,453.93,723.91,453.93Z"/><path class="cls-1" d="M732,457l-1,.59Z"/><path class="cls-1" d="M716,459.16l1,.82Z"/><path class="cls-1" d="M698,458.09l1.11.83Z"/></g></svg>