<svg xmlns="http://www.w3.org/2000/svg" viewBox="0 0 1728 1296"><defs><style>.cls-1{fill:#edece8;}.cls-2{fill:#b6df3e;}.cls-3{fill:#c1e1ca;}.cls-4{fill:#ff0500;}.cls-5{fill:#b5e0d9;}.cls-6{fill:#cfd6d4;}.cls-7{fill:#f2bd3c;}.cls-8{fill:#de2c93;}.cls-9{opacity:0.7;}.cls-10,.cls-11,.cls-12,.cls-14,.cls-16,.cls-19,.cls-21{fill:none;}.cls-10{stroke:#ff0500;stroke-width:2px;}.cls-10,.cls-11,.cls-12,.cls-14,.cls-15,.cls-16,.cls-17,.cls-19{stroke-miterlimit:10;}.cls-11{stroke:#f2bd3c;}.cls-11,.cls-12{stroke-width:3px;}.cls-12{stroke:#b6df3e;}.cls-13{fill:#f9f5d4;stroke:#d4ca00;}.cls-13,.cls-20,.cls-21{stroke-linejoin:round;}.cls-13,.cls-14,.cls-15,.cls-17,.cls-19,.cls-20,.cls-21{stroke-width:9px;}.cls-14,.cls-15,.cls-16{stroke:#1b1464;}.cls-15{fill:#94b0ff;}.cls-17{fill:#cdfccd;stroke:#126a00;}.cls-18{fill:#ffcfaa;}.cls-19,.cls-20,.cls-21{stroke:#55004e;}.cls-20{fill:#55004e;}.cls-20,.cls-21{stroke-linecap:round;}.cls-22{font-size:95.87px;font-family:CaviarDreams-Bold, Caviar Dreams;font-weight:700;}.cls-22,.cls-24{fill:#8e0151;}.cls-23{fill:#160137;}</style></defs><title>Artboard 4</title><g id="Layer_1" data-name="Layer 1"><path class="cls-1" d="M737.39,215.68s141.88,113.29,289.43,122S1191.39,390,1191.39,390s56.75,34.86,96.48,0S1373,455.34,1373,455.34s45.4,135.08-73.78,69.72,17,95.86,17,95.86,102.1-13.07,65.24,56.65,31.24,108.93,31.24,108.93,62.43,61-34.05,78.43-153.23,82.79-153.23,82.79,79.45-100.22-22.7-122-295.1,13.07-295.1,13.07l-34.05,56.65s-96.48,13.07-227-87.15S470.67,568.63,362.84,581.7,482,424.83,482,424.83s-73.78-126.36,62.43-165.58S737.39,215.68,737.39,215.68Z"/><path class="cls-2" d="M940.58,250.15v29.64a1.5,1.5,0,0,0,3,0V250.15a1.5,1.5,0,0,0-3,0Z"/><path class="cls-2" d="M926,267.11h31.57a1.5,1.5,0,0,0,0-3H926a1.5,1.5,0,0,0,0,3Z"/><path class="cls-3" d="M1349.37,855c-.35,13.36-10.88,24.46-24.49,24.49a24.49,24.49,0,1,1,0-49c13.61,0,24.14,11.15,24.49,24.49.05,1.93,3.05,1.93,3,0a27.48,27.48,0,0,0-48.65-17.53c-15.93,19.18,1.13,48.64,25.64,44.64,13.36-2.18,22.66-13.83,23-27.12C1352.42,853.11,1349.42,853.11,1349.37,855Z"/><circle class="cls-4" cx="786.21" cy="277.29" r="8.66"/><path class="cls-5" d="M1100.06,269.92c-17.09,7.92-35.11-11.48-24.15-27.54,10.48-15.35,33.93-7.26,34.53,10.65.06,1.93,3.07,1.93,3,0-.7-20.87-28.05-30.09-40.12-12.17a22.09,22.09,0,0,0,1,25.7c6.59,8.39,17.79,10.33,27.25,5.95,1.75-.81.23-3.4-1.51-2.59Z"/><ellipse class="cls-6" cx="879.56" cy="1049.16" rx="403.73" ry="19"/><path id="_Path_" data-name="&lt;Path&gt;" class="cls-2" d="M439.79,766.33l39,31.81a6.26,6.26,0,0,0,5.71,1.16l48.3-14.06a6.26,6.26,0,0,1,7.58,8.28L522.12,840.4a6.26,6.26,0,0,0,.66,5.79l28.29,41.59a6.26,6.26,0,0,1-5.53,9.77l-50.22-2.84a6.26,6.26,0,0,0-5.3,2.42l-30.81,39.76a6.26,6.26,0,0,1-11-2.24L435.4,886a6.26,6.26,0,0,0-3.93-4.29l-47.34-17a6.26,6.26,0,0,1-1.27-11.15l42.3-27.22a6.26,6.26,0,0,0,2.87-5.07L429.58,771A6.26,6.26,0,0,1,439.79,766.33Z"/><path id="_Path_2" data-name="&lt;Path&gt;" class="cls-7" d="M526,274.61l25.48,92.56a11.94,11.94,0,0,0,7.6,8.11l90.69,31.48A11.94,11.94,0,0,1,652.46,428l-80.15,52.84a11.94,11.94,0,0,0-5.37,9.73l-1.91,96a11.94,11.94,0,0,1-19.4,9.1l-75-59.9a11.94,11.94,0,0,0-10.92-2.1L367.82,561.5a11.94,11.94,0,0,1-14.64-15.64L387,456a11.94,11.94,0,0,0-1.38-11l-54.87-78.78a11.94,11.94,0,0,1,10.34-18.76l95.9,4.37A11.94,11.94,0,0,0,447,347.09l58-76.53A11.94,11.94,0,0,1,526,274.61Z"/><path class="cls-7" d="M1326.36,721.8c-14.26,6.48-29.3-9.65-19.95-23,8.84-12.65,28-5.73,28.59,9,.07,1.92,3.07,1.93,3,0-.68-17.66-23.79-25.79-34.18-10.51a18.89,18.89,0,0,0,1,22.33c5.7,7,15.07,8.43,23.07,4.8,1.76-.8.23-3.38-1.51-2.59Z"/><path class="cls-8" d="M420.07,466c-.32,7.15-5.73,13.13-13.13,13.13a13.13,13.13,0,0,1,0-26.26c7.4,0,12.81,6,13.13,13.13.09,1.92,3.09,1.93,3,0-.39-8.77-7.06-16.13-16.13-16.13a16.13,16.13,0,0,0,0,32.26c9.06,0,15.74-7.4,16.13-16.13C423.16,464,420.16,464,420.07,466Z"/><path class="cls-2" d="M1319.46,472.12v29.64a1.5,1.5,0,0,0,3,0V472.12a1.5,1.5,0,0,0-3,0Z"/><path class="cls-2" d="M1304.85,489.08h31.57a1.5,1.5,0,0,0,0-3h-31.57a1.5,1.5,0,0,0,0,3Z"/><path class="cls-2" d="M423.09,645.78v29.64a1.5,1.5,0,0,0,3,0V645.78a1.5,1.5,0,0,0-3,0Z"/><path class="cls-2" d="M408.48,662.74h31.57a1.5,1.5,0,0,0,0-3H408.48a1.5,1.5,0,0,0,0,3Z"/><path class="cls-7" d="M370.88,796.76c-14.26,6.48-29.3-9.65-19.95-23,8.84-12.65,28-5.73,28.59,9,.07,1.92,3.07,1.93,3,0-.68-17.66-23.79-25.79-34.18-10.51a18.89,18.89,0,0,0,1,22.33c5.7,7,15.07,8.43,23.07,4.8,1.76-.8.23-3.38-1.51-2.59Z"/><circle class="cls-8" cx="433.13" cy="968.82" r="11.87"/><circle class="cls-2" cx="1312.56" cy="603.8" r="8.98"/><path class="cls-8" d="M1073.72,335.06l-15.64,25.18c-1,1.64,1.57,3.15,2.59,1.51l15.64-25.18c1-1.64-1.57-3.15-2.59-1.51Z"/><path class="cls-8" d="M1052.41,341.75l26.82,16.66c1.64,1,3.15-1.57,1.51-2.59l-26.82-16.66c-1.64-1-3.15,1.57-1.51,2.59Z"/><path class="cls-3" d="M359.86,388.43,344.22,413.6c-1,1.64,1.57,3.15,2.59,1.51l15.64-25.18c1-1.64-1.57-3.15-2.59-1.51Z"/><path class="cls-3" d="M338.55,395.12l26.82,16.66c1.64,1,3.15-1.57,1.51-2.59l-26.82-16.66c-1.64-1-3.15,1.57-1.51,2.59Z"/><path class="cls-2" d="M1293.19,926.48l-15.64,25.18c-1,1.64,1.57,3.15,2.59,1.51L1295.78,928c1-1.64-1.57-3.15-2.59-1.51Z"/><path class="cls-2" d="M1271.89,933.17l26.82,16.66c1.64,1,3.15-1.57,1.51-2.59l-26.82-16.66c-1.64-1-3.15,1.57-1.51,2.59Z"/><path class="cls-2" d="M393,233.06c50,0,100-.22,150.06.38,4.27.05,8.47,5.53,12.71,8.49-3.76,3.61-7,9.09-11.42,10.38-6.42,1.87-13.72.8-20.64.8q-135.66,0-271.31.11a117.76,117.76,0,0,0-24,2.37C205.64,260.4,192.28,277,193,298.67c.66,21.11,15.77,37.38,38.61,40.49,10.62,1.44,21.44,1.55,32.18,1.92,6.73.24,12.33,2.8,10.73,9.84-.81,3.55-6.8,8.24-10.61,8.4-20.3.86-40.84,1.83-59.2-9.85-23.36-14.86-35.83-40.39-30.68-63.29,6-26.69,28.7-48.15,56.33-50.47,23.33-2,46.86-1.72,70.31-1.94,30.78-.29,61.57-.07,92.36-.07Z"/><path class="cls-2" d="M462.41,119.88c26.18,0,52.39-.77,78.53.23,24.14.92,44.84,10.5,59.44,30.56,20.77,28.53,12.28,71.07-18.08,88.53-3.77,2.17-10.21-.28-15.41-.59,1.37-4.92,1.13-12,4.37-14.42,17.08-13,25.06-28.89,19.62-50.15-4.7-18.36-22.3-32.94-44.86-34-36.11-1.7-72.31-1.46-108.47-1.89-16.94-.2-33.88.15-50.82-.19-7.16-.14-17.42,2.55-17.08-9.54s10.66-8.74,17.69-8.83c25-.31,50-.12,75.07-.12Z"/><g id="_Group_" data-name="&lt;Group&gt;" class="cls-9"><path class="cls-2" d="M424.65,154.87h83.17c3.86,0,3.87-6,0-6H424.65c-3.86,0-3.87,6,0,6Z"/></g><path class="cls-10" d="M1246.65,346.46l-9.85,15.86"/><path class="cls-10" d="M1263.3,319.65l-10,16.16"/><path class="cls-10" d="M1256.66,346.37l15.08,9.37"/><path class="cls-10" d="M1226.28,327.51l16.42,10.2"/><path class="cls-11" d="M495.59,1005.77l-12.4,20"/><path class="cls-11" d="M516.54,972l-12.64,20.35"/><path class="cls-11" d="M508.18,1005.66l19,11.79"/><path class="cls-11" d="M469.95,981.92l20.67,12.84"/><path class="cls-11" d="M493.19,1001.16l-22.71,6"/><path class="cls-11" d="M531.58,990.94l-23.15,6.16"/><path class="cls-11" d="M502.44,1009.72l5.75,21.59"/><path class="cls-11" d="M490.86,966.22l6.26,23.51"/><path class="cls-12" d="M1387.48,622.16l-12.4,20"/><path class="cls-12" d="M1408.44,588.41l-12.64,20.35"/><path class="cls-12" d="M1400.07,622.05l19,11.79"/><path class="cls-12" d="M1361.84,598.3l20.67,12.84"/><path class="cls-12" d="M1385.08,617.55l-22.71,6"/><path class="cls-12" d="M1423.47,607.33l-23.15,6.16"/><path class="cls-12" d="M1394.33,626.1l5.75,21.59"/><path class="cls-12" d="M1382.75,582.61l6.26,23.51"/><path class="cls-10" d="M1389.56,809.41l-9.85,15.86"/><path class="cls-10" d="M1406.21,782.61l-10,16.16"/><path class="cls-10" d="M1399.57,809.33l15.08,9.37"/><path class="cls-10" d="M1369.2,790.46l16.42,10.2"/><path class="cls-10" d="M348,561.31l-9.85,15.86"/><path class="cls-10" d="M364.62,534.5l-10,16.16"/><path class="cls-10" d="M358,561.23l15.08,9.37"/><path class="cls-10" d="M327.6,542.36,344,552.56"/></g><g id="Layer_2" data-name="Layer 2"><path class="cls-13" d="M588,574.14l42.06-19.24,16.65,12.05L640,570s-10.11-1.81-15.33.58l2.13,5.46,41.72,11.67,20.87-9.55-2.25-33.31s-21.58,17.74-26.76,7.24c0,0-3.82-10.77,22.35-12,0,0,.8-3.94-1.42-4.72,0,0-21.69-1.16-5-23.11,0,0,13.05-3.11,18.48,5.5,0,0,1.79,6.34-3.38,13.71,0,0-.56,5.26,3.26,3.87,0,0,19.82-21.59,24-9.93,0,0,6.71,9.81-22.66,15.38L718.24,565l20.87-9.55,19.67-39.76-2-4.29-3.38,1.55-6.88,10.12-7.67,3.51.87-17.57L783,484.94s-25.65,24.26-18,82.3L660.56,615S639,580.86,588,574.14Z"/><polygon class="cls-14" points="914.92 381.01 911.83 398.23 919.33 409.45 941.97 413.52 952.07 405.46 955.17 388.24 937.45 371.23 914.92 381.01"/><polygon class="cls-15" points="912.26 453.61 933.22 457.38 941.97 413.52 919.33 409.45 912.26 453.61"/><path class="cls-14" d="M904.65,491.1l22.64,4.07s9.87-6.78,3.21-17.86c0,0,17-17.36,2.72-19.92l-21-3.77s-13,.29-4.22,18.67C908,472.28,892.77,485,904.65,491.1Z"/><polygon class="cls-15" points="907.12 491.54 868.92 732.93 876.75 734.33 925 494.75 907.12 491.54"/><polygon class="cls-16" points="871.62 715.84 880.16 717.38 876.75 734.33 868.92 732.93 871.62 715.84"/><polygon class="cls-14" points="830.6 375.99 836.93 393.8 833.19 406.27 815.39 412.6 805.28 405.05 798.95 387.25 809.85 367.77 830.6 375.99"/><polygon class="cls-15" points="848.71 452 832.23 457.86 815.39 412.6 833.19 406.27 848.71 452"/><path class="cls-14" d="M863.2,490.67,845.4,497a17.11,17.11,0,0,1-6.56-18.46s-17.82-16.69-6.61-20.67L848.71,452s10.83-.88,7.58,19.22C856.29,471.21,871.69,483.19,863.2,490.67Z"/><polygon class="cls-15" points="861.26 491.35 945.71 741.37 939.55 743.55 847.2 496.36 861.26 491.35"/><polygon class="cls-16" points="939.73 723.67 933.02 726.06 939.55 743.55 945.71 741.37 939.73 723.67"/><path class="cls-17" d="M1052.73,495.67l37.48,21.8s13.34-16.08,33.56,4c0,0,13,25.1-24.22,26.14,0,0-16.94-6.34-32.33,23l40.47,23.54s5.34-11.15,17.71-11.82c0,0,28.3,5.25,43.91-20.61,0,0,17.66-17.62,2.5-50.36,0,0-12.18-28.06-51.6-38.7C1120.22,472.75,1072.7,459.37,1052.73,495.67Z"/><rect class="cls-17" x="1050.27" y="592.49" width="46.81" height="29.32" transform="translate(450.89 -457.53) rotate(30.19)"/><path class="cls-18" d="M667.48,693.24s-6.12-29.89,27.2-46.41c0,0-12.68-48.07,54.41-50.09,0,0,36.35-46.6,78.41-11,0,0,25.89-18,54.2,5.17,0,0,54.71-46,107.43-4.13,0,0,59.16-10.27,62.41,34.4,0,0,50.49-7,57.61,50.41v8s46-7.19,50.41,24.32v91.91s-17.25,26.89-42.41,33.39h-7.67s-8,66.31-85.15,36c0,0-45.71,34.59-88.92-11.2,0,0-16.36,10.09-40.7,5.6,0,0-33.62,45.54-86.41,8.8,0,0-49.95,27.51-73.61-21.6,0,0-53.69,10.72-50.41-56.81,0,0-47.53-22.13-11.2-80,0,0-18.51-4.69-24,11.2,0,0-4.95,27.31-17.6,24,0,0-20.56-4.64-3.26-39.16,0,0,10.61-13.41,23.26-12.85Z"/><path class="cls-19" d="M631.7,695.29s3.55-36.34,30.14-47c0,0-2.66-40.77,28.36-48.75,0,0,32.8-11.52,47-4.43"/><path class="cls-19" d="M722.11,592.82s13.3-24.29,45.21-24.29c0,0,20.39-8.51,41.66,12.14,0,0,23-12.14,41.66-5.05,0,0,27.48,3.55,31,43.43,0,0,26.59-2.66,41.66,13.3,0,0,14.18,9.75,11.52,39.89,0,0,30.14,19.5,29.25,46.09"/><path class="cls-19" d="M869,586.4s29.49-31.17,72-24.08c0,0,27.48-1.77,47,19.5"/><path class="cls-19" d="M936.62,592.82s41.66-5.67,51.41,27.13"/><path class="cls-19" d="M972,599.24s13.41-28.93,50.63-16.52c0,0,31,.89,34.57,37.23,0,0,30.14-3.55,44.32,16.84,0,0,23,16,19.5,39"/><path class="cls-19" d="M988,671.36s15.07-39,66.48-8.86"/><path class="cls-19" d="M772.64,635.9s28.36-37.23,61.16,0"/><path class="cls-19" d="M661.84,648.31S676,675.79,700,675.79c0,0,33.68-5.32,33.68-39.89"/><path class="cls-19" d="M637.9,718.34s-23,29.25-11.52,59.39c0,0,8,23.93,23.93,29.25,0,0-4.43,34.57,11.52,45.21,0,0,11.52,20.39,44.32,17.73,0,0,8.86,24.82,34.57,30.14,0,0,29.25,6.2,47-6.2,0,0,15.07,17.73,46.09,14.18,0,0,30.14,1.77,49.64-23.93,0,0,25.47,5.32,45.09-6.2,0,0,14.3,27.48,52.42,25.71,0,0,25.71,6.2,46.09-13.3,0,0,16,17.73,48.75,7.09,0,0,40.63-7.09,45.58-44.32"/><path class="cls-19" d="M591.81,757.34s13.3,3.55,19.5-26.59c0,0,3.55-20.39,50.53-12.41l65.59,4.43,6.2-17.73L614,699.72s-28.36,8-30.14,23C583.83,722.77,575.86,755.56,591.81,757.34Z"/><path class="cls-19" d="M675.13,762.66s-11.52,41.66,22.6,37.23"/><path class="cls-19" d="M727.43,722.77v77.45s5.32,44,40.77,50.2H872.26s42.85-16.18,56.27-50.2c0,0,4.55-38.19,8.09-42.75s28.15-7,35.35,0c0,0-4.32,46,16.06,60.15,0,0,22.16,26.59,48.75,32.8h93.07s45.21-16,47-43.43V711.59s-.89-26.06-36.34-26.94H1026.15s-41,3.55-54.18,33.68H932.19s-7.69-25.71-32.21-27.48c0,0-51.11-13.3-127.35-6.2,0,0-32.8,2.66-39,20.39"/><ellipse class="cls-19" cx="954.3" cy="830.02" rx="17.67" ry="23.93"/><path class="cls-19" d="M754,736.06v64.15s6.2,21.83,23.93,23.6h85.09s30.14-9.42,41.66-42.38c0,0,9.75-37.27,0-52.84a37.72,37.72,0,0,0-35.69-17l-86.63-.19S754,710.36,754,736.06Z"/><path class="cls-19" d="M1026.15,711.59l101.05-.2s18.61-2.68,26.59,17.2v63.31s-3.55,23.93-22.16,31.91h-85s-31.16-7.32-33.81-23.6c0,0-16-24.89-16.84-42.75C996,757.47,986.26,711.67,1026.15,711.59Z"/><path class="cls-20" d="M1074.38,781.44s.53-19.09,17.37-14.95,18.61,14.95,18.61,14.95,22.16,1,15.07-15.53c0,0-14.18-22.75-35.46-17.43,0,0-26.59-4.74-31,18C1058.95,766.49,1055.24,781.6,1074.38,781.44Z"/><path class="cls-20" d="M805.77,778.83h7.48s7-10.3,11.47-10.3h16.12s9,4,10.3,10.3h11.63s4.65-11.14,0-17.12c0,0-8-13.79-26.76-13.63H821.39s-16.6.16-21.23,14.69q-.11.34-.21.68C795.63,778.67,805.77,778.83,805.77,778.83Z"/><path class="cls-21" d="M782,897v112.48s-7.61,14.63-9.38,29.25,78.34,7,78.34,7v-7.31s-7.56-25.93-39.18-30.91V993.9h-8V908.5Z"/><line class="cls-21" x1="782.02" y1="992.57" x2="803.77" y2="992.57"/><line class="cls-21" x1="782.02" y1="1009.52" x2="813.41" y2="1009.52"/><path class="cls-21" d="M820.06,1013.51s-6.65,3-6.65,9.64"/><path class="cls-21" d="M832.59,1015.31s-10.2,9.17-9.54,21.47"/><path class="cls-21" d="M775.19,1035.11a264.61,264.61,0,0,0,72.13,1.66"/><path class="cls-21" d="M974,908.5v83.74h-7.65v18.95s-7.31,16-7.65,26.26,0,7.65,0,7.65l-.33,2.66h80.77s9.64-28.92-40.39-38.23V993.23h-6.81l-.33-84.74Z"/><line class="cls-21" x1="973.96" y1="992.23" x2="991.91" y2="992.23"/><line class="cls-21" x1="966.32" y1="1011.18" x2="995.24" y2="1011.18"/><path class="cls-21" d="M1007.79,1011.59s-6.57,4.25-6.91,11.89"/><path class="cls-21" d="M1019.77,1015.92s-9.24,3.24-9.58,22.19"/><path class="cls-21" d="M958.67,1037.44s33.24,3.32,78.45.66"/><path class="cls-21" d="M1212.3,781.45s55.84-24.34,58.5,18.77S1226.92,778.08,1212.3,781.45Z"/><path class="cls-21" d="M1199,839.33s14.74,50.53,42.6,34.57C1241.6,873.9,1269.47,839.33,1199,839.33Z"/><path class="cls-21" d="M581.84,806.09s-63.6-6.65-51.63,33.24c0,0,7.59,21.27,25.07-9.31A75.54,75.54,0,0,1,581.84,806.09Z"/><path class="cls-21" d="M588.71,908.5S558.13,899.16,614,854C614,854,618,911.18,588.71,908.5Z"/></g><g id="Layer_3" data-name="Layer 3"><text class="cls-22" transform="translate(621.9 1190.08)">IREDESCENT</text><path class="cls-23" d="M1165.15,1096v147c0,3.86,6,3.87,6,0V1096c0-3.86-6-3.87-6,0Z"/><path class="cls-23" d="M1059.49,1214h147c3.86,0,3.87-6,0-6h-147c-3.86,0-3.87,6,0,6Z"/><line class="cls-24" x1="1008.36" y1="1227.03" x2="1155.36" y2="1227.03"/><path class="cls-24" d="M1008.36,1230h147c3.86,0,3.87-6,0-6h-147c-3.86,0-3.87,6,0,6Z"/></g></svg>