<svg xmlns="http://www.w3.org/2000/svg" viewBox="0 0 1728 1296"><defs><style>.cls-1,.cls-28{fill:#edece8;}.cls-2{fill:#b6df3e;}.cls-3{fill:#c1e1ca;}.cls-4{fill:#ff0500;}.cls-5{fill:#b5e0d9;}.cls-6{fill:#cfd6d4;}.cls-23,.cls-7{fill:#f2bd3c;}.cls-8,.cls-9{fill:#de2c93;}.cls-9{opacity:0.48;}.cls-10{opacity:0.7;}.cls-11,.cls-12,.cls-13,.cls-15{fill:none;}.cls-11{stroke:#ff0500;stroke-width:2px;}.cls-11,.cls-12,.cls-13,.cls-14,.cls-15,.cls-16,.cls-17,.cls-18,.cls-19,.cls-20,.cls-21,.cls-22,.cls-23,.cls-24,.cls-25,.cls-26,.cls-27,.cls-28,.cls-29{stroke-miterlimit:10;}.cls-12{stroke:#f2bd3c;}.cls-12,.cls-13{stroke-width:3px;}.cls-13{stroke:#b6df3e;}.cls-14{fill:#fdff55;}.cls-14,.cls-15,.cls-16,.cls-17,.cls-18,.cls-19,.cls-20,.cls-21,.cls-22,.cls-23,.cls-24,.cls-25,.cls-26,.cls-27,.cls-28,.cls-29{stroke:#55004e;stroke-width:9px;}.cls-16{fill:#ff7a6a;}.cls-17{fill:#ff7feb;}.cls-18{fill:#d5ff6a;}.cls-19{fill:#ffc76a;}.cls-20{fill:#aac0ff;}.cls-21{fill:#55004e;}.cls-22{fill:#14888d;}.cls-24{fill:#f53f5a;}.cls-25{fill:#e23834;}.cls-26{fill:#fcd9c3;}.cls-27{fill:#cbf93d;}.cls-29{fill:#ff7f82;}.cls-30{font-size:106.58px;font-family:CaviarDreams-Bold, Caviar Dreams;font-weight:700;}.cls-30,.cls-32{fill:#7f1400;}.cls-31{fill:#160137;}</style></defs><title>Artboard 5</title><g id="Layer_1" data-name="Layer 1"><path class="cls-1" d="M722.14,227.53s114.76,91.64,234.12,98.69,133.12,42.3,133.12,42.3,45.91,28.2,78,0,68.86,52.87,68.86,52.87,36.72,109.26-59.68,56.39,13.77,77.54,13.77,77.54,82.59-10.57,52.77,45.82,25.27,88.12,25.27,88.12,50.5,49.35-27.54,63.44-123.94,67-123.94,67,64.27-81.07-18.36-98.69-238.71,10.57-238.71,10.57l-27.54,45.82s-78,10.57-183.62-70.49S506.38,513,419.17,523.6s96.4-126.89,96.4-126.89-59.68-102.21,50.5-133.94S722.14,227.53,722.14,227.53Z"/><path class="cls-2" d="M886.22,255.41v24a1.5,1.5,0,0,0,3,0v-24a1.5,1.5,0,0,0-3,0Z"/><path class="cls-2" d="M874.68,269.42h25.54a1.5,1.5,0,0,0,0-3H874.68a1.5,1.5,0,0,0,0,3Z"/><path class="cls-3" d="M1216.88,744.71c-.34,10.63-8.62,19.52-19.52,19.52a19.52,19.52,0,0,1-.69-39c11.16-.41,19.86,8.62,20.21,19.5.06,1.93,3.06,1.93,3,0-.4-12.26-10-22.52-22.52-22.52a22.52,22.52,0,1,0,0,45c12.54,0,22.13-10.27,22.52-22.52C1219.94,742.78,1216.94,742.78,1216.88,744.71Z"/><circle class="cls-4" cx="761.63" cy="277.37" r="7.01"/><path class="cls-5" d="M1015.36,271.16c-13.8,6.27-28.1-9.55-18.85-22.22,8.6-11.78,26.55-5.17,27.11,8.81.08,1.92,3.08,1.93,3,0-.69-17-23.06-24.88-33-10-10.38,15.61,7.08,33.32,23.24,26,1.76-.8.23-3.38-1.51-2.59Z"/><ellipse class="cls-6" cx="837.14" cy="901.73" rx="326.58" ry="15.37"/><path id="_Path_" data-name="&lt;Path&gt;" class="cls-2" d="M481.41,672.95l31.52,25.73a5.06,5.06,0,0,0,4.62.94l39.07-11.37a5.06,5.06,0,0,1,6.13,6.69L548,732.87a5.06,5.06,0,0,0,.53,4.68l22.89,33.64a5.06,5.06,0,0,1-4.47,7.9l-40.62-2.3a5.06,5.06,0,0,0-4.29,2l-24.92,32.16a5.06,5.06,0,0,1-8.9-1.81l-10.37-39.34a5.06,5.06,0,0,0-3.18-3.47l-38.29-13.76a5.06,5.06,0,0,1-1-9l34.21-22a5.06,5.06,0,0,0,2.32-4.1l1.26-40.67A5.06,5.06,0,0,1,481.41,672.95Z"/><path id="_Path_2" data-name="&lt;Path&gt;" class="cls-7" d="M607.29,163.38,620.13,240a9.66,9.66,0,0,0,5.44,7.16L695.94,280a9.66,9.66,0,0,1,.38,17.32l-68.87,35.87a9.66,9.66,0,0,0-5.13,7.39l-9.49,77.07a9.66,9.66,0,0,1-16.36,5.71l-55.4-54.42a9.66,9.66,0,0,0-8.61-2.59l-76.23,14.79a9.66,9.66,0,0,1-10.49-13.79l34.63-69.5a9.66,9.66,0,0,0-.2-9l-37.62-67.93a9.66,9.66,0,0,1,9.88-14.24l76.8,11.46a9.66,9.66,0,0,0,8.49-3l53-56.77A9.66,9.66,0,0,1,607.29,163.38Z"/><path class="cls-7" d="M1198.41,636.68c-11.58,5.1-23.38-8.12-15.43-18.58,7.25-9.54,21.74-3.94,22.28,7.48.09,1.92,3.09,1.93,3,0-.69-14.45-19.57-21.37-28.15-8.66-9.07,13.44,5.9,28.48,19.82,22.36,1.76-.78.24-3.36-1.51-2.59Z"/><path class="cls-8" d="M465.18,430c-.71,13.23-20.67,13.35-20.67,0s20-13.24,20.67,0c.1,1.92,3.1,1.93,3,0-.39-7.24-5.78-13.34-13.34-13.34a13.33,13.33,0,0,0-.64,26.64c7.8.37,13.58-5.8,14-13.3C468.28,428.05,465.28,428.06,465.18,430Z"/><path class="cls-2" d="M1192.69,435v24a1.5,1.5,0,0,0,3,0V435a1.5,1.5,0,0,0-3,0Z"/><path class="cls-2" d="M1181.16,449h25.54a1.5,1.5,0,0,0,0-3h-25.54a1.5,1.5,0,0,0,0,3Z"/><path class="cls-2" d="M467.62,575.44v24a1.5,1.5,0,0,0,3,0v-24a1.5,1.5,0,0,0-3,0Z"/><path class="cls-2" d="M456.09,589.45h25.54a1.5,1.5,0,0,0,0-3H456.09a1.5,1.5,0,0,0,0,3Z"/><path class="cls-7" d="M425.53,697.32c-11.58,5.1-23.38-8.12-15.43-18.58,7.25-9.54,21.74-3.94,22.28,7.48.09,1.92,3.09,1.93,3,0-.69-14.45-19.57-21.37-28.15-8.66C398.15,691,413.12,706,427,699.91c1.76-.78.24-3.36-1.51-2.59Z"/><circle class="cls-8" cx="476.02" cy="836.74" r="9.6"/><circle class="cls-2" cx="1172.77" cy="544.17" r="7.27"/><path class="cls-8" d="M993.95,324,981.3,344.32c-1,1.64,1.57,3.15,2.59,1.51l12.65-20.37c1-1.64-1.57-3.15-2.59-1.51Z"/><path class="cls-8" d="M976.82,329.75l21.7,13.48c1.64,1,3.15-1.57,1.51-2.59l-21.7-13.48c-1.64-1-3.15,1.57-1.51,2.59Z"/><path class="cls-3" d="M416.5,367.12l-12.65,20.37c-1,1.64,1.57,3.15,2.59,1.51l12.65-20.37c1-1.64-1.57-3.15-2.59-1.51Z"/><path class="cls-3" d="M399.37,372.92l21.7,13.48c1.64,1,3.15-1.57,1.51-2.59l-21.7-13.48c-1.64-1-3.15,1.57-1.51,2.59Z"/><path class="cls-2" d="M1171.48,802.35l-12.65,20.37c-1,1.64,1.57,3.15,2.59,1.51l12.65-20.37c1-1.64-1.57-3.15-2.59-1.51Z"/><path class="cls-2" d="M1154.35,808.15l21.7,13.48c1.64,1,3.15-1.57,1.51-2.59l-21.7-13.48c-1.64-1-3.15,1.57-1.51,2.59Z"/><path class="cls-8" d="M1199.32,279.76c40.46,0,80.93-.17,121.38.31,3.45,0,6.85,4.47,10.28,6.86-3,2.92-5.65,7.35-9.23,8.4-5.19,1.51-11.1.65-16.7.65q-109.73,0-219.46.09a95.26,95.26,0,0,0-19.42,1.91c-18.4,3.89-29.21,17.35-28.66,34.85.53,17.07,12.75,30.24,31.23,32.75,8.59,1.17,17.34,1.25,26,1.55,5.44.19,10,2.26,8.68,8-.65,2.87-5.5,6.67-8.58,6.8-16.42.7-33,1.48-47.89-8-18.9-12-29-32.67-24.82-51.2,4.85-21.59,23.22-38.95,45.57-40.83,18.87-1.59,37.91-1.39,56.88-1.57,24.9-.23,49.81-.06,74.71-.06Z"/><path class="cls-8" d="M1255.46,188.22c21.18,0,42.37-.62,63.52.18,19.53.75,36.27,8.5,48.08,24.72,16.8,23.08,9.93,57.49-14.62,71.61-3.05,1.76-8.26-.23-12.46-.47,1.1-4,.91-9.68,3.53-11.66,13.81-10.48,20.27-23.37,15.87-40.56-3.8-14.85-18-26.64-36.29-27.5-29.21-1.38-58.49-1.18-87.74-1.53-13.7-.16-27.41.12-41.11-.16-5.79-.12-14.09,2.06-13.81-7.71s8.62-7.07,14.31-7.15c20.24-.25,40.48-.1,60.73-.1Z"/><path class="cls-9" d="M1261.29,173.07c22.39,0,44.8-.76,67.15.22,20.64.9,38.35,10.28,50.83,29.9,17.77,27.92,10.5,69.55-15.46,86.65-3.23,2.13-8.73-.27-13.18-.57,1.17-4.82,1-11.71,3.73-14.11,14.6-12.68,21.43-28.27,16.78-49.08-4-18-19.07-32.23-38.37-33.27-30.88-1.66-61.84-1.43-92.76-1.85-14.49-.2-29,.14-43.46-.19-6.12-.14-14.9,2.49-14.6-9.33s9.12-8.56,15.13-8.64c21.4-.31,42.8-.12,64.2-.12Z"/><path class="cls-2" d="M456.64,209.57c40.46,0,80.93-.17,121.38.31,3.45,0,6.85,4.47,10.28,6.86-3,2.92-5.65,7.35-9.23,8.4-5.19,1.51-11.1.65-16.7.65q-109.73,0-219.46.09a95.26,95.26,0,0,0-19.42,1.91c-18.4,3.89-29.21,17.35-28.66,34.85.53,17.07,12.75,30.24,31.23,32.75,8.59,1.17,17.34,1.25,26,1.55,5.44.19,10,2.26,8.68,8-.65,2.87-5.5,6.67-8.58,6.8-16.42.7-33,1.48-47.89-8-18.9-12-29-32.67-24.82-51.2,4.85-21.59,23.22-38.95,45.57-40.83,18.87-1.59,37.91-1.39,56.88-1.57,24.9-.23,49.81-.06,74.71-.06Z"/><path class="cls-2" d="M512.79,118c21.18,0,42.37-.62,63.52.18,19.53.75,36.27,8.5,48.08,24.72,16.8,23.08,9.93,57.49-14.62,71.61-3.05,1.76-8.26-.23-12.46-.47,1.1-4,.91-9.68,3.53-11.66,13.81-10.48,20.27-23.37,15.87-40.56-3.8-14.85-18-26.64-36.29-27.5-29.21-1.38-58.49-1.18-87.74-1.53-13.7-.16-27.41.12-41.11-.16-5.79-.12-14.09,2.06-13.81-7.71s8.62-7.07,14.31-7.15c20.24-.25,40.48-.1,60.73-.1Z"/><g id="_Group_" data-name="&lt;Group&gt;" class="cls-10"><path class="cls-2" d="M482.25,146.9h67.27c3.86,0,3.87-6,0-6H482.25c-3.86,0-3.87,6,0,6Z"/></g><path class="cls-11" d="M1134.08,333.32l-8,12.83"/><path class="cls-11" d="M1147.54,311.63l-8.12,13.07"/><path class="cls-11" d="M1142.17,333.25l12.2,7.58"/><path class="cls-11" d="M1117.6,318l13.28,8.25"/><path class="cls-12" d="M526.54,866.63l-10,16.15"/><path class="cls-12" d="M543.5,839.34,533.27,855.8"/><path class="cls-12" d="M536.73,866.55l15.35,9.54"/><path class="cls-12" d="M505.81,847.34l16.72,10.38"/><path class="cls-12" d="M524.61,862.91l-18.37,4.89"/><path class="cls-12" d="M555.66,854.64l-18.72,5"/><path class="cls-12" d="M532.09,869.83l4.65,17.47"/><path class="cls-12" d="M522.72,834.64l5.06,19"/><path class="cls-13" d="M1290.71,558.27l-10,16.15"/><path class="cls-13" d="M1307.66,531l-10.22,16.46"/><path class="cls-13" d="M1300.9,558.18l15.35,9.54"/><path class="cls-13" d="M1270,539l16.72,10.38"/><path class="cls-13" d="M1288.77,554.54l-18.37,4.89"/><path class="cls-13" d="M1319.82,546.28l-18.72,5"/><path class="cls-13" d="M1296.25,561.46l4.65,17.47"/><path class="cls-13" d="M1286.89,526.28l5.06,19"/><path class="cls-11" d="M1249.68,707.8l-8,12.83"/><path class="cls-11" d="M1263.15,686.12,1255,699.19"/><path class="cls-11" d="M1257.77,707.73l12.2,7.58"/><path class="cls-11" d="M1233.21,692.47l13.28,8.25"/><path class="cls-11" d="M407.13,507.11l-8,12.83"/><path class="cls-11" d="M420.6,485.43l-8.12,13.07"/><path class="cls-11" d="M415.23,507l12.2,7.58"/><path class="cls-11" d="M390.66,491.78,403.94,500"/></g><g id="Layer_2" data-name="Layer 2"><polygon class="cls-14" points="1135.34 576.97 1132.08 630.42 1162.24 630.42 1158.98 576.97 1135.34 576.97"/><path class="cls-15" d="M1138.6,473.92s8.15,26.9-15.49,46.46c0,0-24.45,20.26,0,50.07,0,0,30.16,16,47.28-6.05,0,0,14.67-12,5.71-39.42C1176.1,525,1164.68,491.85,1138.6,473.92Z"/><path class="cls-16" d="M1112.68,539.15s7.18,4.92,14.51,0,13-14.18,13-14.18,4.38-12.25,18.75-9.49L1176.1,525s12.22,37.13-17.12,48.47C1159,573.44,1107.13,586.46,1112.68,539.15Z"/><path class="cls-17" d="M1132.08,630.42l-5.71,83.14s-6.52,26.9-35.05,35.87l-45.64,1.75v34.12H1097s35.9-8.45,47.85-31.23a50.43,50.43,0,0,1,5.62-8.39c4.27-5.24,11.19-19.32,11.75-55.75v-59.5Z"/><polygon class="cls-18" points="763.34 425.44 760.13 470.69 789.84 470.69 786.62 425.44 763.34 425.44"/><path class="cls-15" d="M780.38,338.18s-8,22.78,15.26,39.34c0,0,24.09,17.16,0,42.4,0,0-29.71,13.51-46.57-5.13,0,0-14.45-10.16-5.62-33.38C743.45,381.41,754.69,353.36,780.38,338.18Z"/><path class="cls-19" d="M805.92,393.42s-7.07,4.16-14.29,0-12.85-12-12.85-12-4.32-10.37-18.47-8l-16.86,8s-12,31.44,16.86,41C760.31,422.45,811.38,433.47,805.92,393.42Z"/><path class="cls-20" d="M760.13,470.69l-5.62,70.4s-6.42,22.78-34.53,30.37H702.42l.31,30.37H725.6s35.66-7.21,47.28-26.69a30.76,30.76,0,0,1,4.91-6.37c4.14-4,8.21-16.16,12-47.69V470.69Z"/><path class="cls-15" d="M845.61,894.57V862.14S840,818.3,864.16,802.41c0,0,5-5.3,20.12-8.74h72.55s15.49-1.17,23.64-26.72V538.43l31.79-78.25,33.42,76.62V766.95s.82,51.06-46.46,78.78c0,0-28.53,13-35.87,13.86l-78.25.82s-8.15,7.5-6.52,18.83l-.82,15.34Z"/><polygon class="cls-21" points="1001.09 487.66 1024.24 487.66 1012.26 460.17 1001.09 487.66"/><path class="cls-15" d="M980.47,538.43s16.56-22.82,24.17,8.7l-.27,216.56s-2.72,39.67-44,52.44H878.83s-26.82-.62-33.22,53.08v25.36h0V858.34S834,805.44,884.28,793.67h72.55s13.87.45,23.64-26.72Z"/><path class="cls-22" d="M1004.64,547.13s4.35-17.88,11.41-16.68,10.6,14.78,10.6,14.78l-.54,220.91s-4.89,35.32-23.1,49.18c0,0-11.68,16.85-42.12,23.91H882.64s-19.29.82-23.37,29.35v26H845.61V869.21s0-44,33.22-53.08h81.52s39.67-10.6,44-52.44Z"/><path class="cls-15" d="M1026.65,545.23s3.26-16.13,10.05-14.78,9,6.35,9,6.35V766.95s2.59,74.4-82.33,92.64l-78.25.82s-5.71,3.49-6.52,18.83l-.82,15.34H859.27v-26s5.16-29.35,23.37-29.35h78.26s60.87-13,65.21-73.09Z"/><path class="cls-15" d="M845.61,894.57V729.24s-11.16-40.44-40.45-48.39c0,0-6.28-3.13-20.22-5.21H722.88s-13.25-.95-20.22-21.73V468.07l-27.2-63.64-28.59,62.31V653.91s-.7,41.53,39.75,64.06c0,0,24.41,10.61,30.68,11.27l66.94.66s7,6.1,5.58,15.31l.7,149.35Z"/><polygon class="cls-21" points="685.02 426.79 665.21 426.79 675.46 404.44 685.02 426.79"/><path class="cls-15" d="M702.66,468.07s-14.17-18.56-20.68,7.08l.23,176.11s2.32,32.26,37.66,42.65h69.74s29.75,0,36.26,43.53V894.57h19.74V729.24s-9.54-49.33-60.67-53.6H722.88S711,676,702.66,653.91Z"/><path class="cls-23" d="M682,475.15s-3.72-14.54-9.76-13.57-9.07,12-9.07,12l.46,179.65s4.18,28.73,19.76,40c0,0,10,13.7,36,19.45h66.95s16.5.66,20,23.86v158h19.53V737.44s-2.79-39.11-36.26-43.53H719.87s-33.94-8.62-37.66-42.65Z"/><path class="cls-15" d="M663.15,473.6s-2.79-13.12-8.6-12-7.68,5.17-7.68,5.17V653.91s-2.22,60.5,70.43,75.33l66.94.66s4.88,2.84,5.58,15.31l.7,149.35h15.82v-158s-4.42-23.86-20-23.86H719.41s-52.07-10.61-55.79-59.44Z"/><path class="cls-15" d="M963.51,717.22l17-.12V705.18c0-11.15-.67-22.43-.26-33.58-.87-.14-15.43-.32-16.38-.45H908.12s-11.89-.8-18.15-18.34V495.94l-24.41-53.71-25.66,52.59v158s-.63,35.05,35.68,54.07c0,0,21.91,9,27.54,9.51l60.09.56Z"/><polygon class="cls-21" points="874.13 461.1 856.35 461.1 865.56 442.23 874.13 461.1"/><path class="cls-15" d="M965.54,671.3c-18.68.06-36.73.06-55.24.06a15.42,15.42,0,0,1-11.57-4.59c-.46-.92-1.39-1.38-2.31-2.29A40.57,40.57,0,0,1,889.94,653V496.14c-2.31-3.67-6.94-6.88-11.11-5-4.17,1.38-6,6-7.4,10.09V650.72c1.39,8.26,4.63,16.05,10.64,22.48,6.48,6.42,14.35,11.47,23.6,13.3,20.36,0,53.92,0,74.12.11"/><path class="cls-24" d="M979.06,686.6l-73.64,0s-30.46-7.27-33.8-36l-.21-148.65s-3.34-12.27-8.76-11.45-8.14,10.15-8.14,10.15l.42,151.63s3.76,24.25,17.74,33.76c0,0,9,11.56,32.34,16.41l73.61,0"/><path class="cls-15" d="M980.49,702.58c-20.43,0-54.91,0-75.27,0-4.63-1.83-9.72-2.29-14.35-5-1.39-.46-2.78-.46-4.17-1.38L879.76,692a63.36,63.36,0,0,1-13.42-11.47,58.4,58.4,0,0,1-6-8.72c-.46-.46,0-1.38-.46-1.83a32.38,32.38,0,0,1-4.63-17c-1.39-51.37.46-102.75-1.39-154.12a9.61,9.61,0,0,0-2.31-6c-3.24-3.67-9.26-2.29-11.57,1.83v163.3c1.85,8.72,3.7,17.43,8.79,25.23l1.39,1.38A50.19,50.19,0,0,0,861.25,698a95.84,95.84,0,0,0,20.83,12.38c6.48,2.29,13,5,19.44,5.5,20.36,1.38,41.19,1.38,61.69,1.1"/><path class="cls-15" d="M1167.69,723.68c-1.45,0-1.86,0-3.31,0l1.68-14.61c0-13.22,1.68-27.16,1.29-40.38,0-.26-.13.22,0,0s.61.06,1.45-.07l30.69-.37s13.12-1,20-22.06V457.55l26.93-64.6,28.32,63.25v190s.69,42.15-39.37,65c0,0-24.17,10.77-30.39,11.44l-40.63,1S1167.89,723.47,1167.69,723.68Z"/><polygon class="cls-21" points="1236.99 415.63 1256.61 415.63 1246.45 392.95 1236.99 415.63"/><path class="cls-25" d="M1167.51,686.85l35,0s33.61-8.75,37.3-43.29l.23-178.78s3.68-14.76,9.67-13.77,9,12.2,9,12.2l-.46,182.36s-4.14,29.16-19.57,40.6c0,0-9.9,13.91-35.68,19.74l-36.18.2"/><path class="cls-15" d="M1168.8,668.62c20.61.07,7.86-.11,28.28-.11a16.3,16.3,0,0,0,12.77-5.52c.51-1.1,1.53-1.65,2.55-2.76a50.14,50.14,0,0,0,7.15-13.79V457.78c2.55-4.41,7.66-8.27,12.26-6.07,4.6,1.65,6.64,7.17,8.17,12.14V643.69c-1.53,9.93-5.11,19.31-11.74,27-7.15,7.72-15.83,13.79-26,16-22.47,0-12.38,0-34.68.13"/><path class="cls-15" d="M1166.75,706.06c22.54,0,13.48,0,35.95,0,5.11-2.21,10.72-2.76,15.83-6.07,1.53-.55,3.06-.55,4.6-1.65l7.66-5a71.92,71.92,0,0,0,14.81-13.79,70.75,70.75,0,0,0,6.64-10.48c.51-.55,0-1.65.51-2.21a41.64,41.64,0,0,0,5.11-20.41c1.53-61.79-.51-123.57,1.53-185.36a12.17,12.17,0,0,1,2.55-7.17c3.57-4.41,10.21-2.76,12.77,2.21V652.51c-2,10.48-4.09,21-9.7,30.34l-1.53,1.65a59.47,59.47,0,0,1-12.26,16,104.28,104.28,0,0,1-23,14.89c-7.15,2.76-14.3,6.07-21.45,6.62-22.47,1.65-14.54,1.83-37.16,1.49"/><path class="cls-26" d="M891.45,616.61s21.74,1.09,29.35-25l6-84.23L928.14,484s-1.09-8.7-2.17-9.51-6.25-16.3-17.93-22.82V395.16h55.16v55.16S949.87,460.37,945.53,475c0,0-2.17,5.71-1.9,9.51,0,0-.82,19.56.82,23.1l4.35,84.78s-3.8,47.82-57.33,52.17Z"/><rect class="cls-27" x="908.03" y="395.16" width="55.16" height="51.08"/><rect class="cls-15" x="908.03" y="427.77" width="55.16" height="18.48"/><path class="cls-28" d="M561.07,464.27,554.55,419s15.58-3.62,16.67-43.48h6.52s-2.54,30.43,14.85,44.38l-4,44.38Z"/><rect class="cls-15" x="573.57" y="436.37" width="1.63" height="27.9"/><circle class="cls-15" cx="574.39" cy="430.94" r="5.43"/><path class="cls-29" d="M556.73,464.27h35.87l-1.81,7.61h5.07s-3.62,14.13-3.26,19.56,0,33,0,33,7.25,50.72,9.06,55.43c0,0,4,49.63,6.88,61.59,0,0,1.81,14.13,14.13,22.1h18.89a4.8,4.8,0,0,1,4.75,4c1.65,10.45,9.24,38.64,44,54.05l-68.32.6s-38.77-1.09-56.52-35.14c0,0-12.68-18.84-15.58-69.92,0,0,5.43-77.89,6.88-80.79l-.36-44.2s-.72-16.67-4-19.93l6.16-.36Z"/></g><g id="Layer_3" data-name="Layer 3"><text class="cls-30" transform="translate(633.62 1095.16)">KALAKRITI</text><path class="cls-31" d="M1142,990.59V1154c0,3.86,6,3.87,6,0V990.59c0-3.86-6-3.87-6,0Z"/><path class="cls-31" d="M1024.17,1121.48h163.42c3.86,0,3.87-6,0-6H1024.17c-3.86,0-3.87,6,0,6Z"/><line class="cls-32" x1="967.33" y1="1136.24" x2="1130.75" y2="1136.24"/><path class="cls-32" d="M967.33,1139.24h163.42c3.86,0,3.87-6,0-6H967.33c-3.86,0-3.87,6,0,6Z"/></g></svg>