<svg id="Layer_1" data-name="Layer 1" xmlns="http://www.w3.org/2000/svg" viewBox="0 0 595.28 841.89"><defs><style>.cls-1{fill:#edece8;}.cls-14,.cls-2{fill:#de2c93;}.cls-3{fill:#b6df3e;}.cls-4{fill:#c1e1ca;}.cls-5{fill:#ff0500;}.cls-6{fill:#b5e0d9;}.cls-7{fill:#cfd6d4;}.cls-8{fill:#e8f6ed;}.cls-9{fill:#f2bd3c;}.cls-10{fill:#74898e;}.cls-11{fill:#160137;}.cls-12,.cls-16,.cls-17,.cls-18{fill:none;}.cls-12{stroke:#cfd6d4;stroke-linecap:round;stroke-linejoin:round;stroke-width:10px;}.cls-13,.cls-19{fill:#8e0151;}.cls-14{opacity:0.48;}.cls-15{opacity:0.7;}.cls-16{stroke:#ff0500;stroke-width:2px;}.cls-16,.cls-17,.cls-18{stroke-miterlimit:10;}.cls-17{stroke:#f2bd3c;}.cls-17,.cls-18{stroke-width:3px;}.cls-18{stroke:#b6df3e;}.cls-19{font-size:60px;font-family:CaviarDreams-Bold, Caviar Dreams;font-weight:700;}.cls-20{letter-spacing:-0.04em;}</style></defs><title>Artboard 9</title><path class="cls-1" d="M245.32,133.47s64.61,51.59,131.8,55.56,74.95,23.81,74.95,23.81,25.84,15.87,43.93,0,38.76,29.76,38.76,29.76,20.67,61.51-33.6,31.75S508.92,318,508.92,318s46.5-6,29.71,25.8,14.22,49.61,14.22,49.61,28.43,27.78-15.51,35.72-69.78,37.7-69.78,37.7,36.18-45.64-10.34-55.56-134.38,6-134.38,6L307.34,443S263.41,449,204,403.33,123.85,294.19,74.75,300.15,129,228.71,129,228.71s-33.6-57.54,28.43-75.4S245.32,133.47,245.32,133.47Z"/><path class="cls-2" d="M440.57,272.49c22.78,0,45.56-.1,68.33.18,1.94,0,3.86,2.52,5.79,3.86-1.71,1.64-3.18,4.14-5.2,4.73-2.92.85-6.25.36-9.4.37q-61.78,0-123.55,0a53.63,53.63,0,0,0-10.93,1.08c-10.36,2.19-16.44,9.77-16.13,19.62.3,9.61,7.18,17,17.58,18.44,4.84.66,9.76.7,14.66.88,3.06.11,5.62,1.27,4.89,4.48-.37,1.62-3.09,3.75-4.83,3.83-9.24.39-18.6.83-27-4.48-10.64-6.77-16.32-18.39-14-28.82,2.73-12.15,13.07-21.93,25.65-23,10.62-.89,21.34-.78,32-.88,14-.13,28,0,42.06,0Z"/><path class="cls-2" d="M472.18,220.95c11.92,0,23.86-.35,35.76.1,11,.42,20.42,4.78,27.07,13.91,9.46,13,5.59,32.36-8.23,40.32-1.72,1-4.65-.13-7-.27.62-2.24.51-5.45,2-6.57,7.78-5.9,11.41-13.16,8.93-22.84-2.14-8.36-10.16-15-20.43-15.48-16.44-.77-32.93-.66-49.4-.86-7.71-.09-15.43.07-23.14-.09-3.26-.07-7.93,1.16-7.78-4.34s4.85-4,8.06-4c11.39-.14,22.79-.06,34.19-.06Z"/><path class="cls-3" d="M337,149.16v13.5a1.5,1.5,0,0,0,3,0v-13.5a1.5,1.5,0,0,0-3,0Z"/><path class="cls-3" d="M331.2,157.7h14.38a1.5,1.5,0,0,0,0-3H331.2a1.5,1.5,0,0,0,0,3Z"/><path class="cls-4" d="M523.19,424.62c-.72,13.32-20,13.32-20.67,0-.31-5.85,4.95-10,10.34-10.34,5.85-.31,10,4.95,10.34,10.34.1,1.92,3.1,1.93,3,0-.92-17.18-25.75-17.18-26.67,0-.41,7.53,6.4,13,13.34,13.34,7.53.41,13-6.4,13.34-13.34C526.29,422.69,523.29,422.7,523.19,424.62Z"/><circle class="cls-5" cx="267.55" cy="161.52" r="3.95"/><path class="cls-6" d="M410.06,157.46a7.86,7.86,0,0,1-10.2-10.92c3.78-7.28,14.13-3.36,14.52,3.93.1,1.92,3.1,1.93,3,0-.52-9.73-13.65-15.29-19.59-6.25-6.23,9.49,3.72,20.25,13.78,15.82,1.77-.78.24-3.36-1.51-2.59Z"/><ellipse class="cls-7" cx="310.06" cy="513.02" rx="183.85" ry="8.65"/><polygon class="cls-8" points="139.4 258.07 213.47 254.63 241.89 212.43 361.6 214.15 392.6 253.77 470.97 259.8 476.14 446.68 459.78 463.9 159.21 461.32 138.54 457.01 131.65 449.26 129.07 285.63 139.4 258.07"/><path id="_Path_" data-name="&lt;Path&gt;" class="cls-9" d="M462.94,262.28C484.81,270.19,437,482,207.7,469.21H412.12a65.14,65.14,0,0,0,64.5-56h0a65.14,65.14,0,0,0,.62-10.56l-2.33-104.13a65.14,65.14,0,0,0-11.65-35.74Z"/><path id="_Path_2" data-name="&lt;Path&gt;" class="cls-10" d="M462.95,260.66c22.78,7.35-27,204.2-265.83,192.33H410c33.8,0,62.45-22.21,67.17-52.08h0a54.12,54.12,0,0,0,.65-9.82l-2.42-96.78a56.25,56.25,0,0,0-12.13-33.22Z"/><path id="_Path_3" data-name="&lt;Path&gt;" class="cls-3" d="M109.8,384.22l17.74,14.49a2.85,2.85,0,0,0,2.6.53l22-6.4a2.85,2.85,0,0,1,3.45,3.77L147.29,418a2.85,2.85,0,0,0,.3,2.64l12.89,18.94A2.85,2.85,0,0,1,158,444l-22.87-1.29a2.85,2.85,0,0,0-2.41,1.1l-14,18.11a2.85,2.85,0,0,1-5-1l-5.84-22.15a2.85,2.85,0,0,0-1.79-2L84.45,429a2.85,2.85,0,0,1-.58-5.08l19.26-12.4a2.85,2.85,0,0,0,1.31-2.31l.71-22.9A2.85,2.85,0,0,1,109.8,384.22Z"/><path id="_Path_4" data-name="&lt;Path&gt;" class="cls-9" d="M222.66,155.35l11.6,42.15a5.44,5.44,0,0,0,3.46,3.69L279,215.53a5.44,5.44,0,0,1,1.21,9.68l-36.5,24.06a5.44,5.44,0,0,0-2.44,4.43l-.87,43.71a5.44,5.44,0,0,1-8.83,4.14l-34.16-27.28a5.44,5.44,0,0,0-5-1L150.61,286a5.44,5.44,0,0,1-6.67-7.12L159.33,238a5.44,5.44,0,0,0-.63-5l-25-35.87a5.44,5.44,0,0,1,4.71-8.54l43.67,2a5.44,5.44,0,0,0,4.58-2.15l26.4-34.85A5.44,5.44,0,0,1,222.66,155.35Z"/><path id="_Path_5" data-name="&lt;Path&gt;" class="cls-2" d="M304.54,291.39a62.11,62.11,0,1,0,62,62.11A62.2,62.2,0,0,0,304.54,291.39Z"/><g id="_Group_" data-name="&lt;Group&gt;"><path class="cls-11" d="M485.83,274.78q0,82.87,0,165.74c0,16.58-12.75,29.23-29.41,29.23H302.79q-76.83,0-153.63,0c-16,0-29.18-13.46-28.74-29.2.14-4.73,3.42-8.12,8-8.23,4.8-.12,8.25,3.09,8.59,8,.58,8.39,5.24,12.85,13.56,12.85H455.74c8.52,0,13.5-5,13.5-13.58q0-82,0-164c0-8.52-5-13.44-13.64-13.44-22.6,0-45.21-.09-67.81.05-4.79,0-7.77-1.9-9.82-6.08-5.41-11.06-11-22-16.43-33.08a3.71,3.71,0,0,0-3.88-2.47q-54.5.09-109,0a3.72,3.72,0,0,0-3.92,2.41c-5.31,10.84-10.9,21.56-16.12,32.45-2.27,4.73-5.42,6.84-10.78,6.8-22.14-.2-44.29-.09-66.43-.09-9.72,0-14.4,4.68-14.4,14.43q0,65,0,130.1c0,5.3-2.84,8.78-7.39,9.15-5.55.46-9.18-3.1-9.18-9.08q0-40.65,0-81.31c0-16.85,0-33.68,0-50.52,0-16.68,12.66-29.34,29.28-29.37,20.53,0,41.06-.08,61.59.08,2.76,0,4-.91,5.18-3.26,5.31-10.87,10.83-21.62,16.16-32.47,2-4.06,4.85-6,9.53-5.94q60.72.17,121.45,0c4.89,0,8,1.8,10.1,6.16,5.36,11,11,21.79,16.33,32.76,1,2.11,2.19,2.74,4.45,2.72,20.64-.09,41.29-.06,61.93,0C473.1,245.55,485.82,258.18,485.83,274.78Z"/><path class="cls-11" d="M303.28,278.76a74.74,74.74,0,1,1-.65,149.47c-41-.09-74.25-33.67-74.24-74.89A74.68,74.68,0,0,1,303.28,278.76Zm58,74.74a58.14,58.14,0,1,0-58.41,58.14A58.25,58.25,0,0,0,361.27,353.5Z"/></g><line id="_Path_6" data-name="&lt;Path&gt;" class="cls-12" x1="295.69" y1="243.52" x2="347.61" y2="243.52"/><path class="cls-2" d="M298.58,308.41s-36.77,2.88-37.49,41.82"/><path class="cls-7" d="M299.57,302.55c-7.91,1.33-15.74,5.25-22.24,9.78-14.64,10.21-22.49,26.14-24.66,43.58-.48,3.83,5.53,3.79,6,0,2.83-22.68,19.1-43.65,42.5-47.58,3.81-.64,2.19-6.42-1.6-5.79Z"/><ellipse class="cls-13" cx="320.26" cy="393.71" rx="11.2" ry="5.6"/><ellipse class="cls-7" cx="310.79" cy="388.12" rx="6.46" ry="3.23"/><path class="cls-3" d="M354.05,290.81c.58.42-.45-.36,0,0s.92.74,1.38,1.13c1.74,1.47,3.39,3.05,5,4.68A82.31,82.31,0,0,1,374,315.17c12.42,23,10.55,49.67.54,73.16-1.5,3.52,3.67,6.58,5.18,3,10.74-25.19,12.72-52.6.32-77.55-5.28-10.63-13.25-21.13-22.93-28.18-3.13-2.28-6.12,2.93-3,5.18Z"/><line id="_Path_7" data-name="&lt;Path&gt;" class="cls-12" x1="276.34" y1="243.43" x2="280.88" y2="243.43"/><path class="cls-3" d="M151.26,137.82c22.78,0,45.56-.1,68.33.18,1.94,0,3.86,2.52,5.79,3.86-1.71,1.64-3.18,4.14-5.2,4.73-2.92.85-6.25.36-9.4.37Q149,147,87.23,147a53.63,53.63,0,0,0-10.93,1.08c-10.36,2.19-16.44,9.77-16.13,19.62.3,9.61,7.18,17,17.58,18.44,4.84.66,9.76.7,14.66.88,3.06.11,5.62,1.27,4.89,4.48-.37,1.62-3.09,3.75-4.83,3.83-9.24.39-18.6.83-27-4.48-10.64-6.77-16.32-18.39-14-28.82,2.73-12.15,13.07-21.93,25.65-23,10.62-.89,21.34-.78,32-.88,14-.13,28,0,42.06,0Z"/><path class="cls-3" d="M182.87,86.29c11.92,0,23.86-.35,35.76.1,11,.42,20.42,4.78,27.07,13.91,9.46,13,5.59,32.36-8.23,40.32-1.72,1-4.65-.13-7-.27.62-2.24.51-5.45,2-6.57,7.78-5.9,11.41-13.16,8.93-22.84-2.14-8.36-10.16-15-20.43-15.48-16.44-.77-32.93-.66-49.4-.86-7.71-.09-15.43.07-23.14-.09-3.26-.07-7.93,1.16-7.78-4.34s4.85-4,8.06-4c11.39-.14,22.79-.06,34.19-.06Z"/><path class="cls-9" d="M513.11,363.24a6.39,6.39,0,0,1-8.28-8.88c3.07-5.92,11.49-2.73,11.81,3.2.1,1.92,3.1,1.93,3,0-.45-8.44-11.82-13.2-17-5.38-5.4,8.22,3.26,17.48,11.94,13.66,1.77-.78.24-3.36-1.51-2.59Z"/><path class="cls-2" d="M100,247.44c-.36,6.66-10,6.66-10.33,0s10-6.62,10.33,0c.1,1.92,3.1,1.93,3,0a8.35,8.35,0,0,0-8.16-8.16c-4.61-.25-7.93,3.92-8.16,8.16-.25,4.61,3.92,7.93,8.16,8.16,4.61.25,7.93-3.92,8.16-8.16C103.1,245.5,100.1,245.51,100,247.44Z"/><path class="cls-3" d="M509.57,250.24v13.5a1.5,1.5,0,0,0,3,0v-13.5a1.5,1.5,0,0,0-3,0Z"/><path class="cls-3" d="M503.73,258.79h14.38a1.5,1.5,0,0,0,0-3H503.73a1.5,1.5,0,0,0,0,3Z"/><path class="cls-3" d="M101.37,329.33v13.5a1.5,1.5,0,0,0,3,0v-13.5a1.5,1.5,0,0,0-3,0Z"/><path class="cls-3" d="M95.54,337.87h14.38a1.5,1.5,0,0,0,0-3H95.54a1.5,1.5,0,0,0,0,3Z"/><path class="cls-9" d="M78,397.38a6.39,6.39,0,0,1-8.28-8.88c3.07-5.92,11.49-2.73,11.81,3.2.1,1.92,3.1,1.93,3,0-.45-8.44-11.82-13.2-17-5.38-5.4,8.22,3.26,17.48,11.94,13.66,1.77-.78.24-3.36-1.51-2.59Z"/><circle class="cls-2" cx="106.76" cy="476.44" r="5.41"/><circle class="cls-3" cx="507.24" cy="310.21" r="4.09"/><path class="cls-2" d="M397.77,187.42l-7.12,11.47c-1,1.65,1.57,3.15,2.59,1.51l7.12-11.47c1-1.65-1.57-3.15-2.59-1.51Z"/><path class="cls-2" d="M388.36,191.58l12.21,7.59c1.65,1,3.15-1.57,1.51-2.59L389.88,189c-1.65-1-3.15,1.57-1.51,2.59Z"/><path class="cls-4" d="M72.69,211.72l-7.12,11.47c-1,1.65,1.57,3.15,2.59,1.51l7.12-11.47c1-1.65-1.57-3.15-2.59-1.51Z"/><path class="cls-4" d="M63.28,215.88l12.21,7.59c1.65,1,3.15-1.57,1.51-2.59l-12.21-7.59c-1.65-1-3.15,1.57-1.51,2.59Z"/><path class="cls-3" d="M497.72,456.74l-7.12,11.47c-1,1.65,1.57,3.15,2.59,1.51l7.12-11.47c1-1.65-1.57-3.15-2.59-1.51Z"/><path class="cls-3" d="M488.31,460.91l12.21,7.59c1.65,1,3.15-1.57,1.51-2.59l-12.21-7.59c-1.65-1-3.15,1.57-1.51,2.59Z"/><path class="cls-14" d="M475.46,212.42c12.6,0,25.22-.43,37.81.12,11.62.51,21.59,5.79,28.62,16.84,10,15.72,5.91,39.15-8.7,48.78-1.82,1.2-4.91-.15-7.42-.32.66-2.71.54-6.59,2.1-7.94,8.22-7.14,12.07-15.92,9.44-27.63a23.64,23.64,0,0,0-21.6-18.73c-17.38-.94-34.81-.8-52.22-1-8.15-.11-16.31.08-24.47-.11-3.45-.08-8.39,1.4-8.22-5.25s5.13-4.82,8.52-4.87c12-.17,24.1-.07,36.15-.07Z"/><g id="_Group_2" data-name="&lt;Group&gt;" class="cls-15"><path class="cls-3" d="M165.67,103.85h37.87c3.87,0,3.87-6,0-6H165.67c-3.87,0-3.87,6,0,6Z"/></g><path class="cls-16" d="M477.23,193l-4.49,7.22"/><path class="cls-16" d="M484.81,180.81l-4.57,7.36"/><path class="cls-16" d="M481.78,193l6.87,4.26"/><path class="cls-16" d="M468,184.39l7.48,4.64"/><path class="cls-17" d="M135.2,493.26l-5.65,9.09"/><path class="cls-17" d="M144.75,477.89,139,487.16"/><path class="cls-17" d="M140.94,493.21l8.64,5.37"/><path class="cls-17" d="M123.53,482.4l9.41,5.85"/><path class="cls-17" d="M134.11,491.16l-10.34,2.75"/><path class="cls-17" d="M151.59,486.51l-10.54,2.81"/><path class="cls-17" d="M138.32,495.06l2.62,9.83"/><path class="cls-17" d="M133.05,475.25,135.9,486"/><path class="cls-18" d="M541.36,318.57l-5.65,9.09"/><path class="cls-18" d="M550.9,303.2l-5.75,9.27"/><path class="cls-18" d="M547.09,318.52l8.64,5.37"/><path class="cls-18" d="M529.68,307.71l9.41,5.85"/><path class="cls-18" d="M540.27,316.47l-10.34,2.75"/><path class="cls-18" d="M557.75,311.82l-10.54,2.81"/><path class="cls-18" d="M544.48,320.37l2.62,9.83"/><path class="cls-18" d="M539.21,300.56l2.85,10.71"/><path class="cls-16" d="M542.31,403.84l-4.49,7.22"/><path class="cls-16" d="M549.89,391.64,545.32,399"/><path class="cls-16" d="M546.87,403.81l6.87,4.26"/><path class="cls-16" d="M533,395.21l7.48,4.64"/><path class="cls-16" d="M68,290.86l-4.49,7.22"/><path class="cls-16" d="M75.56,278.65,71,286"/><path class="cls-16" d="M72.54,290.82l6.87,4.26"/><path class="cls-16" d="M58.7,282.23l7.48,4.64"/><text class="cls-19" transform="translate(151 602.88)">LENS<tspan class="cls-20" x="135.18" y="0">A</tspan><tspan x="173.35" y="0">TION</tspan></text><path class="cls-11" d="M479,544v92c0,3.87,6,3.87,6,0V544c0-3.87-6-3.87-6,0Z"/><path class="cls-11" d="M414,619h92c3.87,0,3.87-6,0-6H414c-3.87,0-3.87,6,0,6Z"/><path class="cls-2" d="M382,629h92c3.87,0,3.87-6,0-6H382c-3.87,0-3.87,6,0,6Z"/></svg>