<svg xmlns="http://www.w3.org/2000/svg" viewBox="0 0 1728 1296"><defs><style>.cls-1{fill:#edece8;}.cls-2{fill:#b6df3e;}.cls-3{fill:#c1e1ca;}.cls-4{fill:#ff0500;}.cls-5{fill:#b5e0d9;}.cls-6{fill:#cfd6d4;}.cls-7{fill:#f2bd3c;}.cls-8,.cls-9{fill:#de2c93;}.cls-9{opacity:0.48;}.cls-10{opacity:0.7;}.cls-11,.cls-12,.cls-13{fill:none;}.cls-11{stroke:#ff0500;stroke-width:2px;}.cls-11,.cls-12,.cls-13,.cls-14{stroke-miterlimit:10;}.cls-12{stroke:#f2bd3c;}.cls-12,.cls-13{stroke-width:3px;}.cls-13{stroke:#b6df3e;}.cls-14{fill:#ffb794;stroke:#55004e;stroke-width:9px;}.cls-15,.cls-16{fill:#ff6a6a;}.cls-16{font-size:97.16px;font-family:CaviarDreams-Bold, Caviar Dreams;font-weight:700;}.cls-17{letter-spacing:-0.06em;}.cls-18{fill:#160137;}</style></defs><title>Artboard 6</title><g id="Layer_1" data-name="Layer 1"><path class="cls-1" d="M706.09,136.31S848,249.6,995.51,258.31s164.58,52.29,164.58,52.29,56.75,34.86,96.48,0S1341.69,376,1341.69,376s45.4,135.08-73.78,69.72,17,95.86,17,95.86,102.1-13.07,65.24,56.65,31.24,108.93,31.24,108.93,62.43,61-34.05,78.43-153.23,82.79-153.23,82.79,79.45-100.22-22.7-122-295.1,13.07-295.1,13.07l-34.05,56.65s-96.48,13.07-227-87.15S439.36,489.25,331.54,502.32,450.71,345.46,450.71,345.46,376.94,219.1,513.14,179.88,706.09,136.31,706.09,136.31Z"/><path class="cls-2" d="M909.28,170.77v29.64a1.5,1.5,0,0,0,3,0V170.77a1.5,1.5,0,0,0-3,0Z"/><path class="cls-2" d="M894.67,187.74h31.57a1.5,1.5,0,0,0,0-3H894.67a1.5,1.5,0,0,0,0,3Z"/><path class="cls-3" d="M1318.06,775.67c-.35,13.36-10.88,24.46-24.49,24.49a24.49,24.49,0,1,1,0-49c13.61,0,24.14,11.15,24.49,24.49.05,1.93,3.05,1.93,3,0a27.48,27.48,0,0,0-48.65-17.53c-15.93,19.18,1.13,48.64,25.64,44.64,13.36-2.18,22.66-13.83,23-27.12C1321.11,773.73,1318.11,773.74,1318.06,775.67Z"/><circle class="cls-4" cx="754.9" cy="197.91" r="8.66"/><path class="cls-5" d="M1068.76,190.54c-17.09,7.92-35.11-11.48-24.15-27.54,10.48-15.35,33.93-7.26,34.53,10.65.06,1.93,3.07,1.93,3,0-.7-20.87-28.05-30.09-40.12-12.17a22.09,22.09,0,0,0,1,25.7c6.59,8.39,17.79,10.33,27.25,5.95,1.75-.81.23-3.4-1.51-2.59Z"/><ellipse class="cls-6" cx="848.26" cy="969.79" rx="403.73" ry="19"/><path id="_Path_" data-name="&lt;Path&gt;" class="cls-2" d="M408.49,687l39,31.81a6.26,6.26,0,0,0,5.71,1.16l48.3-14.06a6.26,6.26,0,0,1,7.58,8.28L490.82,761a6.26,6.26,0,0,0,.66,5.79l28.29,41.59a6.26,6.26,0,0,1-5.53,9.77L464,815.34a6.26,6.26,0,0,0-5.3,2.42l-30.81,39.76a6.26,6.26,0,0,1-11-2.24L404.1,806.64a6.26,6.26,0,0,0-3.93-4.29l-47.34-17a6.26,6.26,0,0,1-1.27-11.15L393.86,747a6.26,6.26,0,0,0,2.87-5.07l1.55-50.28A6.26,6.26,0,0,1,408.49,687Z"/><path class="cls-7" d="M1295.06,642.42c-14.26,6.48-29.3-9.65-19.95-23,8.84-12.65,28-5.73,28.59,9,.07,1.92,3.07,1.93,3,0-.68-17.66-23.79-25.79-34.18-10.51a18.89,18.89,0,0,0,1,22.33c5.7,7,15.07,8.43,23.07,4.8,1.76-.8.23-3.38-1.51-2.59Z"/><path class="cls-8" d="M388.77,386.58c-.32,7.15-5.73,13.13-13.13,13.13a13.13,13.13,0,1,1,0-26.26c7.4,0,12.81,6,13.13,13.13.09,1.92,3.09,1.93,3,0-.39-8.77-7.06-16.13-16.13-16.13a16.13,16.13,0,1,0,0,32.26c9.06,0,15.74-7.4,16.13-16.13C391.86,384.65,388.86,384.66,388.77,386.58Z"/><path class="cls-2" d="M1288.16,392.74v29.64a1.5,1.5,0,0,0,3,0V392.74a1.5,1.5,0,0,0-3,0Z"/><path class="cls-2" d="M1273.55,409.71h31.57a1.5,1.5,0,0,0,0-3h-31.57a1.5,1.5,0,0,0,0,3Z"/><path class="cls-2" d="M391.79,566.4V596a1.5,1.5,0,0,0,3,0V566.4a1.5,1.5,0,0,0-3,0Z"/><path class="cls-2" d="M377.18,583.37h31.57a1.5,1.5,0,0,0,0-3H377.18a1.5,1.5,0,0,0,0,3Z"/><path class="cls-7" d="M339.58,717.38c-14.26,6.48-29.3-9.65-19.95-23,8.84-12.65,28-5.73,28.59,9,.07,1.92,3.07,1.93,3,0-.68-17.66-23.79-25.79-34.18-10.51a18.89,18.89,0,0,0,1,22.33c5.7,7,15.07,8.43,23.07,4.8,1.76-.8.23-3.38-1.51-2.59Z"/><circle class="cls-8" cx="401.82" cy="889.44" r="11.87"/><circle class="cls-2" cx="1281.25" cy="524.43" r="8.98"/><path class="cls-8" d="M1042.42,255.68l-15.64,25.18c-1,1.64,1.57,3.15,2.59,1.51L1045,257.2c1-1.64-1.57-3.15-2.59-1.51Z"/><path class="cls-8" d="M1021.11,262.37,1047.93,279c1.64,1,3.15-1.57,1.51-2.59l-26.82-16.66c-1.64-1-3.15,1.57-1.51,2.59Z"/><path class="cls-3" d="M328.55,309.05l-15.64,25.18c-1,1.64,1.57,3.15,2.59,1.51l15.64-25.18c1-1.64-1.57-3.15-2.59-1.51Z"/><path class="cls-3" d="M307.25,315.74l26.82,16.66c1.64,1,3.15-1.57,1.51-2.59l-26.82-16.66c-1.64-1-3.15,1.57-1.51,2.59Z"/><path class="cls-2" d="M1261.89,847.1l-15.64,25.18c-1,1.64,1.57,3.15,2.59,1.51l15.64-25.18c1-1.64-1.57-3.15-2.59-1.51Z"/><path class="cls-2" d="M1240.58,853.79l26.82,16.66c1.64,1,3.15-1.57,1.51-2.59L1242.1,851.2c-1.64-1-3.15,1.57-1.51,2.59Z"/><path class="cls-8" d="M1256,357.72c50,0,100-.22,150.06.38,4.27.05,8.47,5.53,12.71,8.49-3.76,3.61-7,9.09-11.42,10.38-6.42,1.87-13.72.8-20.64.8q-135.66,0-271.31.11a117.76,117.76,0,0,0-24,2.37c-22.74,4.81-36.11,21.45-35.43,43.08.66,21.11,15.77,37.38,38.61,40.49,10.62,1.44,21.44,1.55,32.18,1.92,6.73.24,12.33,2.8,10.73,9.84-.81,3.55-6.8,8.24-10.61,8.4-20.3.86-40.84,1.83-59.2-9.85-23.36-14.86-35.83-40.39-30.68-63.29,6-26.69,28.7-48.15,56.33-50.47,23.33-2,46.86-1.72,70.31-1.94,30.78-.29,61.57-.07,92.36-.07Z"/><path class="cls-8" d="M1325.4,244.54c26.18,0,52.39-.77,78.53.23,24.14.92,44.84,10.5,59.44,30.56,20.77,28.53,12.28,71.07-18.08,88.53-3.77,2.17-10.21-.28-15.41-.59,1.37-4.92,1.13-12,4.37-14.42,17.08-13,25.06-28.89,19.62-50.15-4.7-18.36-22.3-32.94-44.86-34-36.11-1.7-72.31-1.46-108.47-1.89-16.94-.2-33.88.15-50.82-.19-7.16-.14-17.42,2.55-17.08-9.54s10.66-8.74,17.69-8.83c25-.31,50-.12,75.07-.12Z"/><path class="cls-9" d="M1332.6,225.81c27.68,0,55.38-.93,83,.27,25.52,1.12,47.41,12.71,62.84,37,22,34.52,13,86-19.11,107.11-4,2.63-10.79-.34-16.29-.71,1.44-6,1.19-14.47,4.62-17.44,18.05-15.67,26.5-35,20.74-60.67-5-22.21-23.58-39.85-47.43-41.13-38.17-2.06-76.45-1.77-114.68-2.29-17.91-.25-35.82.18-53.73-.23-7.57-.17-18.41,3.08-18.05-11.54s11.27-10.58,18.71-10.69c26.45-.38,52.91-.15,79.37-.15Z"/><path class="cls-2" d="M427.78,233.81c50,0,100-.22,150.06.38,4.27.05,8.47,5.53,12.71,8.49-3.76,3.61-7,9.09-11.42,10.38-6.42,1.87-13.72.8-20.64.8q-135.66,0-271.31.11a117.76,117.76,0,0,0-24,2.37c-22.74,4.81-36.11,21.45-35.43,43.08.66,21.11,15.77,37.38,38.61,40.49,10.62,1.44,21.44,1.55,32.18,1.92,6.73.24,12.33,2.8,10.73,9.84-.81,3.55-6.8,8.24-10.61,8.4-20.3.86-40.84,1.83-59.2-9.85-23.36-14.86-35.83-40.39-30.68-63.29,6-26.69,28.7-48.15,56.33-50.47,23.33-2,46.86-1.72,70.31-1.94,30.78-.29,61.57-.07,92.36-.07Z"/><path class="cls-2" d="M497.19,120.64c26.18,0,52.39-.77,78.53.23,24.14.92,44.84,10.5,59.44,30.56C655.93,180,647.43,222.48,617.08,240c-3.77,2.17-10.21-.28-15.41-.59,1.37-4.92,1.13-12,4.37-14.42,17.08-13,25.06-28.89,19.62-50.15-4.7-18.36-22.3-32.94-44.86-34-36.11-1.7-72.31-1.46-108.47-1.89-16.94-.2-33.88.15-50.82-.19-7.16-.14-17.42,2.55-17.08-9.54s10.66-8.74,17.69-8.83c25-.31,50-.12,75.07-.12Z"/><g id="_Group_" data-name="&lt;Group&gt;" class="cls-10"><path class="cls-2" d="M459.44,155.62h83.17c3.86,0,3.87-6,0-6H459.44c-3.86,0-3.87,6,0,6Z"/></g><path class="cls-11" d="M1215.34,267.08l-9.85,15.86"/><path class="cls-11" d="M1232,240.28l-10,16.16"/><path class="cls-11" d="M1225.35,267l15.08,9.37"/><path class="cls-11" d="M1195,248.14l16.42,10.2"/><path class="cls-12" d="M464.28,926.39l-12.4,20"/><path class="cls-12" d="M485.24,892.65,472.6,913"/><path class="cls-12" d="M476.88,926.29l19,11.79"/><path class="cls-12" d="M438.65,902.54l20.67,12.84"/><path class="cls-12" d="M461.89,921.79l-22.71,6"/><path class="cls-12" d="M500.28,911.57l-23.15,6.16"/><path class="cls-12" d="M471.14,930.34l5.75,21.59"/><path class="cls-12" d="M459.56,886.85l6.26,23.51"/><path class="cls-13" d="M1401.55,576.32l-12.4,20"/><path class="cls-13" d="M1422.51,542.57l-12.64,20.35"/><path class="cls-13" d="M1414.15,576.21l19,11.79"/><path class="cls-13" d="M1375.91,552.47l20.67,12.84"/><path class="cls-13" d="M1399.16,571.71l-22.71,6"/><path class="cls-13" d="M1437.54,561.49l-23.15,6.16"/><path class="cls-13" d="M1408.41,580.27l5.75,21.59"/><path class="cls-13" d="M1396.83,536.77l6.26,23.51"/><path class="cls-11" d="M1358.26,730l-9.85,15.86"/><path class="cls-11" d="M1374.91,703.23l-10,16.16"/><path class="cls-11" d="M1368.27,730l15.08,9.37"/><path class="cls-11" d="M1337.89,711.09l16.42,10.2"/><path class="cls-11" d="M316.66,481.94l-9.85,15.86"/><path class="cls-11" d="M333.31,455.13l-10,16.16"/><path class="cls-11" d="M326.67,481.85l15.08,9.37"/><path class="cls-11" d="M296.3,463l16.42,10.2"/><path id="_Path_2" data-name="&lt;Path&gt;" class="cls-7" d="M1432.89,313.92l-6.73,89.61a11.18,11.18,0,0,0,4.14,9.55l70,56.34a11.18,11.18,0,0,1-4.36,19.57l-87.3,21.29a11.18,11.18,0,0,0-7.8,6.89l-32,84a11.18,11.18,0,0,1-20,1.9l-47.23-76.45a11.18,11.18,0,0,0-9-5.29L1203,516.89a11.18,11.18,0,0,1-8-18.4L1253.12,430a11.18,11.18,0,0,0,2.26-10.16l-23.52-86.73a11.18,11.18,0,0,1,15-13.27L1330,353.88a11.18,11.18,0,0,0,10.36-1l75.22-49.17A11.18,11.18,0,0,1,1432.89,313.92Z"/></g><g id="Layer_2" data-name="Layer 2"><path class="cls-14" d="M510.43,436h61.33V581.33H427.1V450.67s2.67-67.33,46.67-102c0,0,28.67-28.67,98-28.67v46.07S519.76,354,510.43,436Z"/><path id="_Path_3" data-name="&lt;Path&gt;" class="cls-15" d="M555.24,470.43c8.81,3.76-10.44,104.52-102.76,98.44h82.3c13.07,0,24.14-11.37,26-26.65h0a36.54,36.54,0,0,0,.25-5l-.94-49.54a34.94,34.94,0,0,0-4.69-17Z"/><path class="cls-14" d="M1157.1,786.36h-61.33V641h144.67V771.7s-2.67,67.33-46.67,102c0,0-28.67,28.67-98,28.67V856.3S1147.76,868.36,1157.1,786.36Z"/><path id="_Path_4" data-name="&lt;Path&gt;" class="cls-15" d="M1111.91,754.31c-10.13-3.91,12-108.6,118.22-102.28h-94.68c-15,0-27.77,11.81-29.87,27.69h0a34.33,34.33,0,0,0-.29,5.22l1.08,51.47a33.68,33.68,0,0,0,5.4,17.67Z"/><path class="cls-14" d="M983.48,786.36H922.15V641h144.67V771.7s-2.67,67.33-46.67,102c0,0-28.67,28.67-98,28.67V856.3S974.15,868.36,983.48,786.36Z"/><path id="_Path_5" data-name="&lt;Path&gt;" class="cls-15" d="M945,754.31c-9.27-3.91,11-108.6,108.13-102.28h-86.6c-13.75,0-25.4,11.81-27.32,27.69h0a37.5,37.5,0,0,0-.26,5.22l1,51.47a36,36,0,0,0,4.94,17.67Z"/><path class="cls-14" d="M684,436h61.33V581.33H600.71V450.67s2.67-67.33,46.67-102c0,0,28.67-28.67,98-28.67v46.07S693.38,354,684,436Z"/><path id="_Path_6" data-name="&lt;Path&gt;" class="cls-15" d="M724.66,466.58c9.37,3.91-11.11,108.6-109.36,102.28h87.59c13.91,0,25.69-11.81,27.63-27.69h0a37.08,37.08,0,0,0,.27-5.22l-1-51.47a35.65,35.65,0,0,0-5-17.67Z"/></g><g id="Layer_3" data-name="Layer 3"><text class="cls-16" transform="translate(434.78 1142.27)"><tspan class="cls-17">P</tspan><tspan x="48.11" y="0">ARADIGM SHIFT</tspan></text><path class="cls-18" d="M1198.08,1046.92v149c0,3.86,6,3.87,6,0v-149c0-3.86-6-3.87-6,0Z"/><path class="cls-18" d="M1091,1166.52h149c3.86,0,3.87-6,0-6H1091c-3.86,0-3.87,6,0,6Z"/><path class="cls-15" d="M1039.14,1182.72h149c3.86,0,3.87-6,0-6h-149c-3.86,0-3.87,6,0,6Z"/></g></svg>