<svg id="Layer_1" data-name="Layer 1" xmlns="http://www.w3.org/2000/svg" xmlns:xlink="http://www.w3.org/1999/xlink" viewBox="0 0 800 800"><defs><style>.cls-1,.cls-12,.cls-13,.cls-14,.cls-8{fill:none;}.cls-2{fill:#eaeae9;}.cls-10,.cls-3{fill:#da4f9b;}.cls-4{fill:#c0d860;}.cls-5{fill:#bfddd6;}.cls-6{fill:#ec1e24;}.cls-7{fill:#b0dce4;}.cls-8{stroke:#ccd5da;stroke-linecap:round;stroke-linejoin:round;}.cls-16,.cls-8{stroke-width:10px;}.cls-9{fill:#f1c05e;}.cls-10{opacity:0.48;}.cls-11{opacity:0.7;}.cls-12{stroke:#ec1e24;stroke-width:2px;}.cls-12,.cls-13,.cls-14,.cls-16{stroke-miterlimit:10;}.cls-13{stroke:#f1c05e;}.cls-13,.cls-14{stroke-width:3px;}.cls-14{stroke:#c0d860;}.cls-15,.cls-16{fill:#fff;}.cls-16{stroke:#000bac;}.cls-17{clip-path:url(#clip-path);}.cls-18{fill:#ffa300;}.cls-19{clip-path:url(#clip-path-2);}.cls-20{fill:#ffea00;}.cls-21{fill:#ccc;}.cls-22{fill:#006eba;}.cls-23{fill:#301851;}.cls-24{fill:#66a8d6;}.cls-25{fill:#0038b3;}.cls-26{fill:#c7005e;}.cls-27{fill:#32ba00;}</style><clipPath id="clip-path"><path id="_Compound_Clipping_Path_" data-name="&lt;Compound Clipping Path&gt;" class="cls-1" d="M250.87,433.75c-.86-10.84-1.5-21.71-2.65-32.53-1-9.68-5.13-17.22-15.55-19.83-3.56-.89-6.92-2.56-10.37-3.84-7.72-2.88-10.86-8.93-6.88-16.17,6.56-11.94,13.94-23.44,21.26-34.95,4.26-6.69,9-13.05,13.67-19.51a18.16,18.16,0,0,0,3.07-15.79c-7.95-30-1.35-57.64,14.67-83.12,26-41.45,63.42-66.08,112.28-72.53,43-5.67,84.84-2,124.44,16.74,43,20.29,66.73,54.88,73.7,101.55,3.37,22.54,3.29,44.84-3.1,66.94-5.3,18.36-14.66,34.56-25.63,50-8.88,12.48-18.53,24.54-26.18,37.74-17.65,30.43-17.06,62.24-4.47,94.34,1.48,3.77,3.34,7.39,5,11.07,2.94,6.41,1.14,11.23-5.57,13.59a298.75,298.75,0,0,1-72.2,16c-29.65,2.71-59,1.22-88-6.34-2.14-.56-4.26-1.18-6.37-1.84-12.9-4.07-16.16-8.55-16.63-22-.19-5.32-.32-10.81-1.69-15.89-3.6-13.4-15.34-19-31.92-16.64-9.25,1.3-18.75,2.55-28,1.82-15.28-1.22-23.07-10.3-23.66-25.51-.3-7.75-.05-15.51-.05-23.27Zm256.38-79.63a18.63,18.63,0,0,1,2.44,0c17.9,3.25,31.31-8.89,30.25-27.06a10.53,10.53,0,0,1,2.72-7c15.61-16.32,19.73-40.65,9.6-60.53a13.72,13.72,0,0,0-6.6-6c-10.16-4.07-17.48-1.6-26.33,8.19-2.88,3.18-6.09,5.36-10,2s-2.53-6.84.13-10.28c6.83-8.79,15.61-14,26.86-14.49,7.21-.34,9.11-2.4,8.39-9.67-.66-6.61-4-11.42-10.19-14a57.92,57.92,0,0,0-6.74-1.94c2.3-14.25-6.8-20.17-18.21-18.41-4.28-17.54-10.79-21.33-29.77-17.32-6.95-12-18-16.45-29.84-11.62-1.23.5-3.72-.73-4.95-1.87-4.78-4.45-10.18-7.17-16.76-7.58-9.65-.61-17.05,3.62-23,10.64-17.42-9.5-28.09-6.59-41.21,11.1-1.61-.69-3.26-1.46-5-2.1-10.52-4-22.68-.52-29.08,8.67a8.58,8.58,0,0,0-.79,6.85c3,8,7,9.26,14.54,5.08,1-.54,2-1.57,2.92-1.42,2.49.41,5.9.59,7.07,2.21s1.13,5.63-.1,7.35c-6.32,8.83-22.1,9.8-29.59,1.75-3.55-3.81-6-8.63-9-13.1-10.91,1.89-14.18,7.44-12.69,22.22-1.2.28-2.45.51-3.67.87-10.95,3.19-18.43,10.08-21.33,21.19s.16,20.48,7.91,29c9.13,10.05,25.57,5.28,30.56-3.7a37.74,37.74,0,0,1,2.73-4.8c2.15-2.8,5-3.91,8.25-2s4.44,4.88,2.6,8c-2.69,4.56-5.37,9.53-9.32,12.82-4.63,3.86-10.61,6.12-16.22,9.19,12.21,17.55,31,18.79,50.69,17.77-.13,2.59-.25,4.58-.34,6.57-.62,14.62,5.95,24.75,19.59,30.11,9.72,3.81,19.49,3.42,28.22-2.05,6.63-4.16,12.38-9.77,18.35-14.94,3.09-2.67,6.17-4.55,9.74-1.41,3.76,3.32,2.51,6.88-.29,10.2-.48.56-1,1.09-1.5,1.63-11.7,12.5-25.26,21.46-43.65,22.84,2.35,3.38,4.66,7.37,7.93,8.46,5.42,1.79,11.46,1.68,17.23,2.44,2.57.34,5.44.27,7.61,1.43,8,4.29,16.36,6,25.11,3.32,3.67-1.13,5.88-.55,8.71,2.07,13.39,12.37,29.36,12.6,43.51,1C501.68,370.23,505.49,362.8,507.25,354.12Z"/></clipPath><clipPath id="clip-path-2"><path id="_Compound_Clipping_Path_2" data-name="&lt;Compound Clipping Path&gt;" class="cls-1" d="M249.72,431.44c-.86-10.84-1.5-21.71-2.65-32.53-1-9.68-5.13-17.22-15.55-19.83-3.56-.89-6.92-2.56-10.37-3.84-7.72-2.88-10.86-8.93-6.88-16.17,6.56-11.94,13.94-23.44,21.26-34.95,4.26-6.69,9-13.05,13.67-19.51a18.16,18.16,0,0,0,3.07-15.79c-7.95-30-1.35-57.64,14.67-83.12,26-41.45,63.42-66.08,112.28-72.53,43-5.67,84.84-2,124.44,16.74,43,20.29,66.73,54.88,73.7,101.55,3.37,22.54,3.29,44.84-3.1,66.94-5.3,18.36-14.66,34.56-25.63,50-8.88,12.48-18.53,24.54-26.18,37.74-17.65,30.43-17.06,62.24-4.47,94.34,1.48,3.77,3.34,7.39,5,11.07,2.94,6.41,1.14,11.23-5.57,13.59a298.75,298.75,0,0,1-72.2,16c-29.65,2.71-59,1.22-88-6.34-2.14-.56-4.26-1.18-6.37-1.84-12.9-4.07-16.16-8.55-16.63-22-.19-5.32-.32-10.81-1.69-15.89-3.6-13.4-15.34-19-31.92-16.64-9.25,1.3-18.75,2.55-28,1.82-15.28-1.22-23.07-10.3-23.66-25.51-.3-7.75-.05-15.51-.05-23.27ZM506.1,351.81a18.63,18.63,0,0,1,2.44,0c17.9,3.25,31.31-8.89,30.25-27.06a10.53,10.53,0,0,1,2.72-7c15.61-16.32,19.73-40.65,9.6-60.53a13.72,13.72,0,0,0-6.6-6c-10.16-4.07-17.48-1.6-26.33,8.19-2.88,3.18-6.09,5.36-10,2s-2.53-6.84.13-10.28c6.83-8.79,15.61-14,26.86-14.49,7.21-.34,9.11-2.4,8.39-9.67-.66-6.61-4-11.42-10.19-14a57.92,57.92,0,0,0-6.74-1.94c2.3-14.25-6.8-20.17-18.21-18.41-4.28-17.54-10.79-21.33-29.77-17.32-6.95-12-18-16.45-29.84-11.62-1.23.5-3.72-.73-4.95-1.87-4.78-4.45-10.18-7.17-16.76-7.58-9.65-.61-17.05,3.62-23,10.64-17.42-9.5-28.09-6.59-41.21,11.1-1.61-.69-3.26-1.46-5-2.1-10.52-4-22.68-.52-29.08,8.67a8.58,8.58,0,0,0-.79,6.85c3,8,7,9.26,14.54,5.08,1-.54,2-1.57,2.92-1.42,2.49.41,5.9.59,7.07,2.21s1.13,5.63-.1,7.35c-6.32,8.83-22.1,9.8-29.59,1.75-3.55-3.81-6-8.63-9-13.1-10.91,1.89-14.18,7.44-12.69,22.22-1.2.28-2.45.51-3.67.87-10.95,3.19-18.43,10.08-21.33,21.19s.16,20.48,7.91,29c9.13,10.05,25.57,5.28,30.56-3.7a37.74,37.74,0,0,1,2.73-4.8c2.15-2.8,5-3.91,8.25-2s4.44,4.88,2.6,8c-2.69,4.56-5.37,9.53-9.32,12.82-4.63,3.86-10.61,6.12-16.22,9.19,12.21,17.55,31,18.79,50.69,17.77-.13,2.59-.25,4.58-.34,6.57-.62,14.62,5.95,24.75,19.59,30.11,9.72,3.81,19.49,3.42,28.22-2.05,6.63-4.16,12.38-9.77,18.35-14.94,3.09-2.67,6.17-4.55,9.74-1.41,3.76,3.32,2.51,6.88-.29,10.2-.48.56-1,1.09-1.5,1.63-11.7,12.5-25.26,21.46-43.65,22.84,2.35,3.38,4.66,7.37,7.93,8.46,5.42,1.79,11.46,1.68,17.23,2.44,2.57.34,5.44.27,7.61,1.43,8,4.29,16.36,6,25.11,3.32,3.67-1.13,5.88-.55,8.71,2.07,13.39,12.37,29.36,12.6,43.51,1C500.52,367.91,504.33,360.49,506.1,351.81Z"/></clipPath></defs><title>Artboard 8</title><path id="_Path_" data-name="&lt;Path&gt;" class="cls-2" d="M267.56,106.44S342.27,166.1,420,170.68s86.66,27.53,86.66,27.53,29.88,18.36,50.8,0,44.83,34.42,44.83,34.42,23.91,71.13-38.85,36.71,9,50.48,9,50.48,53.77-6.88,34.35,29.83S623.18,407,623.18,407s32.87,32.12-17.93,41.3-80.69,43.6-80.69,43.6,41.84-52.77-12-64.25-155.4,6.88-155.4,6.88l-17.93,29.83s-50.8,6.88-119.53-45.89S127.11,292.29,70.33,299.18s62.76-82.6,62.76-82.6S94.24,150,166,129.38,267.56,106.44,267.56,106.44Z"/><path id="_Path_2" data-name="&lt;Path&gt;" class="cls-3" d="M575.79,146.29c13.78,0,27.59-.41,41.35.12,12.71.49,23.61,5.53,31.3,16.09,10.94,15,6.46,37.42-9.52,46.62-2,1.14-5.38-.15-8.11-.31.72-2.59.59-6.3,2.3-7.59,9-6.82,13.2-15.21,10.33-26.41-2.48-9.67-11.74-17.34-23.63-17.9-19-.9-38.08-.77-57.12-1-8.92-.11-17.84.08-26.76-.1-3.77-.08-9.17,1.34-9-5s5.61-4.6,9.32-4.65c13.18-.17,26.36-.06,39.53-.06Z"/><g id="_Group_" data-name="&lt;Group&gt;"><g id="_Group_2" data-name="&lt;Group&gt;"><path id="_Path_3" data-name="&lt;Path&gt;" class="cls-4" d="M429.48,166.38V182a1.5,1.5,0,0,0,3,0V166.38a1.5,1.5,0,0,0-3,0Z"/></g></g><g id="_Group_3" data-name="&lt;Group&gt;"><g id="_Group_4" data-name="&lt;Group&gt;"><path id="_Path_4" data-name="&lt;Path&gt;" class="cls-4" d="M422.5,176h16.63a1.5,1.5,0,0,0,0-3H422.5a1.5,1.5,0,0,0,0,3Z"/></g></g><g id="_Group_5" data-name="&lt;Group&gt;"><g id="_Group_6" data-name="&lt;Group&gt;"><path id="_Path_5" data-name="&lt;Path&gt;" class="cls-5" d="M644.74,484.9c-.31,6.62-5.31,12.19-12.19,12.19a12.19,12.19,0,0,1,0-24.37c6.86,0,11.87,5.57,12.19,12.19.09,1.92,3.09,1.93,3,0-.39-8.25-6.63-15.19-15.19-15.19a15.19,15.19,0,0,0,0,30.37c8.56,0,14.79-6.94,15.19-15.19C647.83,483,644.83,483,644.74,484.9Z"/></g></g><circle id="_Path_6" data-name="&lt;Path&gt;" class="cls-6" cx="348.9" cy="180.67" r="4.56"/><g id="_Group_7" data-name="&lt;Group&gt;"><g id="_Group_8" data-name="&lt;Group&gt;"><path id="_Path_7" data-name="&lt;Path&gt;" class="cls-7" d="M513.81,176.17c-8.53,3.76-17.27-5.8-11.58-13.68,5.34-7.4,16.24-3.16,16.7,5.4.1,1.92,3.1,1.93,3,0-.62-11.59-15.83-17-22.52-6.64-6.92,10.74,5,22.31,15.91,17.51,1.76-.78.24-3.36-1.51-2.59Z"/></g></g><line id="_Path_8" data-name="&lt;Path&gt;" class="cls-8" x1="381.44" y1="275.49" x2="441.47" y2="275.49"/><line id="_Path_9" data-name="&lt;Path&gt;" class="cls-8" x1="359.06" y1="275.39" x2="364.31" y2="275.39"/><path id="_Path_10" data-name="&lt;Path&gt;" class="cls-4" d="M214.43,153.27c26.34,0,52.68-.11,79,.2,2.25,0,4.46,2.91,6.69,4.47-2,1.9-3.68,4.79-6,5.47-3.38,1-7.22.42-10.87.42q-71.43,0-142.87.06a62,62,0,0,0-12.64,1.25c-12,2.53-19,11.29-18.66,22.69.35,11.12,8.3,19.68,20.33,21.32,5.59.76,11.29.81,16.95,1,3.54.12,6.49,1.47,5.65,5.18-.42,1.87-3.58,4.34-5.59,4.42-10.69.46-21.51,1-31.17-5.19C103,206.74,96.39,193.3,99.1,181.24c3.16-14.05,15.12-25.36,29.66-26.58,12.28-1,24.68-.91,37-1,16.21-.15,32.42,0,48.64,0Z"/><path id="_Path_11" data-name="&lt;Path&gt;" class="cls-4" d="M293.41,79c13.78,0,27.59-.41,41.35.12,12.71.49,23.61,5.53,31.3,16.09,10.94,15,6.46,37.42-9.52,46.62-2,1.14-5.38-.15-8.11-.31.72-2.59.59-6.3,2.3-7.59,9-6.82,13.2-15.21,10.33-26.41-2.48-9.67-11.74-17.34-23.63-17.9-19-.9-38.08-.77-57.12-1-8.92-.11-17.84.08-26.76-.1-3.77-.08-9.17,1.34-9-5s5.61-4.6,9.32-4.65c13.18-.17,26.36-.06,39.53-.06Z"/><g id="_Group_9" data-name="&lt;Group&gt;"><g id="_Group_10" data-name="&lt;Group&gt;"><path id="_Path_12" data-name="&lt;Path&gt;" class="cls-9" d="M633,414.13c-7,3.07-14.1-4.76-9.46-11.19,4.37-6.06,13.28-2.59,13.66,4.41.1,1.92,3.1,1.93,3,0-.54-10-13.66-14.69-19.42-5.72-6,9.28,4.34,19.22,13.74,15.09,1.76-.78.24-3.36-1.51-2.59Z"/></g></g><g id="_Group_11" data-name="&lt;Group&gt;"><g id="_Group_12" data-name="&lt;Group&gt;"><path id="_Path_13" data-name="&lt;Path&gt;" class="cls-3" d="M199,275.39c-.43,7.95-12.41,8-12.41,0s12-7.95,12.41,0c.1,1.92,3.1,1.93,3,0-.27-5-4-9.2-9.2-9.2a9.2,9.2,0,0,0-.42,18.39c5.37.24,9.35-4,9.62-9.18C202.08,273.46,199.08,273.46,199,275.39Z"/></g></g><g id="_Group_13" data-name="&lt;Group&gt;"><g id="_Group_14" data-name="&lt;Group&gt;"><path id="_Path_14" data-name="&lt;Path&gt;" class="cls-4" d="M629,283.26v15.61a1.5,1.5,0,0,0,3,0V283.26a1.5,1.5,0,0,0-3,0Z"/></g></g><g id="_Group_15" data-name="&lt;Group&gt;"><g id="_Group_16" data-name="&lt;Group&gt;"><path id="_Path_15" data-name="&lt;Path&gt;" class="cls-4" d="M622,292.91h16.63a1.5,1.5,0,0,0,0-3H622a1.5,1.5,0,0,0,0,3Z"/></g></g><g id="_Group_17" data-name="&lt;Group&gt;"><g id="_Group_18" data-name="&lt;Group&gt;"><path id="_Path_16" data-name="&lt;Path&gt;" class="cls-4" d="M157,374.71v15.61a1.5,1.5,0,0,0,3,0V374.71a1.5,1.5,0,0,0-3,0Z"/></g></g><g id="_Group_19" data-name="&lt;Group&gt;"><g id="_Group_20" data-name="&lt;Group&gt;"><path id="_Path_17" data-name="&lt;Path&gt;" class="cls-4" d="M150,384.35h16.63a1.5,1.5,0,0,0,0-3H150a1.5,1.5,0,0,0,0,3Z"/></g></g><g id="_Group_21" data-name="&lt;Group&gt;"><g id="_Group_22" data-name="&lt;Group&gt;"><path id="_Path_18" data-name="&lt;Path&gt;" class="cls-9" d="M129.84,453.6c-7,3.07-14.1-4.76-9.46-11.19,4.37-6.06,13.28-2.59,13.66,4.41.1,1.92,3.1,1.93,3,0-.54-10-13.66-14.69-19.42-5.72-6,9.28,4.34,19.22,13.74,15.09,1.76-.78.24-3.36-1.51-2.59Z"/></g></g><circle id="_Path_19" data-name="&lt;Path&gt;" class="cls-3" cx="169.22" cy="477.47" r="6.25"/><circle id="_Path_20" data-name="&lt;Path&gt;" class="cls-4" cx="626.06" cy="352.61" r="4.73"/><g id="_Group_23" data-name="&lt;Group&gt;"><g id="_Group_24" data-name="&lt;Group&gt;"><path id="_Path_21" data-name="&lt;Path&gt;" class="cls-3" d="M499.68,210.73,491.45,224c-1,1.64,1.57,3.15,2.59,1.51l8.24-13.26c1-1.64-1.57-3.15-2.59-1.51Z"/></g></g><g id="_Group_25" data-name="&lt;Group&gt;"><g id="_Group_26" data-name="&lt;Group&gt;"><path id="_Path_22" data-name="&lt;Path&gt;" class="cls-3" d="M488.72,215.23,502.84,224c1.64,1,3.15-1.57,1.51-2.59l-14.12-8.77c-1.64-1-3.15,1.57-1.51,2.59Z"/></g></g><g id="_Group_27" data-name="&lt;Group&gt;"><g id="_Group_28" data-name="&lt;Group&gt;"><path id="_Path_23" data-name="&lt;Path&gt;" class="cls-5" d="M123.77,238.83l-8.24,13.26c-1,1.64,1.57,3.15,2.59,1.51l8.24-13.26c1-1.64-1.57-3.15-2.59-1.51Z"/></g></g><g id="_Group_29" data-name="&lt;Group&gt;"><g id="_Group_30" data-name="&lt;Group&gt;"><path id="_Path_24" data-name="&lt;Path&gt;" class="cls-5" d="M112.81,243.33l14.12,8.77c1.64,1,3.15-1.57,1.51-2.59l-14.12-8.77c-1.64-1-3.15,1.57-1.51,2.59Z"/></g></g><g id="_Group_31" data-name="&lt;Group&gt;"><g id="_Group_32" data-name="&lt;Group&gt;"><path id="_Path_25" data-name="&lt;Path&gt;" class="cls-4" d="M555,470.08l-8.24,13.26c-1,1.64,1.57,3.15,2.59,1.51l8.24-13.26c1-1.64-1.57-3.15-2.59-1.51Z"/></g></g><g id="_Group_33" data-name="&lt;Group&gt;"><g id="_Group_34" data-name="&lt;Group&gt;"><path id="_Path_26" data-name="&lt;Path&gt;" class="cls-4" d="M544,474.58l14.12,8.77c1.64,1,3.15-1.57,1.51-2.59L545.52,472c-1.64-1-3.15,1.57-1.51,2.59Z"/></g></g><path id="_Path_27" data-name="&lt;Path&gt;" class="cls-10" d="M579.58,136.43c14.57,0,29.16-.49,43.72.14,13.44.59,25,6.69,33.09,19.47,11.57,18.18,6.83,45.28-10.06,56.41-2.1,1.38-5.68-.18-8.58-.37.76-3.14.63-7.62,2.43-9.19,9.51-8.25,14-18.41,10.92-31.95-2.62-11.7-12.42-21-25-21.66-20.1-1.08-40.26-.93-60.39-1.21-9.43-.13-18.86.09-28.29-.12-4-.09-9.7,1.62-9.51-6.08s5.93-5.57,9.85-5.63c13.93-.2,27.86-.08,41.8-.08Z"/><g id="_Group_35" data-name="&lt;Group&gt;" class="cls-11"><g id="_Group_36" data-name="&lt;Group&gt;"><path id="_Path_28" data-name="&lt;Path&gt;" class="cls-4" d="M231.1,113.52h43.8c3.86,0,3.87-6,0-6H231.1c-3.86,0-3.87,6,0,6Z"/></g></g><path id="_Path_29" data-name="&lt;Path&gt;" class="cls-12" d="M591.36,217.09l-5.19,8.35"/><path id="_Path_30" data-name="&lt;Path&gt;" class="cls-12" d="M600.13,203l-5.29,8.51"/><path id="_Path_31" data-name="&lt;Path&gt;" class="cls-12" d="M596.63,217l7.94,4.93"/><path id="_Path_32" data-name="&lt;Path&gt;" class="cls-12" d="M580.63,207.11l8.65,5.37"/><path id="_Path_33" data-name="&lt;Path&gt;" class="cls-13" d="M179.91,441.13l-6.53,10.51"/><path id="_Path_34" data-name="&lt;Path&gt;" class="cls-13" d="M190.95,423.36l-6.65,10.71"/><path id="_Path_35" data-name="&lt;Path&gt;" class="cls-13" d="M186.55,441.07l10,6.21"/><path id="_Path_36" data-name="&lt;Path&gt;" class="cls-13" d="M166.41,428.57l10.88,6.76"/><path id="_Path_37" data-name="&lt;Path&gt;" class="cls-13" d="M178.65,438.7l-12,3.18"/><path id="_Path_38" data-name="&lt;Path&gt;" class="cls-13" d="M198.87,433.32l-12.19,3.24"/><path id="_Path_39" data-name="&lt;Path&gt;" class="cls-13" d="M183.52,443.21l3,11.37"/><path id="_Path_40" data-name="&lt;Path&gt;" class="cls-13" d="M177.42,420.3l3.3,12.38"/><path id="_Path_41" data-name="&lt;Path&gt;" class="cls-14" d="M665.52,362.27,659,372.79"/><path id="_Path_42" data-name="&lt;Path&gt;" class="cls-14" d="M676.55,344.5l-6.65,10.71"/><path id="_Path_43" data-name="&lt;Path&gt;" class="cls-14" d="M672.15,362.22l10,6.21"/><path id="_Path_44" data-name="&lt;Path&gt;" class="cls-14" d="M652,349.71l10.88,6.76"/><path id="_Path_45" data-name="&lt;Path&gt;" class="cls-14" d="M664.26,359.85l-12,3.18"/><path id="_Path_46" data-name="&lt;Path&gt;" class="cls-14" d="M684.47,354.47l-12.19,3.24"/><path id="_Path_47" data-name="&lt;Path&gt;" class="cls-14" d="M669.13,364.35l3,11.37"/><path id="_Path_48" data-name="&lt;Path&gt;" class="cls-14" d="M663,341.45l3.3,12.38"/><path id="_Path_49" data-name="&lt;Path&gt;" class="cls-12" d="M666.61,460.88l-5.19,8.35"/><path id="_Path_50" data-name="&lt;Path&gt;" class="cls-12" d="M675.38,446.76l-5.29,8.51"/><path id="_Path_51" data-name="&lt;Path&gt;" class="cls-12" d="M671.88,460.83l7.94,4.93"/><path id="_Path_52" data-name="&lt;Path&gt;" class="cls-12" d="M655.89,450.9l8.65,5.37"/><path id="_Path_53" data-name="&lt;Path&gt;" class="cls-12" d="M118.13,330.23l-5.19,8.35"/><path id="_Path_54" data-name="&lt;Path&gt;" class="cls-12" d="M126.89,316.11l-5.29,8.51"/><path id="_Path_55" data-name="&lt;Path&gt;" class="cls-12" d="M123.4,330.19l7.94,4.93"/><path id="_Path_56" data-name="&lt;Path&gt;" class="cls-12" d="M107.4,320.25l8.65,5.37"/><path id="_Compound_Path_" data-name="&lt;Compound Path&gt;" class="cls-15" d="M515.45,348.31c-1.84,9.05-5.81,16.8-13,22.65-14.76,12.06-31.42,11.82-45.38-1.08-3-2.73-5.25-3.33-9.08-2.16-9.12,2.8-17.81,1-26.19-3.46-2.27-1.21-5.26-1.13-7.94-1.49-6-.8-12.32-.68-18-2.55-3.41-1.13-5.82-5.29-8.27-8.82,19.18-1.44,33.32-10.79,45.52-23.83.53-.56,1.07-1.11,1.57-1.7,2.92-3.47,4.23-7.19.31-10.64-3.72-3.28-6.94-1.32-10.16,1.47-6.22,5.39-12.22,11.24-19.14,15.58-9.1,5.71-19.3,6.12-29.43,2.14-14.23-5.59-21.08-16.16-20.43-31.4.09-2.08.21-4.15.35-6.85-20.57,1.06-40.13-.23-52.87-18.54,5.86-3.21,12.09-5.56,16.92-9.59,4.11-3.43,6.91-8.62,9.72-13.37,1.92-3.25.62-6.43-2.71-8.35s-6.36-.81-8.6,2.1a39.36,39.36,0,0,0-2.85,5c-5.2,9.37-22.35,14.35-31.87,3.86-8.08-8.9-11.26-18.75-8.25-30.27s10.83-18.77,22.25-22.1c1.27-.37,2.57-.61,3.83-.9-1.56-15.41,1.86-21.2,13.23-23.17,3.15,4.66,5.72,9.69,9.42,13.66,7.82,8.4,24.27,7.39,30.87-1.82,1.29-1.8,1.34-5.95.1-7.67s-4.78-1.88-7.38-2.3c-.91-.15-2,.93-3,1.48-7.86,4.36-12,3.09-15.17-5.3a9,9,0,0,1,.82-7.14c6.67-9.59,19.36-13.18,30.33-9,1.77.67,3.48,1.47,5.16,2.19,13.69-18.45,24.81-21.49,43-11.57,6.16-7.33,13.89-11.74,23.95-11.1,6.87.44,12.5,3.27,17.49,7.91,1.29,1.2,3.88,2.47,5.16,2,12.38-5,23.88-.44,31.13,12.12,19.8-4.18,26.59-.23,31,18.07,11.9-1.84,21.39,4.34,19,19.2a60.42,60.42,0,0,1,7,2c6.44,2.69,9.95,7.7,10.63,14.6.75,7.58-1.23,9.73-8.75,10.09-11.73.55-20.89,5.94-28,15.11-2.78,3.58-4,7.35-.14,10.72s7.41,1.22,10.41-2.1c9.23-10.21,16.87-12.79,27.46-8.54a14.31,14.31,0,0,1,6.88,6.21c10.56,20.73,6.27,46.11-10,63.14a11,11,0,0,0-2.83,7.35c1.1,19-12.89,31.62-31.55,28.23A19.43,19.43,0,0,0,515.45,348.31Zm-32.71-49.13c1.08-1,4.28-2.74,5.3-5.31,1.46-3.69-1-6.55-4.81-7.81-10.82-3.51-13.92-7.25-14.22-18.42-.13-5-2.34-7.83-7-8.11-14.72-.9-23.1-9.11-27-22.71-1.28-4.52-4.1-6.57-8.58-5.33s-5.21,5-4.19,8.83c3.95,14.9,12.41,26,27.71,30.39,4.37,1.25,6,3.24,7.09,7.46C460.1,290.17,469.45,298.2,482.74,299.18ZM469.23,187.59c-4,1.74-7.58,2.41-9.82,4.48a10.19,10.19,0,0,0-2.9,7.67c.49,3.71,3.87,5,7.58,4.09,2-.5,4-1.34,6-2,13.38-4.52,28.48-3.27,35.94,10.37,2.08,3.8,5.83,4.42,9.43,2s3.48-5.77,1.54-9.18c-4.22-7.41-10-13.34-18.18-16-5.2-1.71-12.1-.72-15.82-3.83s-4.32-10-6.65-15c-1.73-3.73-4.81-5.62-9-3.58-4.37,2.16-4.5,5.67-2.7,9.74C466.28,179.95,467.66,183.68,469.23,187.59Zm-47.81-6.31c-.4-2.85-.61-5.73-1.24-8.53-1.78-7.9-4.3-10.49-9-9.59s-5.83,4.37-4.12,12.29c2.31,10.66-1,18-10.89,22.7-4.1,2-8.67,3-13.09,4.24-3.9,1.08-6.29,3.43-5.68,7.42.65,4.25,3.71,6.15,8,5.54,9.32-1.32,17.84-4.59,25.07-10.76A29.45,29.45,0,0,0,421.42,181.28Zm59,184.44c6.43-1.72,12.94-3.19,19.25-5.24,4-1.3,5.77-4.66,4.23-8.75s-5-4.89-9-3.61c-1.82.58-3.6,1.34-5.43,1.88-13.32,3.95-21.78.21-27.6-12.42-1.85-4-4.45-6.64-8.87-4.93-4.66,1.8-5,5.64-3.47,10.06C454.15,355.85,465.92,364.4,480.44,365.73ZM379.71,257.87c.88,4.69,1.55,9.43,2.7,14,1,4,3.73,6.53,8.08,5.31s5.85-4.73,4.54-9.08c-3.3-11-1.37-20.83,5.73-29.78,2.67-3.36,3.61-7.17-.1-10.2-3.88-3.17-7.44-1.69-10.42,2C383.66,238.19,380.5,247.43,379.71,257.87Z"/><path id="_Compound_Path_2" data-name="&lt;Compound Path&gt;" class="cls-16" d="M245.43,433.37c-.9-11.31-1.56-22.65-2.76-33.93-1.07-10.1-5.35-18-16.22-20.69-3.71-.93-7.21-2.67-10.82-4-8.05-3-11.33-9.32-7.18-16.87,6.84-12.46,14.54-24.45,22.17-36.45,4.44-7,9.44-13.61,14.26-20.35a18.94,18.94,0,0,0,3.2-16.46c-8.29-31.29-1.4-60.12,15.3-86.7,27.17-43.24,66.15-68.92,117.12-75.65,44.84-5.92,88.49-2,129.79,17.46,44.8,21.17,69.6,57.24,76.88,105.92,3.51,23.51,3.43,46.77-3.23,69.82-5.53,19.15-15.29,36-26.74,52.14-9.26,13-19.32,25.59-27.31,39.36-18.41,31.74-17.79,64.91-4.66,98.4,1.54,3.93,3.48,7.7,5.24,11.55,3.06,6.69,1.19,11.72-5.81,14.18a311.6,311.6,0,0,1-75.3,16.69c-30.93,2.83-61.57,1.27-91.74-6.61-2.23-.58-4.45-1.23-6.65-1.92-13.46-4.24-16.86-8.92-17.34-22.91-.19-5.55-.34-11.27-1.76-16.58-3.75-14-16-19.79-33.29-17.36-9.65,1.36-19.56,2.66-29.18,1.9-15.94-1.27-24.07-10.74-24.68-26.61-.31-8.08-.05-16.18-.05-24.27Zm267.41-83.06a19.43,19.43,0,0,1,2.54,0C534,353.71,548,341,546.93,322.1a11,11,0,0,1,2.83-7.35c16.28-17,20.58-42.4,10-63.14a14.31,14.31,0,0,0-6.88-6.21c-10.59-4.25-18.23-1.67-27.46,8.54-3,3.32-6.35,5.59-10.41,2.1s-2.64-7.14.14-10.72c7.12-9.17,16.28-14.56,28-15.11,7.52-.35,9.5-2.5,8.75-10.09-.69-6.9-4.19-11.91-10.63-14.6a60.42,60.42,0,0,0-7-2c2.4-14.86-7.09-21-19-19.2-4.46-18.3-11.25-22.25-31-18.07-7.25-12.56-18.74-17.16-31.13-12.12-1.28.52-3.88-.76-5.16-2-5-4.64-10.61-7.48-17.49-7.91-10.06-.64-17.79,3.77-23.95,11.1-18.17-9.91-29.3-6.88-43,11.57-1.68-.72-3.4-1.53-5.16-2.19-11-4.14-23.66-.55-30.33,9a9,9,0,0,0-.82,7.14c3.12,8.39,7.31,9.66,15.17,5.3,1-.56,2.14-1.63,3-1.48,2.6.43,6.16.61,7.38,2.3s1.18,5.87-.1,7.67c-6.59,9.21-23,10.22-30.87,1.82-3.7-4-6.27-9-9.42-13.66-11.38,2-14.79,7.76-13.23,23.17-1.25.29-2.56.53-3.83.9-11.42,3.33-19.22,10.51-22.25,22.1s.17,21.37,8.25,30.27c9.52,10.49,26.67,5.51,31.87-3.86a39.36,39.36,0,0,1,2.85-5c2.24-2.92,5.17-4.08,8.6-2.1s4.63,5.09,2.71,8.35c-2.8,4.75-5.6,9.94-9.72,13.37-4.83,4-11.06,6.38-16.92,9.59,12.74,18.31,32.3,19.6,52.87,18.54-.14,2.7-.27,4.78-.35,6.85-.64,15.25,6.2,25.82,20.43,31.4,10.13,4,20.33,3.57,29.43-2.14,6.92-4.34,12.91-10.19,19.14-15.58,3.22-2.79,6.44-4.75,10.16-1.47,3.92,3.46,2.62,7.18-.31,10.64-.5.59-1,1.13-1.57,1.7-12.21,13-26.34,22.38-45.52,23.83,2.45,3.53,4.86,7.69,8.27,8.82,5.65,1.87,12,1.75,18,2.55,2.68.36,5.67.28,7.94,1.49,8.37,4.47,17.06,6.26,26.19,3.46,3.83-1.17,6.13-.57,9.08,2.16,14,12.9,30.62,13.15,45.38,1.08C507,367.11,511,359.36,512.84,350.31Z"/><g id="_Clip_Group_" data-name="&lt;Clip Group&gt;"><g class="cls-17"><path id="_Path_57" data-name="&lt;Path&gt;" class="cls-18" d="M280.9,115.86s-73.17,239.45,78.16,324.26S631.8,510,631.8,510L319.14,802.63-76.62,343.58Z"/></g></g><path id="_Compound_Path_3" data-name="&lt;Compound Path&gt;" class="cls-15" d="M514.14,350.31c-1.84,9.05-5.81,16.8-13,22.65-14.76,12.06-31.42,11.82-45.38-1.08-3-2.73-5.25-3.33-9.08-2.16-9.12,2.8-17.81,1-26.19-3.46-2.27-1.21-5.26-1.13-7.94-1.49-6-.8-12.32-.68-18-2.55-3.41-1.13-5.82-5.29-8.27-8.82,19.18-1.44,33.32-10.79,45.52-23.83.53-.56,1.07-1.11,1.57-1.7,2.92-3.47,4.23-7.19.31-10.64-3.72-3.28-6.94-1.32-10.16,1.47-6.22,5.39-12.22,11.24-19.14,15.58-9.1,5.71-19.3,6.12-29.43,2.14-14.23-5.59-21.08-16.16-20.43-31.4.09-2.08.21-4.15.35-6.85-20.57,1.06-40.13-.23-52.87-18.54,5.86-3.21,12.09-5.56,16.92-9.59,4.11-3.43,6.91-8.62,9.72-13.37,1.92-3.25.62-6.43-2.71-8.35s-6.36-.81-8.6,2.1a39.36,39.36,0,0,0-2.85,5c-5.2,9.37-22.35,14.35-31.87,3.86-8.08-8.9-11.26-18.75-8.25-30.27s10.83-18.77,22.25-22.1c1.27-.37,2.57-.61,3.83-.9-1.56-15.41,1.86-21.2,13.23-23.17,3.15,4.66,5.72,9.69,9.42,13.66,7.82,8.4,24.27,7.39,30.87-1.82,1.29-1.8,1.34-5.95.1-7.67s-4.78-1.88-7.38-2.3c-.91-.15-2,.93-3,1.48-7.86,4.36-12,3.09-15.17-5.3a9,9,0,0,1,.82-7.14c6.67-9.59,19.36-13.18,30.33-9,1.77.67,3.48,1.47,5.16,2.19,13.69-18.45,24.81-21.49,43-11.57,6.16-7.33,13.89-11.74,23.95-11.1,6.87.44,12.5,3.27,17.49,7.91,1.29,1.2,3.88,2.47,5.16,2,12.38-5,23.88-.44,31.13,12.12,19.8-4.18,26.59-.23,31,18.07,11.9-1.84,21.39,4.34,19,19.2a60.42,60.42,0,0,1,7,2c6.44,2.69,9.95,7.7,10.63,14.6.75,7.58-1.23,9.73-8.75,10.09-11.73.55-20.89,5.94-28,15.11-2.78,3.58-4,7.35-.14,10.72s7.41,1.22,10.41-2.1c9.23-10.21,16.87-12.79,27.46-8.54a14.31,14.31,0,0,1,6.88,6.21c10.56,20.73,6.27,46.11-10,63.14a11,11,0,0,0-2.83,7.35c1.1,19-12.89,31.62-31.55,28.23A19.43,19.43,0,0,0,514.14,350.31Zm-32.71-49.13c1.08-1,4.28-2.74,5.3-5.31,1.46-3.69-1-6.55-4.81-7.81-10.82-3.51-13.92-7.25-14.22-18.42-.13-5-2.34-7.83-7-8.11-14.72-.9-23.1-9.11-27-22.71-1.28-4.52-4.1-6.57-8.58-5.33s-5.21,5-4.19,8.83c3.95,14.9,12.41,26,27.71,30.39,4.37,1.25,6,3.24,7.09,7.46C458.79,292.17,468.15,300.2,481.44,301.17ZM467.92,189.59c-4,1.74-7.58,2.41-9.82,4.48a10.19,10.19,0,0,0-2.9,7.67c.49,3.71,3.87,5,7.58,4.09,2-.5,4-1.34,6-2,13.38-4.52,28.48-3.27,35.94,10.37,2.08,3.8,5.83,4.42,9.43,2s3.48-5.77,1.54-9.18c-4.22-7.41-10-13.34-18.18-16-5.2-1.71-12.1-.72-15.82-3.83s-4.32-10-6.65-15c-1.73-3.73-4.81-5.62-9-3.58-4.37,2.16-4.5,5.67-2.7,9.74C465,181.94,466.35,185.68,467.92,189.59Zm-47.81-6.31c-.4-2.85-.61-5.73-1.24-8.53-1.78-7.9-4.3-10.49-9-9.59s-5.83,4.37-4.12,12.29c2.31,10.66-1,18-10.89,22.7-4.1,2-8.67,3-13.09,4.24-3.9,1.08-6.29,3.43-5.68,7.42.65,4.25,3.71,6.15,8,5.54,9.32-1.32,17.84-4.59,25.07-10.76A29.45,29.45,0,0,0,420.11,183.28Zm59,184.44c6.43-1.72,12.94-3.19,19.25-5.24,4-1.3,5.77-4.66,4.23-8.75s-5-4.89-9-3.61c-1.82.58-3.6,1.34-5.43,1.88-13.32,3.95-21.78.21-27.6-12.42-1.85-4-4.45-6.64-8.87-4.93-4.66,1.8-5,5.64-3.47,10.06C452.85,357.85,464.61,366.4,479.13,367.72ZM378.4,259.87c.88,4.69,1.55,9.43,2.7,14,1,4,3.73,6.53,8.08,5.31s5.85-4.73,4.54-9.08c-3.3-11-1.37-20.83,5.73-29.78,2.67-3.36,3.61-7.17-.1-10.2-3.88-3.17-7.44-1.69-10.42,2C382.35,240.18,379.2,249.43,378.4,259.87Z"/><path id="_Compound_Path_4" data-name="&lt;Compound Path&gt;" class="cls-15" d="M507.35,349.89c-1.76,8.68-5.57,16.1-12.44,21.71-14.15,11.57-30.13,11.33-43.51-1-2.83-2.62-5-3.19-8.71-2.07-8.75,2.68-17.08,1-25.11-3.32-2.17-1.16-5-1.09-7.61-1.43-5.77-.77-11.81-.65-17.23-2.44-3.27-1.08-5.58-5.07-7.93-8.46,18.39-1.38,31.94-10.34,43.65-22.84.5-.54,1-1.06,1.5-1.63,2.8-3.33,4.05-6.89.29-10.2-3.57-3.15-6.66-1.27-9.74,1.41-6,5.17-11.71,10.78-18.35,14.94-8.73,5.47-18.5,5.87-28.22,2.05-13.64-5.36-20.21-15.49-19.59-30.11.08-2,.2-4,.34-6.57-19.72,1-38.48-.22-50.69-17.77,5.62-3.07,11.59-5.33,16.22-9.19,3.94-3.29,6.63-8.26,9.32-12.82,1.84-3.12.59-6.17-2.6-8s-6.1-.78-8.25,2a37.74,37.74,0,0,0-2.73,4.8c-5,9-21.43,13.76-30.56,3.7-7.75-8.53-10.79-18-7.91-29s10.38-18,21.33-21.19c1.21-.35,2.47-.59,3.67-.87-1.49-14.77,1.78-20.33,12.69-22.22,3,4.47,5.48,9.29,9,13.1,7.49,8,23.27,7.09,29.59-1.75,1.23-1.72,1.29-5.7.1-7.35s-4.58-1.8-7.07-2.21c-.87-.14-2,.89-2.92,1.42-7.53,4.18-11.55,3-14.54-5.08a8.58,8.58,0,0,1,.79-6.85c6.4-9.19,18.56-12.64,29.08-8.67,1.69.64,3.34,1.41,5,2.1,13.13-17.69,23.79-20.6,41.21-11.1,5.91-7,13.31-11.25,23-10.64,6.59.42,12,3.14,16.76,7.58,1.23,1.15,3.72,2.37,4.95,1.87,11.87-4.83,22.9-.43,29.84,11.62,19-4,25.49-.22,29.77,17.32,11.41-1.76,20.51,4.16,18.21,18.41a57.92,57.92,0,0,1,6.74,1.94c6.17,2.58,9.54,7.38,10.19,14,.72,7.27-1.18,9.33-8.39,9.67-11.25.53-20,5.69-26.86,14.49-2.67,3.43-3.88,7-.13,10.28s7.1,1.17,10-2c8.85-9.79,16.17-12.26,26.33-8.19a13.72,13.72,0,0,1,6.6,6c10.13,19.88,6,44.21-9.6,60.53a10.53,10.53,0,0,0-2.72,7c1.06,18.17-12.35,30.31-30.25,27.06A18.63,18.63,0,0,0,507.35,349.89ZM476,302.79c1-1,4.1-2.62,5.08-5.09,1.4-3.54-.91-6.28-4.61-7.48-10.38-3.36-13.35-6.95-13.63-17.66-.13-4.8-2.24-7.5-6.74-7.78C442,263.91,433.94,256,430.24,243c-1.23-4.33-3.93-6.3-8.23-5.11s-5,4.78-4,8.46c3.78,14.28,11.9,24.94,26.57,29.13,4.19,1.2,5.78,3.11,6.8,7.15C454.28,294.15,463.25,301.85,476,302.79Zm-13-107c-3.87,1.66-7.27,2.31-9.42,4.3a9.77,9.77,0,0,0-2.78,7.36c.47,3.56,3.71,4.79,7.26,3.92,2-.48,3.83-1.28,5.74-1.93,12.83-4.33,27.31-3.13,34.46,9.94,2,3.64,5.59,4.24,9,1.89s3.34-5.54,1.48-8.8c-4-7.1-9.57-12.79-17.43-15.37-5-1.64-11.6-.69-15.17-3.67s-4.14-9.54-6.38-14.36c-1.66-3.58-4.62-5.39-8.58-3.43-4.19,2.07-4.31,5.44-2.59,9.34C460.21,188.48,461.53,192.05,463,195.8Zm-45.84-6c-.38-2.73-.58-5.5-1.18-8.18-1.7-7.58-4.12-10.06-8.63-9.19s-5.59,4.19-3.95,11.78c2.21,10.22-.94,17.22-10.44,21.77-3.93,1.88-8.31,2.9-12.55,4.07-3.74,1-6,3.29-5.45,7.12.62,4.07,3.56,5.89,7.69,5.31,8.94-1.26,17.1-4.4,24-10.32A28.23,28.23,0,0,0,417.2,189.75Zm56.59,176.83c6.16-1.65,12.4-3.05,18.46-5,3.84-1.25,5.53-4.47,4.05-8.38s-4.81-4.69-8.63-3.47c-1.75.56-3.45,1.28-5.21,1.8-12.77,3.78-20.88.2-26.46-11.91-1.77-3.85-4.26-6.36-8.5-4.73-4.47,1.72-4.8,5.41-3.32,9.64C448.58,357.12,459.86,365.32,473.78,366.59ZM377.2,263.18c.84,4.49,1.49,9,2.59,13.47,1,3.85,3.57,6.26,7.74,5.09s5.61-4.53,4.35-8.7c-3.16-10.5-1.31-20,5.49-28.55,2.56-3.22,3.46-6.87-.09-9.78-3.72-3-7.13-1.62-10,1.89C381,244.31,378,253.18,377.2,263.18Z"/><g id="_Clip_Group_2" data-name="&lt;Clip Group&gt;"><g class="cls-19"><path id="_Path_58" data-name="&lt;Path&gt;" class="cls-20" d="M268.14,171.37S195,410.82,346.29,495.63,619,565.47,619,565.47L306.38,858.13-89.38,399.08Z"/></g></g><path id="_Compound_Path_5" data-name="&lt;Compound Path&gt;" class="cls-15" d="M506.1,351.81c-1.76,8.68-5.57,16.1-12.44,21.71-14.15,11.57-30.13,11.33-43.51-1-2.83-2.62-5-3.19-8.71-2.07-8.75,2.68-17.08,1-25.11-3.32-2.17-1.16-5-1.09-7.61-1.43-5.77-.77-11.81-.65-17.23-2.44-3.27-1.08-5.58-5.07-7.93-8.46,18.39-1.38,31.94-10.34,43.65-22.84.5-.54,1-1.06,1.5-1.63,2.8-3.33,4.05-6.89.29-10.2-3.57-3.15-6.66-1.27-9.74,1.41-6,5.17-11.71,10.78-18.35,14.94-8.73,5.47-18.5,5.87-28.22,2.05-13.64-5.36-20.21-15.49-19.59-30.11.08-2,.2-4,.34-6.57-19.72,1-38.48-.22-50.69-17.77,5.62-3.07,11.59-5.33,16.22-9.19,3.94-3.29,6.63-8.26,9.32-12.82,1.84-3.12.59-6.17-2.6-8s-6.1-.78-8.25,2a37.74,37.74,0,0,0-2.73,4.8c-5,9-21.43,13.76-30.56,3.7-7.75-8.53-10.79-18-7.91-29s10.38-18,21.33-21.19c1.21-.35,2.47-.59,3.67-.87-1.49-14.77,1.78-20.33,12.69-22.22,3,4.47,5.48,9.29,9,13.1,7.49,8,23.27,7.09,29.59-1.75,1.23-1.72,1.29-5.7.1-7.35s-4.58-1.8-7.07-2.21c-.87-.14-2,.89-2.92,1.42-7.53,4.18-11.55,3-14.54-5.08a8.58,8.58,0,0,1,.79-6.85c6.4-9.19,18.56-12.64,29.08-8.67,1.69.64,3.34,1.41,5,2.1,13.13-17.69,23.79-20.6,41.21-11.1,5.91-7,13.31-11.25,23-10.64,6.59.42,12,3.14,16.76,7.58,1.23,1.15,3.72,2.37,4.95,1.87,11.87-4.83,22.9-.43,29.84,11.62,19-4,25.49-.22,29.77,17.32,11.41-1.76,20.51,4.16,18.21,18.41a57.92,57.92,0,0,1,6.74,1.94c6.17,2.58,9.54,7.38,10.19,14,.72,7.27-1.18,9.33-8.39,9.67-11.25.53-20,5.69-26.86,14.49-2.67,3.43-3.88,7-.13,10.28s7.1,1.17,10-2c8.85-9.79,16.17-12.26,26.33-8.19a13.72,13.72,0,0,1,6.6,6c10.13,19.88,6,44.21-9.6,60.53a10.53,10.53,0,0,0-2.72,7c1.06,18.17-12.35,30.31-30.25,27.06A18.63,18.63,0,0,0,506.1,351.81ZM474.74,304.7c1-1,4.1-2.62,5.08-5.09,1.4-3.54-.91-6.28-4.61-7.48-10.38-3.36-13.35-6.95-13.63-17.66-.13-4.8-2.24-7.5-6.74-7.78-14.11-.86-22.15-8.73-25.84-21.78-1.23-4.33-3.93-6.3-8.23-5.11s-5,4.78-4,8.46c3.78,14.28,11.9,24.94,26.57,29.13,4.19,1.2,5.78,3.11,6.8,7.15C453,296.07,462,303.77,474.74,304.7Zm-13-107c-3.87,1.66-7.27,2.31-9.42,4.3a9.77,9.77,0,0,0-2.78,7.36c.47,3.56,3.71,4.79,7.26,3.92,2-.48,3.83-1.28,5.74-1.93,12.83-4.33,27.31-3.13,34.46,9.94,2,3.64,5.59,4.24,9,1.89s3.34-5.54,1.48-8.8c-4-7.1-9.57-12.79-17.43-15.37-5-1.64-11.6-.69-15.17-3.67s-4.14-9.54-6.38-14.36c-1.66-3.58-4.62-5.39-8.58-3.43-4.19,2.07-4.31,5.44-2.59,9.34C459,190.39,460.28,194,461.78,197.72Zm-45.84-6c-.38-2.73-.58-5.5-1.18-8.18-1.7-7.58-4.12-10.06-8.63-9.19s-5.59,4.19-3.95,11.78c2.21,10.22-.94,17.22-10.44,21.77-3.93,1.88-8.31,2.9-12.55,4.07-3.74,1-6,3.29-5.45,7.12.62,4.07,3.56,5.89,7.69,5.31,8.94-1.26,17.1-4.4,24-10.32A28.23,28.23,0,0,0,415.94,191.67ZM472.53,368.5c6.16-1.65,12.4-3.05,18.46-5,3.84-1.25,5.53-4.47,4.05-8.38s-4.81-4.69-8.63-3.47c-1.75.56-3.45,1.28-5.21,1.8-12.77,3.78-20.88.2-26.46-11.91-1.77-3.85-4.26-6.36-8.5-4.73-4.47,1.72-4.8,5.41-3.32,9.64C447.33,359,458.61,367.23,472.53,368.5ZM376,265.1c.84,4.49,1.49,9,2.59,13.47,1,3.85,3.57,6.26,7.74,5.09s5.61-4.53,4.35-8.7c-3.16-10.5-1.31-20,5.49-28.55,2.56-3.22,3.46-6.87-.09-9.78-3.72-3-7.13-1.62-10,1.89C379.74,246.23,376.72,255.09,376,265.1Z"/><ellipse id="_Path_59" data-name="&lt;Path&gt;" class="cls-21" cx="413.83" cy="587.74" rx="186.57" ry="13.59"/><path id="_Compound_Path_6" data-name="&lt;Compound Path&gt;" class="cls-22" d="M257.25,626.47a84,84,0,0,1,13.9-1.08c7.16,0,12.41,1.67,15.74,4.66,3.08,2.67,4.91,6.74,4.91,11.74s-1.5,9.08-4.33,12c-3.83,4.08-10.08,6.16-17.15,6.16a25,25,0,0,1-5.83-.5v22.48h-7.24Zm7.24,27.06a24.33,24.33,0,0,0,6,.58c8.74,0,14.07-4.25,14.07-12,0-7.41-5.25-11-13.24-11a30.4,30.4,0,0,0-6.83.58Z"/><path id="_Compound_Path_7" data-name="&lt;Compound Path&gt;" class="cls-22" d="M300.54,673.1a25.67,25.67,0,0,0,13,3.66c7.41,0,11.74-3.91,11.74-9.57,0-5.25-3-8.24-10.57-11.16-9.16-3.25-14.82-8-14.82-15.9,0-8.74,7.24-15.24,18.15-15.24,5.75,0,9.91,1.33,12.41,2.75l-2,5.91a22.36,22.36,0,0,0-10.66-2.66c-7.66,0-10.57,4.58-10.57,8.41,0,5.25,3.41,7.83,11.16,10.82,9.49,3.66,14.32,8.24,14.32,16.49,0,8.66-6.41,16.15-19.65,16.15-5.41,0-11.32-1.58-14.32-3.58Z"/><path id="_Compound_Path_8" data-name="&lt;Compound Path&gt;" class="cls-22" d="M355.08,681.93V658.11l-17.74-32.31h8.24l7.91,15.49c2.16,4.25,3.83,7.66,5.58,11.57h.17c1.58-3.66,3.5-7.33,5.66-11.57L373,625.81h8.24L362.41,658v23.9Z"/><path id="_Compound_Path_9" data-name="&lt;Compound Path&gt;" class="cls-22" d="M423.85,680.1c-2.67,1.33-8,2.66-14.82,2.66-15.82,0-27.73-10-27.73-28.39,0-17.57,11.91-29.48,29.31-29.48,7,0,11.41,1.5,13.32,2.5l-1.75,5.91A26.38,26.38,0,0,0,410.86,631c-13.16,0-21.9,8.41-21.9,23.15,0,13.74,7.91,22.56,21.57,22.56a29,29,0,0,0,11.82-2.33Z"/><path id="_Compound_Path_10" data-name="&lt;Compound Path&gt;" class="cls-22" d="M440.16,625.81v23.48h27.14V625.81h7.33v56.12h-7.33V655.62H440.16v26.31h-7.24V625.81Z"/><path id="_Compound_Path_11" data-name="&lt;Compound Path&gt;" class="cls-22" d="M494.45,625.81V659c0,12.57,5.58,17.9,13.07,17.9,8.33,0,13.65-5.5,13.65-17.9V625.81h7.33v32.72c0,17.24-9.08,24.31-21.23,24.31-11.49,0-20.15-6.58-20.15-24V625.81Z"/><path id="_Compound_Path_12" data-name="&lt;Compound Path&gt;" class="cls-22" d="M540.07,673.1a25.67,25.67,0,0,0,13,3.66c7.41,0,11.74-3.91,11.74-9.57,0-5.25-3-8.24-10.57-11.16-9.16-3.25-14.82-8-14.82-15.9,0-8.74,7.24-15.24,18.15-15.24,5.75,0,9.91,1.33,12.41,2.75l-2,5.91a22.36,22.36,0,0,0-10.66-2.66c-7.66,0-10.57,4.58-10.57,8.41,0,5.25,3.41,7.83,11.16,10.82,9.49,3.66,14.32,8.24,14.32,16.49,0,8.66-6.41,16.15-19.65,16.15-5.41,0-11.32-1.58-14.32-3.58Z"/><g id="_Group_37" data-name="&lt;Group&gt;"><g id="_Group_38" data-name="&lt;Group&gt;"><path id="_Path_60" data-name="&lt;Path&gt;" class="cls-23" d="M594.94,613.33V719.71c0,3.86,6,3.87,6,0V613.33c0-3.86-6-3.87-6,0Z"/></g></g><g id="_Group_39" data-name="&lt;Group&gt;"><g id="_Group_40" data-name="&lt;Group&gt;"><path id="_Path_61" data-name="&lt;Path&gt;" class="cls-23" d="M519.31,699.59H625.7c3.86,0,3.87-6,0-6H519.31c-3.86,0-3.87,6,0,6Z"/></g></g><g id="_Group_41" data-name="&lt;Group&gt;"><line id="_Path_62" data-name="&lt;Path&gt;" class="cls-15" x1="482.31" y1="708.15" x2="588.69" y2="708.15"/><g id="_Group_42" data-name="&lt;Group&gt;"><path id="_Path_63" data-name="&lt;Path&gt;" class="cls-24" d="M482.31,709.65H588.69a1.5,1.5,0,0,0,0-3H482.31a1.5,1.5,0,0,0,0,3Z"/></g></g><path id="_Compound_Path_13" data-name="&lt;Compound Path&gt;" class="cls-15" d="M300.07,278.35c13.34-2.24,21.74-9.19,27.11-20.14,2-4,2.07-7.61-2.2-10s-7.48-.26-9.46,3.67c-3.31,6.57-8,11.3-15.49,12.74-12.44,2.41-24.71-7.21-27.3-21.4-3.22-17.58,6.88-32.8,24.45-36.87a21.19,21.19,0,0,0,2.11-.72c-1-16,2-21.06,13.32-23.24,3.33,4.8,6.06,10,9.95,14.05,7.77,8.15,23.84,7,30.55-2,1.32-1.78,1.47-5.92.26-7.67s-4.73-2-7.33-2.49c-.9-.17-2.07.89-3.08,1.46-8.39,4.67-14,2.31-16.21-7.16-.36-1.53.45-3.74,1.44-5.11,6.1-8.49,19.39-15.7,36.16-6.88,4.17-7.5,9.52-13.85,18.37-16.2s16.78-.67,24.4,4.51c5.77-6.55,12.42-11.05,21.41-11.28a26.94,26.94,0,0,1,20.39,8.07c1.19,1.16,3.55,2.52,4.7,2.08,15-5.83,25,.71,31.78,12,19.79-4.25,26.79-.18,31.12,18.13,15.18-.25,21,5.56,19,19.42,1.76.38,3.6.67,5.37,1.18,8.93,2.55,13.94,11.5,12,20.93-.68,3.28-1.72,4.87-5.66,4.73-12.42-.44-22.48,4.64-30.18,14.38-3.81,4.82-4.15,9.18-.61,11.68,5,3.54,8.09.24,11.17-3.37,7.8-9.18,17.08-11.77,27.44-7.28a13.18,13.18,0,0,1,6,5.63c10.88,21,6.69,46.56-9.87,63.84a11.22,11.22,0,0,0-2.84,7.43c.83,19.32-12.55,31.45-31.63,28.33a17.91,17.91,0,0,0-2.56,0c-2.07,9.42-6.17,17.5-13.95,23.41-15.18,11.53-31.22,10.94-45.06-2-2.54-2.38-4.54-3.15-8.08-2-9.53,3-18.63,1.29-27.36-3.51-2.09-1.15-4.92-1-7.43-1.35-6-.75-12.36-.59-18-2.41-3.47-1.11-6-5.24-8.55-8.87,13.6-1.48,25.23-6.06,35.23-14.39a154.33,154.33,0,0,0,11.81-11.14c3.11-3.2,4.61-7,.8-10.67s-7.44-1.82-10.51,1.48C415.32,327.52,407.1,335,395.72,338c-22.74,6-43-10.18-41.87-33.46.09-1.88,0-3.76,0-6.22C333.33,299.4,313.75,298.06,300.07,278.35Zm128.78-45.26c-7.21,0-10,4-8.22,10,4.35,14.78,13,25.81,28.51,29.94,3.63,1,5.28,2.69,6.15,6.34,3,12.57,11.19,20.12,22.72,21.66,4.3.58,7.94-.22,8.72-5.13.76-4.72-1.93-7.32-6.41-7.92-7-.92-11.6-5.49-11.84-11.64-.41-10.57-4.28-14.91-15.15-16.22s-16.54-10.25-19.93-20.44C432.48,236.85,429.93,234.59,428.85,233.09Zm38.81-43.76c-2.89,1.19-5,2.08-7.12,2.91-4.32,1.7-7.89,4.1-5.69,9.44s6.29,4.34,10.74,2.94c4.93-1.55,10-3.11,15.15-3.43,10-.63,18.07,3.21,23.39,12.06,2.37,3.94,5.82,5.31,9.78,2.78,4.14-2.64,3.58-6.5,1.29-10.15a49.53,49.53,0,0,0-4.87-6.45c-7.72-8.7-17.86-11.67-28.81-11.76-2.06-5.14-3.81-10-6-14.74-1.92-4.19-4.83-7.43-10-4.73-4.71,2.48-4,6.4-2.16,10.48C464.95,182.16,466.22,185.7,467.66,189.33Zm-48.06-6.53c-.41-2.86-.62-5.76-1.26-8.56-1.83-8-4.29-10.48-9.09-9.52-4.57.92-5.68,4.4-4,12.41,2.25,10.66-1.13,18.05-11.07,22.76-4.13,2-8.7,3-13.15,4.25-4,1.08-6.28,3.51-5.65,7.48s3.44,6,7.57,5.51a47.44,47.44,0,0,0,25.28-10.51C415.67,200.46,419.68,192.65,419.6,182.81ZM479.8,368.1c6.08-1.65,12.23-3.09,18.23-5,4-1.3,6-4.51,4.57-8.67s-4.79-5.14-8.86-3.88q-2.2.68-4.39,1.42c-14.25,4.78-22.8,1.25-29.2-12.22-1.88-4-4.52-6.57-9-4.62-4.31,1.87-4.75,5.49-3.32,9.73C452.45,358.49,464.87,367.33,479.8,368.1ZM394.53,227.37c-2.4,1.8-4.68,2.92-6.13,4.71-10,12.3-12.32,26.24-8.17,41.35,1.13,4.11,3.6,7.25,8.34,5.87s5.14-5,4.56-9.69a63.3,63.3,0,0,1,.15-18.72c.73-4.09,4.39-7.58,6.12-11.6a11.76,11.76,0,0,0,.72-7.53C399.59,230.06,396.84,229.08,394.53,227.37Z"/><path id="_Path_64" data-name="&lt;Path&gt;" class="cls-25" d="M408.28,238c1.08,1.5,3.63,3.76,4.56,6.55,3.39,10.19,9,19.12,19.93,20.44s14.74,5.66,15.15,16.22c.24,6.15,4.87,10.71,11.84,11.64,4.48.59,7.17,3.2,6.41,7.92-.79,4.91-4.43,5.7-8.72,5.13-11.53-1.55-19.7-9.09-22.72-21.66-.88-3.65-2.52-5.38-6.15-6.34C413,273.82,404.41,262.78,400.06,248,398.3,242,401.07,238,408.28,238Z"/><path id="_Path_65" data-name="&lt;Path&gt;" class="cls-25" d="M480.73,201.2c-1.43-3.63-2.71-7.18-4.23-10.62-1.8-4.09-2.55-8,2.16-10.48,5.14-2.7,8,.53,10,4.73,2.15,4.71,3.91,9.6,6,14.74,10.95.09,21.09,3.06,28.81,11.76a49.53,49.53,0,0,1,4.87,6.45c2.3,3.65,2.85,7.51-1.29,10.15-4,2.52-7.41,1.16-9.78-2.78-5.32-8.85-13.43-12.69-23.39-12.06-5.11.32-10.21,1.88-15.15,3.43-4.45,1.4-8.57,2.32-10.74-2.94s1.36-7.73,5.69-9.44C475.74,203.27,477.84,202.38,480.73,201.2Z"/><path id="_Path_66" data-name="&lt;Path&gt;" class="cls-25" d="M425.26,194.91c.08,9.85-3.93,17.65-11.35,23.83a47.44,47.44,0,0,1-25.28,10.51c-4.13.5-7-1.61-7.57-5.51s1.69-6.4,5.65-7.48c4.44-1.21,9-2.29,13.15-4.25,9.93-4.71,13.32-12.11,11.07-22.76-1.69-8-.58-11.49,4-12.41,4.8-1,7.26,1.51,9.09,9.52C424.64,189.15,424.85,192.05,425.26,194.91Z"/><path id="_Path_67" data-name="&lt;Path&gt;" class="cls-25" d="M467.21,369.44c-14.93-.77-27.36-9.61-32-23.28-1.43-4.24-1-7.86,3.32-9.73,4.49-1.95,7.13.66,9,4.62,6.4,13.46,14.94,17,29.2,12.22q2.19-.73,4.39-1.42c4.07-1.26,7.45-.35,8.86,3.88s-.55,7.37-4.57,8.67C479.45,366.34,473.3,367.79,467.21,369.44Z"/><path id="_Path_68" data-name="&lt;Path&gt;" class="cls-25" d="M358.62,234.85c2.31,1.71,5.06,2.7,5.59,4.38a11.76,11.76,0,0,1-.72,7.53c-1.73,4-5.39,7.51-6.12,11.6a63.3,63.3,0,0,0-.15,18.72c.59,4.71.23,8.31-4.56,9.69s-7.22-1.76-8.34-5.87c-4.15-15.12-1.82-29.05,8.17-41.35C353.94,237.77,356.22,236.66,358.62,234.85Z"/><path id="_Path_69" data-name="&lt;Path&gt;" class="cls-26" d="M303.1,221.32c.09.95.12,1.91.28,2.84a3.7,3.7,0,0,0,3.09,3.16,8,8,0,0,0,4.11-.11c1.75-.53,2.73-1.95,2.83-4.09,0-1.09,0-2.18,0-3.26a6.57,6.57,0,0,1,.06-.78c.16-1.15.74-1.56,1.84-1.2a11,11,0,0,1,4.24,2.47c.85.8.8,1.51-.15,2.18-.75.52-1.58.93-2.35,1.42a15.85,15.85,0,0,0-1.79,1.25,3.71,3.71,0,0,0-1.17,4.68,12.16,12.16,0,0,0,1.58,2.7,3.72,3.72,0,0,0,4.74,1.13c1.23-.54,2.38-1.25,3.57-1.88a6.36,6.36,0,0,1,.81-.38,1.16,1.16,0,0,1,1.72.87,10.74,10.74,0,0,1,0,5.23,1.15,1.15,0,0,1-1.8.87c-.89-.4-1.7-.95-2.57-1.38a16.84,16.84,0,0,0-2.52-1.08,3.42,3.42,0,0,0-3.49.86,7.67,7.67,0,0,0-2.36,4.19c-.36,1.88.59,3.18,2,4.17.94.64,2,1.18,2.93,1.78a5.82,5.82,0,0,1,1,.74,1,1,0,0,1,.11,1.51,2.61,2.61,0,0,1-.4.47,11.88,11.88,0,0,1-4,2.32c-1.25.42-1.84.08-2-1.23-.11-1,0-1.95-.07-2.92a14.49,14.49,0,0,0-.25-2.34,3.6,3.6,0,0,0-2.68-2.82,7.76,7.76,0,0,0-4-.11c-2.13.5-3.18,1.86-3.3,4.24-.05,1.07,0,2.14,0,3.21a6.34,6.34,0,0,1-.11,1.12,1.11,1.11,0,0,1-1.48,1,10.39,10.39,0,0,1-3.61-1.76,6.36,6.36,0,0,1-1.11-.95,1.1,1.1,0,0,1,.13-1.83c.61-.46,1.29-.82,1.94-1.24s1.6-1,2.34-1.55a3.72,3.72,0,0,0,1.37-4.4,8,8,0,0,0-2.23-3.58,3.49,3.49,0,0,0-3.77-.75,35.55,35.55,0,0,0-3.31,1.64,15.64,15.64,0,0,1-1.66.81,1.05,1.05,0,0,1-1.54-.77,10.09,10.09,0,0,1,0-5.49,1.07,1.07,0,0,1,1.61-.78c.74.3,1.42.74,2.14,1.1a24.74,24.74,0,0,0,2.67,1.3,3.67,3.67,0,0,0,4.2-1,8.28,8.28,0,0,0,2-3.49c.5-1.81-.15-3.35-1.93-4.57-.8-.55-1.66-1-2.5-1.52a12.94,12.94,0,0,1-1.13-.73c-.9-.68-1-1.41-.11-2.14a16,16,0,0,1,2.49-1.71,8.88,8.88,0,0,1,2.08-.82,1,1,0,0,1,1.45,1c.12.83.12,1.68.17,2.52Z"/><path id="_Path_70" data-name="&lt;Path&gt;" class="cls-27" d="M369.21,171.47c.12,1.24.16,2.49.37,3.71a4.82,4.82,0,0,0,4,4.12,10.45,10.45,0,0,0,5.36-.15c2.28-.69,3.56-2.54,3.68-5.33.06-1.42,0-2.83.06-4.25a8.56,8.56,0,0,1,.08-1c.2-1.49,1-2,2.4-1.56a14.35,14.35,0,0,1,5.52,3.21c1.1,1,1,2-.2,2.84-1,.68-2.06,1.21-3.07,1.85a20.66,20.66,0,0,0-2.34,1.63,4.84,4.84,0,0,0-1.52,6.1,15.84,15.84,0,0,0,2.06,3.51,4.85,4.85,0,0,0,6.18,1.48c1.6-.7,3.11-1.63,4.66-2.46a8.29,8.29,0,0,1,1.06-.49,1.51,1.51,0,0,1,2.25,1.13,14,14,0,0,1,0,6.82,1.5,1.5,0,0,1-2.34,1.14c-1.15-.51-2.21-1.24-3.35-1.8a21.94,21.94,0,0,0-3.28-1.41,4.46,4.46,0,0,0-4.55,1.11,10,10,0,0,0-3.08,5.46c-.47,2.45.76,4.14,2.66,5.44,1.23.84,2.55,1.53,3.82,2.31a7.59,7.59,0,0,1,1.29,1,1.34,1.34,0,0,1,.15,2,3.4,3.4,0,0,1-.53.61,15.48,15.48,0,0,1-5.23,3c-1.63.55-2.39.1-2.58-1.6-.14-1.26,0-2.54-.1-3.81a18.89,18.89,0,0,0-.32-3,4.69,4.69,0,0,0-3.49-3.68,10.11,10.11,0,0,0-5.21-.14c-2.78.65-4.14,2.42-4.3,5.52-.07,1.39,0,2.79-.05,4.18a8.26,8.26,0,0,1-.15,1.46,1.45,1.45,0,0,1-1.93,1.26,13.55,13.55,0,0,1-4.71-2.3,8.29,8.29,0,0,1-1.44-1.23,1.44,1.44,0,0,1,.17-2.39c.79-.61,1.69-1.07,2.52-1.61,1-.66,2.08-1.28,3-2a4.85,4.85,0,0,0,1.79-5.73,10.42,10.42,0,0,0-2.91-4.67,4.55,4.55,0,0,0-4.91-1,46.33,46.33,0,0,0-4.32,2.13,20.38,20.38,0,0,1-2.16,1.05,1.37,1.37,0,0,1-2-1,13.15,13.15,0,0,1,0-7.16,1.39,1.39,0,0,1,2.1-1c1,.39,1.86,1,2.79,1.43a32.23,32.23,0,0,0,3.48,1.69,4.79,4.79,0,0,0,5.47-1.35,10.79,10.79,0,0,0,2.57-4.55c.65-2.37-.19-4.37-2.51-6-1-.71-2.17-1.31-3.25-2a16.87,16.87,0,0,1-1.48-1c-1.17-.89-1.27-1.83-.15-2.79a20.87,20.87,0,0,1,3.25-2.23,11.57,11.57,0,0,1,2.71-1.07,1.37,1.37,0,0,1,1.89,1.27c.15,1.08.16,2.19.23,3.28Z"/><path id="_Path_71" data-name="&lt;Path&gt;" class="cls-25" d="M498.85,285.15c.16,1.63.21,3.28.49,4.89a6.36,6.36,0,0,0,5.32,5.43,13.78,13.78,0,0,0,7.07-.19c3-.91,4.69-3.35,4.86-7,.08-1.87,0-3.74.07-5.61a11.3,11.3,0,0,1,.11-1.35c.27-2,1.26-2.68,3.17-2.06a18.94,18.94,0,0,1,7.29,4.24c1.46,1.38,1.38,2.6-.27,3.75-1.29.9-2.72,1.6-4,2.45a27.26,27.26,0,0,0-3.09,2.15c-2.64,2.24-3.35,4.88-2,8.05a20.91,20.91,0,0,0,2.72,4.64,6.4,6.4,0,0,0,8.16,2c2.12-.92,4.1-2.16,6.14-3.24a10.94,10.94,0,0,1,1.4-.65c1.51-.54,2.58-.07,3,1.49a18.47,18.47,0,0,1,0,9c-.41,1.68-1.5,2.21-3.09,1.5s-2.92-1.63-4.42-2.37a29,29,0,0,0-4.33-1.86,5.88,5.88,0,0,0-6,1.47,13.18,13.18,0,0,0-4.07,7.21c-.62,3.23,1,5.47,3.51,7.17,1.62,1.1,3.37,2,5,3.05a10,10,0,0,1,1.7,1.27,1.77,1.77,0,0,1,.19,2.6,4.49,4.49,0,0,1-.7.8,20.43,20.43,0,0,1-6.9,4c-2.15.73-3.16.13-3.41-2.12-.18-1.66,0-3.35-.13-5a24.92,24.92,0,0,0-.42-4,6.18,6.18,0,0,0-4.61-4.86,13.34,13.34,0,0,0-6.88-.18c-3.67.86-5.46,3.19-5.67,7.28-.09,1.83,0,3.68-.07,5.51a10.9,10.9,0,0,1-.19,1.92,1.92,1.92,0,0,1-2.55,1.66,17.87,17.87,0,0,1-6.21-3,10.93,10.93,0,0,1-1.91-1.63c-1-1.13-1-2.22.22-3.16,1-.8,2.22-1.41,3.33-2.13,1.35-.87,2.75-1.69,4-2.67a6.4,6.4,0,0,0,2.36-7.56,13.75,13.75,0,0,0-3.84-6.16,6,6,0,0,0-6.48-1.28,61.13,61.13,0,0,0-5.7,2.81,26.89,26.89,0,0,1-2.86,1.39,1.81,1.81,0,0,1-2.64-1.32,17.35,17.35,0,0,1,0-9.44,1.83,1.83,0,0,1,2.78-1.35c1.28.51,2.45,1.27,3.68,1.89a42.53,42.53,0,0,0,4.59,2.23,6.31,6.31,0,0,0,7.22-1.78,14.23,14.23,0,0,0,3.4-6c.86-3.12-.25-5.77-3.31-7.86-1.38-.94-2.86-1.73-4.29-2.61a22.26,22.26,0,0,1-1.95-1.26c-1.54-1.18-1.68-2.42-.19-3.69a27.54,27.54,0,0,1,4.29-2.94,15.26,15.26,0,0,1,3.57-1.41,1.8,1.8,0,0,1,2.49,1.68c.2,1.43.21,2.89.3,4.33Z"/><g id="_Group_43" data-name="&lt;Group&gt;"><path id="_Path_72" data-name="&lt;Path&gt;" class="cls-25" d="M455.42,241a12,12,0,0,0,5.59,2.84c.6.12,1.22.13,1.82.25a1,1,0,0,1,.64.44,10.67,10.67,0,0,1-.38,9.63.73.73,0,0,1-.56.32,10.68,10.68,0,0,1-8.48-4.83.7.7,0,0,1-.06-.6,12.08,12.08,0,0,0,1.38-7.84A1.08,1.08,0,0,1,455.42,241Z"/><path id="_Path_73" data-name="&lt;Path&gt;" class="cls-25" d="M434.16,237.33a10.94,10.94,0,0,1,8.8-5.09.66.66,0,0,1,.5.26,12.27,12.27,0,0,0,6,4.9.1.1,0,0,1,.05.06,20.8,20.8,0,0,0-3,1.72,29.52,29.52,0,0,0-3,3,.88.88,0,0,1-.83.39A11.06,11.06,0,0,1,434.16,237.33Z"/><path id="_Path_74" data-name="&lt;Path&gt;" class="cls-25" d="M455.45,234.25c.06-1,.17-1.92.17-2.88a10.75,10.75,0,0,0-1.11-4.77.85.85,0,0,1,.12-1,11,11,0,0,1,8.3-4.49.64.64,0,0,1,.76.46,10.81,10.81,0,0,1-.33,9.64.66.66,0,0,1-.47.31,12.15,12.15,0,0,0-7.3,2.67A.72.72,0,0,1,455.45,234.25Z"/><path id="_Path_75" data-name="&lt;Path&gt;" class="cls-25" d="M451.58,234.19c-.62-.44-1.17-.87-1.75-1.23a11.53,11.53,0,0,0-5.42-1.78.76.76,0,0,1-.74-.53,10.93,10.93,0,0,1,.14-9.43.73.73,0,0,1,.87-.49,10.83,10.83,0,0,1,8.12,5,1,1,0,0,1,0,.84,12,12,0,0,0-1.31,6.25c0,.23.06.46.08.69S451.56,233.92,451.58,234.19Z"/><path id="_Path_76" data-name="&lt;Path&gt;" class="cls-25" d="M442.72,231.14a12.21,12.21,0,0,0-9.09,5.08,10.91,10.91,0,0,1,9.21-15.46A12.29,12.29,0,0,0,442.72,231.14Z"/><path id="_Path_77" data-name="&lt;Path&gt;" class="cls-25" d="M442.51,254.15a10.83,10.83,0,0,1-8.31-5.1,11,11,0,0,1-.64-10.66,12.32,12.32,0,0,0,9,5.3A12.36,12.36,0,0,0,442.51,254.15Z"/><path id="_Path_78" data-name="&lt;Path&gt;" class="cls-25" d="M444.77,219.64a11,11,0,0,1,18.08.38,12.27,12.27,0,0,0-9.16,5A12.28,12.28,0,0,0,444.77,219.64Z"/><path id="_Path_79" data-name="&lt;Path&gt;" class="cls-25" d="M473.31,237.07a12.34,12.34,0,0,0-8.88-5.49,12.36,12.36,0,0,0,.26-10.43,11,11,0,0,1,8.62,15.92Z"/><path id="_Path_80" data-name="&lt;Path&gt;" class="cls-25" d="M457.51,237.64c1-.56,2-1,3-1.63a10.14,10.14,0,0,0,3-3,.81.81,0,0,1,.89-.39,10.82,10.82,0,0,1,8.07,5.11.71.71,0,0,1,0,.64,10.78,10.78,0,0,1-8.16,4.61.58.58,0,0,1-.46-.2A12.29,12.29,0,0,0,457.51,237.64Z"/><path id="_Path_81" data-name="&lt;Path&gt;" class="cls-25" d="M451.34,241c-.06.52-.13,1-.18,1.47a11.53,11.53,0,0,0,1.2,6.45.68.68,0,0,1-.07.85,10.9,10.9,0,0,1-8.09,4.4.56.56,0,0,1-.66-.4,10.78,10.78,0,0,1,.1-9.65.73.73,0,0,1,.49-.38,12.14,12.14,0,0,0,7-2.65A1,1,0,0,1,451.34,241Z"/><path id="_Path_82" data-name="&lt;Path&gt;" class="cls-25" d="M444.37,255.23a12.34,12.34,0,0,0,8.8-4.86,12.31,12.31,0,0,0,9,5.24,10.65,10.65,0,0,1-7.67,4.31A10.92,10.92,0,0,1,444.37,255.23Z"/><path id="_Path_83" data-name="&lt;Path&gt;" class="cls-25" d="M473.21,239.24a10.91,10.91,0,0,1-9,15.22,12.24,12.24,0,0,0,.26-10.34A12.27,12.27,0,0,0,473.21,239.24Z"/><path id="_Path_84" data-name="&lt;Path&gt;" class="cls-25" d="M453.4,238.73c1.43,2.21,1.44,6.81-.17,9.36C451.78,246,451.86,240.76,453.4,238.73Z"/><path id="_Path_85" data-name="&lt;Path&gt;" class="cls-25" d="M454.36,238.16c2.69-.22,6.91,2.32,8.22,4.86A11,11,0,0,1,454.36,238.16Z"/><path id="_Path_86" data-name="&lt;Path&gt;" class="cls-25" d="M453.39,236.39a11.06,11.06,0,0,1,.2-9.06A10.15,10.15,0,0,1,453.39,236.39Z"/><path id="_Path_87" data-name="&lt;Path&gt;" class="cls-25" d="M454.42,236.92a11,11,0,0,1,7.92-4.3C461.54,234.66,456.83,237.24,454.42,236.92Z"/><path id="_Path_88" data-name="&lt;Path&gt;" class="cls-25" d="M444.68,232.3c2.95.19,6.76,2.48,7.71,4.62C449.94,237,446.2,234.79,444.68,232.3Z"/><path id="_Path_89" data-name="&lt;Path&gt;" class="cls-25" d="M444.58,242.51a11,11,0,0,1,7.7-4.43C451.61,239.94,447.54,242.59,444.58,242.51Z"/></g><g id="_Group_44" data-name="&lt;Group&gt;"><path id="_Path_90" data-name="&lt;Path&gt;" class="cls-26" d="M393.82,308.65a13.62,13.62,0,0,0,6.32,3.21c.68.13,1.38.14,2.05.28a1.11,1.11,0,0,1,.72.5,12.06,12.06,0,0,1-.43,10.89.82.82,0,0,1-.63.37,12.07,12.07,0,0,1-9.58-5.46.79.79,0,0,1-.06-.68,13.66,13.66,0,0,0,1.56-8.86A1.22,1.22,0,0,1,393.82,308.65Z"/><path id="_Path_91" data-name="&lt;Path&gt;" class="cls-26" d="M369.79,304.47a12.37,12.37,0,0,1,9.94-5.76.75.75,0,0,1,.56.29,13.87,13.87,0,0,0,6.84,5.54.11.11,0,0,1,.06.06,23.51,23.51,0,0,0-3.41,1.94,33.36,33.36,0,0,0-3.42,3.43,1,1,0,0,1-.94.44A12.5,12.5,0,0,1,369.79,304.47Z"/><path id="_Path_92" data-name="&lt;Path&gt;" class="cls-26" d="M393.85,301c.07-1.09.19-2.17.19-3.25a12.15,12.15,0,0,0-1.25-5.39,1,1,0,0,1,.14-1.15,12.4,12.4,0,0,1,9.38-5.07.73.73,0,0,1,.86.52,12.22,12.22,0,0,1-.37,10.9.74.74,0,0,1-.53.34,13.73,13.73,0,0,0-8.25,3A.81.81,0,0,1,393.85,301Z"/><path id="_Path_93" data-name="&lt;Path&gt;" class="cls-26" d="M389.48,300.91c-.7-.5-1.32-1-2-1.39a13,13,0,0,0-6.12-2,.86.86,0,0,1-.83-.6,12.35,12.35,0,0,1,.16-10.66.82.82,0,0,1,1-.56,12.24,12.24,0,0,1,9.18,5.66,1.14,1.14,0,0,1,0,1,13.51,13.51,0,0,0-1.48,7.06c0,.26.06.52.09.78S389.46,300.6,389.48,300.91Z"/><path id="_Path_94" data-name="&lt;Path&gt;" class="cls-26" d="M379.46,297.47a13.8,13.8,0,0,0-10.27,5.74,12.33,12.33,0,0,1,10.41-17.48A13.89,13.89,0,0,0,379.46,297.47Z"/><path id="_Path_95" data-name="&lt;Path&gt;" class="cls-26" d="M379.23,323.47a12.24,12.24,0,0,1-9.4-5.77c-2.39-3.8-2.51-7.8-.72-12.05a13.93,13.93,0,0,0,10.22,6A14,14,0,0,0,379.23,323.47Z"/><path id="_Path_96" data-name="&lt;Path&gt;" class="cls-26" d="M381.78,284.47a12.46,12.46,0,0,1,20.43.43,13.87,13.87,0,0,0-10.36,5.69A13.88,13.88,0,0,0,381.78,284.47Z"/><path id="_Path_97" data-name="&lt;Path&gt;" class="cls-26" d="M414,304.16a14,14,0,0,0-10-6.2,14,14,0,0,0,.3-11.79,12.19,12.19,0,0,1,9.31,6C415.88,296,415.91,300,414,304.16Z"/><path id="_Path_98" data-name="&lt;Path&gt;" class="cls-26" d="M396.18,304.81c1.15-.63,2.29-1.17,3.35-1.84a11.46,11.46,0,0,0,3.41-3.34.91.91,0,0,1,1-.44,12.23,12.23,0,0,1,9.12,5.78.81.81,0,0,1,0,.73,12.18,12.18,0,0,1-9.23,5.21.66.66,0,0,1-.52-.23A13.89,13.89,0,0,0,396.18,304.81Z"/><path id="_Path_99" data-name="&lt;Path&gt;" class="cls-26" d="M389.2,308.59c-.07.58-.14,1.12-.2,1.66a13,13,0,0,0,1.35,7.29.77.77,0,0,1-.08,1,12.32,12.32,0,0,1-9.14,5,.64.64,0,0,1-.74-.45,12.19,12.19,0,0,1,.11-10.91.83.83,0,0,1,.55-.43,13.72,13.72,0,0,0,7.91-3A1.18,1.18,0,0,1,389.2,308.59Z"/><path id="_Path_100" data-name="&lt;Path&gt;" class="cls-26" d="M381.33,324.7a13.94,13.94,0,0,0,9.94-5.49,13.91,13.91,0,0,0,10.21,5.92,12,12,0,0,1-8.67,4.87C388.09,330.42,384.31,328.6,381.33,324.7Z"/><path id="_Path_101" data-name="&lt;Path&gt;" class="cls-26" d="M413.92,306.62a12.33,12.33,0,0,1-10.16,17.2,13.84,13.84,0,0,0,.3-11.69A13.87,13.87,0,0,0,413.92,306.62Z"/><path id="_Path_102" data-name="&lt;Path&gt;" class="cls-26" d="M391.53,306.05c1.62,2.5,1.62,7.7-.19,10.58C389.71,314.25,389.79,308.34,391.53,306.05Z"/><path id="_Path_103" data-name="&lt;Path&gt;" class="cls-26" d="M392.62,305.4c3-.25,7.81,2.62,9.29,5.5A12.47,12.47,0,0,1,392.62,305.4Z"/><path id="_Path_104" data-name="&lt;Path&gt;" class="cls-26" d="M391.52,303.4a12.5,12.5,0,0,1,.23-10.24C393.32,295.82,393.16,300.92,391.52,303.4Z"/><path id="_Path_105" data-name="&lt;Path&gt;" class="cls-26" d="M392.68,304a12.49,12.49,0,0,1,9-4.86C400.73,301.44,395.41,304.36,392.68,304Z"/><path id="_Path_106" data-name="&lt;Path&gt;" class="cls-26" d="M381.68,298.78c3.33.21,7.64,2.81,8.72,5.22C387.63,304.11,383.39,301.59,381.68,298.78Z"/><path id="_Path_107" data-name="&lt;Path&gt;" class="cls-26" d="M381.57,310.32a12.46,12.46,0,0,1,8.7-5C389.51,307.41,384.91,310.41,381.57,310.32Z"/></g></svg>