<svg xmlns="http://www.w3.org/2000/svg" viewBox="0 0 1728 1296"><defs><style>.cls-1{fill:#edece8;}.cls-2,.cls-9{fill:#de2c93;}.cls-3{fill:#b6df3e;}.cls-4{fill:#c1e1ca;}.cls-5{fill:#ff0500;}.cls-6{fill:#b5e0d9;}.cls-7{fill:#cfd6d4;}.cls-8{fill:#f2bd3c;}.cls-9{opacity:0.48;}.cls-10{opacity:0.7;}.cls-11,.cls-12,.cls-13,.cls-18{fill:none;}.cls-11{stroke:#ff0500;stroke-width:2px;}.cls-11,.cls-12,.cls-13{stroke-miterlimit:10;}.cls-12{stroke:#f2bd3c;}.cls-12,.cls-13{stroke-width:3px;}.cls-13{stroke:#b6df3e;}.cls-14{font-size:119.19px;font-family:CaviarDreams-Bold, Caviar Dreams;font-weight:700;}.cls-14,.cls-16{fill:#65895b;}.cls-15{fill:#160137;}.cls-17{fill:#f6ffd4;}.cls-17,.cls-18{stroke:#55004e;stroke-linecap:round;stroke-linejoin:round;stroke-width:9px;}</style></defs><title>Artboard 7</title><g id="Layer_1" data-name="Layer 1"><path class="cls-1" d="M744.28,177.62S872.62,280.11,1006.1,288,1155,335.29,1155,335.29s51.34,31.53,87.28,0,77,59.13,77,59.13,41.07,122.2-66.74,63.07,15.4,86.72,15.4,86.72,92.37-11.83,59,51.24S1355.21,694,1355.21,694s56.47,55.19-30.8,71-138.61,74.9-138.61,74.9,71.87-90.66-20.54-110.37-267,11.83-267,11.83l-30.8,51.24s-87.28,11.83-205.35-78.84S503,496.91,405.44,508.73,513.25,366.83,513.25,366.83,446.51,252.51,569.72,217,744.28,177.62,744.28,177.62Z"/><path class="cls-2" d="M1238,366.94c23.68,0,47.39-.7,71,.2,21.84.83,40.56,9.5,53.77,27.64,18.79,25.81,11.11,64.29-16.35,80.09-3.41,2-9.23-.25-13.94-.53,1.24-4.45,1-10.82,3.95-13,15.45-11.72,22.67-26.14,17.75-45.36-4.26-16.61-20.17-29.79-40.59-30.76-32.66-1.54-65.41-1.32-98.13-1.71-15.32-.18-30.65.13-46-.17-6.47-.13-15.76,2.31-15.45-8.63s9.64-7.91,16-8c22.64-.28,45.28-.11,67.92-.11Z"/><path class="cls-3" d="M928,208.8v26.81a1.5,1.5,0,0,0,3,0V208.8a1.5,1.5,0,0,0-3,0Z"/><path class="cls-3" d="M914.88,224.29h28.56a1.5,1.5,0,0,0,0-3H914.88a1.5,1.5,0,0,0,0,3Z"/><path class="cls-4" d="M1297.76,756c-.35,12-9.77,22-22,22a22,22,0,0,1,0-44c12.24,0,21.67,10,22,22,.06,1.93,3.06,1.93,3,0-.66-22.69-29.61-34.05-44.42-15.77-14.3,17.65,1.52,44.42,23.89,40.37,12-2.17,20.19-12.65,20.53-24.61C1300.81,754.08,1297.81,754.08,1297.76,756Z"/><circle class="cls-5" cx="788.44" cy="233.35" r="7.84"/><path class="cls-6" d="M1072.3,226.56c-15.72,7.14-31.94-11-21.17-25.33,9.82-13,29.92-5.51,30.49,10.17.07,1.92,3.07,1.93,3,0-.69-18.77-25.24-27.5-36.37-11.34a20.12,20.12,0,0,0,.61,23.51c6,7.81,16.22,9.54,25,5.57,1.76-.8.23-3.38-1.51-2.59Z"/><ellipse class="cls-7" cx="872.89" cy="931.62" rx="365.24" ry="17.19"/><path id="_Path_" data-name="&lt;Path&gt;" class="cls-3" d="M475.06,675.76l35.25,28.78a5.66,5.66,0,0,0,5.16,1.05l43.69-12.72a5.66,5.66,0,0,1,6.86,7.49l-16.48,42.41a5.66,5.66,0,0,0,.6,5.24l25.6,37.62a5.66,5.66,0,0,1-5,8.84L525.3,791.9a5.66,5.66,0,0,0-4.79,2.18l-27.87,36a5.66,5.66,0,0,1-10-2l-11.6-44a5.66,5.66,0,0,0-3.56-3.88L424.7,764.75a5.66,5.66,0,0,1-1.15-10.09L461.82,730a5.66,5.66,0,0,0,2.59-4.59L465.82,680A5.66,5.66,0,0,1,475.06,675.76Z"/><path id="_Path_2" data-name="&lt;Path&gt;" class="cls-8" d="M613.18,251.78,631.69,319a8.68,8.68,0,0,0,5.52,5.89l65.88,22.87A8.68,8.68,0,0,1,705,363.22L646.8,401.6a8.68,8.68,0,0,0-3.9,7.07l-1.39,69.72A8.68,8.68,0,0,1,627.42,485l-54.5-43.51A8.68,8.68,0,0,0,565,440l-66.74,20.22a8.68,8.68,0,0,1-10.64-11.36l24.54-65.28a8.68,8.68,0,0,0-1-8L471.3,318.32a8.68,8.68,0,0,1,7.51-13.63l69.67,3.17a8.68,8.68,0,0,0,7.31-3.43l42.11-55.59A8.68,8.68,0,0,1,613.18,251.78Z"/><path class="cls-3" d="M557.42,186.27c45.25,0,90.5-.19,135.75.35,3.86,0,7.66,5,11.5,7.68-3.4,3.26-6.31,8.22-10.33,9.39-5.81,1.69-12.41.72-18.67.73q-122.72,0-245.44.1a106.53,106.53,0,0,0-21.72,2.14c-20.58,4.35-32.66,19.4-32,39,.6,19.1,14.26,33.81,34.93,36.63,9.61,1.31,19.4,1.4,29.11,1.74,6.09.21,11.16,2.53,9.71,8.9-.73,3.21-6.15,7.45-9.6,7.6-18.36.78-36.95,1.65-53.55-8.91-21.13-13.44-32.41-36.54-27.76-57.26,5.43-24.14,26-43.56,51-45.66,21.1-1.77,42.4-1.56,63.61-1.76,27.85-.26,55.7-.06,83.55-.06Z"/><path class="cls-8" d="M1277,635.35c-12.68,5.76-25.91-8.38-18-20.39,7.7-11.72,25.2-5.4,25.77,7.81.08,1.92,3.08,1.93,3,0-.69-16.21-22-23.62-31.36-9.33-9.67,14.83,6.91,31.4,22.12,24.49,1.76-.8.23-3.38-1.51-2.59Z"/><path class="cls-2" d="M457.07,404c-.76,15-23.47,15.22-23.47,0s22.72-15,23.47,0c.1,1.92,3.1,1.93,3,0-.4-8-6.42-14.74-14.74-14.74a14.74,14.74,0,1,0,0,29.47c8.31,0,14.33-6.73,14.74-14.74C460.17,402.1,457.17,402.1,457.07,404Z"/><path class="cls-3" d="M1270.7,409.6v26.81a1.5,1.5,0,0,0,3,0V409.6a1.5,1.5,0,0,0-3,0Z"/><path class="cls-3" d="M1257.63,425.09h28.56a1.5,1.5,0,0,0,0-3h-28.56a1.5,1.5,0,0,0,0,3Z"/><path class="cls-3" d="M459.8,566.7v26.81a1.5,1.5,0,0,0,3,0V566.7a1.5,1.5,0,0,0-3,0Z"/><path class="cls-3" d="M446.73,582.19h28.56a1.5,1.5,0,0,0,0-3H446.73a1.5,1.5,0,0,0,0,3Z"/><path class="cls-8" d="M412.65,703.16c-12.68,5.76-25.91-8.38-18-20.39,7.7-11.72,25.2-5.4,25.77,7.81.08,1.92,3.08,1.93,3,0-.69-16.21-22-23.62-31.36-9.33-9.67,14.83,6.91,31.4,22.12,24.49,1.76-.8.23-3.38-1.51-2.59Z"/><circle class="cls-2" cx="469.02" cy="858.94" r="10.74"/><circle class="cls-3" cx="1264.6" cy="528.73" r="8.13"/><path class="cls-2" d="M1048.41,285.54l-14.15,22.78c-1,1.64,1.57,3.15,2.59,1.51L1051,287.05c1-1.64-1.57-3.15-2.59-1.51Z"/><path class="cls-2" d="M1029.19,291.78l24.26,15.07c1.64,1,3.15-1.57,1.51-2.59l-24.26-15.07c-1.64-1-3.15,1.57-1.51,2.59Z"/><path class="cls-4" d="M402.62,333.82,388.47,356.6c-1,1.64,1.57,3.15,2.59,1.51l14.15-22.78c1-1.64-1.57-3.15-2.59-1.51Z"/><path class="cls-4" d="M383.4,340.07l24.26,15.07c1.64,1,3.15-1.57,1.51-2.59l-24.26-15.07c-1.64-1-3.15,1.57-1.51,2.59Z"/><path class="cls-3" d="M1247,820.56l-14.15,22.78c-1,1.64,1.57,3.15,2.59,1.51l14.15-22.78c1-1.64-1.57-3.15-2.59-1.51Z"/><path class="cls-3" d="M1227.73,826.81,1252,841.88c1.64,1,3.15-1.57,1.51-2.59l-24.26-15.07c-1.64-1-3.15,1.57-1.51,2.59Z"/><path class="cls-9" d="M1244.48,350c25,0,50.1-.85,75.1.25,23.09,1,42.89,11.5,56.85,33.44,19.87,31.23,11.74,77.78-17.29,96.9-3.61,2.38-9.76-.3-14.74-.64,1.31-5.39,1.08-13.09,4.18-15.78,16.33-14.18,24-31.62,18.76-54.89-4.5-20.09-21.33-36-42.91-37.21-34.53-1.86-69.16-1.6-103.74-2.07-16.2-.22-32.41.16-48.6-.21-6.84-.16-16.66,2.79-16.33-10.44s10.2-9.57,16.92-9.67c23.93-.34,47.87-.13,71.8-.13Z"/><g id="_Group_" data-name="&lt;Group&gt;" class="cls-10"><path class="cls-3" d="M458.57,281.78h75.24c3.86,0,3.87-6,0-6H458.57c-3.86,0-3.87,6,0,6Z"/></g><path class="cls-11" d="M1205,295.92l-8.91,14.35"/><path class="cls-11" d="M1220,271.67,1211,286.29"/><path class="cls-11" d="M1214,295.85l13.64,8.47"/><path class="cls-11" d="M1186.55,278.78,1201.4,288"/><path class="cls-12" d="M525.53,892.37l-11.22,18.06"/><path class="cls-12" d="M544.49,861.84l-11.43,18.41"/><path class="cls-12" d="M536.92,892.27l17.17,10.66"/><path class="cls-12" d="M502.34,870.79,521,882.4"/><path class="cls-12" d="M523.36,888.2l-20.55,5.47"/><path class="cls-12" d="M558.09,879l-20.94,5.57"/><path class="cls-12" d="M531.73,895.94l5.2,19.53"/><path class="cls-12" d="M521.25,856.59l5.66,21.27"/><path class="cls-13" d="M1332.37,545.33l-11.22,18.06"/><path class="cls-13" d="M1351.34,514.81l-11.43,18.41"/><path class="cls-13" d="M1343.77,545.24l17.17,10.66"/><path class="cls-13" d="M1309.18,523.76l18.7,11.61"/><path class="cls-13" d="M1330.21,541.17l-20.55,5.47"/><path class="cls-13" d="M1364.94,531.92,1344,537.5"/><path class="cls-13" d="M1338.57,548.9l5.2,19.53"/><path class="cls-13" d="M1328.1,509.56l5.66,21.27"/><path class="cls-11" d="M1334.26,714.73l-8.91,14.35"/><path class="cls-11" d="M1349.32,690.48l-9.08,14.62"/><path class="cls-11" d="M1343.31,714.66l13.64,8.47"/><path class="cls-11" d="M1315.84,697.59l14.85,9.23"/><path class="cls-11" d="M392,490.29l-8.91,14.35"/><path class="cls-11" d="M407,466,398,480.66"/><path class="cls-11" d="M401,490.21l13.64,8.47"/><path class="cls-11" d="M373.56,473.15l14.85,9.23"/><text class="cls-14" transform="translate(598.91 1109.45)">XVENTURE</text><path class="cls-15" d="M1211.46,993.16v182.76c0,3.86,6,3.87,6,0V993.16c0-3.86-6-3.87-6,0Z"/><path class="cls-15" d="M1079.37,1139.19h182.76c3.86,0,3.87-6,0-6H1079.37c-3.86,0-3.87,6,0,6Z"/><path class="cls-16" d="M1015.8,1159.06h182.76c3.86,0,3.87-6,0-6H1015.8c-3.86,0-3.87,6,0,6Z"/></g><g id="Layer_2" data-name="Layer 2"><path class="cls-17" d="M704.35,549.47s6.62-28,42.46-31c0,0,31.85,0,61.85,15.5l37,10.5,75-15s39,8,9,34c0,0-83,23-86,23s-42-13-42-13l2,76,73-6s21-3,37,22l51,56s12,52-41,33l-54-57-80.38,9,41.38,67,11,109s-20,47-57,6l-10-100-70.31-107Z"/><path class="cls-16" d="M801.31,735.63l19.1,40.4a5.1,5.1,0,0,1,.46,1.63L830.78,869a5.1,5.1,0,0,1-.86,3.42h0a5.1,5.1,0,0,1-9.2-1.84L799,766.24a5.1,5.1,0,0,0-1.52-2.69L784.88,751.8a5.1,5.1,0,0,1-.48-6.95l8.36-10.26A5.1,5.1,0,0,1,801.31,735.63Z"/><path class="cls-16" d="M820.07,654.94l67-3.3a1.28,1.28,0,0,1,.92,2.22l-7.39,6.72a6.08,6.08,0,0,1-3.85,1.58L817.5,664.6a3.84,3.84,0,0,1-3.66-5.39h0A7.21,7.21,0,0,1,820.07,654.94Z"/><path class="cls-17" d="M1132.33,423.49l-29.3,127-57.06,20-50.07,114,45.44,86-9.25,38-109.38,26v40l-175.9,35.79v25.21h416.35s26.21,0,23.13-16l.25-485.38Z"/><line class="cls-18" x1="926.73" y1="531.29" x2="1021.66" y2="423.47"/><line class="cls-18" x1="823.61" y1="647.83" x2="888.66" y2="574.73"/><line class="cls-18" x1="672.66" y1="925.47" x2="746.81" y2="746.09"/><line class="cls-16" x1="846.61" y1="570.92" x2="926.21" y2="551.88"/><circle class="cls-17" cx="746.81" cy="471.55" r="42.46"/><polygon class="cls-16" points="1053.13 593.88 1098.54 567.07 1113.11 707.18 1053.13 593.88"/><polygon class="cls-16" points="1037.94 714.72 1092.64 711.24 1126.54 776.53 1121.05 821.71 1095.02 789.88 1037.94 714.72"/><polygon class="cls-16" points="984.1 867.89 984.1 836.7 1072.26 816.55 1125.84 776.37 1160.94 816.55 1114.66 845.05 1080.43 894.45 971.3 906.51 984.1 867.89"/><polygon class="cls-16" points="1180.59 448.16 1166.42 448.16 1180.59 910.82 1180.59 448.16"/><polygon class="cls-16" points="784.45 914.74 914.66 901.48 914.66 929.47 755.52 929.47 784.45 914.74"/><path class="cls-16" d="M709.74,552.88l1.33,114.06a10.37,10.37,0,0,0,2.58,6.73l28.61,32.51a10.37,10.37,0,0,0,17.84-4.34L770,662a10.37,10.37,0,0,0-.08-5.31l-31.81-113.3a10.37,10.37,0,0,0-16.52-5.25l-8.06,6.55A10.37,10.37,0,0,0,709.74,552.88Z"/><path class="cls-16" d="M747.18,435.16c11.52,1,24.14,5.95,33.17,20.21a8.94,8.94,0,0,1,.58,1.08c1.59,3.49,8.29,20.73-5,38.34-4.45,5.91-14,.68-12.64-7,2.18-12.72-.63-27.6-19.06-38.43C737.36,445.33,739.57,434.51,747.18,435.16Z"/></g></svg>